0
SECTION
2
HEADER
9
$ACADVER
1
AC1009
9
$INSUNITS
70
4
0
ENDSEC
0
SECTION
2
ENTITIES
0
LINE
8
OUTLINE
10
1.0000
20
0.0000
11
95.0000
21
0.0000
0
LINE
8
OUTLINE
10
96.0000
20
1.0000
11
96.0000
21
63.0000
0
LINE
8
OUTLINE
10
95.0000
20
64.0000
11
1.0000
21
64.0000
0
LINE
8
OUTLINE
10
0.0000
20
63.0000
11
0.0000
21
1.0000
0
ARC
8
OUTLINE
10
1.0000
20
1.0000
40
1.0000
50
180.0000
51
270.0000
0
ARC
8
OUTLINE
10
95.0000
20
1.0000
40
1.0000
50
270.0000
51
360.0000
0
ARC
8
OUTLINE
10
95.0000
20
63.0000
40
1.0000
50
0.0000
51
90.0000
0
ARC
8
OUTLINE
10
1.0000
20
63.0000
40
1.0000
50
90.0000
51
180.0000
0
LINE
8
SWITCHES
10
12.9000
20
47.9000
11
27.1000
21
47.9000
0
LINE
8
SWITCHES
10
27.1000
20
47.9000
11
27.1000
21
62.1000
0
LINE
8
SWITCHES
10
27.1000
20
62.1000
11
12.9000
21
62.1000
0
LINE
8
SWITCHES
10
12.9000
20
62.1000
11
12.9000
21
47.9000
0
LINE
8
COURTYARD
10
10.4750
20
45.4750
11
29.5250
21
45.4750
0
LINE
8
COURTYARD
10
29.5250
20
45.4750
11
29.5250
21
64.5250
0
LINE
8
COURTYARD
10
29.5250
20
64.5250
11
10.4750
21
64.5250
0
LINE
8
COURTYARD
10
10.4750
20
64.5250
11
10.4750
21
45.4750
0
CIRCLE
8
CENTERS
10
20.0000
20
55.0000
40
0.8000
0
TEXT
8
LABELS
10
20.0000
20
54.3000
40
2.2000
1
L
72
1
73
2
11
20.0000
21
54.3000
0
LINE
8
SWITCHES
10
68.9000
20
47.9000
11
83.1000
21
47.9000
0
LINE
8
SWITCHES
10
83.1000
20
47.9000
11
83.1000
21
62.1000
0
LINE
8
SWITCHES
10
83.1000
20
62.1000
11
68.9000
21
62.1000
0
LINE
8
SWITCHES
10
68.9000
20
62.1000
11
68.9000
21
47.9000
0
LINE
8
COURTYARD
10
66.4750
20
45.4750
11
85.5250
21
45.4750
0
LINE
8
COURTYARD
10
85.5250
20
45.4750
11
85.5250
21
64.5250
0
LINE
8
COURTYARD
10
85.5250
20
64.5250
11
66.4750
21
64.5250
0
LINE
8
COURTYARD
10
66.4750
20
64.5250
11
66.4750
21
45.4750
0
CIRCLE
8
CENTERS
10
76.0000
20
55.0000
40
0.8000
0
TEXT
8
LABELS
10
76.0000
20
54.3000
40
2.2000
1
R
72
1
73
2
11
76.0000
21
54.3000
0
LINE
8
TACT
10
39.7500
20
49.7500
11
44.2500
21
49.7500
0
LINE
8
TACT
10
44.2500
20
49.7500
11
44.2500
21
54.2500
0
LINE
8
TACT
10
44.2500
20
54.2500
11
39.7500
21
54.2500
0
LINE
8
TACT
10
39.7500
20
54.2500
11
39.7500
21
49.7500
0
CIRCLE
8
CENTERS
10
42.0000
20
52.0000
40
0.5000
0
TEXT
8
LABELS
10
42.0000
20
46.8000
40
1.8000
1
Sel
72
1
73
2
11
42.0000
21
46.8000
0
LINE
8
TACT
10
51.7500
20
49.7500
11
56.2500
21
49.7500
0
LINE
8
TACT
10
56.2500
20
49.7500
11
56.2500
21
54.2500
0
LINE
8
TACT
10
56.2500
20
54.2500
11
51.7500
21
54.2500
0
LINE
8
TACT
10
51.7500
20
54.2500
11
51.7500
21
49.7500
0
CIRCLE
8
CENTERS
10
54.0000
20
52.0000
40
0.5000
0
TEXT
8
LABELS
10
54.0000
20
46.8000
40
1.8000
1
Sta
72
1
73
2
11
54.0000
21
46.8000
0
LINE
8
SWITCHES
10
15.9000
20
30.9000
11
30.1000
21
30.9000
0
LINE
8
SWITCHES
10
30.1000
20
30.9000
11
30.1000
21
45.1000
0
LINE
8
SWITCHES
10
30.1000
20
45.1000
11
15.9000
21
45.1000
0
LINE
8
SWITCHES
10
15.9000
20
45.1000
11
15.9000
21
30.9000
0
LINE
8
COURTYARD
10
13.4750
20
28.4750
11
32.5250
21
28.4750
0
LINE
8
COURTYARD
10
32.5250
20
28.4750
11
32.5250
21
47.5250
0
LINE
8
COURTYARD
10
32.5250
20
47.5250
11
13.4750
21
47.5250
0
LINE
8
COURTYARD
10
13.4750
20
47.5250
11
13.4750
21
28.4750
0
CIRCLE
8
CENTERS
10
23.0000
20
38.0000
40
0.8000
0
TEXT
8
LABELS
10
23.0000
20
37.3000
40
2.2000
1
UP
72
1
73
2
11
23.0000
21
37.3000
0
LINE
8
SWITCHES
10
64.9000
20
30.9000
11
79.1000
21
30.9000
0
LINE
8
SWITCHES
10
79.1000
20
30.9000
11
79.1000
21
45.1000
0
LINE
8
SWITCHES
10
79.1000
20
45.1000
11
64.9000
21
45.1000
0
LINE
8
SWITCHES
10
64.9000
20
45.1000
11
64.9000
21
30.9000
0
LINE
8
COURTYARD
10
62.4750
20
28.4750
11
81.5250
21
28.4750
0
LINE
8
COURTYARD
10
81.5250
20
28.4750
11
81.5250
21
47.5250
0
LINE
8
COURTYARD
10
81.5250
20
47.5250
11
62.4750
21
47.5250
0
LINE
8
COURTYARD
10
62.4750
20
47.5250
11
62.4750
21
28.4750
0
CIRCLE
8
CENTERS
10
72.0000
20
38.0000
40
0.8000
0
TEXT
8
LABELS
10
72.0000
20
37.3000
40
2.2000
1
Y
72
1
73
2
11
72.0000
21
37.3000
0
LINE
8
SWITCHES
10
1.9000
20
16.9000
11
16.1000
21
16.9000
0
LINE
8
SWITCHES
10
16.1000
20
16.9000
11
16.1000
21
31.1000
0
LINE
8
SWITCHES
10
16.1000
20
31.1000
11
1.9000
21
31.1000
0
LINE
8
SWITCHES
10
1.9000
20
31.1000
11
1.9000
21
16.9000
0
LINE
8
COURTYARD
10
-0.5250
20
14.4750
11
18.5250
21
14.4750
0
LINE
8
COURTYARD
10
18.5250
20
14.4750
11
18.5250
21
33.5250
0
LINE
8
COURTYARD
10
18.5250
20
33.5250
11
-0.5250
21
33.5250
0
LINE
8
COURTYARD
10
-0.5250
20
33.5250
11
-0.5250
21
14.4750
0
CIRCLE
8
CENTERS
10
9.0000
20
24.0000
40
0.8000
0
TEXT
8
LABELS
10
9.0000
20
23.3000
40
2.2000
1
LT
72
1
73
2
11
9.0000
21
23.3000
0
LINE
8
SWITCHES
10
29.9000
20
16.9000
11
44.1000
21
16.9000
0
LINE
8
SWITCHES
10
44.1000
20
16.9000
11
44.1000
21
31.1000
0
LINE
8
SWITCHES
10
44.1000
20
31.1000
11
29.9000
21
31.1000
0
LINE
8
SWITCHES
10
29.9000
20
31.1000
11
29.9000
21
16.9000
0
LINE
8
COURTYARD
10
27.4750
20
14.4750
11
46.5250
21
14.4750
0
LINE
8
COURTYARD
10
46.5250
20
14.4750
11
46.5250
21
33.5250
0
LINE
8
COURTYARD
10
46.5250
20
33.5250
11
27.4750
21
33.5250
0
LINE
8
COURTYARD
10
27.4750
20
33.5250
11
27.4750
21
14.4750
0
CIRCLE
8
CENTERS
10
37.0000
20
24.0000
40
0.8000
0
TEXT
8
LABELS
10
37.0000
20
23.3000
40
2.2000
1
RT
72
1
73
2
11
37.0000
21
23.3000
0
LINE
8
SWITCHES
10
50.9000
20
16.9000
11
65.1000
21
16.9000
0
LINE
8
SWITCHES
10
65.1000
20
16.9000
11
65.1000
21
31.1000
0
LINE
8
SWITCHES
10
65.1000
20
31.1000
11
50.9000
21
31.1000
0
LINE
8
SWITCHES
10
50.9000
20
31.1000
11
50.9000
21
16.9000
0
LINE
8
COURTYARD
10
48.4750
20
14.4750
11
67.5250
21
14.4750
0
LINE
8
COURTYARD
10
67.5250
20
14.4750
11
67.5250
21
33.5250
0
LINE
8
COURTYARD
10
67.5250
20
33.5250
11
48.4750
21
33.5250
0
LINE
8
COURTYARD
10
48.4750
20
33.5250
11
48.4750
21
14.4750
0
CIRCLE
8
CENTERS
10
58.0000
20
24.0000
40
0.8000
0
TEXT
8
LABELS
10
58.0000
20
23.3000
40
2.2000
1
X
72
1
73
2
11
58.0000
21
23.3000
0
LINE
8
SWITCHES
10
78.9000
20
16.9000
11
93.1000
21
16.9000
0
LINE
8
SWITCHES
10
93.1000
20
16.9000
11
93.1000
21
31.1000
0
LINE
8
SWITCHES
10
93.1000
20
31.1000
11
78.9000
21
31.1000
0
LINE
8
SWITCHES
10
78.9000
20
31.1000
11
78.9000
21
16.9000
0
LINE
8
COURTYARD
10
76.4750
20
14.4750
11
95.5250
21
14.4750
0
LINE
8
COURTYARD
10
95.5250
20
14.4750
11
95.5250
21
33.5250
0
LINE
8
COURTYARD
10
95.5250
20
33.5250
11
76.4750
21
33.5250
0
LINE
8
COURTYARD
10
76.4750
20
33.5250
11
76.4750
21
14.4750
0
CIRCLE
8
CENTERS
10
86.0000
20
24.0000
40
0.8000
0
TEXT
8
LABELS
10
86.0000
20
23.3000
40
2.2000
1
A
72
1
73
2
11
86.0000
21
23.3000
0
LINE
8
SWITCHES
10
15.9000
20
2.9000
11
30.1000
21
2.9000
0
LINE
8
SWITCHES
10
30.1000
20
2.9000
11
30.1000
21
17.1000
0
LINE
8
SWITCHES
10
30.1000
20
17.1000
11
15.9000
21
17.1000
0
LINE
8
SWITCHES
10
15.9000
20
17.1000
11
15.9000
21
2.9000
0
LINE
8
COURTYARD
10
13.4750
20
0.4750
11
32.5250
21
0.4750
0
LINE
8
COURTYARD
10
32.5250
20
0.4750
11
32.5250
21
19.5250
0
LINE
8
COURTYARD
10
32.5250
20
19.5250
11
13.4750
21
19.5250
0
LINE
8
COURTYARD
10
13.4750
20
19.5250
11
13.4750
21
0.4750
0
CIRCLE
8
CENTERS
10
23.0000
20
10.0000
40
0.8000
0
TEXT
8
LABELS
10
23.0000
20
9.3000
40
2.2000
1
DN
72
1
73
2
11
23.0000
21
9.3000
0
LINE
8
SWITCHES
10
64.9000
20
2.9000
11
79.1000
21
2.9000
0
LINE
8
SWITCHES
10
79.1000
20
2.9000
11
79.1000
21
17.1000
0
LINE
8
SWITCHES
10
79.1000
20
17.1000
11
64.9000
21
17.1000
0
LINE
8
SWITCHES
10
64.9000
20
17.1000
11
64.9000
21
2.9000
0
LINE
8
COURTYARD
10
62.4750
20
0.4750
11
81.5250
21
0.4750
0
LINE
8
COURTYARD
10
81.5250
20
0.4750
11
81.5250
21
19.5250
0
LINE
8
COURTYARD
10
81.5250
20
19.5250
11
62.4750
21
19.5250
0
LINE
8
COURTYARD
10
62.4750
20
19.5250
11
62.4750
21
0.4750
0
CIRCLE
8
CENTERS
10
72.0000
20
10.0000
40
0.8000
0
TEXT
8
LABELS
10
72.0000
20
9.3000
40
2.2000
1
B
72
1
73
2
11
72.0000
21
9.3000
0
ENDSEC
0
EOF
