  0
SECTION
  2
HEADER
  9
$ANGBASE
  50
0.0
  9
$ANGDIR
  70
1
  9
$MEASUREMENT
  70
1
  0
ENDSEC
  0
SECTION
  2
TABLES
  0
TABLE
  2
LTYPE
  70
4
  0
LTYPE
  5
40F
  2
CONTINUOUS
  70
0
  3
Solid line
  72
65
  73
0
  40
0.0
  0
LTYPE
  5
410
  2
DASHDOT
 70
0
  3
Dash Dot ____ _ ____ _
 72
65
 73
4
 40
2.0
 49
1.25
 49
-0.25
 49
0.25
 49
-0.25
  0
LTYPE
  5
411
  2
DASHED
 70
0
  3
Dashed __ __ __ __ __
 72
65
 73
2
 40
0.75
 49
0.5
 49
-0.25
  0
LTYPE
  5
43B
  2
DOTTED
 70
0
  3
Dotted .  .  .  .
 72
65
 73
2
 40
0.2
 49
0.0
 49
-0.2
  0
ENDTAB
  0
TABLE
  2
STYLE
  70
4
  0
STYLE
  2
KICAD
  70
0
  40
0
  41
1
  42
1
  50
0
  71
0
  3
isocp.shx
  0
STYLE
  2
KICADB
  70
0
  40
0
  41
1
  42
1
  50
0
  71
0
  3
isocp.shx
  0
STYLE
  2
KICADI
  70
0
  40
0
  41
1
  42
1
  50
15
  71
0
  3
isocp.shx
  0
STYLE
  2
KICADBI
  70
0
  40
0
  41
1
  42
1
  50
15
  71
0
  3
isocp.shx
  0
ENDTAB
  0
TABLE
  2
LAYER
  70
35
  0
LAYER
  2
BLACK
  70
0
  62
7
  6
CONTINUOUS
  0
LAYER
  2
GRAY1
  70
0
  62
251
  6
CONTINUOUS
  0
LAYER
  2
GRAY2
  70
0
  62
8
  6
CONTINUOUS
  0
LAYER
  2
GRAY3
  70
0
  62
9
  6
CONTINUOUS
  0
LAYER
  2
WHITE
  70
0
  62
7
  6
CONTINUOUS
  0
LAYER
  2
LYELLOW
  70
0
  62
51
  6
CONTINUOUS
  0
LAYER
  2
LORANGE
  70
0
  62
41
  6
CONTINUOUS
  0
LAYER
  2
BLUE1
  70
0
  62
178
  6
CONTINUOUS
  0
LAYER
  2
GREEN1
  70
0
  62
98
  6
CONTINUOUS
  0
LAYER
  2
CYAN1
  70
0
  62
138
  6
CONTINUOUS
  0
LAYER
  2
RED1
  70
0
  62
18
  6
CONTINUOUS
  0
LAYER
  2
MAGENTA1
  70
0
  62
228
  6
CONTINUOUS
  0
LAYER
  2
BROWN1
  70
0
  62
58
  6
CONTINUOUS
  0
LAYER
  2
ORANGE1
  70
0
  62
34
  6
CONTINUOUS
  0
LAYER
  2
BLUE2
  70
0
  62
5
  6
CONTINUOUS
  0
LAYER
  2
GREEN2
  70
0
  62
3
  6
CONTINUOUS
  0
LAYER
  2
CYAN2
  70
0
  62
4
  6
CONTINUOUS
  0
LAYER
  2
RED2
  70
0
  62
1
  6
CONTINUOUS
  0
LAYER
  2
MAGENTA2
  70
0
  62
6
  6
CONTINUOUS
  0
LAYER
  2
BROWN2
  70
0
  62
54
  6
CONTINUOUS
  0
LAYER
  2
ORANGE2
  70
0
  62
42
  6
CONTINUOUS
  0
LAYER
  2
BLUE3
  70
0
  62
171
  6
CONTINUOUS
  0
LAYER
  2
GREEN3
  70
0
  62
91
  6
CONTINUOUS
  0
LAYER
  2
CYAN3
  70
0
  62
131
  6
CONTINUOUS
  0
LAYER
  2
RED3
  70
0
  62
11
  6
CONTINUOUS
  0
LAYER
  2
MAGENTA3
  70
0
  62
221
  6
CONTINUOUS
  0
LAYER
  2
YELLOW3
  70
0
  62
2
  6
CONTINUOUS
  0
LAYER
  2
ORANGE3
  70
0
  62
32
  6
CONTINUOUS
  0
LAYER
  2
BLUE4
  70
0
  62
5
  6
CONTINUOUS
  0
LAYER
  2
GREEN4
  70
0
  62
3
  6
CONTINUOUS
  0
LAYER
  2
CYAN4
  70
0
  62
4
  6
CONTINUOUS
  0
LAYER
  2
RED4
  70
0
  62
1
  6
CONTINUOUS
  0
LAYER
  2
MAGENTA4
  70
0
  62
6
  6
CONTINUOUS
  0
LAYER
  2
YELLOW4
  70
0
  62
2
  6
CONTINUOUS
  0
LAYER
  2
ORANGE4
  70
0
  62
40
  6
CONTINUOUS
  0
ENDTAB
  0
ENDSEC
  0
SECTION
  2
ENTITIES
0
LINE
8
WHITE
6
CONTINUOUS
10
1.
20
0.
11
95.
21
0.
0
LINE
8
WHITE
6
CONTINUOUS
10
95.
20
-64.
11
1.
21
-64.
0
ARC
8
WHITE
10
1.
20
-1.
40
1.
50
90.00000000
51
180.00000000
0
LINE
8
WHITE
6
CONTINUOUS
10
96.
20
-1.
11
96.
21
-63.
0
ARC
8
WHITE
10
1.
20
-63.
40
1.
50
-180.00000000
51
-90.00000000
0
ARC
8
WHITE
10
95.
20
-1.
40
1.
50
0.00000000
51
90.00000000
0
LINE
8
WHITE
6
CONTINUOUS
10
0.
20
-63.
11
0.
21
-1.
0
ARC
8
WHITE
10
95.
20
-63.
40
1.
50
-90.00000000
51
-0.00000000
0
LINE
8
LYELLOW
6
CONTINUOUS
10
67.0952369999999974
20
-8.9148379999999996
11
66.4285699999999935
21
-7.9624569999999997
0
LINE
8
LYELLOW
6
CONTINUOUS
10
65.9523799999999909
20
-8.9148379999999996
11
65.9523799999999909
21
-6.9148379999999996
0
LINE
8
LYELLOW
6
CONTINUOUS
10
65.9523799999999909
20
-6.9148379999999996
11
66.7142850000000038
21
-6.9148379999999996
0
LINE
8
LYELLOW
6
CONTINUOUS
10
66.7142850000000038
20
-6.9148379999999996
11
66.9047609999999935
21
-7.0100759999999998
0
LINE
8
LYELLOW
6
CONTINUOUS
10
66.9047609999999935
20
-7.0100759999999998
11
66.9999990000000025
21
-7.1053139999999999
0
LINE
8
LYELLOW
6
CONTINUOUS
10
66.9999990000000025
20
-7.1053139999999999
11
67.0952369999999974
21
-7.2957899999999993
0
LINE
8
LYELLOW
6
CONTINUOUS
10
67.0952369999999974
20
-7.2957899999999993
11
67.0952369999999974
21
-7.5815039999999998
0
LINE
8
LYELLOW
6
CONTINUOUS
10
67.0952369999999974
20
-7.5815039999999998
11
66.9999990000000025
21
-7.7719799999999992
0
LINE
8
LYELLOW
6
CONTINUOUS
10
66.9999990000000025
20
-7.7719799999999992
11
66.9047609999999935
21
-7.8672189999999995
0
LINE
8
LYELLOW
6
CONTINUOUS
10
66.9047609999999935
20
-7.8672189999999995
11
66.7142850000000038
21
-7.9624569999999997
0
LINE
8
LYELLOW
6
CONTINUOUS
10
66.7142850000000038
20
-7.9624569999999997
11
65.9523799999999909
21
-7.9624569999999997
0
LINE
8
LYELLOW
6
CONTINUOUS
10
67.9523799999999909
20
-7.8672189999999995
11
68.6190469999999948
21
-7.8672189999999995
0
LINE
8
LYELLOW
6
CONTINUOUS
10
68.9047609999999935
20
-8.9148379999999996
11
67.9523799999999909
21
-8.9148379999999996
0
LINE
8
LYELLOW
6
CONTINUOUS
10
67.9523799999999909
20
-8.9148379999999996
11
67.9523799999999909
21
-6.9148379999999996
0
LINE
8
LYELLOW
6
CONTINUOUS
10
67.9523799999999909
20
-6.9148379999999996
11
68.9047609999999935
21
-6.9148379999999996
0
LINE
8
LYELLOW
6
CONTINUOUS
10
69.7619040000000012
20
-8.9148379999999996
11
69.7619040000000012
21
-6.9148379999999996
0
LINE
8
LYELLOW
6
CONTINUOUS
10
69.7619040000000012
20
-6.9148379999999996
11
70.2380940000000038
21
-6.9148379999999996
0
LINE
8
LYELLOW
6
CONTINUOUS
10
70.2380940000000038
20
-6.9148379999999996
11
70.523809
21
-7.0100759999999998
0
LINE
8
LYELLOW
6
CONTINUOUS
10
70.523809
20
-7.0100759999999998
11
70.7142850000000038
21
-7.2005520000000001
0
LINE
8
LYELLOW
6
CONTINUOUS
10
70.7142850000000038
20
-7.2005520000000001
11
70.8095229999999987
21
-7.3910279999999995
0
LINE
8
LYELLOW
6
CONTINUOUS
10
70.8095229999999987
20
-7.3910279999999995
11
70.9047609999999935
21
-7.7719799999999992
0
LINE
8
LYELLOW
6
CONTINUOUS
10
70.9047609999999935
20
-7.7719799999999992
11
70.9047609999999935
21
-8.0576949999999989
0
LINE
8
LYELLOW
6
CONTINUOUS
10
70.9047609999999935
20
-8.0576949999999989
11
70.8095229999999987
21
-8.4386469999999996
0
LINE
8
LYELLOW
6
CONTINUOUS
10
70.8095229999999987
20
-8.4386469999999996
11
70.7142850000000038
21
-8.6291229999999999
0
LINE
8
LYELLOW
6
CONTINUOUS
10
70.7142850000000038
20
-8.6291229999999999
11
70.523809
21
-8.8195999999999994
0
LINE
8
LYELLOW
6
CONTINUOUS
10
70.523809
20
-8.8195999999999994
11
70.2380940000000038
21
-8.9148379999999996
0
LINE
8
LYELLOW
6
CONTINUOUS
10
70.2380940000000038
20
-8.9148379999999996
11
69.7619040000000012
21
-8.9148379999999996
0
LINE
8
LYELLOW
6
CONTINUOUS
10
72.4285709999999909
20
-7.8672189999999995
11
72.7142849999999896
21
-7.9624569999999997
0
LINE
8
LYELLOW
6
CONTINUOUS
10
72.7142849999999896
20
-7.9624569999999997
11
72.8095229999999987
21
-8.0576949999999989
0
LINE
8
LYELLOW
6
CONTINUOUS
10
72.8095229999999987
20
-8.0576949999999989
11
72.9047609999999935
21
-8.2481709999999993
0
LINE
8
LYELLOW
6
CONTINUOUS
10
72.9047609999999935
20
-8.2481709999999993
11
72.9047609999999935
21
-8.5338849999999997
0
LINE
8
LYELLOW
6
CONTINUOUS
10
72.9047609999999935
20
-8.5338849999999997
11
72.8095229999999987
21
-8.724361
0
LINE
8
LYELLOW
6
CONTINUOUS
10
72.8095229999999987
20
-8.724361
11
72.7142849999999896
21
-8.8195999999999994
0
LINE
8
LYELLOW
6
CONTINUOUS
10
72.7142849999999896
20
-8.8195999999999994
11
72.523809
21
-8.9148379999999996
0
LINE
8
LYELLOW
6
CONTINUOUS
10
72.523809
20
-8.9148379999999996
11
71.7619040000000012
21
-8.9148379999999996
0
LINE
8
LYELLOW
6
CONTINUOUS
10
71.7619040000000012
20
-8.9148379999999996
11
71.7619040000000012
21
-6.9148379999999996
0
LINE
8
LYELLOW
6
CONTINUOUS
10
71.7619040000000012
20
-6.9148379999999996
11
72.4285709999999909
21
-6.9148379999999996
0
LINE
8
LYELLOW
6
CONTINUOUS
10
72.4285709999999909
20
-6.9148379999999996
11
72.6190469999999948
21
-7.0100759999999998
0
LINE
8
LYELLOW
6
CONTINUOUS
10
72.6190469999999948
20
-7.0100759999999998
11
72.7142849999999896
21
-7.1053139999999999
0
LINE
8
LYELLOW
6
CONTINUOUS
10
72.7142849999999896
20
-7.1053139999999999
11
72.8095229999999987
21
-7.2957899999999993
0
LINE
8
LYELLOW
6
CONTINUOUS
10
72.8095229999999987
20
-7.2957899999999993
11
72.8095229999999987
21
-7.4862659999999996
0
LINE
8
LYELLOW
6
CONTINUOUS
10
72.8095229999999987
20
-7.4862659999999996
11
72.7142849999999896
21
-7.676742
0
LINE
8
LYELLOW
6
CONTINUOUS
10
72.7142849999999896
20
-7.676742
11
72.6190469999999948
21
-7.7719799999999992
0
LINE
8
LYELLOW
6
CONTINUOUS
10
72.6190469999999948
20
-7.7719799999999992
11
72.4285709999999909
21
-7.8672189999999995
0
LINE
8
LYELLOW
6
CONTINUOUS
10
72.4285709999999909
20
-7.8672189999999995
11
71.7619040000000012
21
-7.8672189999999995
0
LINE
8
LYELLOW
6
CONTINUOUS
10
73.7619040000000012
20
-7.8672189999999995
11
74.4285709999999909
21
-7.8672189999999995
0
LINE
8
LYELLOW
6
CONTINUOUS
10
74.7142849999999896
20
-8.9148379999999996
11
73.7619040000000012
21
-8.9148379999999996
0
LINE
8
LYELLOW
6
CONTINUOUS
10
73.7619040000000012
20
-8.9148379999999996
11
73.7619040000000012
21
-6.9148379999999996
0
LINE
8
LYELLOW
6
CONTINUOUS
10
73.7619040000000012
20
-6.9148379999999996
11
74.7142849999999896
21
-6.9148379999999996
0
LINE
8
LYELLOW
6
CONTINUOUS
10
75.4761900000000026
20
-8.3434089999999994
11
76.4285709999999909
21
-8.3434089999999994
0
LINE
8
LYELLOW
6
CONTINUOUS
10
75.2857139999999987
20
-8.9148379999999996
11
75.9523799999999909
21
-6.9148379999999996
0
LINE
8
LYELLOW
6
CONTINUOUS
10
75.9523799999999909
20
-6.9148379999999996
11
76.6190469999999948
21
-8.9148379999999996
0
LINE
8
LYELLOW
6
CONTINUOUS
10
78.4285709999999909
20
-8.9148379999999996
11
77.7619040000000012
21
-7.9624569999999997
0
LINE
8
LYELLOW
6
CONTINUOUS
10
77.2857139999999987
20
-8.9148379999999996
11
77.2857139999999987
21
-6.9148379999999996
0
LINE
8
LYELLOW
6
CONTINUOUS
10
77.2857139999999987
20
-6.9148379999999996
11
78.0476189999999974
21
-6.9148379999999996
0
LINE
8
LYELLOW
6
CONTINUOUS
10
78.0476189999999974
20
-6.9148379999999996
11
78.2380950000000013
21
-7.0100759999999998
0
LINE
8
LYELLOW
6
CONTINUOUS
10
78.2380950000000013
20
-7.0100759999999998
11
78.3333329999999961
21
-7.1053139999999999
0
LINE
8
LYELLOW
6
CONTINUOUS
10
78.3333329999999961
20
-7.1053139999999999
11
78.4285709999999909
21
-7.2957899999999993
0
LINE
8
LYELLOW
6
CONTINUOUS
10
78.4285709999999909
20
-7.2957899999999993
11
78.4285709999999909
21
-7.5815039999999998
0
LINE
8
LYELLOW
6
CONTINUOUS
10
78.4285709999999909
20
-7.5815039999999998
11
78.3333329999999961
21
-7.7719799999999992
0
LINE
8
LYELLOW
6
CONTINUOUS
10
78.3333329999999961
20
-7.7719799999999992
11
78.2380950000000013
21
-7.8672189999999995
0
LINE
8
LYELLOW
6
CONTINUOUS
10
78.2380950000000013
20
-7.8672189999999995
11
78.0476189999999974
21
-7.9624569999999997
0
LINE
8
LYELLOW
6
CONTINUOUS
10
78.0476189999999974
20
-7.9624569999999997
11
77.2857139999999987
21
-7.9624569999999997
0
LINE
8
LYELLOW
6
CONTINUOUS
10
79.2857139999999987
20
-8.9148379999999996
11
79.2857139999999987
21
-6.9148379999999996
0
LINE
8
LYELLOW
6
CONTINUOUS
10
79.2857139999999987
20
-6.9148379999999996
11
80.0476189999999974
21
-6.9148379999999996
0
LINE
8
LYELLOW
6
CONTINUOUS
10
80.0476189999999974
20
-6.9148379999999996
11
80.2380950000000013
21
-7.0100759999999998
0
LINE
8
LYELLOW
6
CONTINUOUS
10
80.2380950000000013
20
-7.0100759999999998
11
80.3333329999999961
21
-7.1053139999999999
0
LINE
8
LYELLOW
6
CONTINUOUS
10
80.3333329999999961
20
-7.1053139999999999
11
80.4285709999999909
21
-7.2957899999999993
0
LINE
8
LYELLOW
6
CONTINUOUS
10
80.4285709999999909
20
-7.2957899999999993
11
80.4285709999999909
21
-7.5815039999999998
0
LINE
8
LYELLOW
6
CONTINUOUS
10
80.4285709999999909
20
-7.5815039999999998
11
80.3333329999999961
21
-7.7719799999999992
0
LINE
8
LYELLOW
6
CONTINUOUS
10
80.3333329999999961
20
-7.7719799999999992
11
80.2380950000000013
21
-7.8672189999999995
0
LINE
8
LYELLOW
6
CONTINUOUS
10
80.2380950000000013
20
-7.8672189999999995
11
80.0476189999999974
21
-7.9624569999999997
0
LINE
8
LYELLOW
6
CONTINUOUS
10
80.0476189999999974
20
-7.9624569999999997
11
79.2857139999999987
21
-7.9624569999999997
0
LINE
8
LYELLOW
6
CONTINUOUS
10
81.1904759999999897
20
-8.3434089999999994
11
82.1428569999999922
21
-8.3434089999999994
0
LINE
8
LYELLOW
6
CONTINUOUS
10
81.
20
-8.9148379999999996
11
81.6666659999999922
21
-6.9148379999999996
0
LINE
8
LYELLOW
6
CONTINUOUS
10
81.6666659999999922
20
-6.9148379999999996
11
82.3333329999999961
21
-8.9148379999999996
0
LINE
8
LYELLOW
6
CONTINUOUS
10
83.
20
-8.9148379999999996
11
83.
21
-6.9148379999999996
0
LINE
8
LYELLOW
6
CONTINUOUS
10
83.
20
-6.9148379999999996
11
83.4761900000000026
21
-6.9148379999999996
0
LINE
8
LYELLOW
6
CONTINUOUS
10
83.4761900000000026
20
-6.9148379999999996
11
83.7619049999999987
21
-7.0100759999999998
0
LINE
8
LYELLOW
6
CONTINUOUS
10
83.7619049999999987
20
-7.0100759999999998
11
83.9523810000000026
21
-7.2005520000000001
0
LINE
8
LYELLOW
6
CONTINUOUS
10
83.9523810000000026
20
-7.2005520000000001
11
84.0476189999999974
21
-7.3910279999999995
0
LINE
8
LYELLOW
6
CONTINUOUS
10
84.0476189999999974
20
-7.3910279999999995
11
84.1428569999999922
21
-7.7719799999999992
0
LINE
8
LYELLOW
6
CONTINUOUS
10
84.1428569999999922
20
-7.7719799999999992
11
84.1428569999999922
21
-8.0576949999999989
0
LINE
8
LYELLOW
6
CONTINUOUS
10
84.1428569999999922
20
-8.0576949999999989
11
84.0476189999999974
21
-8.4386469999999996
0
LINE
8
LYELLOW
6
CONTINUOUS
10
84.0476189999999974
20
-8.4386469999999996
11
83.9523810000000026
21
-8.6291229999999999
0
LINE
8
LYELLOW
6
CONTINUOUS
10
83.9523810000000026
20
-8.6291229999999999
11
83.7619049999999987
21
-8.8195999999999994
0
LINE
8
LYELLOW
6
CONTINUOUS
10
83.7619049999999987
20
-8.8195999999999994
11
83.4761900000000026
21
-8.9148379999999996
0
LINE
8
LYELLOW
6
CONTINUOUS
10
83.4761900000000026
20
-8.9148379999999996
11
83.
21
-8.9148379999999996
0
LINE
8
LYELLOW
6
CONTINUOUS
10
33.6666669999999968
20
-40.404599999999995
11
33.8095239999999961
21
-40.4522189999999995
0
LINE
8
LYELLOW
6
CONTINUOUS
10
33.8095239999999961
20
-40.4522189999999995
11
34.0476189999999974
21
-40.4522189999999995
0
LINE
8
LYELLOW
6
CONTINUOUS
10
34.0476189999999974
20
-40.4522189999999995
11
34.1428569999999993
21
-40.404599999999995
0
LINE
8
LYELLOW
6
CONTINUOUS
10
34.1428569999999993
20
-40.404599999999995
11
34.1904759999999968
21
-40.3569800000000001
0
LINE
8
LYELLOW
6
CONTINUOUS
10
34.1904759999999968
20
-40.3569800000000001
11
34.2380950000000013
21
-40.2617419999999981
0
LINE
8
LYELLOW
6
CONTINUOUS
10
34.2380950000000013
20
-40.2617419999999981
11
34.2380950000000013
21
-40.1665039999999962
0
LINE
8
LYELLOW
6
CONTINUOUS
10
34.2380950000000013
20
-40.1665039999999962
11
34.1904759999999968
21
-40.0712660000000014
0
LINE
8
LYELLOW
6
CONTINUOUS
10
34.1904759999999968
20
-40.0712660000000014
11
34.1428569999999993
21
-40.0236469999999969
0
LINE
8
LYELLOW
6
CONTINUOUS
10
34.1428569999999993
20
-40.0236469999999969
11
34.0476189999999974
21
-39.9760279999999995
0
LINE
8
LYELLOW
6
CONTINUOUS
10
34.0476189999999974
20
-39.9760279999999995
11
33.8571430000000007
21
-39.9284089999999949
0
LINE
8
LYELLOW
6
CONTINUOUS
10
33.8571430000000007
20
-39.9284089999999949
11
33.7619049999999987
21
-39.8807899999999975
0
LINE
8
LYELLOW
6
CONTINUOUS
10
33.7619049999999987
20
-39.8807899999999975
11
33.7142860000000013
21
-39.8331710000000001
0
LINE
8
LYELLOW
6
CONTINUOUS
10
33.7142860000000013
20
-39.8331710000000001
11
33.6666669999999968
21
-39.7379329999999982
0
LINE
8
LYELLOW
6
CONTINUOUS
10
33.6666669999999968
20
-39.7379329999999982
11
33.6666669999999968
21
-39.6426949999999962
0
LINE
8
LYELLOW
6
CONTINUOUS
10
33.6666669999999968
20
-39.6426949999999962
11
33.7142860000000013
21
-39.5474570000000014
0
LINE
8
LYELLOW
6
CONTINUOUS
10
33.7142860000000013
20
-39.5474570000000014
11
33.7619049999999987
21
-39.4998379999999969
0
LINE
8
LYELLOW
6
CONTINUOUS
10
33.7619049999999987
20
-39.4998379999999969
11
33.8571430000000007
21
-39.4522189999999995
0
LINE
8
LYELLOW
6
CONTINUOUS
10
33.8571430000000007
20
-39.4522189999999995
11
34.0952380000000019
21
-39.4522189999999995
0
LINE
8
LYELLOW
6
CONTINUOUS
10
34.0952380000000019
20
-39.4522189999999995
11
34.2380950000000013
21
-39.4998379999999969
0
LINE
8
LYELLOW
6
CONTINUOUS
10
34.571429000000002
20
-39.4522189999999995
11
34.8095239999999961
21
-40.4522189999999995
0
LINE
8
LYELLOW
6
CONTINUOUS
10
34.8095239999999961
20
-40.4522189999999995
11
35.
21
-39.7379329999999982
0
LINE
8
LYELLOW
6
CONTINUOUS
10
35.
20
-39.7379329999999982
11
35.1904759999999968
21
-40.4522189999999995
0
LINE
8
LYELLOW
6
CONTINUOUS
10
35.1904759999999968
20
-40.4522189999999995
11
35.4285719999999955
21
-39.4522189999999995
0
LINE
8
LYELLOW
6
CONTINUOUS
10
36.2380950000000013
20
-39.7855519999999956
11
36.2380950000000013
21
-40.4522189999999995
0
LINE
8
LYELLOW
6
CONTINUOUS
10
36.
20
-39.404599999999995
11
35.7619049999999987
21
-40.1188849999999988
0
LINE
8
LYELLOW
6
CONTINUOUS
10
35.7619049999999987
20
-40.1188849999999988
11
36.3809520000000006
21
-40.1188849999999988
0
LINE
8
LYELLOW
6
CONTINUOUS
10
14.6666669999999986
20
-40.2045999999999992
11
14.8095239999999997
21
-40.2522189999999966
0
LINE
8
LYELLOW
6
CONTINUOUS
10
14.8095239999999997
20
-40.2522189999999966
11
15.0476189999999992
21
-40.2522189999999966
0
LINE
8
LYELLOW
6
CONTINUOUS
10
15.0476189999999992
20
-40.2522189999999966
11
15.1428569999999993
21
-40.2045999999999992
0
LINE
8
LYELLOW
6
CONTINUOUS
10
15.1428569999999993
20
-40.2045999999999992
11
15.1904759999999985
21
-40.1569799999999972
0
LINE
8
LYELLOW
6
CONTINUOUS
10
15.1904759999999985
20
-40.1569799999999972
11
15.2380949999999995
21
-40.0617419999999953
0
LINE
8
LYELLOW
6
CONTINUOUS
10
15.2380949999999995
20
-40.0617419999999953
11
15.2380949999999995
21
-39.9665040000000005
0
LINE
8
LYELLOW
6
CONTINUOUS
10
15.2380949999999995
20
-39.9665040000000005
11
15.1904759999999985
21
-39.8712659999999985
0
LINE
8
LYELLOW
6
CONTINUOUS
10
15.1904759999999985
20
-39.8712659999999985
11
15.1428569999999993
21
-39.8236470000000011
0
LINE
8
LYELLOW
6
CONTINUOUS
10
15.1428569999999993
20
-39.8236470000000011
11
15.0476189999999992
21
-39.7760279999999966
0
LINE
8
LYELLOW
6
CONTINUOUS
10
15.0476189999999992
20
-39.7760279999999966
11
14.8571429999999989
21
-39.7284089999999992
0
LINE
8
LYELLOW
6
CONTINUOUS
10
14.8571429999999989
20
-39.7284089999999992
11
14.7619049999999987
21
-39.6807899999999947
0
LINE
8
LYELLOW
6
CONTINUOUS
10
14.7619049999999987
20
-39.6807899999999947
11
14.7142859999999995
21
-39.6331709999999973
0
LINE
8
LYELLOW
6
CONTINUOUS
10
14.7142859999999995
20
-39.6331709999999973
11
14.6666669999999986
21
-39.5379329999999953
0
LINE
8
LYELLOW
6
CONTINUOUS
10
14.6666669999999986
20
-39.5379329999999953
11
14.6666669999999986
21
-39.4426950000000005
0
LINE
8
LYELLOW
6
CONTINUOUS
10
14.6666669999999986
20
-39.4426950000000005
11
14.7142859999999995
21
-39.3474569999999986
0
LINE
8
LYELLOW
6
CONTINUOUS
10
14.7142859999999995
20
-39.3474569999999986
11
14.7619049999999987
21
-39.2998380000000012
0
LINE
8
LYELLOW
6
CONTINUOUS
10
14.7619049999999987
20
-39.2998380000000012
11
14.8571429999999989
21
-39.2522189999999966
0
LINE
8
LYELLOW
6
CONTINUOUS
10
14.8571429999999989
20
-39.2522189999999966
11
15.0952380000000002
21
-39.2522189999999966
0
LINE
8
LYELLOW
6
CONTINUOUS
10
15.0952380000000002
20
-39.2522189999999966
11
15.2380949999999995
21
-39.2998380000000012
0
LINE
8
LYELLOW
6
CONTINUOUS
10
15.5714289999999984
20
-39.2522189999999966
11
15.8095239999999997
21
-40.2522189999999966
0
LINE
8
LYELLOW
6
CONTINUOUS
10
15.8095239999999997
20
-40.2522189999999966
11
16.
21
-39.5379329999999953
0
LINE
8
LYELLOW
6
CONTINUOUS
10
16.
20
-39.5379329999999953
11
16.1904760000000003
21
-40.2522189999999966
0
LINE
8
LYELLOW
6
CONTINUOUS
10
16.1904760000000003
20
-40.2522189999999966
11
16.4285719999999991
21
-39.2522189999999966
0
LINE
8
LYELLOW
6
CONTINUOUS
10
16.7142859999999978
20
-39.2522189999999966
11
17.3333329999999997
21
-39.2522189999999966
0
LINE
8
LYELLOW
6
CONTINUOUS
10
17.3333329999999997
20
-39.2522189999999966
11
17.
21
-39.6331709999999973
0
LINE
8
LYELLOW
6
CONTINUOUS
10
17.
20
-39.6331709999999973
11
17.1428569999999993
21
-39.6331709999999973
0
LINE
8
LYELLOW
6
CONTINUOUS
10
17.1428569999999993
20
-39.6331709999999973
11
17.2380949999999977
21
-39.6807899999999947
0
LINE
8
LYELLOW
6
CONTINUOUS
10
17.2380949999999977
20
-39.6807899999999947
11
17.2857139999999987
21
-39.7284089999999992
0
LINE
8
LYELLOW
6
CONTINUOUS
10
17.2857139999999987
20
-39.7284089999999992
11
17.3333329999999997
21
-39.8236470000000011
0
LINE
8
LYELLOW
6
CONTINUOUS
10
17.3333329999999997
20
-39.8236470000000011
11
17.3333329999999997
21
-40.0617419999999953
0
LINE
8
LYELLOW
6
CONTINUOUS
10
17.3333329999999997
20
-40.0617419999999953
11
17.2857139999999987
21
-40.1569799999999972
0
LINE
8
LYELLOW
6
CONTINUOUS
10
17.2857139999999987
20
-40.1569799999999972
11
17.2380949999999977
21
-40.2045999999999992
0
LINE
8
LYELLOW
6
CONTINUOUS
10
17.2380949999999977
20
-40.2045999999999992
11
17.1428569999999993
21
-40.2522189999999966
0
LINE
8
LYELLOW
6
CONTINUOUS
10
17.1428569999999993
20
-40.2522189999999966
11
16.8571430000000007
21
-40.2522189999999966
0
LINE
8
LYELLOW
6
CONTINUOUS
10
16.8571430000000007
20
-40.2522189999999966
11
16.7619049999999987
21
-40.2045999999999992
0
LINE
8
LYELLOW
6
CONTINUOUS
10
16.7619049999999987
20
-40.2045999999999992
11
16.7142859999999978
21
-40.1569799999999972
0
LINE
8
LYELLOW
6
CONTINUOUS
10
62.6666669999999968
20
-24.2045999999999992
11
62.8095239999999961
21
-24.2522190000000002
0
LINE
8
LYELLOW
6
CONTINUOUS
10
62.8095239999999961
20
-24.2522190000000002
11
63.0476189999999974
21
-24.2522190000000002
0
LINE
8
LYELLOW
6
CONTINUOUS
10
63.0476189999999974
20
-24.2522190000000002
11
63.1428569999999993
21
-24.2045999999999992
0
LINE
8
LYELLOW
6
CONTINUOUS
10
63.1428569999999993
20
-24.2045999999999992
11
63.1904759999999968
21
-24.1569799999999972
0
LINE
8
LYELLOW
6
CONTINUOUS
10
63.1904759999999968
20
-24.1569799999999972
11
63.2380949999999942
21
-24.0617419999999989
0
LINE
8
LYELLOW
6
CONTINUOUS
10
63.2380949999999942
20
-24.0617419999999989
11
63.2380949999999942
21
-23.9665040000000005
0
LINE
8
LYELLOW
6
CONTINUOUS
10
63.2380949999999942
20
-23.9665040000000005
11
63.1904759999999968
21
-23.8712659999999985
0
LINE
8
LYELLOW
6
CONTINUOUS
10
63.1904759999999968
20
-23.8712659999999985
11
63.1428569999999993
21
-23.8236469999999976
0
LINE
8
LYELLOW
6
CONTINUOUS
10
63.1428569999999993
20
-23.8236469999999976
11
63.0476189999999974
21
-23.7760280000000002
0
LINE
8
LYELLOW
6
CONTINUOUS
10
63.0476189999999974
20
-23.7760280000000002
11
62.8571430000000007
21
-23.7284089999999992
0
LINE
8
LYELLOW
6
CONTINUOUS
10
62.8571430000000007
20
-23.7284089999999992
11
62.7619049999999987
21
-23.6807899999999982
0
LINE
8
LYELLOW
6
CONTINUOUS
10
62.7619049999999987
20
-23.6807899999999982
11
62.7142859999999942
21
-23.6331709999999973
0
LINE
8
LYELLOW
6
CONTINUOUS
10
62.7142859999999942
20
-23.6331709999999973
11
62.6666669999999968
21
-23.5379329999999989
0
LINE
8
LYELLOW
6
CONTINUOUS
10
62.6666669999999968
20
-23.5379329999999989
11
62.6666669999999968
21
-23.4426950000000005
0
LINE
8
LYELLOW
6
CONTINUOUS
10
62.6666669999999968
20
-23.4426950000000005
11
62.7142859999999942
21
-23.3474569999999986
0
LINE
8
LYELLOW
6
CONTINUOUS
10
62.7142859999999942
20
-23.3474569999999986
11
62.7619049999999987
21
-23.2998379999999976
0
LINE
8
LYELLOW
6
CONTINUOUS
10
62.7619049999999987
20
-23.2998379999999976
11
62.8571430000000007
21
-23.2522190000000002
0
LINE
8
LYELLOW
6
CONTINUOUS
10
62.8571430000000007
20
-23.2522190000000002
11
63.0952379999999948
21
-23.2522190000000002
0
LINE
8
LYELLOW
6
CONTINUOUS
10
63.0952379999999948
20
-23.2522190000000002
11
63.2380949999999942
21
-23.2998379999999976
0
LINE
8
LYELLOW
6
CONTINUOUS
10
63.5714289999999949
20
-23.2522190000000002
11
63.8095239999999961
21
-24.2522190000000002
0
LINE
8
LYELLOW
6
CONTINUOUS
10
63.8095239999999961
20
-24.2522190000000002
11
64.
21
-23.5379329999999989
0
LINE
8
LYELLOW
6
CONTINUOUS
10
64.
20
-23.5379329999999989
11
64.1904760000000039
21
-24.2522190000000002
0
LINE
8
LYELLOW
6
CONTINUOUS
10
64.1904760000000039
20
-24.2522190000000002
11
64.4285720000000026
21
-23.2522190000000002
0
LINE
8
LYELLOW
6
CONTINUOUS
10
65.2380950000000013
20
-23.2522190000000002
11
65.0476189999999974
21
-23.2522190000000002
0
LINE
8
LYELLOW
6
CONTINUOUS
10
65.0476189999999974
20
-23.2522190000000002
11
64.9523810000000026
21
-23.2998379999999976
0
LINE
8
LYELLOW
6
CONTINUOUS
10
64.9523810000000026
20
-23.2998379999999976
11
64.904761999999991
21
-23.3474569999999986
0
LINE
8
LYELLOW
6
CONTINUOUS
10
64.904761999999991
20
-23.3474569999999986
11
64.8095239999999961
21
-23.4903139999999979
0
LINE
8
LYELLOW
6
CONTINUOUS
10
64.8095239999999961
20
-23.4903139999999979
11
64.7619049999999987
21
-23.6807899999999982
0
LINE
8
LYELLOW
6
CONTINUOUS
10
64.7619049999999987
20
-23.6807899999999982
11
64.7619049999999987
21
-24.0617419999999989
0
LINE
8
LYELLOW
6
CONTINUOUS
10
64.7619049999999987
20
-24.0617419999999989
11
64.8095239999999961
21
-24.1569799999999972
0
LINE
8
LYELLOW
6
CONTINUOUS
10
64.8095239999999961
20
-24.1569799999999972
11
64.8571429999999935
21
-24.2045999999999992
0
LINE
8
LYELLOW
6
CONTINUOUS
10
64.8571429999999935
20
-24.2045999999999992
11
64.9523810000000026
21
-24.2522190000000002
0
LINE
8
LYELLOW
6
CONTINUOUS
10
64.9523810000000026
20
-24.2522190000000002
11
65.1428569999999922
21
-24.2522190000000002
0
LINE
8
LYELLOW
6
CONTINUOUS
10
65.1428569999999922
20
-24.2522190000000002
11
65.2380950000000013
21
-24.2045999999999992
0
LINE
8
LYELLOW
6
CONTINUOUS
10
65.2380950000000013
20
-24.2045999999999992
11
65.2857139999999987
21
-24.1569799999999972
0
LINE
8
LYELLOW
6
CONTINUOUS
10
65.2857139999999987
20
-24.1569799999999972
11
65.3333329999999961
21
-24.0617419999999989
0
LINE
8
LYELLOW
6
CONTINUOUS
10
65.3333329999999961
20
-24.0617419999999989
11
65.3333329999999961
21
-23.8236469999999976
0
LINE
8
LYELLOW
6
CONTINUOUS
10
65.3333329999999961
20
-23.8236469999999976
11
65.2857139999999987
21
-23.7284089999999992
0
LINE
8
LYELLOW
6
CONTINUOUS
10
65.2857139999999987
20
-23.7284089999999992
11
65.2380950000000013
21
-23.6807899999999982
0
LINE
8
LYELLOW
6
CONTINUOUS
10
65.2380950000000013
20
-23.6807899999999982
11
65.1428569999999922
21
-23.6331709999999973
0
LINE
8
LYELLOW
6
CONTINUOUS
10
65.1428569999999922
20
-23.6331709999999973
11
64.9523810000000026
21
-23.6331709999999973
0
LINE
8
LYELLOW
6
CONTINUOUS
10
64.9523810000000026
20
-23.6331709999999973
11
64.8571429999999935
21
-23.6807899999999982
0
LINE
8
LYELLOW
6
CONTINUOUS
10
64.8571429999999935
20
-23.6807899999999982
11
64.8095239999999961
21
-23.7284089999999992
0
LINE
8
LYELLOW
6
CONTINUOUS
10
64.8095239999999961
20
-23.7284089999999992
11
64.7619049999999987
21
-23.8236469999999976
0
LINE
8
LYELLOW
6
CONTINUOUS
10
75.1666669999999897
20
-40.404599999999995
11
75.3095239999999961
21
-40.4522189999999995
0
LINE
8
LYELLOW
6
CONTINUOUS
10
75.3095239999999961
20
-40.4522189999999995
11
75.5476189999999974
21
-40.4522189999999995
0
LINE
8
LYELLOW
6
CONTINUOUS
10
75.5476189999999974
20
-40.4522189999999995
11
75.6428569999999922
21
-40.404599999999995
0
LINE
8
LYELLOW
6
CONTINUOUS
10
75.6428569999999922
20
-40.404599999999995
11
75.6904759999999897
21
-40.3569800000000001
0
LINE
8
LYELLOW
6
CONTINUOUS
10
75.6904759999999897
20
-40.3569800000000001
11
75.7380950000000013
21
-40.2617419999999981
0
LINE
8
LYELLOW
6
CONTINUOUS
10
75.7380950000000013
20
-40.2617419999999981
11
75.7380950000000013
21
-40.1665039999999962
0
LINE
8
LYELLOW
6
CONTINUOUS
10
75.7380950000000013
20
-40.1665039999999962
11
75.6904759999999897
21
-40.0712660000000014
0
LINE
8
LYELLOW
6
CONTINUOUS
10
75.6904759999999897
20
-40.0712660000000014
11
75.6428569999999922
21
-40.0236469999999969
0
LINE
8
LYELLOW
6
CONTINUOUS
10
75.6428569999999922
20
-40.0236469999999969
11
75.5476189999999974
21
-39.9760279999999995
0
LINE
8
LYELLOW
6
CONTINUOUS
10
75.5476189999999974
20
-39.9760279999999995
11
75.3571429999999935
21
-39.9284089999999949
0
LINE
8
LYELLOW
6
CONTINUOUS
10
75.3571429999999935
20
-39.9284089999999949
11
75.2619049999999987
21
-39.8807899999999975
0
LINE
8
LYELLOW
6
CONTINUOUS
10
75.2619049999999987
20
-39.8807899999999975
11
75.2142860000000013
21
-39.8331710000000001
0
LINE
8
LYELLOW
6
CONTINUOUS
10
75.2142860000000013
20
-39.8331710000000001
11
75.1666669999999897
21
-39.7379329999999982
0
LINE
8
LYELLOW
6
CONTINUOUS
10
75.1666669999999897
20
-39.7379329999999982
11
75.1666669999999897
21
-39.6426949999999962
0
LINE
8
LYELLOW
6
CONTINUOUS
10
75.1666669999999897
20
-39.6426949999999962
11
75.2142860000000013
21
-39.5474570000000014
0
LINE
8
LYELLOW
6
CONTINUOUS
10
75.2142860000000013
20
-39.5474570000000014
11
75.2619049999999987
21
-39.4998379999999969
0
LINE
8
LYELLOW
6
CONTINUOUS
10
75.2619049999999987
20
-39.4998379999999969
11
75.3571429999999935
21
-39.4522189999999995
0
LINE
8
LYELLOW
6
CONTINUOUS
10
75.3571429999999935
20
-39.4522189999999995
11
75.5952379999999948
21
-39.4522189999999995
0
LINE
8
LYELLOW
6
CONTINUOUS
10
75.5952379999999948
20
-39.4522189999999995
11
75.7380950000000013
21
-39.4998379999999969
0
LINE
8
LYELLOW
6
CONTINUOUS
10
76.0714289999999949
20
-39.4522189999999995
11
76.3095239999999961
21
-40.4522189999999995
0
LINE
8
LYELLOW
6
CONTINUOUS
10
76.3095239999999961
20
-40.4522189999999995
11
76.5
21
-39.7379329999999982
0
LINE
8
LYELLOW
6
CONTINUOUS
10
76.5
20
-39.7379329999999982
11
76.6904759999999897
21
-40.4522189999999995
0
LINE
8
LYELLOW
6
CONTINUOUS
10
76.6904759999999897
20
-40.4522189999999995
11
76.9285720000000026
21
-39.4522189999999995
0
LINE
8
LYELLOW
6
CONTINUOUS
10
77.4523810000000026
20
-39.8807899999999975
11
77.3571429999999935
21
-39.8331710000000001
0
LINE
8
LYELLOW
6
CONTINUOUS
10
77.3571429999999935
20
-39.8331710000000001
11
77.3095239999999961
21
-39.7855519999999956
0
LINE
8
LYELLOW
6
CONTINUOUS
10
77.3095239999999961
20
-39.7855519999999956
11
77.2619049999999987
21
-39.6903140000000008
0
LINE
8
LYELLOW
6
CONTINUOUS
10
77.2619049999999987
20
-39.6903140000000008
11
77.2619049999999987
21
-39.6426949999999962
0
LINE
8
LYELLOW
6
CONTINUOUS
10
77.2619049999999987
20
-39.6426949999999962
11
77.3095239999999961
21
-39.5474570000000014
0
LINE
8
LYELLOW
6
CONTINUOUS
10
77.3095239999999961
20
-39.5474570000000014
11
77.3571429999999935
21
-39.4998379999999969
0
LINE
8
LYELLOW
6
CONTINUOUS
10
77.3571429999999935
20
-39.4998379999999969
11
77.4523810000000026
21
-39.4522189999999995
0
LINE
8
LYELLOW
6
CONTINUOUS
10
77.4523810000000026
20
-39.4522189999999995
11
77.6428569999999922
21
-39.4522189999999995
0
LINE
8
LYELLOW
6
CONTINUOUS
10
77.6428569999999922
20
-39.4522189999999995
11
77.7380950000000013
21
-39.4998379999999969
0
LINE
8
LYELLOW
6
CONTINUOUS
10
77.7380950000000013
20
-39.4998379999999969
11
77.7857139999999987
21
-39.5474570000000014
0
LINE
8
LYELLOW
6
CONTINUOUS
10
77.7857139999999987
20
-39.5474570000000014
11
77.8333329999999961
21
-39.6426949999999962
0
LINE
8
LYELLOW
6
CONTINUOUS
10
77.8333329999999961
20
-39.6426949999999962
11
77.8333329999999961
21
-39.6903140000000008
0
LINE
8
LYELLOW
6
CONTINUOUS
10
77.8333329999999961
20
-39.6903140000000008
11
77.7857139999999987
21
-39.7855519999999956
0
LINE
8
LYELLOW
6
CONTINUOUS
10
77.7857139999999987
20
-39.7855519999999956
11
77.7380950000000013
21
-39.8331710000000001
0
LINE
8
LYELLOW
6
CONTINUOUS
10
77.7380950000000013
20
-39.8331710000000001
11
77.6428569999999922
21
-39.8807899999999975
0
LINE
8
LYELLOW
6
CONTINUOUS
10
77.6428569999999922
20
-39.8807899999999975
11
77.4523810000000026
21
-39.8807899999999975
0
LINE
8
LYELLOW
6
CONTINUOUS
10
77.4523810000000026
20
-39.8807899999999975
11
77.3571429999999935
21
-39.9284089999999949
0
LINE
8
LYELLOW
6
CONTINUOUS
10
77.3571429999999935
20
-39.9284089999999949
11
77.3095239999999961
21
-39.9760279999999995
0
LINE
8
LYELLOW
6
CONTINUOUS
10
77.3095239999999961
20
-39.9760279999999995
11
77.2619049999999987
21
-40.0712660000000014
0
LINE
8
LYELLOW
6
CONTINUOUS
10
77.2619049999999987
20
-40.0712660000000014
11
77.2619049999999987
21
-40.2617419999999981
0
LINE
8
LYELLOW
6
CONTINUOUS
10
77.2619049999999987
20
-40.2617419999999981
11
77.3095239999999961
21
-40.3569800000000001
0
LINE
8
LYELLOW
6
CONTINUOUS
10
77.3095239999999961
20
-40.3569800000000001
11
77.3571429999999935
21
-40.404599999999995
0
LINE
8
LYELLOW
6
CONTINUOUS
10
77.3571429999999935
20
-40.404599999999995
11
77.4523810000000026
21
-40.4522189999999995
0
LINE
8
LYELLOW
6
CONTINUOUS
10
77.4523810000000026
20
-40.4522189999999995
11
77.6428569999999922
21
-40.4522189999999995
0
LINE
8
LYELLOW
6
CONTINUOUS
10
77.6428569999999922
20
-40.4522189999999995
11
77.7380950000000013
21
-40.404599999999995
0
LINE
8
LYELLOW
6
CONTINUOUS
10
77.7380950000000013
20
-40.404599999999995
11
77.7857139999999987
21
-40.3569800000000001
0
LINE
8
LYELLOW
6
CONTINUOUS
10
77.7857139999999987
20
-40.3569800000000001
11
77.8333329999999961
21
-40.2617419999999981
0
LINE
8
LYELLOW
6
CONTINUOUS
10
77.8333329999999961
20
-40.2617419999999981
11
77.8333329999999961
21
-40.0712660000000014
0
LINE
8
LYELLOW
6
CONTINUOUS
10
77.8333329999999961
20
-40.0712660000000014
11
77.7857139999999987
21
-39.9760279999999995
0
LINE
8
LYELLOW
6
CONTINUOUS
10
77.7857139999999987
20
-39.9760279999999995
11
77.7380950000000013
21
-39.9284089999999949
0
LINE
8
LYELLOW
6
CONTINUOUS
10
77.7380950000000013
20
-39.9284089999999949
11
77.6428569999999922
21
-39.8807899999999975
0
LINE
8
LYELLOW
6
CONTINUOUS
10
78.6666669999999897
20
-24.2045999999999992
11
78.8095239999999961
21
-24.2522190000000002
0
LINE
8
LYELLOW
6
CONTINUOUS
10
78.8095239999999961
20
-24.2522190000000002
11
79.0476189999999974
21
-24.2522190000000002
0
LINE
8
LYELLOW
6
CONTINUOUS
10
79.0476189999999974
20
-24.2522190000000002
11
79.1428569999999922
21
-24.2045999999999992
0
LINE
8
LYELLOW
6
CONTINUOUS
10
79.1428569999999922
20
-24.2045999999999992
11
79.1904759999999897
21
-24.1569799999999972
0
LINE
8
LYELLOW
6
CONTINUOUS
10
79.1904759999999897
20
-24.1569799999999972
11
79.2380950000000013
21
-24.0617419999999989
0
LINE
8
LYELLOW
6
CONTINUOUS
10
79.2380950000000013
20
-24.0617419999999989
11
79.2380950000000013
21
-23.9665040000000005
0
LINE
8
LYELLOW
6
CONTINUOUS
10
79.2380950000000013
20
-23.9665040000000005
11
79.1904759999999897
21
-23.8712659999999985
0
LINE
8
LYELLOW
6
CONTINUOUS
10
79.1904759999999897
20
-23.8712659999999985
11
79.1428569999999922
21
-23.8236469999999976
0
LINE
8
LYELLOW
6
CONTINUOUS
10
79.1428569999999922
20
-23.8236469999999976
11
79.0476189999999974
21
-23.7760280000000002
0
LINE
8
LYELLOW
6
CONTINUOUS
10
79.0476189999999974
20
-23.7760280000000002
11
78.8571429999999935
21
-23.7284089999999992
0
LINE
8
LYELLOW
6
CONTINUOUS
10
78.8571429999999935
20
-23.7284089999999992
11
78.7619049999999987
21
-23.6807899999999982
0
LINE
8
LYELLOW
6
CONTINUOUS
10
78.7619049999999987
20
-23.6807899999999982
11
78.7142860000000013
21
-23.6331709999999973
0
LINE
8
LYELLOW
6
CONTINUOUS
10
78.7142860000000013
20
-23.6331709999999973
11
78.6666669999999897
21
-23.5379329999999989
0
LINE
8
LYELLOW
6
CONTINUOUS
10
78.6666669999999897
20
-23.5379329999999989
11
78.6666669999999897
21
-23.4426950000000005
0
LINE
8
LYELLOW
6
CONTINUOUS
10
78.6666669999999897
20
-23.4426950000000005
11
78.7142860000000013
21
-23.3474569999999986
0
LINE
8
LYELLOW
6
CONTINUOUS
10
78.7142860000000013
20
-23.3474569999999986
11
78.7619049999999987
21
-23.2998379999999976
0
LINE
8
LYELLOW
6
CONTINUOUS
10
78.7619049999999987
20
-23.2998379999999976
11
78.8571429999999935
21
-23.2522190000000002
0
LINE
8
LYELLOW
6
CONTINUOUS
10
78.8571429999999935
20
-23.2522190000000002
11
79.0952379999999948
21
-23.2522190000000002
0
LINE
8
LYELLOW
6
CONTINUOUS
10
79.0952379999999948
20
-23.2522190000000002
11
79.2380950000000013
21
-23.2998379999999976
0
LINE
8
LYELLOW
6
CONTINUOUS
10
79.5714289999999949
20
-23.2522190000000002
11
79.8095239999999961
21
-24.2522190000000002
0
LINE
8
LYELLOW
6
CONTINUOUS
10
79.8095239999999961
20
-24.2522190000000002
11
80.
21
-23.5379329999999989
0
LINE
8
LYELLOW
6
CONTINUOUS
10
80.
20
-23.5379329999999989
11
80.1904759999999897
21
-24.2522190000000002
0
LINE
8
LYELLOW
6
CONTINUOUS
10
80.1904759999999897
20
-24.2522190000000002
11
80.4285720000000026
21
-23.2522190000000002
0
LINE
8
LYELLOW
6
CONTINUOUS
10
80.7142860000000013
20
-23.2522190000000002
11
81.3809519999999935
21
-23.2522190000000002
0
LINE
8
LYELLOW
6
CONTINUOUS
10
81.3809519999999935
20
-23.2522190000000002
11
80.9523810000000026
21
-24.2522190000000002
0
LINE
8
LYELLOW
6
CONTINUOUS
10
24.928570999999998
20
-12.6030999999999995
11
25.0571429999999999
21
-12.6459569999999992
0
LINE
8
LYELLOW
6
CONTINUOUS
10
25.0571429999999999
20
-12.6459569999999992
11
25.2714280000000002
21
-12.6459569999999992
0
LINE
8
LYELLOW
6
CONTINUOUS
10
25.2714280000000002
20
-12.6459569999999992
11
25.3571429999999971
21
-12.6030999999999995
0
LINE
8
LYELLOW
6
CONTINUOUS
10
25.3571429999999971
20
-12.6030999999999995
11
25.3999999999999986
21
-12.5602419999999988
0
LINE
8
LYELLOW
6
CONTINUOUS
10
25.3999999999999986
20
-12.5602419999999988
11
25.4428570000000001
21
-12.4745279999999994
0
LINE
8
LYELLOW
6
CONTINUOUS
10
25.4428570000000001
20
-12.4745279999999994
11
25.4428570000000001
21
-12.388814
0
LINE
8
LYELLOW
6
CONTINUOUS
10
25.4428570000000001
20
-12.388814
11
25.3999999999999986
21
-12.3030999999999988
0
LINE
8
LYELLOW
6
CONTINUOUS
10
25.3999999999999986
20
-12.3030999999999988
11
25.3571429999999971
21
-12.2602419999999999
0
LINE
8
LYELLOW
6
CONTINUOUS
10
25.3571429999999971
20
-12.2602419999999999
11
25.2714280000000002
21
-12.2173850000000002
0
LINE
8
LYELLOW
6
CONTINUOUS
10
25.2714280000000002
20
-12.2173850000000002
11
25.0999999999999979
21
-12.1745279999999987
0
LINE
8
LYELLOW
6
CONTINUOUS
10
25.0999999999999979
20
-12.1745279999999987
11
25.0142849999999974
21
-12.131670999999999
0
LINE
8
LYELLOW
6
CONTINUOUS
10
25.0142849999999974
20
-12.131670999999999
11
24.9714279999999995
21
-12.0888139999999993
0
LINE
8
LYELLOW
6
CONTINUOUS
10
24.9714279999999995
20
-12.0888139999999993
11
24.928570999999998
21
-12.0030999999999999
0
LINE
8
LYELLOW
6
CONTINUOUS
10
24.928570999999998
20
-12.0030999999999999
11
24.928570999999998
21
-11.9173849999999995
0
LINE
8
LYELLOW
6
CONTINUOUS
10
24.928570999999998
20
-11.9173849999999995
11
24.9714279999999995
21
-11.831671
0
LINE
8
LYELLOW
6
CONTINUOUS
10
24.9714279999999995
20
-11.831671
11
25.0142849999999974
21
-11.7888140000000003
0
LINE
8
LYELLOW
6
CONTINUOUS
10
25.0142849999999974
20
-11.7888140000000003
11
25.0999999999999979
21
-11.7459569999999989
0
LINE
8
LYELLOW
6
CONTINUOUS
10
25.0999999999999979
20
-11.7459569999999989
11
25.3142849999999981
21
-11.7459569999999989
0
LINE
8
LYELLOW
6
CONTINUOUS
10
25.3142849999999981
20
-11.7459569999999989
11
25.4428570000000001
21
-11.7888140000000003
0
LINE
8
LYELLOW
6
CONTINUOUS
10
26.3428569999999986
20
-12.5602419999999988
11
26.2999999999999972
21
-12.6030999999999995
0
LINE
8
LYELLOW
6
CONTINUOUS
10
26.2999999999999972
20
-12.6030999999999995
11
26.1714279999999988
21
-12.6459569999999992
0
LINE
8
LYELLOW
6
CONTINUOUS
10
26.1714279999999988
20
-12.6459569999999992
11
26.0857139999999994
21
-12.6459569999999992
0
LINE
8
LYELLOW
6
CONTINUOUS
10
26.0857139999999994
20
-12.6459569999999992
11
25.9571429999999985
21
-12.6030999999999995
0
LINE
8
LYELLOW
6
CONTINUOUS
10
25.9571429999999985
20
-12.6030999999999995
11
25.8714279999999981
21
-12.5173849999999991
0
LINE
8
LYELLOW
6
CONTINUOUS
10
25.8714279999999981
20
-12.5173849999999991
11
25.8285710000000002
21
-12.4316709999999997
0
LINE
8
LYELLOW
6
CONTINUOUS
10
25.8285710000000002
20
-12.4316709999999997
11
25.7857139999999987
21
-12.2602419999999999
0
LINE
8
LYELLOW
6
CONTINUOUS
10
25.7857139999999987
20
-12.2602419999999999
11
25.7857139999999987
21
-12.131670999999999
0
LINE
8
LYELLOW
6
CONTINUOUS
10
25.7857139999999987
20
-12.131670999999999
11
25.8285710000000002
21
-11.9602419999999992
0
LINE
8
LYELLOW
6
CONTINUOUS
10
25.8285710000000002
20
-11.9602419999999992
11
25.8714279999999981
21
-11.8745279999999998
0
LINE
8
LYELLOW
6
CONTINUOUS
10
25.8714279999999981
20
-11.8745279999999998
11
25.9571429999999985
21
-11.7888140000000003
0
LINE
8
LYELLOW
6
CONTINUOUS
10
25.9571429999999985
20
-11.7888140000000003
11
26.0857139999999994
21
-11.7459569999999989
0
LINE
8
LYELLOW
6
CONTINUOUS
10
26.0857139999999994
20
-11.7459569999999989
11
26.1714279999999988
21
-11.7459569999999989
0
LINE
8
LYELLOW
6
CONTINUOUS
10
26.1714279999999988
20
-11.7459569999999989
11
26.2999999999999972
21
-11.7888140000000003
0
LINE
8
LYELLOW
6
CONTINUOUS
10
26.2999999999999972
20
-11.7888140000000003
11
26.3428569999999986
21
-11.831671
0
LINE
8
LYELLOW
6
CONTINUOUS
10
27.1571429999999978
20
-12.6459569999999992
11
26.7285709999999987
21
-12.6459569999999992
0
LINE
8
LYELLOW
6
CONTINUOUS
10
26.7285709999999987
20
-12.6459569999999992
11
26.7285709999999987
21
-11.7459569999999989
0
LINE
8
LYELLOW
6
CONTINUOUS
10
25.3142859999999992
20
-16.8688140000000004
11
25.2285719999999998
21
-16.8259569999999989
0
LINE
8
LYELLOW
6
CONTINUOUS
10
25.2285719999999998
20
-16.8259569999999989
11
25.0999999999999979
21
-16.8259569999999989
0
LINE
8
LYELLOW
6
CONTINUOUS
10
25.0999999999999979
20
-16.8259569999999989
11
24.9714290000000005
21
-16.8688140000000004
0
LINE
8
LYELLOW
6
CONTINUOUS
10
24.9714290000000005
20
-16.8688140000000004
11
24.8857140000000001
21
-16.9545279999999998
0
LINE
8
LYELLOW
6
CONTINUOUS
10
24.8857140000000001
20
-16.9545279999999998
11
24.8428569999999986
21
-17.0402419999999992
0
LINE
8
LYELLOW
6
CONTINUOUS
10
24.8428569999999986
20
-17.0402419999999992
11
24.7999999999999972
21
-17.2116709999999991
0
LINE
8
LYELLOW
6
CONTINUOUS
10
24.7999999999999972
20
-17.2116709999999991
11
24.7999999999999972
21
-17.3402419999999999
0
LINE
8
LYELLOW
6
CONTINUOUS
10
24.7999999999999972
20
-17.3402419999999999
11
24.8428569999999986
21
-17.5116709999999998
0
LINE
8
LYELLOW
6
CONTINUOUS
10
24.8428569999999986
20
-17.5116709999999998
11
24.8857140000000001
21
-17.5973849999999992
0
LINE
8
LYELLOW
6
CONTINUOUS
10
24.8857140000000001
20
-17.5973849999999992
11
24.9714290000000005
21
-17.6830999999999996
0
LINE
8
LYELLOW
6
CONTINUOUS
10
24.9714290000000005
20
-17.6830999999999996
11
25.0999999999999979
21
-17.7259569999999975
0
LINE
8
LYELLOW
6
CONTINUOUS
10
25.0999999999999979
20
-17.7259569999999975
11
25.1857139999999973
21
-17.7259569999999975
0
LINE
8
LYELLOW
6
CONTINUOUS
10
25.1857139999999973
20
-17.7259569999999975
11
25.3142859999999992
21
-17.6830999999999996
0
LINE
8
LYELLOW
6
CONTINUOUS
10
25.3142859999999992
20
-17.6830999999999996
11
25.3571429999999971
21
-17.6402420000000006
0
LINE
8
LYELLOW
6
CONTINUOUS
10
25.3571429999999971
20
-17.6402420000000006
11
25.3571429999999971
21
-17.3402419999999999
0
LINE
8
LYELLOW
6
CONTINUOUS
10
25.3571429999999971
20
-17.3402419999999999
11
25.1857139999999973
21
-17.3402419999999999
0
LINE
8
LYELLOW
6
CONTINUOUS
10
25.7428569999999972
20
-17.7259569999999975
11
25.7428569999999972
21
-16.8259569999999989
0
LINE
8
LYELLOW
6
CONTINUOUS
10
25.7428569999999972
20
-16.8259569999999989
11
26.2571429999999992
21
-17.7259569999999975
0
LINE
8
LYELLOW
6
CONTINUOUS
10
26.2571429999999992
20
-17.7259569999999975
11
26.2571429999999992
21
-16.8259569999999989
0
LINE
8
LYELLOW
6
CONTINUOUS
10
26.6857139999999973
20
-17.7259569999999975
11
26.6857139999999973
21
-16.8259569999999989
0
LINE
8
LYELLOW
6
CONTINUOUS
10
26.6857139999999973
20
-16.8259569999999989
11
26.8999999999999986
21
-16.8259569999999989
0
LINE
8
LYELLOW
6
CONTINUOUS
10
26.8999999999999986
20
-16.8259569999999989
11
27.0285709999999995
21
-16.8688140000000004
0
LINE
8
LYELLOW
6
CONTINUOUS
10
27.0285709999999995
20
-16.8688140000000004
11
27.1142859999999999
21
-16.9545279999999998
0
LINE
8
LYELLOW
6
CONTINUOUS
10
27.1142859999999999
20
-16.9545279999999998
11
27.1571429999999978
21
-17.0402419999999992
0
LINE
8
LYELLOW
6
CONTINUOUS
10
27.1571429999999978
20
-17.0402419999999992
11
27.1999999999999993
21
-17.2116709999999991
0
LINE
8
LYELLOW
6
CONTINUOUS
10
27.1999999999999993
20
-17.2116709999999991
11
27.1999999999999993
21
-17.3402419999999999
0
LINE
8
LYELLOW
6
CONTINUOUS
10
27.1999999999999993
20
-17.3402419999999999
11
27.1571429999999978
21
-17.5116709999999998
0
LINE
8
LYELLOW
6
CONTINUOUS
10
27.1571429999999978
20
-17.5116709999999998
11
27.1142859999999999
21
-17.5973849999999992
0
LINE
8
LYELLOW
6
CONTINUOUS
10
27.1142859999999999
20
-17.5973849999999992
11
27.0285709999999995
21
-17.6830999999999996
0
LINE
8
LYELLOW
6
CONTINUOUS
10
27.0285709999999995
20
-17.6830999999999996
11
26.8999999999999986
21
-17.7259569999999975
0
LINE
8
LYELLOW
6
CONTINUOUS
10
26.8999999999999986
20
-17.7259569999999975
11
26.6857139999999973
21
-17.7259569999999975
0
LINE
8
LYELLOW
6
CONTINUOUS
10
46.6666669999999968
20
-40.2045999999999992
11
46.8095239999999961
21
-40.2522189999999966
0
LINE
8
LYELLOW
6
CONTINUOUS
10
46.8095239999999961
20
-40.2522189999999966
11
47.0476189999999974
21
-40.2522189999999966
0
LINE
8
LYELLOW
6
CONTINUOUS
10
47.0476189999999974
20
-40.2522189999999966
11
47.1428569999999993
21
-40.2045999999999992
0
LINE
8
LYELLOW
6
CONTINUOUS
10
47.1428569999999993
20
-40.2045999999999992
11
47.1904759999999968
21
-40.1569799999999972
0
LINE
8
LYELLOW
6
CONTINUOUS
10
47.1904759999999968
20
-40.1569799999999972
11
47.2380950000000013
21
-40.0617419999999953
0
LINE
8
LYELLOW
6
CONTINUOUS
10
47.2380950000000013
20
-40.0617419999999953
11
47.2380950000000013
21
-39.9665040000000005
0
LINE
8
LYELLOW
6
CONTINUOUS
10
47.2380950000000013
20
-39.9665040000000005
11
47.1904759999999968
21
-39.8712659999999985
0
LINE
8
LYELLOW
6
CONTINUOUS
10
47.1904759999999968
20
-39.8712659999999985
11
47.1428569999999993
21
-39.8236470000000011
0
LINE
8
LYELLOW
6
CONTINUOUS
10
47.1428569999999993
20
-39.8236470000000011
11
47.0476189999999974
21
-39.7760279999999966
0
LINE
8
LYELLOW
6
CONTINUOUS
10
47.0476189999999974
20
-39.7760279999999966
11
46.8571430000000007
21
-39.7284089999999992
0
LINE
8
LYELLOW
6
CONTINUOUS
10
46.8571430000000007
20
-39.7284089999999992
11
46.7619049999999987
21
-39.6807899999999947
0
LINE
8
LYELLOW
6
CONTINUOUS
10
46.7619049999999987
20
-39.6807899999999947
11
46.7142860000000013
21
-39.6331709999999973
0
LINE
8
LYELLOW
6
CONTINUOUS
10
46.7142860000000013
20
-39.6331709999999973
11
46.6666669999999968
21
-39.5379329999999953
0
LINE
8
LYELLOW
6
CONTINUOUS
10
46.6666669999999968
20
-39.5379329999999953
11
46.6666669999999968
21
-39.4426950000000005
0
LINE
8
LYELLOW
6
CONTINUOUS
10
46.6666669999999968
20
-39.4426950000000005
11
46.7142860000000013
21
-39.3474569999999986
0
LINE
8
LYELLOW
6
CONTINUOUS
10
46.7142860000000013
20
-39.3474569999999986
11
46.7619049999999987
21
-39.2998380000000012
0
LINE
8
LYELLOW
6
CONTINUOUS
10
46.7619049999999987
20
-39.2998380000000012
11
46.8571430000000007
21
-39.2522189999999966
0
LINE
8
LYELLOW
6
CONTINUOUS
10
46.8571430000000007
20
-39.2522189999999966
11
47.0952379999999948
21
-39.2522189999999966
0
LINE
8
LYELLOW
6
CONTINUOUS
10
47.0952379999999948
20
-39.2522189999999966
11
47.2380950000000013
21
-39.2998380000000012
0
LINE
8
LYELLOW
6
CONTINUOUS
10
47.5714289999999949
20
-39.2522189999999966
11
47.8095239999999961
21
-40.2522189999999966
0
LINE
8
LYELLOW
6
CONTINUOUS
10
47.8095239999999961
20
-40.2522189999999966
11
48.
21
-39.5379329999999953
0
LINE
8
LYELLOW
6
CONTINUOUS
10
48.
20
-39.5379329999999953
11
48.1904759999999968
21
-40.2522189999999966
0
LINE
8
LYELLOW
6
CONTINUOUS
10
48.1904759999999968
20
-40.2522189999999966
11
48.4285719999999955
21
-39.2522189999999966
0
LINE
8
LYELLOW
6
CONTINUOUS
10
49.2857139999999987
20
-39.2522189999999966
11
48.8095239999999961
21
-39.2522189999999966
0
LINE
8
LYELLOW
6
CONTINUOUS
10
48.8095239999999961
20
-39.2522189999999966
11
48.7619049999999987
21
-39.7284089999999992
0
LINE
8
LYELLOW
6
CONTINUOUS
10
48.7619049999999987
20
-39.7284089999999992
11
48.8095239999999961
21
-39.6807899999999947
0
LINE
8
LYELLOW
6
CONTINUOUS
10
48.8095239999999961
20
-39.6807899999999947
11
48.9047619999999981
21
-39.6331709999999973
0
LINE
8
LYELLOW
6
CONTINUOUS
10
48.9047619999999981
20
-39.6331709999999973
11
49.1428569999999993
21
-39.6331709999999973
0
LINE
8
LYELLOW
6
CONTINUOUS
10
49.1428569999999993
20
-39.6331709999999973
11
49.2380950000000013
21
-39.6807899999999947
0
LINE
8
LYELLOW
6
CONTINUOUS
10
49.2380950000000013
20
-39.6807899999999947
11
49.2857139999999987
21
-39.7284089999999992
0
LINE
8
LYELLOW
6
CONTINUOUS
10
49.2857139999999987
20
-39.7284089999999992
11
49.3333329999999961
21
-39.8236470000000011
0
LINE
8
LYELLOW
6
CONTINUOUS
10
49.3333329999999961
20
-39.8236470000000011
11
49.3333329999999961
21
-40.0617419999999953
0
LINE
8
LYELLOW
6
CONTINUOUS
10
49.3333329999999961
20
-40.0617419999999953
11
49.2857139999999987
21
-40.1569799999999972
0
LINE
8
LYELLOW
6
CONTINUOUS
10
49.2857139999999987
20
-40.1569799999999972
11
49.2380950000000013
21
-40.2045999999999992
0
LINE
8
LYELLOW
6
CONTINUOUS
10
49.2380950000000013
20
-40.2045999999999992
11
49.1428569999999993
21
-40.2522189999999966
0
LINE
8
LYELLOW
6
CONTINUOUS
10
49.1428569999999993
20
-40.2522189999999966
11
48.9047619999999981
21
-40.2522189999999966
0
LINE
8
LYELLOW
6
CONTINUOUS
10
48.9047619999999981
20
-40.2522189999999966
11
48.8095239999999961
21
-40.2045999999999992
0
LINE
8
LYELLOW
6
CONTINUOUS
10
48.8095239999999961
20
-40.2045999999999992
11
48.7619049999999987
21
-40.1569799999999972
0
LINE
8
LYELLOW
6
CONTINUOUS
10
30.6666670000000003
20
-24.2045999999999992
11
30.8095239999999997
21
-24.2522190000000002
0
LINE
8
LYELLOW
6
CONTINUOUS
10
30.8095239999999997
20
-24.2522190000000002
11
31.0476189999999974
21
-24.2522190000000002
0
LINE
8
LYELLOW
6
CONTINUOUS
10
31.0476189999999974
20
-24.2522190000000002
11
31.1428569999999993
21
-24.2045999999999992
0
LINE
8
LYELLOW
6
CONTINUOUS
10
31.1428569999999993
20
-24.2045999999999992
11
31.1904760000000003
21
-24.1569799999999972
0
LINE
8
LYELLOW
6
CONTINUOUS
10
31.1904760000000003
20
-24.1569799999999972
11
31.2380949999999977
21
-24.0617419999999989
0
LINE
8
LYELLOW
6
CONTINUOUS
10
31.2380949999999977
20
-24.0617419999999989
11
31.2380949999999977
21
-23.9665040000000005
0
LINE
8
LYELLOW
6
CONTINUOUS
10
31.2380949999999977
20
-23.9665040000000005
11
31.1904760000000003
21
-23.8712659999999985
0
LINE
8
LYELLOW
6
CONTINUOUS
10
31.1904760000000003
20
-23.8712659999999985
11
31.1428569999999993
21
-23.8236469999999976
0
LINE
8
LYELLOW
6
CONTINUOUS
10
31.1428569999999993
20
-23.8236469999999976
11
31.0476189999999974
21
-23.7760280000000002
0
LINE
8
LYELLOW
6
CONTINUOUS
10
31.0476189999999974
20
-23.7760280000000002
11
30.8571429999999971
21
-23.7284089999999992
0
LINE
8
LYELLOW
6
CONTINUOUS
10
30.8571429999999971
20
-23.7284089999999992
11
30.7619049999999987
21
-23.6807899999999982
0
LINE
8
LYELLOW
6
CONTINUOUS
10
30.7619049999999987
20
-23.6807899999999982
11
30.7142859999999978
21
-23.6331709999999973
0
LINE
8
LYELLOW
6
CONTINUOUS
10
30.7142859999999978
20
-23.6331709999999973
11
30.6666670000000003
21
-23.5379329999999989
0
LINE
8
LYELLOW
6
CONTINUOUS
10
30.6666670000000003
20
-23.5379329999999989
11
30.6666670000000003
21
-23.4426950000000005
0
LINE
8
LYELLOW
6
CONTINUOUS
10
30.6666670000000003
20
-23.4426950000000005
11
30.7142859999999978
21
-23.3474569999999986
0
LINE
8
LYELLOW
6
CONTINUOUS
10
30.7142859999999978
20
-23.3474569999999986
11
30.7619049999999987
21
-23.2998379999999976
0
LINE
8
LYELLOW
6
CONTINUOUS
10
30.7619049999999987
20
-23.2998379999999976
11
30.8571429999999971
21
-23.2522190000000002
0
LINE
8
LYELLOW
6
CONTINUOUS
10
30.8571429999999971
20
-23.2522190000000002
11
31.0952379999999984
21
-23.2522190000000002
0
LINE
8
LYELLOW
6
CONTINUOUS
10
31.0952379999999984
20
-23.2522190000000002
11
31.2380949999999977
21
-23.2998379999999976
0
LINE
8
LYELLOW
6
CONTINUOUS
10
31.5714289999999984
20
-23.2522190000000002
11
31.8095239999999997
21
-24.2522190000000002
0
LINE
8
LYELLOW
6
CONTINUOUS
10
31.8095239999999997
20
-24.2522190000000002
11
32.
21
-23.5379329999999989
0
LINE
8
LYELLOW
6
CONTINUOUS
10
32.
20
-23.5379329999999989
11
32.1904759999999968
21
-24.2522190000000002
0
LINE
8
LYELLOW
6
CONTINUOUS
10
32.1904759999999968
20
-24.2522190000000002
11
32.4285719999999955
21
-23.2522190000000002
0
LINE
8
LYELLOW
6
CONTINUOUS
10
32.7619049999999987
20
-23.3474569999999986
11
32.8095239999999961
21
-23.2998379999999976
0
LINE
8
LYELLOW
6
CONTINUOUS
10
32.8095239999999961
20
-23.2998379999999976
11
32.9047619999999981
21
-23.2522190000000002
0
LINE
8
LYELLOW
6
CONTINUOUS
10
32.9047619999999981
20
-23.2522190000000002
11
33.1428569999999993
21
-23.2522190000000002
0
LINE
8
LYELLOW
6
CONTINUOUS
10
33.1428569999999993
20
-23.2522190000000002
11
33.2380950000000013
21
-23.2998379999999976
0
LINE
8
LYELLOW
6
CONTINUOUS
10
33.2380950000000013
20
-23.2998379999999976
11
33.2857139999999987
21
-23.3474569999999986
0
LINE
8
LYELLOW
6
CONTINUOUS
10
33.2857139999999987
20
-23.3474569999999986
11
33.3333329999999961
21
-23.4426950000000005
0
LINE
8
LYELLOW
6
CONTINUOUS
10
33.3333329999999961
20
-23.4426950000000005
11
33.3333329999999961
21
-23.5379329999999989
0
LINE
8
LYELLOW
6
CONTINUOUS
10
33.3333329999999961
20
-23.5379329999999989
11
33.2857139999999987
21
-23.6807899999999982
0
LINE
8
LYELLOW
6
CONTINUOUS
10
33.2857139999999987
20
-23.6807899999999982
11
32.7142860000000013
21
-24.2522190000000002
0
LINE
8
LYELLOW
6
CONTINUOUS
10
32.7142860000000013
20
-24.2522190000000002
11
33.3333329999999961
21
-24.2522190000000002
0
LINE
8
LYELLOW
6
CONTINUOUS
10
24.9071420000000003
20
-10.0631000000000004
11
25.0357139999999987
21
-10.1059570000000001
0
LINE
8
LYELLOW
6
CONTINUOUS
10
25.0357139999999987
20
-10.1059570000000001
11
25.249998999999999
21
-10.1059570000000001
0
LINE
8
LYELLOW
6
CONTINUOUS
10
25.249998999999999
20
-10.1059570000000001
11
25.3357139999999994
21
-10.0631000000000004
0
LINE
8
LYELLOW
6
CONTINUOUS
10
25.3357139999999994
20
-10.0631000000000004
11
25.3785709999999973
21
-10.0202419999999996
0
LINE
8
LYELLOW
6
CONTINUOUS
10
25.3785709999999973
20
-10.0202419999999996
11
25.4214279999999988
21
-9.9345280000000002
0
LINE
8
LYELLOW
6
CONTINUOUS
10
25.4214279999999988
20
-9.9345280000000002
11
25.4214279999999988
21
-9.8488139999999991
0
LINE
8
LYELLOW
6
CONTINUOUS
10
25.4214279999999988
20
-9.8488139999999991
11
25.3785709999999973
21
-9.7630999999999997
0
LINE
8
LYELLOW
6
CONTINUOUS
10
25.3785709999999973
20
-9.7630999999999997
11
25.3357139999999994
21
-9.7202419999999989
0
LINE
8
LYELLOW
6
CONTINUOUS
10
25.3357139999999994
20
-9.7202419999999989
11
25.249998999999999
21
-9.6773849999999992
0
LINE
8
LYELLOW
6
CONTINUOUS
10
25.249998999999999
20
-9.6773849999999992
11
25.0785710000000002
21
-9.6345279999999995
0
LINE
8
LYELLOW
6
CONTINUOUS
10
25.0785710000000002
20
-9.6345279999999995
11
24.9928559999999997
21
-9.5916709999999998
0
LINE
8
LYELLOW
6
CONTINUOUS
10
24.9928559999999997
20
-9.5916709999999998
11
24.9499989999999983
21
-9.5488140000000001
0
LINE
8
LYELLOW
6
CONTINUOUS
10
24.9499989999999983
20
-9.5488140000000001
11
24.9071420000000003
21
-9.463099999999999
0
LINE
8
LYELLOW
6
CONTINUOUS
10
24.9071420000000003
20
-9.463099999999999
11
24.9071420000000003
21
-9.3773850000000003
0
LINE
8
LYELLOW
6
CONTINUOUS
10
24.9071420000000003
20
-9.3773850000000003
11
24.9499989999999983
21
-9.2916709999999991
0
LINE
8
LYELLOW
6
CONTINUOUS
10
24.9499989999999983
20
-9.2916709999999991
11
24.9928559999999997
21
-9.2488139999999994
0
LINE
8
LYELLOW
6
CONTINUOUS
10
24.9928559999999997
20
-9.2488139999999994
11
25.0785710000000002
21
-9.2059569999999997
0
LINE
8
LYELLOW
6
CONTINUOUS
10
25.0785710000000002
20
-9.2059569999999997
11
25.2928560000000004
21
-9.2059569999999997
0
LINE
8
LYELLOW
6
CONTINUOUS
10
25.2928560000000004
20
-9.2059569999999997
11
25.4214279999999988
21
-9.2488139999999994
0
LINE
8
LYELLOW
6
CONTINUOUS
10
25.8071419999999989
20
-10.1059570000000001
11
25.8071419999999989
21
-9.2059569999999997
0
LINE
8
LYELLOW
6
CONTINUOUS
10
25.8071419999999989
20
-9.2059569999999997
11
26.0214280000000002
21
-9.2059569999999997
0
LINE
8
LYELLOW
6
CONTINUOUS
10
26.0214280000000002
20
-9.2059569999999997
11
26.1499989999999976
21
-9.2488139999999994
0
LINE
8
LYELLOW
6
CONTINUOUS
10
26.1499989999999976
20
-9.2488139999999994
11
26.235713999999998
21
-9.3345279999999988
0
LINE
8
LYELLOW
6
CONTINUOUS
10
26.235713999999998
20
-9.3345279999999988
11
26.2785709999999995
21
-9.420242
0
LINE
8
LYELLOW
6
CONTINUOUS
10
26.2785709999999995
20
-9.420242
11
26.3214279999999974
21
-9.5916709999999998
0
LINE
8
LYELLOW
6
CONTINUOUS
10
26.3214279999999974
20
-9.5916709999999998
11
26.3214279999999974
21
-9.7202419999999989
0
LINE
8
LYELLOW
6
CONTINUOUS
10
26.3214279999999974
20
-9.7202419999999989
11
26.2785709999999995
21
-9.8916709999999988
0
LINE
8
LYELLOW
6
CONTINUOUS
10
26.2785709999999995
20
-9.8916709999999988
11
26.235713999999998
21
-9.9773849999999999
0
LINE
8
LYELLOW
6
CONTINUOUS
10
26.235713999999998
20
-9.9773849999999999
11
26.1499989999999976
21
-10.0631000000000004
0
LINE
8
LYELLOW
6
CONTINUOUS
10
26.1499989999999976
20
-10.0631000000000004
11
26.0214280000000002
21
-10.1059570000000001
0
LINE
8
LYELLOW
6
CONTINUOUS
10
26.0214280000000002
20
-10.1059570000000001
11
25.8071419999999989
21
-10.1059570000000001
0
LINE
8
LYELLOW
6
CONTINUOUS
10
26.6642849999999996
20
-9.8488139999999991
11
27.0928569999999986
21
-9.8488139999999991
0
LINE
8
LYELLOW
6
CONTINUOUS
10
26.5785710000000002
20
-10.1059570000000001
11
26.8785709999999973
21
-9.2059569999999997
0
LINE
8
LYELLOW
6
CONTINUOUS
10
26.8785709999999973
20
-9.2059569999999997
11
27.178570999999998
21
-10.1059570000000001
0
LINE
8
LYELLOW
6
CONTINUOUS
10
24.7999999999999972
20
-14.2859569999999998
11
25.0999999999999979
21
-15.1859570000000001
0
LINE
8
LYELLOW
6
CONTINUOUS
10
25.0999999999999979
20
-15.1859570000000001
11
25.3999999999999986
21
-14.2859569999999998
0
LINE
8
LYELLOW
6
CONTINUOUS
10
26.2142859999999978
20
-15.1002419999999997
11
26.1714289999999998
21
-15.1430999999999987
0
LINE
8
LYELLOW
6
CONTINUOUS
10
26.1714289999999998
20
-15.1430999999999987
11
26.0428569999999979
21
-15.1859570000000001
0
LINE
8
LYELLOW
6
CONTINUOUS
10
26.0428569999999979
20
-15.1859570000000001
11
25.9571429999999985
21
-15.1859570000000001
0
LINE
8
LYELLOW
6
CONTINUOUS
10
25.9571429999999985
20
-15.1859570000000001
11
25.8285719999999976
21
-15.1430999999999987
0
LINE
8
LYELLOW
6
CONTINUOUS
10
25.8285719999999976
20
-15.1430999999999987
11
25.7428569999999972
21
-15.057385
0
LINE
8
LYELLOW
6
CONTINUOUS
10
25.7428569999999972
20
-15.057385
11
25.6999999999999993
21
-14.9716709999999988
0
LINE
8
LYELLOW
6
CONTINUOUS
10
25.6999999999999993
20
-14.9716709999999988
11
25.6571429999999978
21
-14.800241999999999
0
LINE
8
LYELLOW
6
CONTINUOUS
10
25.6571429999999978
20
-14.800241999999999
11
25.6571429999999978
21
-14.6716709999999999
0
LINE
8
LYELLOW
6
CONTINUOUS
10
25.6571429999999978
20
-14.6716709999999999
11
25.6999999999999993
21
-14.5002420000000001
0
LINE
8
LYELLOW
6
CONTINUOUS
10
25.6999999999999993
20
-14.5002420000000001
11
25.7428569999999972
21
-14.4145279999999989
0
LINE
8
LYELLOW
6
CONTINUOUS
10
25.7428569999999972
20
-14.4145279999999989
11
25.8285719999999976
21
-14.3288139999999995
0
LINE
8
LYELLOW
6
CONTINUOUS
10
25.8285719999999976
20
-14.3288139999999995
11
25.9571429999999985
21
-14.2859569999999998
0
LINE
8
LYELLOW
6
CONTINUOUS
10
25.9571429999999985
20
-14.2859569999999998
11
26.0428569999999979
21
-14.2859569999999998
0
LINE
8
LYELLOW
6
CONTINUOUS
10
26.0428569999999979
20
-14.2859569999999998
11
26.1714289999999998
21
-14.3288139999999995
0
LINE
8
LYELLOW
6
CONTINUOUS
10
26.1714289999999998
20
-14.3288139999999995
11
26.2142859999999978
21
-14.3716709999999992
0
LINE
8
LYELLOW
6
CONTINUOUS
10
27.1142859999999999
20
-15.1002419999999997
11
27.0714289999999984
21
-15.1430999999999987
0
LINE
8
LYELLOW
6
CONTINUOUS
10
27.0714289999999984
20
-15.1430999999999987
11
26.9428570000000001
21
-15.1859570000000001
0
LINE
8
LYELLOW
6
CONTINUOUS
10
26.9428570000000001
20
-15.1859570000000001
11
26.8571429999999971
21
-15.1859570000000001
0
LINE
8
LYELLOW
6
CONTINUOUS
10
26.8571429999999971
20
-15.1859570000000001
11
26.7285719999999998
21
-15.1430999999999987
0
LINE
8
LYELLOW
6
CONTINUOUS
10
26.7285719999999998
20
-15.1430999999999987
11
26.6428569999999993
21
-15.057385
0
LINE
8
LYELLOW
6
CONTINUOUS
10
26.6428569999999993
20
-15.057385
11
26.5999999999999979
21
-14.9716709999999988
0
LINE
8
LYELLOW
6
CONTINUOUS
10
26.5999999999999979
20
-14.9716709999999988
11
26.5571429999999999
21
-14.800241999999999
0
LINE
8
LYELLOW
6
CONTINUOUS
10
26.5571429999999999
20
-14.800241999999999
11
26.5571429999999999
21
-14.6716709999999999
0
LINE
8
LYELLOW
6
CONTINUOUS
10
26.5571429999999999
20
-14.6716709999999999
11
26.5999999999999979
21
-14.5002420000000001
0
LINE
8
LYELLOW
6
CONTINUOUS
10
26.5999999999999979
20
-14.5002420000000001
11
26.6428569999999993
21
-14.4145279999999989
0
LINE
8
LYELLOW
6
CONTINUOUS
10
26.6428569999999993
20
-14.4145279999999989
11
26.7285719999999998
21
-14.3288139999999995
0
LINE
8
LYELLOW
6
CONTINUOUS
10
26.7285719999999998
20
-14.3288139999999995
11
26.8571429999999971
21
-14.2859569999999998
0
LINE
8
LYELLOW
6
CONTINUOUS
10
26.8571429999999971
20
-14.2859569999999998
11
26.9428570000000001
21
-14.2859569999999998
0
LINE
8
LYELLOW
6
CONTINUOUS
10
26.9428570000000001
20
-14.2859569999999998
11
27.0714289999999984
21
-14.3288139999999995
0
LINE
8
LYELLOW
6
CONTINUOUS
10
27.0714289999999984
20
-14.3288139999999995
11
27.1142859999999999
21
-14.3716709999999992
0
LINE
8
LYELLOW
6
CONTINUOUS
10
14.6666669999999986
20
-8.2045999999999992
11
14.8095239999999997
21
-8.2522190000000002
0
LINE
8
LYELLOW
6
CONTINUOUS
10
14.8095239999999997
20
-8.2522190000000002
11
15.0476189999999992
21
-8.2522190000000002
0
LINE
8
LYELLOW
6
CONTINUOUS
10
15.0476189999999992
20
-8.2522190000000002
11
15.1428569999999993
21
-8.2045999999999992
0
LINE
8
LYELLOW
6
CONTINUOUS
10
15.1428569999999993
20
-8.2045999999999992
11
15.1904759999999985
21
-8.156979999999999
0
LINE
8
LYELLOW
6
CONTINUOUS
10
15.1904759999999985
20
-8.156979999999999
11
15.2380949999999995
21
-8.0617419999999989
0
LINE
8
LYELLOW
6
CONTINUOUS
10
15.2380949999999995
20
-8.0617419999999989
11
15.2380949999999995
21
-7.9665039999999996
0
LINE
8
LYELLOW
6
CONTINUOUS
10
15.2380949999999995
20
-7.9665039999999996
11
15.1904759999999985
21
-7.8712659999999994
0
LINE
8
LYELLOW
6
CONTINUOUS
10
15.1904759999999985
20
-7.8712659999999994
11
15.1428569999999993
21
-7.8236469999999994
0
LINE
8
LYELLOW
6
CONTINUOUS
10
15.1428569999999993
20
-7.8236469999999994
11
15.0476189999999992
21
-7.7760279999999993
0
LINE
8
LYELLOW
6
CONTINUOUS
10
15.0476189999999992
20
-7.7760279999999993
11
14.8571429999999989
21
-7.7284090000000001
0
LINE
8
LYELLOW
6
CONTINUOUS
10
14.8571429999999989
20
-7.7284090000000001
11
14.7619049999999987
21
-7.68079
0
LINE
8
LYELLOW
6
CONTINUOUS
10
14.7619049999999987
20
-7.68079
11
14.7142859999999995
21
-7.6331709999999999
0
LINE
8
LYELLOW
6
CONTINUOUS
10
14.7142859999999995
20
-7.6331709999999999
11
14.6666669999999986
21
-7.5379329999999998
0
LINE
8
LYELLOW
6
CONTINUOUS
10
14.6666669999999986
20
-7.5379329999999998
11
14.6666669999999986
21
-7.4426949999999996
0
LINE
8
LYELLOW
6
CONTINUOUS
10
14.6666669999999986
20
-7.4426949999999996
11
14.7142859999999995
21
-7.3474569999999995
0
LINE
8
LYELLOW
6
CONTINUOUS
10
14.7142859999999995
20
-7.3474569999999995
11
14.7619049999999987
21
-7.2998379999999994
0
LINE
8
LYELLOW
6
CONTINUOUS
10
14.7619049999999987
20
-7.2998379999999994
11
14.8571429999999989
21
-7.2522189999999993
0
LINE
8
LYELLOW
6
CONTINUOUS
10
14.8571429999999989
20
-7.2522189999999993
11
15.0952380000000002
21
-7.2522189999999993
0
LINE
8
LYELLOW
6
CONTINUOUS
10
15.0952380000000002
20
-7.2522189999999993
11
15.2380949999999995
21
-7.2998379999999994
0
LINE
8
LYELLOW
6
CONTINUOUS
10
15.5714289999999984
20
-7.2522189999999993
11
15.8095239999999997
21
-8.2522190000000002
0
LINE
8
LYELLOW
6
CONTINUOUS
10
15.8095239999999997
20
-8.2522190000000002
11
16.
21
-7.5379329999999998
0
LINE
8
LYELLOW
6
CONTINUOUS
10
16.
20
-7.5379329999999998
11
16.1904760000000003
21
-8.2522190000000002
0
LINE
8
LYELLOW
6
CONTINUOUS
10
16.1904760000000003
20
-8.2522190000000002
11
16.4285719999999991
21
-7.2522189999999993
0
LINE
8
LYELLOW
6
CONTINUOUS
10
17.3333329999999997
20
-8.2522190000000002
11
16.7619049999999987
21
-8.2522190000000002
0
LINE
8
LYELLOW
6
CONTINUOUS
10
17.047619000000001
20
-8.2522190000000002
11
17.047619000000001
21
-7.2522189999999993
0
LINE
8
LYELLOW
6
CONTINUOUS
10
17.047619000000001
20
-7.2522189999999993
11
16.952380999999999
21
-7.3950759999999995
0
LINE
8
LYELLOW
6
CONTINUOUS
10
16.952380999999999
20
-7.3950759999999995
11
16.8571430000000007
21
-7.4903139999999997
0
LINE
8
LYELLOW
6
CONTINUOUS
10
16.8571430000000007
20
-7.4903139999999997
11
16.7619049999999987
21
-7.5379329999999998
0
LINE
8
LYELLOW
6
CONTINUOUS
10
29.6666659999999993
20
-6.3848189999999994
11
29.6666659999999993
21
-7.0991039999999996
0
LINE
8
LYELLOW
6
CONTINUOUS
10
29.6666659999999993
20
-7.0991039999999996
11
29.6190469999999983
21
-7.2419609999999999
0
LINE
8
LYELLOW
6
CONTINUOUS
10
29.6190469999999983
20
-7.2419609999999999
11
29.523809
21
-7.3371999999999993
0
LINE
8
LYELLOW
6
CONTINUOUS
10
29.523809
20
-7.3371999999999993
11
29.3809519999999971
21
-7.3848189999999994
0
LINE
8
LYELLOW
6
CONTINUOUS
10
29.3809519999999971
20
-7.3848189999999994
11
29.2857139999999987
21
-7.3848189999999994
0
LINE
8
LYELLOW
6
CONTINUOUS
10
30.0476189999999974
20
-6.3848189999999994
11
30.6666659999999993
21
-6.3848189999999994
0
LINE
8
LYELLOW
6
CONTINUOUS
10
30.6666659999999993
20
-6.3848189999999994
11
30.3333329999999997
21
-6.765771
0
LINE
8
LYELLOW
6
CONTINUOUS
10
30.3333329999999997
20
-6.765771
11
30.476189999999999
21
-6.765771
0
LINE
8
LYELLOW
6
CONTINUOUS
10
30.476189999999999
20
-6.765771
11
30.5714279999999974
21
-6.8133900000000001
0
LINE
8
LYELLOW
6
CONTINUOUS
10
30.5714279999999974
20
-6.8133900000000001
11
30.6190469999999983
21
-6.8610089999999992
0
LINE
8
LYELLOW
6
CONTINUOUS
10
30.6190469999999983
20
-6.8610089999999992
11
30.6666659999999993
21
-6.9562469999999994
0
LINE
8
LYELLOW
6
CONTINUOUS
10
30.6666659999999993
20
-6.9562469999999994
11
30.6666659999999993
21
-7.1943419999999998
0
LINE
8
LYELLOW
6
CONTINUOUS
10
30.6666659999999993
20
-7.1943419999999998
11
30.6190469999999983
21
-7.2895799999999999
0
LINE
8
LYELLOW
6
CONTINUOUS
10
30.6190469999999983
20
-7.2895799999999999
11
30.5714279999999974
21
-7.3371999999999993
0
LINE
8
LYELLOW
6
CONTINUOUS
10
30.5714279999999974
20
-7.3371999999999993
11
30.476189999999999
21
-7.3848189999999994
0
LINE
8
LYELLOW
6
CONTINUOUS
10
30.476189999999999
20
-7.3848189999999994
11
30.1904760000000003
21
-7.3848189999999994
0
LINE
8
LYELLOW
6
CONTINUOUS
10
30.1904760000000003
20
-7.3848189999999994
11
30.0952379999999984
21
-7.3371999999999993
0
LINE
8
LYELLOW
6
CONTINUOUS
10
30.0952379999999984
20
-7.3371999999999993
11
30.0476189999999974
21
-7.2895799999999999
0
LINE
8
LYELLOW
6
CONTINUOUS
10
8.9000000000000004
20
-40.8999999999999986
11
8.9000000000000004
21
-55.0999999999999943
0
LINE
8
LYELLOW
6
CONTINUOUS
10
8.9000000000000004
20
-55.0999999999999943
11
23.0999999999999979
21
-55.0999999999999943
0
LINE
8
LYELLOW
6
CONTINUOUS
10
23.0999999999999979
20
-40.8999999999999986
11
8.9000000000000004
21
-40.8999999999999986
0
LINE
8
LYELLOW
6
CONTINUOUS
10
23.0999999999999979
20
-55.0999999999999943
11
23.0999999999999979
21
-40.8999999999999986
0
LINE
8
LYELLOW
6
CONTINUOUS
10
28.6699999999999982
20
-10.9699999999999989
11
28.6699999999999982
21
-18.6499999999999986
0
LINE
8
LYELLOW
6
CONTINUOUS
10
28.6699999999999982
20
-10.9699999999999989
11
31.3299999999999983
21
-10.9699999999999989
0
LINE
8
LYELLOW
6
CONTINUOUS
10
28.6699999999999982
20
-18.6499999999999986
11
31.3299999999999983
21
-18.6499999999999986
0
LINE
8
LYELLOW
6
CONTINUOUS
10
30.
20
-8.3699999999999992
11
31.3299999999999983
21
-8.3699999999999992
0
LINE
8
LYELLOW
6
CONTINUOUS
10
31.3299999999999983
20
-8.3699999999999992
11
31.3299999999999983
21
-9.6999999999999993
0
LINE
8
LYELLOW
6
CONTINUOUS
10
31.3299999999999983
20
-10.9699999999999989
11
31.3299999999999983
21
-18.6499999999999986
0
LINE
8
LYELLOW
6
CONTINUOUS
10
24.8999999999999986
20
-40.8999999999999986
11
24.8999999999999986
21
-55.0999999999999943
0
LINE
8
LYELLOW
6
CONTINUOUS
10
24.8999999999999986
20
-55.0999999999999943
11
39.1000000000000014
21
-55.0999999999999943
0
LINE
8
LYELLOW
6
CONTINUOUS
10
39.1000000000000014
20
-40.8999999999999986
11
24.8999999999999986
21
-40.8999999999999986
0
LINE
8
LYELLOW
6
CONTINUOUS
10
39.1000000000000014
20
-55.0999999999999943
11
39.1000000000000014
21
-40.8999999999999986
0
LINE
8
LYELLOW
6
CONTINUOUS
10
72.8999999999999915
20
-24.8999999999999986
11
72.8999999999999915
21
-39.1000000000000014
0
LINE
8
LYELLOW
6
CONTINUOUS
10
72.8999999999999915
20
-39.1000000000000014
11
87.0999999999999943
21
-39.1000000000000014
0
LINE
8
LYELLOW
6
CONTINUOUS
10
87.0999999999999943
20
-24.8999999999999986
11
72.8999999999999915
21
-24.8999999999999986
0
LINE
8
LYELLOW
6
CONTINUOUS
10
87.0999999999999943
20
-39.1000000000000014
11
87.0999999999999943
21
-24.8999999999999986
0
LINE
8
LYELLOW
6
CONTINUOUS
10
8.9000000000000004
20
-8.9000000000000004
11
8.9000000000000004
21
-23.0999999999999979
0
LINE
8
LYELLOW
6
CONTINUOUS
10
8.9000000000000004
20
-23.0999999999999979
11
23.0999999999999979
21
-23.0999999999999979
0
LINE
8
LYELLOW
6
CONTINUOUS
10
23.0999999999999979
20
-8.9000000000000004
11
8.9000000000000004
21
-8.9000000000000004
0
LINE
8
LYELLOW
6
CONTINUOUS
10
23.0999999999999979
20
-23.0999999999999979
11
23.0999999999999979
21
-8.9000000000000004
0
LINE
8
LYELLOW
6
CONTINUOUS
10
40.8999999999999986
20
-40.8999999999999986
11
40.8999999999999986
21
-55.0999999999999943
0
LINE
8
LYELLOW
6
CONTINUOUS
10
40.8999999999999986
20
-55.0999999999999943
11
55.0999999999999943
21
-55.0999999999999943
0
LINE
8
LYELLOW
6
CONTINUOUS
10
55.0999999999999943
20
-40.8999999999999986
11
40.8999999999999986
21
-40.8999999999999986
0
LINE
8
LYELLOW
6
CONTINUOUS
10
55.0999999999999943
20
-55.0999999999999943
11
55.0999999999999943
21
-40.8999999999999986
0
LINE
8
LYELLOW
6
CONTINUOUS
10
24.8999999999999986
20
-24.8999999999999986
11
24.8999999999999986
21
-39.1000000000000014
0
LINE
8
LYELLOW
6
CONTINUOUS
10
24.8999999999999986
20
-39.1000000000000014
11
39.1000000000000014
21
-39.1000000000000014
0
LINE
8
LYELLOW
6
CONTINUOUS
10
39.1000000000000014
20
-24.8999999999999986
11
24.8999999999999986
21
-24.8999999999999986
0
LINE
8
LYELLOW
6
CONTINUOUS
10
39.1000000000000014
20
-39.1000000000000014
11
39.1000000000000014
21
-24.8999999999999986
0
LINE
8
LYELLOW
6
CONTINUOUS
10
72.8999999999999915
20
-40.8999999999999986
11
72.8999999999999915
21
-55.0999999999999943
0
LINE
8
LYELLOW
6
CONTINUOUS
10
72.8999999999999915
20
-55.0999999999999943
11
87.0999999999999943
21
-55.0999999999999943
0
LINE
8
LYELLOW
6
CONTINUOUS
10
87.0999999999999943
20
-40.8999999999999986
11
72.8999999999999915
21
-40.8999999999999986
0
LINE
8
LYELLOW
6
CONTINUOUS
10
87.0999999999999943
20
-55.0999999999999943
11
87.0999999999999943
21
-40.8999999999999986
0
LINE
8
LYELLOW
6
CONTINUOUS
10
56.8999999999999986
20
-24.8999999999999986
11
56.8999999999999986
21
-39.1000000000000014
0
LINE
8
LYELLOW
6
CONTINUOUS
10
56.8999999999999986
20
-39.1000000000000014
11
71.0999999999999943
21
-39.1000000000000014
0
LINE
8
LYELLOW
6
CONTINUOUS
10
71.0999999999999943
20
-24.8999999999999986
11
56.8999999999999986
21
-24.8999999999999986
0
LINE
8
LYELLOW
6
CONTINUOUS
10
71.0999999999999943
20
-39.1000000000000014
11
71.0999999999999943
21
-24.8999999999999986
0
LINE
8
LORANGE
6
CONTINUOUS
10
57.1999999999999957
20
-0.2
11
57.1999999999999957
21
-42.1000000000000014
0
LINE
8
LORANGE
6
CONTINUOUS
10
38.7999999999999972
20
-0.2
11
38.7999999999999972
21
-42.1000000000000014
0
LINE
8
LORANGE
6
CONTINUOUS
10
38.7999999999999972
20
-42.1000000000000014
11
57.1999999999999957
21
-42.1000000000000014
0
LINE
8
LORANGE
6
CONTINUOUS
10
53.428570999999998
20
-39.4161709999999985
11
53.2571429999999992
21
-39.4733139999999949
0
LINE
8
LORANGE
6
CONTINUOUS
10
53.2571429999999992
20
-39.4733139999999949
11
53.1999999999999957
21
-39.5304569999999984
0
LINE
8
LORANGE
6
CONTINUOUS
10
53.1999999999999957
20
-39.5304569999999984
11
53.1428569999999993
21
-39.6447420000000008
0
LINE
8
LORANGE
6
CONTINUOUS
10
53.1428569999999993
20
-39.6447420000000008
11
53.1428569999999993
21
-39.8161709999999971
0
LINE
8
LORANGE
6
CONTINUOUS
10
53.1428569999999993
20
-39.8161709999999971
11
53.1999999999999957
21
-39.930456999999997
0
LINE
8
LORANGE
6
CONTINUOUS
10
53.1999999999999957
20
-39.930456999999997
11
53.2571429999999992
21
-39.9876000000000005
0
LINE
8
LORANGE
6
CONTINUOUS
10
53.2571429999999992
20
-39.9876000000000005
11
53.3714279999999945
21
-40.0447419999999994
0
LINE
8
LORANGE
6
CONTINUOUS
10
53.3714279999999945
20
-40.0447419999999994
11
53.8285709999999966
21
-40.0447419999999994
0
LINE
8
LORANGE
6
CONTINUOUS
10
53.8285709999999966
20
-40.0447419999999994
11
53.8285709999999966
21
-38.8447419999999966
0
LINE
8
LORANGE
6
CONTINUOUS
10
53.8285709999999966
20
-38.8447419999999966
11
53.428570999999998
21
-38.8447419999999966
0
LINE
8
LORANGE
6
CONTINUOUS
10
53.428570999999998
20
-38.8447419999999966
11
53.3142859999999956
21
-38.901885
0
LINE
8
LORANGE
6
CONTINUOUS
10
53.3142859999999956
20
-38.901885
11
53.2571429999999992
21
-38.9590279999999964
0
LINE
8
LORANGE
6
CONTINUOUS
10
53.2571429999999992
20
-38.9590279999999964
11
53.1999999999999957
21
-39.0733139999999963
0
LINE
8
LORANGE
6
CONTINUOUS
10
53.1999999999999957
20
-39.0733139999999963
11
53.1999999999999957
21
-39.1875999999999962
0
LINE
8
LORANGE
6
CONTINUOUS
10
53.1999999999999957
20
-39.1875999999999962
11
53.2571429999999992
21
-39.3018849999999986
0
LINE
8
LORANGE
6
CONTINUOUS
10
53.2571429999999992
20
-39.3018849999999986
11
53.3142859999999956
21
-39.359027999999995
0
LINE
8
LORANGE
6
CONTINUOUS
10
53.3142859999999956
20
-39.359027999999995
11
53.428570999999998
21
-39.4161709999999985
0
LINE
8
LORANGE
6
CONTINUOUS
10
53.428570999999998
20
-39.4161709999999985
11
53.8285709999999966
21
-39.4161709999999985
0
LINE
8
LORANGE
6
CONTINUOUS
10
52.0571429999999964
20
-40.0447419999999994
11
52.6285710000000009
21
-40.0447419999999994
0
LINE
8
LORANGE
6
CONTINUOUS
10
52.6285710000000009
20
-40.0447419999999994
11
52.6285710000000009
21
-38.8447419999999966
0
LINE
8
LORANGE
6
CONTINUOUS
10
51.6571420000000003
20
-39.4161709999999985
11
51.2571419999999947
21
-39.4161709999999985
0
LINE
8
LORANGE
6
CONTINUOUS
10
51.0857139999999958
20
-40.0447419999999994
11
51.6571420000000003
21
-40.0447419999999994
0
LINE
8
LORANGE
6
CONTINUOUS
10
51.6571420000000003
20
-40.0447419999999994
11
51.6571420000000003
21
-38.8447419999999966
0
LINE
8
LORANGE
6
CONTINUOUS
10
51.6571420000000003
20
-38.8447419999999966
11
51.0857139999999958
21
-38.8447419999999966
0
LINE
8
LORANGE
6
CONTINUOUS
10
50.5714279999999974
20
-40.0447419999999994
11
50.5714279999999974
21
-38.8447419999999966
0
LINE
8
LORANGE
6
CONTINUOUS
10
50.5714279999999974
20
-38.8447419999999966
11
49.8857140000000001
21
-40.0447419999999994
0
LINE
8
LORANGE
6
CONTINUOUS
10
49.8857140000000001
20
-40.0447419999999994
11
49.8857140000000001
21
-38.8447419999999966
0
LINE
8
LORANGE
6
CONTINUOUS
10
49.3142849999999981
20
-40.0447419999999994
11
49.3142849999999981
21
-38.8447419999999966
0
LINE
8
LORANGE
6
CONTINUOUS
10
49.3142849999999981
20
-38.8447419999999966
11
49.0285709999999995
21
-38.8447419999999966
0
LINE
8
LORANGE
6
CONTINUOUS
10
49.0285709999999995
20
-38.8447419999999966
11
48.8571419999999961
21
-38.901885
0
LINE
8
LORANGE
6
CONTINUOUS
10
48.8571419999999961
20
-38.901885
11
48.7428570000000008
21
-39.0161709999999999
0
LINE
8
LORANGE
6
CONTINUOUS
10
48.7428570000000008
20
-39.0161709999999999
11
48.6857139999999973
21
-39.1304569999999998
0
LINE
8
LORANGE
6
CONTINUOUS
10
48.6857139999999973
20
-39.1304569999999998
11
48.6285710000000009
21
-39.359027999999995
0
LINE
8
LORANGE
6
CONTINUOUS
10
48.6285710000000009
20
-39.359027999999995
11
48.6285710000000009
21
-39.5304569999999984
0
LINE
8
LORANGE
6
CONTINUOUS
10
48.6285710000000009
20
-39.5304569999999984
11
48.6857139999999973
21
-39.7590280000000007
0
LINE
8
LORANGE
6
CONTINUOUS
10
48.6857139999999973
20
-39.7590280000000007
11
48.7428570000000008
21
-39.8733140000000006
0
LINE
8
LORANGE
6
CONTINUOUS
10
48.7428570000000008
20
-39.8733140000000006
11
48.8571419999999961
21
-39.9876000000000005
0
LINE
8
LORANGE
6
CONTINUOUS
10
48.8571419999999961
20
-39.9876000000000005
11
49.0285709999999995
21
-40.0447419999999994
0
LINE
8
LORANGE
6
CONTINUOUS
10
49.0285709999999995
20
-40.0447419999999994
11
49.3142849999999981
21
-40.0447419999999994
0
LINE
8
LORANGE
6
CONTINUOUS
10
47.1999989999999983
20
-40.0447419999999994
11
47.1999989999999983
21
-38.8447419999999966
0
LINE
8
LORANGE
6
CONTINUOUS
10
47.1999989999999983
20
-38.8447419999999966
11
46.7999989999999997
21
-39.7018849999999972
0
LINE
8
LORANGE
6
CONTINUOUS
10
46.7999989999999997
20
-39.7018849999999972
11
46.3999990000000011
21
-38.8447419999999966
0
LINE
8
LORANGE
6
CONTINUOUS
10
46.3999990000000011
20
-38.8447419999999966
11
46.3999990000000011
21
-40.0447419999999994
0
LINE
8
LORANGE
6
CONTINUOUS
10
45.8285699999999991
20
-40.0447419999999994
11
45.8285699999999991
21
-38.8447419999999966
0
LINE
8
LORANGE
6
CONTINUOUS
10
44.5714269999999999
20
-39.930456999999997
11
44.6285699999999963
21
-39.9876000000000005
0
LINE
8
LORANGE
6
CONTINUOUS
10
44.6285699999999963
20
-39.9876000000000005
11
44.7999979999999951
21
-40.0447419999999994
0
LINE
8
LORANGE
6
CONTINUOUS
10
44.7999979999999951
20
-40.0447419999999994
11
44.914283999999995
21
-40.0447419999999994
0
LINE
8
LORANGE
6
CONTINUOUS
10
44.914283999999995
20
-40.0447419999999994
11
45.0857129999999984
21
-39.9876000000000005
0
LINE
8
LORANGE
6
CONTINUOUS
10
45.0857129999999984
20
-39.9876000000000005
11
45.1999980000000008
21
-39.8733140000000006
0
LINE
8
LORANGE
6
CONTINUOUS
10
45.1999980000000008
20
-39.8733140000000006
11
45.2571409999999972
21
-39.7590280000000007
0
LINE
8
LORANGE
6
CONTINUOUS
10
45.2571409999999972
20
-39.7590280000000007
11
45.3142840000000007
21
-39.5304569999999984
0
LINE
8
LORANGE
6
CONTINUOUS
10
45.3142840000000007
20
-39.5304569999999984
11
45.3142840000000007
21
-39.359027999999995
0
LINE
8
LORANGE
6
CONTINUOUS
10
45.3142840000000007
20
-39.359027999999995
11
45.2571409999999972
21
-39.1304569999999998
0
LINE
8
LORANGE
6
CONTINUOUS
10
45.2571409999999972
20
-39.1304569999999998
11
45.1999980000000008
21
-39.0161709999999999
0
LINE
8
LORANGE
6
CONTINUOUS
10
45.1999980000000008
20
-39.0161709999999999
11
45.0857129999999984
21
-38.901885
0
LINE
8
LORANGE
6
CONTINUOUS
10
45.0857129999999984
20
-38.901885
11
44.914283999999995
21
-38.8447419999999966
0
LINE
8
LORANGE
6
CONTINUOUS
10
44.914283999999995
20
-38.8447419999999966
11
44.7999979999999951
21
-38.8447419999999966
0
LINE
8
LORANGE
6
CONTINUOUS
10
44.7999979999999951
20
-38.8447419999999966
11
44.6285699999999963
21
-38.901885
0
LINE
8
LORANGE
6
CONTINUOUS
10
44.6285699999999963
20
-38.901885
11
44.5714269999999999
21
-38.9590279999999964
0
LINE
8
LORANGE
6
CONTINUOUS
10
43.3714269999999971
20
-40.0447419999999994
11
43.7714269999999956
21
-39.4733139999999949
0
LINE
8
LORANGE
6
CONTINUOUS
10
44.0571410000000014
20
-40.0447419999999994
11
44.0571410000000014
21
-38.8447419999999966
0
LINE
8
LORANGE
6
CONTINUOUS
10
44.0571410000000014
20
-38.8447419999999966
11
43.5999979999999994
21
-38.8447419999999966
0
LINE
8
LORANGE
6
CONTINUOUS
10
43.5999979999999994
20
-38.8447419999999966
11
43.485712999999997
21
-38.901885
0
LINE
8
LORANGE
6
CONTINUOUS
10
43.485712999999997
20
-38.901885
11
43.4285700000000006
21
-38.9590279999999964
0
LINE
8
LORANGE
6
CONTINUOUS
10
43.4285700000000006
20
-38.9590279999999964
11
43.3714269999999971
21
-39.0733139999999963
0
LINE
8
LORANGE
6
CONTINUOUS
10
43.3714269999999971
20
-39.0733139999999963
11
43.3714269999999971
21
-39.2447419999999951
0
LINE
8
LORANGE
6
CONTINUOUS
10
43.3714269999999971
20
-39.2447419999999951
11
43.4285700000000006
21
-39.359027999999995
0
LINE
8
LORANGE
6
CONTINUOUS
10
43.4285700000000006
20
-39.359027999999995
11
43.485712999999997
21
-39.4161709999999985
0
LINE
8
LORANGE
6
CONTINUOUS
10
43.485712999999997
20
-39.4161709999999985
11
43.5999979999999994
21
-39.4733139999999949
0
LINE
8
LORANGE
6
CONTINUOUS
10
43.5999979999999994
20
-39.4733139999999949
11
44.0571410000000014
21
-39.4733139999999949
0
LINE
8
LORANGE
6
CONTINUOUS
10
42.6285699999999963
20
-38.8447419999999966
11
42.3999979999999965
21
-38.8447419999999966
0
LINE
8
LORANGE
6
CONTINUOUS
10
42.3999979999999965
20
-38.8447419999999966
11
42.2857130000000012
21
-38.901885
0
LINE
8
LORANGE
6
CONTINUOUS
10
42.2857130000000012
20
-38.901885
11
42.1714270000000013
21
-39.0161709999999999
0
LINE
8
LORANGE
6
CONTINUOUS
10
42.1714270000000013
20
-39.0161709999999999
11
42.1142839999999978
21
-39.2447419999999951
0
LINE
8
LORANGE
6
CONTINUOUS
10
42.1142839999999978
20
-39.2447419999999951
11
42.1142839999999978
21
-39.6447420000000008
0
LINE
8
LORANGE
6
CONTINUOUS
10
42.1142839999999978
20
-39.6447420000000008
11
42.1714270000000013
21
-39.8733140000000006
0
LINE
8
LORANGE
6
CONTINUOUS
10
42.1714270000000013
20
-39.8733140000000006
11
42.2857130000000012
21
-39.9876000000000005
0
LINE
8
LORANGE
6
CONTINUOUS
10
42.2857130000000012
20
-39.9876000000000005
11
42.3999979999999965
21
-40.0447419999999994
0
LINE
8
LORANGE
6
CONTINUOUS
10
42.3999979999999965
20
-40.0447419999999994
11
42.6285699999999963
21
-40.0447419999999994
0
LINE
8
LORANGE
6
CONTINUOUS
10
42.6285699999999963
20
-40.0447419999999994
11
42.7428559999999962
21
-39.9876000000000005
0
LINE
8
LORANGE
6
CONTINUOUS
10
42.7428559999999962
20
-39.9876000000000005
11
42.8571409999999986
21
-39.8733140000000006
0
LINE
8
LORANGE
6
CONTINUOUS
10
42.8571409999999986
20
-39.8733140000000006
11
42.914283999999995
21
-39.6447420000000008
0
LINE
8
LORANGE
6
CONTINUOUS
10
42.914283999999995
20
-39.6447420000000008
11
42.914283999999995
21
-39.2447419999999951
0
LINE
8
LORANGE
6
CONTINUOUS
10
42.914283999999995
20
-39.2447419999999951
11
42.8571409999999986
21
-39.0161709999999999
0
LINE
8
LORANGE
6
CONTINUOUS
10
42.8571409999999986
20
-39.0161709999999999
11
42.7428559999999962
21
-38.901885
0
LINE
8
LORANGE
6
CONTINUOUS
10
42.7428559999999962
20
-38.901885
11
42.6285699999999963
21
-38.8447419999999966
0
LINE
8
LORANGE
6
CONTINUOUS
10
49.514285000000001
20
-2.3447420000000001
11
49.514285000000001
21
-3.3161709999999998
0
LINE
8
LORANGE
6
CONTINUOUS
10
49.514285000000001
20
-3.3161709999999998
11
49.4571419999999975
21
-3.4304569999999996
0
LINE
8
LORANGE
6
CONTINUOUS
10
49.4571419999999975
20
-3.4304569999999996
11
49.3999999999999986
21
-3.4876
0
LINE
8
LORANGE
6
CONTINUOUS
10
49.3999999999999986
20
-3.4876
11
49.2857139999999987
21
-3.5447419999999998
0
LINE
8
LORANGE
6
CONTINUOUS
10
49.2857139999999987
20
-3.5447419999999998
11
49.0571419999999989
21
-3.5447419999999998
0
LINE
8
LORANGE
6
CONTINUOUS
10
49.0571419999999989
20
-3.5447419999999998
11
48.9428569999999965
21
-3.4876
0
LINE
8
LORANGE
6
CONTINUOUS
10
48.9428569999999965
20
-3.4876
11
48.8857140000000001
21
-3.4304569999999996
0
LINE
8
LORANGE
6
CONTINUOUS
10
48.8857140000000001
20
-3.4304569999999996
11
48.8285709999999966
21
-3.3161709999999998
0
LINE
8
LORANGE
6
CONTINUOUS
10
48.8285709999999966
20
-3.3161709999999998
11
48.8285709999999966
21
-2.3447420000000001
0
LINE
8
LORANGE
6
CONTINUOUS
10
48.3142849999999981
20
-3.4876
11
48.1428569999999993
21
-3.5447419999999998
0
LINE
8
LORANGE
6
CONTINUOUS
10
48.1428569999999993
20
-3.5447419999999998
11
47.8571419999999961
21
-3.5447419999999998
0
LINE
8
LORANGE
6
CONTINUOUS
10
47.8571419999999961
20
-3.5447419999999998
11
47.7428570000000008
21
-3.4876
0
LINE
8
LORANGE
6
CONTINUOUS
10
47.7428570000000008
20
-3.4876
11
47.6857139999999973
21
-3.4304569999999996
0
LINE
8
LORANGE
6
CONTINUOUS
10
47.6857139999999973
20
-3.4304569999999996
11
47.6285710000000009
21
-3.3161709999999998
0
LINE
8
LORANGE
6
CONTINUOUS
10
47.6285710000000009
20
-3.3161709999999998
11
47.6285710000000009
21
-3.2018849999999999
0
LINE
8
LORANGE
6
CONTINUOUS
10
47.6285710000000009
20
-3.2018849999999999
11
47.6857139999999973
21
-3.0875999999999997
0
LINE
8
LORANGE
6
CONTINUOUS
10
47.6857139999999973
20
-3.0875999999999997
11
47.7428570000000008
21
-3.0304569999999997
0
LINE
8
LORANGE
6
CONTINUOUS
10
47.7428570000000008
20
-3.0304569999999997
11
47.8571419999999961
21
-2.9733139999999998
0
LINE
8
LORANGE
6
CONTINUOUS
10
47.8571419999999961
20
-2.9733139999999998
11
48.0857139999999958
21
-2.9161709999999998
0
LINE
8
LORANGE
6
CONTINUOUS
10
48.0857139999999958
20
-2.9161709999999998
11
48.1999989999999983
21
-2.8590279999999999
0
LINE
8
LORANGE
6
CONTINUOUS
10
48.1999989999999983
20
-2.8590279999999999
11
48.2571419999999947
21
-2.801885
0
LINE
8
LORANGE
6
CONTINUOUS
10
48.2571419999999947
20
-2.801885
11
48.3142849999999981
21
-2.6875999999999998
0
LINE
8
LORANGE
6
CONTINUOUS
10
48.3142849999999981
20
-2.6875999999999998
11
48.3142849999999981
21
-2.5733139999999999
0
LINE
8
LORANGE
6
CONTINUOUS
10
48.3142849999999981
20
-2.5733139999999999
11
48.2571419999999947
21
-2.459028
0
LINE
8
LORANGE
6
CONTINUOUS
10
48.2571419999999947
20
-2.459028
11
48.1999989999999983
21
-2.401885
0
LINE
8
LORANGE
6
CONTINUOUS
10
48.1999989999999983
20
-2.401885
11
48.0857139999999958
21
-2.3447420000000001
0
LINE
8
LORANGE
6
CONTINUOUS
10
48.0857139999999958
20
-2.3447420000000001
11
47.7999989999999997
21
-2.3447420000000001
0
LINE
8
LORANGE
6
CONTINUOUS
10
47.7999989999999997
20
-2.3447420000000001
11
47.6285710000000009
21
-2.401885
0
LINE
8
LORANGE
6
CONTINUOUS
10
46.7142849999999967
20
-2.9161709999999998
11
46.5428569999999979
21
-2.9733139999999998
0
LINE
8
LORANGE
6
CONTINUOUS
10
46.5428569999999979
20
-2.9733139999999998
11
46.4857139999999944
21
-3.0304569999999997
0
LINE
8
LORANGE
6
CONTINUOUS
10
46.4857139999999944
20
-3.0304569999999997
11
46.428570999999998
21
-3.1447419999999999
0
LINE
8
LORANGE
6
CONTINUOUS
10
46.428570999999998
20
-3.1447419999999999
11
46.428570999999998
21
-3.3161709999999998
0
LINE
8
LORANGE
6
CONTINUOUS
10
46.428570999999998
20
-3.3161709999999998
11
46.4857139999999944
21
-3.4304569999999996
0
LINE
8
LORANGE
6
CONTINUOUS
10
46.4857139999999944
20
-3.4304569999999996
11
46.5428569999999979
21
-3.4876
0
LINE
8
LORANGE
6
CONTINUOUS
10
46.5428569999999979
20
-3.4876
11
46.6571420000000003
21
-3.5447419999999998
0
LINE
8
LORANGE
6
CONTINUOUS
10
46.6571420000000003
20
-3.5447419999999998
11
47.1142849999999953
21
-3.5447419999999998
0
LINE
8
LORANGE
6
CONTINUOUS
10
47.1142849999999953
20
-3.5447419999999998
11
47.1142849999999953
21
-2.3447420000000001
0
LINE
8
LORANGE
6
CONTINUOUS
10
47.1142849999999953
20
-2.3447420000000001
11
46.7142849999999967
21
-2.3447420000000001
0
LINE
8
LORANGE
6
CONTINUOUS
10
46.7142849999999967
20
-2.3447420000000001
11
46.6000000000000014
21
-2.401885
0
LINE
8
LORANGE
6
CONTINUOUS
10
46.6000000000000014
20
-2.401885
11
46.5428569999999979
21
-2.459028
0
LINE
8
LORANGE
6
CONTINUOUS
10
46.5428569999999979
20
-2.459028
11
46.4857139999999944
21
-2.5733139999999999
0
LINE
8
LORANGE
6
CONTINUOUS
10
46.4857139999999944
20
-2.5733139999999999
11
46.4857139999999944
21
-2.6875999999999998
0
LINE
8
LORANGE
6
CONTINUOUS
10
46.4857139999999944
20
-2.6875999999999998
11
46.5428569999999979
21
-2.801885
0
LINE
8
LORANGE
6
CONTINUOUS
10
46.5428569999999979
20
-2.801885
11
46.6000000000000014
21
-2.8590279999999999
0
LINE
8
LORANGE
6
CONTINUOUS
10
46.6000000000000014
20
-2.8590279999999999
11
46.7142849999999967
21
-2.9161709999999998
0
LINE
8
LORANGE
6
CONTINUOUS
10
46.7142849999999967
20
-2.9161709999999998
11
47.1142849999999953
21
-2.9161709999999998
0
LINE
8
LORANGE
6
CONTINUOUS
10
17.0666669999999989
20
-52.3241999999999976
11
16.952380999999999
21
-52.362294999999996
0
LINE
8
LORANGE
6
CONTINUOUS
10
16.952380999999999
20
-52.362294999999996
11
16.7619049999999987
21
-52.362294999999996
0
LINE
8
LORANGE
6
CONTINUOUS
10
16.7619049999999987
20
-52.362294999999996
11
16.6857140000000008
21
-52.3241999999999976
0
LINE
8
LORANGE
6
CONTINUOUS
10
16.6857140000000008
20
-52.3241999999999976
11
16.6476189999999988
21
-52.2861039999999946
0
LINE
8
LORANGE
6
CONTINUOUS
10
16.6476189999999988
20
-52.2861039999999946
11
16.6095240000000004
21
-52.2099139999999977
0
LINE
8
LORANGE
6
CONTINUOUS
10
16.6095240000000004
20
-52.2099139999999977
11
16.6095240000000004
21
-52.1337229999999963
0
LINE
8
LORANGE
6
CONTINUOUS
10
16.6095240000000004
20
-52.1337229999999963
11
16.6476189999999988
21
-52.0575329999999994
0
LINE
8
LORANGE
6
CONTINUOUS
10
16.6476189999999988
20
-52.0575329999999994
11
16.6857140000000008
21
-52.019438000000001
0
LINE
8
LORANGE
6
CONTINUOUS
10
16.6857140000000008
20
-52.019438000000001
11
16.7619049999999987
21
-51.9813419999999979
0
LINE
8
LORANGE
6
CONTINUOUS
10
16.7619049999999987
20
-51.9813419999999979
11
16.9142860000000006
21
-51.9432469999999995
0
LINE
8
LORANGE
6
CONTINUOUS
10
16.9142860000000006
20
-51.9432469999999995
11
16.9904759999999975
21
-51.9051520000000011
0
LINE
8
LORANGE
6
CONTINUOUS
10
16.9904759999999975
20
-51.9051520000000011
11
17.0285709999999995
21
-51.8670569999999955
0
LINE
8
LORANGE
6
CONTINUOUS
10
17.0285709999999995
20
-51.8670569999999955
11
17.0666669999999989
21
-51.7908660000000012
0
LINE
8
LORANGE
6
CONTINUOUS
10
17.0666669999999989
20
-51.7908660000000012
11
17.0666669999999989
21
-51.7146759999999972
0
LINE
8
LORANGE
6
CONTINUOUS
10
17.0666669999999989
20
-51.7146759999999972
11
17.0285709999999995
21
-51.6384849999999958
0
LINE
8
LORANGE
6
CONTINUOUS
10
17.0285709999999995
20
-51.6384849999999958
11
16.9904759999999975
21
-51.6003899999999973
0
LINE
8
LORANGE
6
CONTINUOUS
10
16.9904759999999975
20
-51.6003899999999973
11
16.9142860000000006
21
-51.5622949999999989
0
LINE
8
LORANGE
6
CONTINUOUS
10
16.9142860000000006
20
-51.5622949999999989
11
16.7238089999999993
21
-51.5622949999999989
0
LINE
8
LORANGE
6
CONTINUOUS
10
16.7238089999999993
20
-51.5622949999999989
11
16.6095240000000004
21
-51.6003899999999973
0
LINE
8
LORANGE
6
CONTINUOUS
10
16.3428569999999986
20
-51.5622949999999989
11
16.1523809999999983
21
-52.362294999999996
0
LINE
8
LORANGE
6
CONTINUOUS
10
16.1523809999999983
20
-52.362294999999996
11
16.
21
-51.7908660000000012
0
LINE
8
LORANGE
6
CONTINUOUS
10
16.
20
-51.7908660000000012
11
15.8476189999999999
21
-52.362294999999996
0
LINE
8
LORANGE
6
CONTINUOUS
10
15.8476189999999999
20
-52.362294999999996
11
15.6571429999999996
21
-51.5622949999999989
0
LINE
8
LORANGE
6
CONTINUOUS
10
15.4285709999999998
20
-51.5622949999999989
11
14.9333329999999993
21
-51.5622949999999989
0
LINE
8
LORANGE
6
CONTINUOUS
10
14.9333329999999993
20
-51.5622949999999989
11
15.199999
21
-51.8670569999999955
0
LINE
8
LORANGE
6
CONTINUOUS
10
15.199999
20
-51.8670569999999955
11
15.0857139999999994
21
-51.8670569999999955
0
LINE
8
LORANGE
6
CONTINUOUS
10
15.0857139999999994
20
-51.8670569999999955
11
15.0095229999999997
21
-51.9051520000000011
0
LINE
8
LORANGE
6
CONTINUOUS
10
15.0095229999999997
20
-51.9051520000000011
11
14.9714279999999995
21
-51.9432469999999995
0
LINE
8
LORANGE
6
CONTINUOUS
10
14.9714279999999995
20
-51.9432469999999995
11
14.9333329999999993
21
-52.019438000000001
0
LINE
8
LORANGE
6
CONTINUOUS
10
14.9333329999999993
20
-52.019438000000001
11
14.9333329999999993
21
-52.2099139999999977
0
LINE
8
LORANGE
6
CONTINUOUS
10
14.9333329999999993
20
-52.2099139999999977
11
14.9714279999999995
21
-52.2861039999999946
0
LINE
8
LORANGE
6
CONTINUOUS
10
14.9714279999999995
20
-52.2861039999999946
11
15.0095229999999997
21
-52.3241999999999976
0
LINE
8
LORANGE
6
CONTINUOUS
10
15.0095229999999997
20
-52.3241999999999976
11
15.0857139999999994
21
-52.362294999999996
0
LINE
8
LORANGE
6
CONTINUOUS
10
15.0857139999999994
20
-52.362294999999996
11
15.3142849999999999
21
-52.362294999999996
0
LINE
8
LORANGE
6
CONTINUOUS
10
15.3142849999999999
20
-52.362294999999996
11
15.3904759999999996
21
-52.3241999999999976
0
LINE
8
LORANGE
6
CONTINUOUS
10
15.3904759999999996
20
-52.3241999999999976
11
15.4285709999999998
21
-52.2861039999999946
0
LINE
8
LORANGE
6
CONTINUOUS
10
33.0666669999999954
20
-52.3241999999999976
11
32.9523809999999955
21
-52.362294999999996
0
LINE
8
LORANGE
6
CONTINUOUS
10
32.9523809999999955
20
-52.362294999999996
11
32.7619049999999987
21
-52.362294999999996
0
LINE
8
LORANGE
6
CONTINUOUS
10
32.7619049999999987
20
-52.362294999999996
11
32.6857139999999973
21
-52.3241999999999976
0
LINE
8
LORANGE
6
CONTINUOUS
10
32.6857139999999973
20
-52.3241999999999976
11
32.6476189999999988
21
-52.2861039999999946
0
LINE
8
LORANGE
6
CONTINUOUS
10
32.6476189999999988
20
-52.2861039999999946
11
32.6095240000000004
21
-52.2099139999999977
0
LINE
8
LORANGE
6
CONTINUOUS
10
32.6095240000000004
20
-52.2099139999999977
11
32.6095240000000004
21
-52.1337229999999963
0
LINE
8
LORANGE
6
CONTINUOUS
10
32.6095240000000004
20
-52.1337229999999963
11
32.6476189999999988
21
-52.0575329999999994
0
LINE
8
LORANGE
6
CONTINUOUS
10
32.6476189999999988
20
-52.0575329999999994
11
32.6857139999999973
21
-52.019438000000001
0
LINE
8
LORANGE
6
CONTINUOUS
10
32.6857139999999973
20
-52.019438000000001
11
32.7619049999999987
21
-51.9813419999999979
0
LINE
8
LORANGE
6
CONTINUOUS
10
32.7619049999999987
20
-51.9813419999999979
11
32.914285999999997
21
-51.9432469999999995
0
LINE
8
LORANGE
6
CONTINUOUS
10
32.914285999999997
20
-51.9432469999999995
11
32.990476000000001
21
-51.9051520000000011
0
LINE
8
LORANGE
6
CONTINUOUS
10
32.990476000000001
20
-51.9051520000000011
11
33.0285709999999995
21
-51.8670569999999955
0
LINE
8
LORANGE
6
CONTINUOUS
10
33.0285709999999995
20
-51.8670569999999955
11
33.0666669999999954
21
-51.7908660000000012
0
LINE
8
LORANGE
6
CONTINUOUS
10
33.0666669999999954
20
-51.7908660000000012
11
33.0666669999999954
21
-51.7146759999999972
0
LINE
8
LORANGE
6
CONTINUOUS
10
33.0666669999999954
20
-51.7146759999999972
11
33.0285709999999995
21
-51.6384849999999958
0
LINE
8
LORANGE
6
CONTINUOUS
10
33.0285709999999995
20
-51.6384849999999958
11
32.990476000000001
21
-51.6003899999999973
0
LINE
8
LORANGE
6
CONTINUOUS
10
32.990476000000001
20
-51.6003899999999973
11
32.914285999999997
21
-51.5622949999999989
0
LINE
8
LORANGE
6
CONTINUOUS
10
32.914285999999997
20
-51.5622949999999989
11
32.7238089999999957
21
-51.5622949999999989
0
LINE
8
LORANGE
6
CONTINUOUS
10
32.7238089999999957
20
-51.5622949999999989
11
32.6095240000000004
21
-51.6003899999999973
0
LINE
8
LORANGE
6
CONTINUOUS
10
32.3428569999999951
20
-51.5622949999999989
11
32.1523809999999983
21
-52.362294999999996
0
LINE
8
LORANGE
6
CONTINUOUS
10
32.1523809999999983
20
-52.362294999999996
11
32.
21
-51.7908660000000012
0
LINE
8
LORANGE
6
CONTINUOUS
10
32.
20
-51.7908660000000012
11
31.8476189999999981
21
-52.362294999999996
0
LINE
8
LORANGE
6
CONTINUOUS
10
31.8476189999999981
20
-52.362294999999996
11
31.6571429999999978
21
-51.5622949999999989
0
LINE
8
LORANGE
6
CONTINUOUS
10
31.0095229999999979
20
-51.8289609999999996
11
31.0095229999999979
21
-52.362294999999996
0
LINE
8
LORANGE
6
CONTINUOUS
10
31.1999989999999983
20
-51.5242000000000004
11
31.3904759999999996
21
-52.0956279999999978
0
LINE
8
LORANGE
6
CONTINUOUS
10
31.3904759999999996
20
-52.0956279999999978
11
30.8952369999999981
21
-52.0956279999999978
0
LINE
8
LORANGE
6
CONTINUOUS
10
81.0666669999999954
20
-36.3241999999999976
11
80.9523810000000026
21
-36.362294999999996
0
LINE
8
LORANGE
6
CONTINUOUS
10
80.9523810000000026
20
-36.362294999999996
11
80.7619049999999987
21
-36.362294999999996
0
LINE
8
LORANGE
6
CONTINUOUS
10
80.7619049999999987
20
-36.362294999999996
11
80.6857139999999902
21
-36.3241999999999976
0
LINE
8
LORANGE
6
CONTINUOUS
10
80.6857139999999902
20
-36.3241999999999976
11
80.6476189999999917
21
-36.2861040000000017
0
LINE
8
LORANGE
6
CONTINUOUS
10
80.6476189999999917
20
-36.2861040000000017
11
80.6095239999999933
21
-36.2099139999999977
0
LINE
8
LORANGE
6
CONTINUOUS
10
80.6095239999999933
20
-36.2099139999999977
11
80.6095239999999933
21
-36.1337229999999963
0
LINE
8
LORANGE
6
CONTINUOUS
10
80.6095239999999933
20
-36.1337229999999963
11
80.6476189999999917
21
-36.0575329999999994
0
LINE
8
LORANGE
6
CONTINUOUS
10
80.6476189999999917
20
-36.0575329999999994
11
80.6857139999999902
21
-36.019438000000001
0
LINE
8
LORANGE
6
CONTINUOUS
10
80.6857139999999902
20
-36.019438000000001
11
80.7619049999999987
21
-35.9813419999999979
0
LINE
8
LORANGE
6
CONTINUOUS
10
80.7619049999999987
20
-35.9813419999999979
11
80.9142859999999899
21
-35.9432469999999995
0
LINE
8
LORANGE
6
CONTINUOUS
10
80.9142859999999899
20
-35.9432469999999995
11
80.990476000000001
21
-35.9051520000000011
0
LINE
8
LORANGE
6
CONTINUOUS
10
80.990476000000001
20
-35.9051520000000011
11
81.0285709999999995
21
-35.8670569999999955
0
LINE
8
LORANGE
6
CONTINUOUS
10
81.0285709999999995
20
-35.8670569999999955
11
81.0666669999999954
21
-35.7908660000000012
0
LINE
8
LORANGE
6
CONTINUOUS
10
81.0666669999999954
20
-35.7908660000000012
11
81.0666669999999954
21
-35.7146759999999972
0
LINE
8
LORANGE
6
CONTINUOUS
10
81.0666669999999954
20
-35.7146759999999972
11
81.0285709999999995
21
-35.6384849999999958
0
LINE
8
LORANGE
6
CONTINUOUS
10
81.0285709999999995
20
-35.6384849999999958
11
80.990476000000001
21
-35.6003899999999973
0
LINE
8
LORANGE
6
CONTINUOUS
10
80.990476000000001
20
-35.6003899999999973
11
80.9142859999999899
21
-35.5622949999999989
0
LINE
8
LORANGE
6
CONTINUOUS
10
80.9142859999999899
20
-35.5622949999999989
11
80.7238090000000028
21
-35.5622949999999989
0
LINE
8
LORANGE
6
CONTINUOUS
10
80.7238090000000028
20
-35.5622949999999989
11
80.6095239999999933
21
-35.6003899999999973
0
LINE
8
LORANGE
6
CONTINUOUS
10
80.3428569999999951
20
-35.5622949999999989
11
80.1523809999999912
21
-36.362294999999996
0
LINE
8
LORANGE
6
CONTINUOUS
10
80.1523809999999912
20
-36.362294999999996
11
80.
21
-35.7908660000000012
0
LINE
8
LORANGE
6
CONTINUOUS
10
80.
20
-35.7908660000000012
11
79.8476189999999946
21
-36.362294999999996
0
LINE
8
LORANGE
6
CONTINUOUS
10
79.8476189999999946
20
-36.362294999999996
11
79.6571429999999907
21
-35.5622949999999989
0
LINE
8
LORANGE
6
CONTINUOUS
10
79.4285709999999909
20
-35.5622949999999989
11
78.8952369999999945
21
-35.5622949999999989
0
LINE
8
LORANGE
6
CONTINUOUS
10
78.8952369999999945
20
-35.5622949999999989
11
79.2380950000000013
21
-36.362294999999996
0
LINE
8
LORANGE
6
CONTINUOUS
10
17.0666669999999989
20
-20.3241999999999976
11
16.952380999999999
21
-20.3622949999999996
0
LINE
8
LORANGE
6
CONTINUOUS
10
16.952380999999999
20
-20.3622949999999996
11
16.7619049999999987
21
-20.3622949999999996
0
LINE
8
LORANGE
6
CONTINUOUS
10
16.7619049999999987
20
-20.3622949999999996
11
16.6857140000000008
21
-20.3241999999999976
0
LINE
8
LORANGE
6
CONTINUOUS
10
16.6857140000000008
20
-20.3241999999999976
11
16.6476189999999988
21
-20.2861039999999981
0
LINE
8
LORANGE
6
CONTINUOUS
10
16.6476189999999988
20
-20.2861039999999981
11
16.6095240000000004
21
-20.2099139999999977
0
LINE
8
LORANGE
6
CONTINUOUS
10
16.6095240000000004
20
-20.2099139999999977
11
16.6095240000000004
21
-20.1337229999999998
0
LINE
8
LORANGE
6
CONTINUOUS
10
16.6095240000000004
20
-20.1337229999999998
11
16.6476189999999988
21
-20.0575329999999994
0
LINE
8
LORANGE
6
CONTINUOUS
10
16.6476189999999988
20
-20.0575329999999994
11
16.6857140000000008
21
-20.0194379999999974
0
LINE
8
LORANGE
6
CONTINUOUS
10
16.6857140000000008
20
-20.0194379999999974
11
16.7619049999999987
21
-19.9813419999999979
0
LINE
8
LORANGE
6
CONTINUOUS
10
16.7619049999999987
20
-19.9813419999999979
11
16.9142860000000006
21
-19.9432469999999995
0
LINE
8
LORANGE
6
CONTINUOUS
10
16.9142860000000006
20
-19.9432469999999995
11
16.9904759999999975
21
-19.9051519999999975
0
LINE
8
LORANGE
6
CONTINUOUS
10
16.9904759999999975
20
-19.9051519999999975
11
17.0285709999999995
21
-19.8670569999999991
0
LINE
8
LORANGE
6
CONTINUOUS
10
17.0285709999999995
20
-19.8670569999999991
11
17.0666669999999989
21
-19.7908659999999976
0
LINE
8
LORANGE
6
CONTINUOUS
10
17.0666669999999989
20
-19.7908659999999976
11
17.0666669999999989
21
-19.7146760000000008
0
LINE
8
LORANGE
6
CONTINUOUS
10
17.0666669999999989
20
-19.7146760000000008
11
17.0285709999999995
21
-19.6384849999999993
0
LINE
8
LORANGE
6
CONTINUOUS
10
17.0285709999999995
20
-19.6384849999999993
11
16.9904759999999975
21
-19.6003900000000009
0
LINE
8
LORANGE
6
CONTINUOUS
10
16.9904759999999975
20
-19.6003900000000009
11
16.9142860000000006
21
-19.5622949999999989
0
LINE
8
LORANGE
6
CONTINUOUS
10
16.9142860000000006
20
-19.5622949999999989
11
16.7238089999999993
21
-19.5622949999999989
0
LINE
8
LORANGE
6
CONTINUOUS
10
16.7238089999999993
20
-19.5622949999999989
11
16.6095240000000004
21
-19.6003900000000009
0
LINE
8
LORANGE
6
CONTINUOUS
10
16.3428569999999986
20
-19.5622949999999989
11
16.1523809999999983
21
-20.3622949999999996
0
LINE
8
LORANGE
6
CONTINUOUS
10
16.1523809999999983
20
-20.3622949999999996
11
16.
21
-19.7908659999999976
0
LINE
8
LORANGE
6
CONTINUOUS
10
16.
20
-19.7908659999999976
11
15.8476189999999999
21
-20.3622949999999996
0
LINE
8
LORANGE
6
CONTINUOUS
10
15.8476189999999999
20
-20.3622949999999996
11
15.6571429999999996
21
-19.5622949999999989
0
LINE
8
LORANGE
6
CONTINUOUS
10
14.9333329999999993
20
-20.3622949999999996
11
15.3904759999999996
21
-20.3622949999999996
0
LINE
8
LORANGE
6
CONTINUOUS
10
15.1619039999999998
20
-20.3622949999999996
11
15.1619039999999998
21
-19.5622949999999989
0
LINE
8
LORANGE
6
CONTINUOUS
10
15.1619039999999998
20
-19.5622949999999989
11
15.2380949999999995
21
-19.6765799999999977
0
LINE
8
LORANGE
6
CONTINUOUS
10
15.2380949999999995
20
-19.6765799999999977
11
15.3142849999999999
21
-19.7527709999999992
0
LINE
8
LORANGE
6
CONTINUOUS
10
15.3142849999999999
20
-19.7527709999999992
11
15.3904759999999996
21
-19.7908659999999976
0
LINE
8
LORANGE
6
CONTINUOUS
10
49.0666669999999954
20
-52.3241999999999976
11
48.9523809999999955
21
-52.362294999999996
0
LINE
8
LORANGE
6
CONTINUOUS
10
48.9523809999999955
20
-52.362294999999996
11
48.7619049999999987
21
-52.362294999999996
0
LINE
8
LORANGE
6
CONTINUOUS
10
48.7619049999999987
20
-52.362294999999996
11
48.6857139999999973
21
-52.3241999999999976
0
LINE
8
LORANGE
6
CONTINUOUS
10
48.6857139999999973
20
-52.3241999999999976
11
48.6476189999999988
21
-52.2861039999999946
0
LINE
8
LORANGE
6
CONTINUOUS
10
48.6476189999999988
20
-52.2861039999999946
11
48.6095240000000004
21
-52.2099139999999977
0
LINE
8
LORANGE
6
CONTINUOUS
10
48.6095240000000004
20
-52.2099139999999977
11
48.6095240000000004
21
-52.1337229999999963
0
LINE
8
LORANGE
6
CONTINUOUS
10
48.6095240000000004
20
-52.1337229999999963
11
48.6476189999999988
21
-52.0575329999999994
0
LINE
8
LORANGE
6
CONTINUOUS
10
48.6476189999999988
20
-52.0575329999999994
11
48.6857139999999973
21
-52.019438000000001
0
LINE
8
LORANGE
6
CONTINUOUS
10
48.6857139999999973
20
-52.019438000000001
11
48.7619049999999987
21
-51.9813419999999979
0
LINE
8
LORANGE
6
CONTINUOUS
10
48.7619049999999987
20
-51.9813419999999979
11
48.914285999999997
21
-51.9432469999999995
0
LINE
8
LORANGE
6
CONTINUOUS
10
48.914285999999997
20
-51.9432469999999995
11
48.990476000000001
21
-51.9051520000000011
0
LINE
8
LORANGE
6
CONTINUOUS
10
48.990476000000001
20
-51.9051520000000011
11
49.0285709999999995
21
-51.8670569999999955
0
LINE
8
LORANGE
6
CONTINUOUS
10
49.0285709999999995
20
-51.8670569999999955
11
49.0666669999999954
21
-51.7908660000000012
0
LINE
8
LORANGE
6
CONTINUOUS
10
49.0666669999999954
20
-51.7908660000000012
11
49.0666669999999954
21
-51.7146759999999972
0
LINE
8
LORANGE
6
CONTINUOUS
10
49.0666669999999954
20
-51.7146759999999972
11
49.0285709999999995
21
-51.6384849999999958
0
LINE
8
LORANGE
6
CONTINUOUS
10
49.0285709999999995
20
-51.6384849999999958
11
48.990476000000001
21
-51.6003899999999973
0
LINE
8
LORANGE
6
CONTINUOUS
10
48.990476000000001
20
-51.6003899999999973
11
48.914285999999997
21
-51.5622949999999989
0
LINE
8
LORANGE
6
CONTINUOUS
10
48.914285999999997
20
-51.5622949999999989
11
48.7238089999999957
21
-51.5622949999999989
0
LINE
8
LORANGE
6
CONTINUOUS
10
48.7238089999999957
20
-51.5622949999999989
11
48.6095240000000004
21
-51.6003899999999973
0
LINE
8
LORANGE
6
CONTINUOUS
10
48.3428569999999951
20
-51.5622949999999989
11
48.1523809999999983
21
-52.362294999999996
0
LINE
8
LORANGE
6
CONTINUOUS
10
48.1523809999999983
20
-52.362294999999996
11
48.
21
-51.7908660000000012
0
LINE
8
LORANGE
6
CONTINUOUS
10
48.
20
-51.7908660000000012
11
47.8476189999999946
21
-52.362294999999996
0
LINE
8
LORANGE
6
CONTINUOUS
10
47.8476189999999946
20
-52.362294999999996
11
47.6571429999999978
21
-51.5622949999999989
0
LINE
8
LORANGE
6
CONTINUOUS
10
46.971427999999996
20
-51.5622949999999989
11
47.3523799999999966
21
-51.5622949999999989
0
LINE
8
LORANGE
6
CONTINUOUS
10
47.3523799999999966
20
-51.5622949999999989
11
47.3904759999999996
21
-51.9432469999999995
0
LINE
8
LORANGE
6
CONTINUOUS
10
47.3904759999999996
20
-51.9432469999999995
11
47.3523799999999966
21
-51.9051520000000011
0
LINE
8
LORANGE
6
CONTINUOUS
10
47.3523799999999966
20
-51.9051520000000011
11
47.2761899999999997
21
-51.8670569999999955
0
LINE
8
LORANGE
6
CONTINUOUS
10
47.2761899999999997
20
-51.8670569999999955
11
47.0857139999999958
21
-51.8670569999999955
0
LINE
8
LORANGE
6
CONTINUOUS
10
47.0857139999999958
20
-51.8670569999999955
11
47.0095229999999944
21
-51.9051520000000011
0
LINE
8
LORANGE
6
CONTINUOUS
10
47.0095229999999944
20
-51.9051520000000011
11
46.971427999999996
21
-51.9432469999999995
0
LINE
8
LORANGE
6
CONTINUOUS
10
46.971427999999996
20
-51.9432469999999995
11
46.9333329999999975
21
-52.019438000000001
0
LINE
8
LORANGE
6
CONTINUOUS
10
46.9333329999999975
20
-52.019438000000001
11
46.9333329999999975
21
-52.2099139999999977
0
LINE
8
LORANGE
6
CONTINUOUS
10
46.9333329999999975
20
-52.2099139999999977
11
46.971427999999996
21
-52.2861039999999946
0
LINE
8
LORANGE
6
CONTINUOUS
10
46.971427999999996
20
-52.2861039999999946
11
47.0095229999999944
21
-52.3241999999999976
0
LINE
8
LORANGE
6
CONTINUOUS
10
47.0095229999999944
20
-52.3241999999999976
11
47.0857139999999958
21
-52.362294999999996
0
LINE
8
LORANGE
6
CONTINUOUS
10
47.0857139999999958
20
-52.362294999999996
11
47.2761899999999997
21
-52.362294999999996
0
LINE
8
LORANGE
6
CONTINUOUS
10
47.2761899999999997
20
-52.362294999999996
11
47.3523799999999966
21
-52.3241999999999976
0
LINE
8
LORANGE
6
CONTINUOUS
10
47.3523799999999966
20
-52.3241999999999976
11
47.3904759999999996
21
-52.2861039999999946
0
LINE
8
LORANGE
6
CONTINUOUS
10
33.0666669999999954
20
-36.3241999999999976
11
32.9523809999999955
21
-36.362294999999996
0
LINE
8
LORANGE
6
CONTINUOUS
10
32.9523809999999955
20
-36.362294999999996
11
32.7619049999999987
21
-36.362294999999996
0
LINE
8
LORANGE
6
CONTINUOUS
10
32.7619049999999987
20
-36.362294999999996
11
32.6857139999999973
21
-36.3241999999999976
0
LINE
8
LORANGE
6
CONTINUOUS
10
32.6857139999999973
20
-36.3241999999999976
11
32.6476189999999988
21
-36.2861040000000017
0
LINE
8
LORANGE
6
CONTINUOUS
10
32.6476189999999988
20
-36.2861040000000017
11
32.6095240000000004
21
-36.2099139999999977
0
LINE
8
LORANGE
6
CONTINUOUS
10
32.6095240000000004
20
-36.2099139999999977
11
32.6095240000000004
21
-36.1337229999999963
0
LINE
8
LORANGE
6
CONTINUOUS
10
32.6095240000000004
20
-36.1337229999999963
11
32.6476189999999988
21
-36.0575329999999994
0
LINE
8
LORANGE
6
CONTINUOUS
10
32.6476189999999988
20
-36.0575329999999994
11
32.6857139999999973
21
-36.019438000000001
0
LINE
8
LORANGE
6
CONTINUOUS
10
32.6857139999999973
20
-36.019438000000001
11
32.7619049999999987
21
-35.9813419999999979
0
LINE
8
LORANGE
6
CONTINUOUS
10
32.7619049999999987
20
-35.9813419999999979
11
32.914285999999997
21
-35.9432469999999995
0
LINE
8
LORANGE
6
CONTINUOUS
10
32.914285999999997
20
-35.9432469999999995
11
32.990476000000001
21
-35.9051520000000011
0
LINE
8
LORANGE
6
CONTINUOUS
10
32.990476000000001
20
-35.9051520000000011
11
33.0285709999999995
21
-35.8670569999999955
0
LINE
8
LORANGE
6
CONTINUOUS
10
33.0285709999999995
20
-35.8670569999999955
11
33.0666669999999954
21
-35.7908660000000012
0
LINE
8
LORANGE
6
CONTINUOUS
10
33.0666669999999954
20
-35.7908660000000012
11
33.0666669999999954
21
-35.7146759999999972
0
LINE
8
LORANGE
6
CONTINUOUS
10
33.0666669999999954
20
-35.7146759999999972
11
33.0285709999999995
21
-35.6384849999999958
0
LINE
8
LORANGE
6
CONTINUOUS
10
33.0285709999999995
20
-35.6384849999999958
11
32.990476000000001
21
-35.6003899999999973
0
LINE
8
LORANGE
6
CONTINUOUS
10
32.990476000000001
20
-35.6003899999999973
11
32.914285999999997
21
-35.5622949999999989
0
LINE
8
LORANGE
6
CONTINUOUS
10
32.914285999999997
20
-35.5622949999999989
11
32.7238089999999957
21
-35.5622949999999989
0
LINE
8
LORANGE
6
CONTINUOUS
10
32.7238089999999957
20
-35.5622949999999989
11
32.6095240000000004
21
-35.6003899999999973
0
LINE
8
LORANGE
6
CONTINUOUS
10
32.3428569999999951
20
-35.5622949999999989
11
32.1523809999999983
21
-36.362294999999996
0
LINE
8
LORANGE
6
CONTINUOUS
10
32.1523809999999983
20
-36.362294999999996
11
32.
21
-35.7908660000000012
0
LINE
8
LORANGE
6
CONTINUOUS
10
32.
20
-35.7908660000000012
11
31.8476189999999981
21
-36.362294999999996
0
LINE
8
LORANGE
6
CONTINUOUS
10
31.8476189999999981
20
-36.362294999999996
11
31.6571429999999978
21
-35.5622949999999989
0
LINE
8
LORANGE
6
CONTINUOUS
10
31.3904759999999996
20
-35.6384849999999958
11
31.3523800000000001
21
-35.6003899999999973
0
LINE
8
LORANGE
6
CONTINUOUS
10
31.3523800000000001
20
-35.6003899999999973
11
31.2761899999999997
21
-35.5622949999999989
0
LINE
8
LORANGE
6
CONTINUOUS
10
31.2761899999999997
20
-35.5622949999999989
11
31.0857139999999994
21
-35.5622949999999989
0
LINE
8
LORANGE
6
CONTINUOUS
10
31.0857139999999994
20
-35.5622949999999989
11
31.0095229999999979
21
-35.6003899999999973
0
LINE
8
LORANGE
6
CONTINUOUS
10
31.0095229999999979
20
-35.6003899999999973
11
30.9714279999999995
21
-35.6384849999999958
0
LINE
8
LORANGE
6
CONTINUOUS
10
30.9714279999999995
20
-35.6384849999999958
11
30.9333329999999975
21
-35.7146759999999972
0
LINE
8
LORANGE
6
CONTINUOUS
10
30.9333329999999975
20
-35.7146759999999972
11
30.9333329999999975
21
-35.7908660000000012
0
LINE
8
LORANGE
6
CONTINUOUS
10
30.9333329999999975
20
-35.7908660000000012
11
30.9714279999999995
21
-35.9051520000000011
0
LINE
8
LORANGE
6
CONTINUOUS
10
30.9714279999999995
20
-35.9051520000000011
11
31.428570999999998
21
-36.362294999999996
0
LINE
8
LORANGE
6
CONTINUOUS
10
31.428570999999998
20
-36.362294999999996
11
30.9333329999999975
21
-36.362294999999996
0
LINE
8
LORANGE
6
CONTINUOUS
10
81.0666669999999954
20
-52.3241999999999976
11
80.9523810000000026
21
-52.362294999999996
0
LINE
8
LORANGE
6
CONTINUOUS
10
80.9523810000000026
20
-52.362294999999996
11
80.7619049999999987
21
-52.362294999999996
0
LINE
8
LORANGE
6
CONTINUOUS
10
80.7619049999999987
20
-52.362294999999996
11
80.6857139999999902
21
-52.3241999999999976
0
LINE
8
LORANGE
6
CONTINUOUS
10
80.6857139999999902
20
-52.3241999999999976
11
80.6476189999999917
21
-52.2861039999999946
0
LINE
8
LORANGE
6
CONTINUOUS
10
80.6476189999999917
20
-52.2861039999999946
11
80.6095239999999933
21
-52.2099139999999977
0
LINE
8
LORANGE
6
CONTINUOUS
10
80.6095239999999933
20
-52.2099139999999977
11
80.6095239999999933
21
-52.1337229999999963
0
LINE
8
LORANGE
6
CONTINUOUS
10
80.6095239999999933
20
-52.1337229999999963
11
80.6476189999999917
21
-52.0575329999999994
0
LINE
8
LORANGE
6
CONTINUOUS
10
80.6476189999999917
20
-52.0575329999999994
11
80.6857139999999902
21
-52.019438000000001
0
LINE
8
LORANGE
6
CONTINUOUS
10
80.6857139999999902
20
-52.019438000000001
11
80.7619049999999987
21
-51.9813419999999979
0
LINE
8
LORANGE
6
CONTINUOUS
10
80.7619049999999987
20
-51.9813419999999979
11
80.9142859999999899
21
-51.9432469999999995
0
LINE
8
LORANGE
6
CONTINUOUS
10
80.9142859999999899
20
-51.9432469999999995
11
80.990476000000001
21
-51.9051520000000011
0
LINE
8
LORANGE
6
CONTINUOUS
10
80.990476000000001
20
-51.9051520000000011
11
81.0285709999999995
21
-51.8670569999999955
0
LINE
8
LORANGE
6
CONTINUOUS
10
81.0285709999999995
20
-51.8670569999999955
11
81.0666669999999954
21
-51.7908660000000012
0
LINE
8
LORANGE
6
CONTINUOUS
10
81.0666669999999954
20
-51.7908660000000012
11
81.0666669999999954
21
-51.7146759999999972
0
LINE
8
LORANGE
6
CONTINUOUS
10
81.0666669999999954
20
-51.7146759999999972
11
81.0285709999999995
21
-51.6384849999999958
0
LINE
8
LORANGE
6
CONTINUOUS
10
81.0285709999999995
20
-51.6384849999999958
11
80.990476000000001
21
-51.6003899999999973
0
LINE
8
LORANGE
6
CONTINUOUS
10
80.990476000000001
20
-51.6003899999999973
11
80.9142859999999899
21
-51.5622949999999989
0
LINE
8
LORANGE
6
CONTINUOUS
10
80.9142859999999899
20
-51.5622949999999989
11
80.7238090000000028
21
-51.5622949999999989
0
LINE
8
LORANGE
6
CONTINUOUS
10
80.7238090000000028
20
-51.5622949999999989
11
80.6095239999999933
21
-51.6003899999999973
0
LINE
8
LORANGE
6
CONTINUOUS
10
80.3428569999999951
20
-51.5622949999999989
11
80.1523809999999912
21
-52.362294999999996
0
LINE
8
LORANGE
6
CONTINUOUS
10
80.1523809999999912
20
-52.362294999999996
11
80.
21
-51.7908660000000012
0
LINE
8
LORANGE
6
CONTINUOUS
10
80.
20
-51.7908660000000012
11
79.8476189999999946
21
-52.362294999999996
0
LINE
8
LORANGE
6
CONTINUOUS
10
79.8476189999999946
20
-52.362294999999996
11
79.6571429999999907
21
-51.5622949999999989
0
LINE
8
LORANGE
6
CONTINUOUS
10
79.2380950000000013
20
-51.9051520000000011
11
79.3142849999999981
21
-51.8670569999999955
0
LINE
8
LORANGE
6
CONTINUOUS
10
79.3142849999999981
20
-51.8670569999999955
11
79.3523799999999966
21
-51.8289609999999996
0
LINE
8
LORANGE
6
CONTINUOUS
10
79.3523799999999966
20
-51.8289609999999996
11
79.3904759999999925
21
-51.7527709999999956
0
LINE
8
LORANGE
6
CONTINUOUS
10
79.3904759999999925
20
-51.7527709999999956
11
79.3904759999999925
21
-51.7146759999999972
0
LINE
8
LORANGE
6
CONTINUOUS
10
79.3904759999999925
20
-51.7146759999999972
11
79.3523799999999966
21
-51.6384849999999958
0
LINE
8
LORANGE
6
CONTINUOUS
10
79.3523799999999966
20
-51.6384849999999958
11
79.3142849999999981
21
-51.6003899999999973
0
LINE
8
LORANGE
6
CONTINUOUS
10
79.3142849999999981
20
-51.6003899999999973
11
79.2380950000000013
21
-51.5622949999999989
0
LINE
8
LORANGE
6
CONTINUOUS
10
79.2380950000000013
20
-51.5622949999999989
11
79.0857139999999958
21
-51.5622949999999989
0
LINE
8
LORANGE
6
CONTINUOUS
10
79.0857139999999958
20
-51.5622949999999989
11
79.0095230000000015
21
-51.6003899999999973
0
LINE
8
LORANGE
6
CONTINUOUS
10
79.0095230000000015
20
-51.6003899999999973
11
78.9714280000000031
21
-51.6384849999999958
0
LINE
8
LORANGE
6
CONTINUOUS
10
78.9714280000000031
20
-51.6384849999999958
11
78.9333329999999904
21
-51.7146759999999972
0
LINE
8
LORANGE
6
CONTINUOUS
10
78.9333329999999904
20
-51.7146759999999972
11
78.9333329999999904
21
-51.7527709999999956
0
LINE
8
LORANGE
6
CONTINUOUS
10
78.9333329999999904
20
-51.7527709999999956
11
78.9714280000000031
21
-51.8289609999999996
0
LINE
8
LORANGE
6
CONTINUOUS
10
78.9714280000000031
20
-51.8289609999999996
11
79.0095230000000015
21
-51.8670569999999955
0
LINE
8
LORANGE
6
CONTINUOUS
10
79.0095230000000015
20
-51.8670569999999955
11
79.0857139999999958
21
-51.9051520000000011
0
LINE
8
LORANGE
6
CONTINUOUS
10
79.0857139999999958
20
-51.9051520000000011
11
79.2380950000000013
21
-51.9051520000000011
0
LINE
8
LORANGE
6
CONTINUOUS
10
79.2380950000000013
20
-51.9051520000000011
11
79.3142849999999981
21
-51.9432469999999995
0
LINE
8
LORANGE
6
CONTINUOUS
10
79.3142849999999981
20
-51.9432469999999995
11
79.3523799999999966
21
-51.9813419999999979
0
LINE
8
LORANGE
6
CONTINUOUS
10
79.3523799999999966
20
-51.9813419999999979
11
79.3904759999999925
21
-52.0575329999999994
0
LINE
8
LORANGE
6
CONTINUOUS
10
79.3904759999999925
20
-52.0575329999999994
11
79.3904759999999925
21
-52.2099139999999977
0
LINE
8
LORANGE
6
CONTINUOUS
10
79.3904759999999925
20
-52.2099139999999977
11
79.3523799999999966
21
-52.2861039999999946
0
LINE
8
LORANGE
6
CONTINUOUS
10
79.3523799999999966
20
-52.2861039999999946
11
79.3142849999999981
21
-52.3241999999999976
0
LINE
8
LORANGE
6
CONTINUOUS
10
79.3142849999999981
20
-52.3241999999999976
11
79.2380950000000013
21
-52.362294999999996
0
LINE
8
LORANGE
6
CONTINUOUS
10
79.2380950000000013
20
-52.362294999999996
11
79.0857139999999958
21
-52.362294999999996
0
LINE
8
LORANGE
6
CONTINUOUS
10
79.0857139999999958
20
-52.362294999999996
11
79.0095230000000015
21
-52.3241999999999976
0
LINE
8
LORANGE
6
CONTINUOUS
10
79.0095230000000015
20
-52.3241999999999976
11
78.9714280000000031
21
-52.2861039999999946
0
LINE
8
LORANGE
6
CONTINUOUS
10
78.9714280000000031
20
-52.2861039999999946
11
78.9333329999999904
21
-52.2099139999999977
0
LINE
8
LORANGE
6
CONTINUOUS
10
78.9333329999999904
20
-52.2099139999999977
11
78.9333329999999904
21
-52.0575329999999994
0
LINE
8
LORANGE
6
CONTINUOUS
10
78.9333329999999904
20
-52.0575329999999994
11
78.9714280000000031
21
-51.9813419999999979
0
LINE
8
LORANGE
6
CONTINUOUS
10
78.9714280000000031
20
-51.9813419999999979
11
79.0095230000000015
21
-51.9432469999999995
0
LINE
8
LORANGE
6
CONTINUOUS
10
79.0095230000000015
20
-51.9432469999999995
11
79.0857139999999958
21
-51.9051520000000011
0
LINE
8
LORANGE
6
CONTINUOUS
10
65.0666669999999954
20
-36.3241999999999976
11
64.9523810000000026
21
-36.362294999999996
0
LINE
8
LORANGE
6
CONTINUOUS
10
64.9523810000000026
20
-36.362294999999996
11
64.7619049999999987
21
-36.362294999999996
0
LINE
8
LORANGE
6
CONTINUOUS
10
64.7619049999999987
20
-36.362294999999996
11
64.6857139999999902
21
-36.3241999999999976
0
LINE
8
LORANGE
6
CONTINUOUS
10
64.6857139999999902
20
-36.3241999999999976
11
64.6476189999999917
21
-36.2861040000000017
0
LINE
8
LORANGE
6
CONTINUOUS
10
64.6476189999999917
20
-36.2861040000000017
11
64.6095239999999933
21
-36.2099139999999977
0
LINE
8
LORANGE
6
CONTINUOUS
10
64.6095239999999933
20
-36.2099139999999977
11
64.6095239999999933
21
-36.1337229999999963
0
LINE
8
LORANGE
6
CONTINUOUS
10
64.6095239999999933
20
-36.1337229999999963
11
64.6476189999999917
21
-36.0575329999999994
0
LINE
8
LORANGE
6
CONTINUOUS
10
64.6476189999999917
20
-36.0575329999999994
11
64.6857139999999902
21
-36.019438000000001
0
LINE
8
LORANGE
6
CONTINUOUS
10
64.6857139999999902
20
-36.019438000000001
11
64.7619049999999987
21
-35.9813419999999979
0
LINE
8
LORANGE
6
CONTINUOUS
10
64.7619049999999987
20
-35.9813419999999979
11
64.9142860000000042
21
-35.9432469999999995
0
LINE
8
LORANGE
6
CONTINUOUS
10
64.9142860000000042
20
-35.9432469999999995
11
64.990476000000001
21
-35.9051520000000011
0
LINE
8
LORANGE
6
CONTINUOUS
10
64.990476000000001
20
-35.9051520000000011
11
65.0285709999999995
21
-35.8670569999999955
0
LINE
8
LORANGE
6
CONTINUOUS
10
65.0285709999999995
20
-35.8670569999999955
11
65.0666669999999954
21
-35.7908660000000012
0
LINE
8
LORANGE
6
CONTINUOUS
10
65.0666669999999954
20
-35.7908660000000012
11
65.0666669999999954
21
-35.7146759999999972
0
LINE
8
LORANGE
6
CONTINUOUS
10
65.0666669999999954
20
-35.7146759999999972
11
65.0285709999999995
21
-35.6384849999999958
0
LINE
8
LORANGE
6
CONTINUOUS
10
65.0285709999999995
20
-35.6384849999999958
11
64.990476000000001
21
-35.6003899999999973
0
LINE
8
LORANGE
6
CONTINUOUS
10
64.990476000000001
20
-35.6003899999999973
11
64.9142860000000042
21
-35.5622949999999989
0
LINE
8
LORANGE
6
CONTINUOUS
10
64.9142860000000042
20
-35.5622949999999989
11
64.7238090000000028
21
-35.5622949999999989
0
LINE
8
LORANGE
6
CONTINUOUS
10
64.7238090000000028
20
-35.5622949999999989
11
64.6095239999999933
21
-35.6003899999999973
0
LINE
8
LORANGE
6
CONTINUOUS
10
64.3428569999999951
20
-35.5622949999999989
11
64.1523809999999912
21
-36.362294999999996
0
LINE
8
LORANGE
6
CONTINUOUS
10
64.1523809999999912
20
-36.362294999999996
11
64.
21
-35.7908660000000012
0
LINE
8
LORANGE
6
CONTINUOUS
10
64.
20
-35.7908660000000012
11
63.8476189999999946
21
-36.362294999999996
0
LINE
8
LORANGE
6
CONTINUOUS
10
63.8476189999999946
20
-36.362294999999996
11
63.6571429999999978
21
-35.5622949999999989
0
LINE
8
LORANGE
6
CONTINUOUS
10
63.0095229999999944
20
-35.5622949999999989
11
63.1619039999999998
21
-35.5622949999999989
0
LINE
8
LORANGE
6
CONTINUOUS
10
63.1619039999999998
20
-35.5622949999999989
11
63.2380949999999942
21
-35.6003899999999973
0
LINE
8
LORANGE
6
CONTINUOUS
10
63.2380949999999942
20
-35.6003899999999973
11
63.2761899999999997
21
-35.6384849999999958
0
LINE
8
LORANGE
6
CONTINUOUS
10
63.2761899999999997
20
-35.6384849999999958
11
63.3523799999999966
21
-35.7527709999999956
0
LINE
8
LORANGE
6
CONTINUOUS
10
63.3523799999999966
20
-35.7527709999999956
11
63.3904759999999996
21
-35.9051520000000011
0
LINE
8
LORANGE
6
CONTINUOUS
10
63.3904759999999996
20
-35.9051520000000011
11
63.3904759999999996
21
-36.2099139999999977
0
LINE
8
LORANGE
6
CONTINUOUS
10
63.3904759999999996
20
-36.2099139999999977
11
63.3523799999999966
21
-36.2861040000000017
0
LINE
8
LORANGE
6
CONTINUOUS
10
63.3523799999999966
20
-36.2861040000000017
11
63.3142849999999981
21
-36.3241999999999976
0
LINE
8
LORANGE
6
CONTINUOUS
10
63.3142849999999981
20
-36.3241999999999976
11
63.2380949999999942
21
-36.362294999999996
0
LINE
8
LORANGE
6
CONTINUOUS
10
63.2380949999999942
20
-36.362294999999996
11
63.0857139999999958
21
-36.362294999999996
0
LINE
8
LORANGE
6
CONTINUOUS
10
63.0857139999999958
20
-36.362294999999996
11
63.0095229999999944
21
-36.3241999999999976
0
LINE
8
LORANGE
6
CONTINUOUS
10
63.0095229999999944
20
-36.3241999999999976
11
62.971427999999996
21
-36.2861040000000017
0
LINE
8
LORANGE
6
CONTINUOUS
10
62.971427999999996
20
-36.2861040000000017
11
62.9333329999999975
21
-36.2099139999999977
0
LINE
8
LORANGE
6
CONTINUOUS
10
62.9333329999999975
20
-36.2099139999999977
11
62.9333329999999975
21
-36.019438000000001
0
LINE
8
LORANGE
6
CONTINUOUS
10
62.9333329999999975
20
-36.019438000000001
11
62.971427999999996
21
-35.9432469999999995
0
LINE
8
LORANGE
6
CONTINUOUS
10
62.971427999999996
20
-35.9432469999999995
11
63.0095229999999944
21
-35.9051520000000011
0
LINE
8
LORANGE
6
CONTINUOUS
10
63.0095229999999944
20
-35.9051520000000011
11
63.0857139999999958
21
-35.8670569999999955
0
LINE
8
LORANGE
6
CONTINUOUS
10
63.0857139999999958
20
-35.8670569999999955
11
63.2380949999999942
21
-35.8670569999999955
0
LINE
8
LORANGE
6
CONTINUOUS
10
63.2380949999999942
20
-35.8670569999999955
11
63.3142849999999981
21
-35.9051520000000011
0
LINE
8
LORANGE
6
CONTINUOUS
10
63.3142849999999981
20
-35.9051520000000011
11
63.3523799999999966
21
-35.9432469999999995
0
LINE
8
LORANGE
6
CONTINUOUS
10
63.3523799999999966
20
-35.9432469999999995
11
63.3904759999999996
21
-36.019438000000001
0
LINE
8
LORANGE
6
CONTINUOUS
10
55.9533330000000007
20
1.64818
11
55.9533330000000007
21
0.9338949999999999
0
LINE
8
LORANGE
6
CONTINUOUS
10
55.9533330000000007
20
0.9338949999999999
11
56.0009519999999981
21
0.791038
0
LINE
8
LORANGE
6
CONTINUOUS
10
56.0009519999999981
20
0.791038
11
56.09619
21
0.6958
0
LINE
8
LORANGE
6
CONTINUOUS
10
56.09619
20
0.6958
11
56.2390469999999993
21
0.64818
0
LINE
8
LORANGE
6
CONTINUOUS
10
56.2390469999999993
20
0.64818
11
56.3342849999999942
21
0.64818
0
LINE
8
LORANGE
6
CONTINUOUS
10
55.524760999999998
20
1.5529419999999998
11
55.4771420000000006
21
1.6005609999999999
0
LINE
8
LORANGE
6
CONTINUOUS
10
55.4771420000000006
20
1.6005609999999999
11
55.3819039999999987
21
1.64818
0
LINE
8
LORANGE
6
CONTINUOUS
10
55.3819039999999987
20
1.64818
11
55.1438089999999974
21
1.64818
0
LINE
8
LORANGE
6
CONTINUOUS
10
55.1438089999999974
20
1.64818
11
55.0485709999999955
21
1.6005609999999999
0
LINE
8
LORANGE
6
CONTINUOUS
10
55.0485709999999955
20
1.6005609999999999
11
55.0009519999999981
21
1.5529419999999998
0
LINE
8
LORANGE
6
CONTINUOUS
10
55.0009519999999981
20
1.5529419999999998
11
54.9533330000000007
21
1.4577039999999999
0
LINE
8
LORANGE
6
CONTINUOUS
10
54.9533330000000007
20
1.4577039999999999
11
54.9533330000000007
21
1.362466
0
LINE
8
LORANGE
6
CONTINUOUS
10
54.9533330000000007
20
1.362466
11
55.0009519999999981
21
1.2196089999999999
0
LINE
8
LORANGE
6
CONTINUOUS
10
55.0009519999999981
20
1.2196089999999999
11
55.5723799999999954
21
0.64818
0
LINE
8
LORANGE
6
CONTINUOUS
10
55.5723799999999954
20
0.64818
11
54.9533330000000007
21
0.64818
0
LINE
8
LORANGE
6
CONTINUOUS
10
40.7133329999999987
20
1.64818
11
40.7133329999999987
21
0.9338949999999999
0
LINE
8
LORANGE
6
CONTINUOUS
10
40.7133329999999987
20
0.9338949999999999
11
40.7609519999999961
21
0.791038
0
LINE
8
LORANGE
6
CONTINUOUS
10
40.7609519999999961
20
0.791038
11
40.856189999999998
21
0.6958
0
LINE
8
LORANGE
6
CONTINUOUS
10
40.856189999999998
20
0.6958
11
40.9990469999999974
21
0.64818
0
LINE
8
LORANGE
6
CONTINUOUS
10
40.9990469999999974
20
0.64818
11
41.0942849999999993
21
0.64818
0
LINE
8
LORANGE
6
CONTINUOUS
10
39.7133329999999987
20
0.64818
11
40.284760999999996
21
0.64818
0
LINE
8
LORANGE
6
CONTINUOUS
10
39.9990469999999974
20
0.64818
11
39.9990469999999974
21
1.64818
0
LINE
8
LORANGE
6
CONTINUOUS
10
39.9990469999999974
20
1.64818
11
40.0942849999999993
21
1.505323
0
LINE
8
LORANGE
6
CONTINUOUS
10
40.0942849999999993
20
1.505323
11
40.1895230000000012
21
1.410085
0
LINE
8
LORANGE
6
CONTINUOUS
10
40.1895230000000012
20
1.410085
11
40.284760999999996
21
1.362466
0
LINE
8
LORANGE
6
CONTINUOUS
10
54.2899999999999991
20
-0.337
11
54.2899999999999991
21
-1.6669999999999998
0
LINE
8
LORANGE
6
CONTINUOUS
10
54.2899999999999991
20
-2.9369999999999998
11
54.2899999999999991
21
-36.0169999999999959
0
LINE
8
LORANGE
6
CONTINUOUS
10
55.6199999999999974
20
-0.337
11
54.2899999999999991
21
-0.337
0
LINE
8
LORANGE
6
CONTINUOUS
10
56.9499999999999957
20
-2.9369999999999998
11
54.2899999999999991
21
-2.9369999999999998
0
LINE
8
LORANGE
6
CONTINUOUS
10
56.9499999999999957
20
-2.9369999999999998
11
56.9499999999999957
21
-36.0169999999999959
0
LINE
8
LORANGE
6
CONTINUOUS
10
56.9499999999999957
20
-36.0169999999999959
11
54.2899999999999991
21
-36.0169999999999959
0
LINE
8
LORANGE
6
CONTINUOUS
10
39.0499999999999972
20
-0.337
11
39.0499999999999972
21
-1.6669999999999998
0
LINE
8
LORANGE
6
CONTINUOUS
10
39.0499999999999972
20
-2.9369999999999998
11
39.0499999999999972
21
-36.0169999999999959
0
LINE
8
LORANGE
6
CONTINUOUS
10
40.3799999999999955
20
-0.337
11
39.0499999999999972
21
-0.337
0
LINE
8
LORANGE
6
CONTINUOUS
10
41.7100000000000009
20
-2.9369999999999998
11
39.0499999999999972
21
-2.9369999999999998
0
LINE
8
LORANGE
6
CONTINUOUS
10
41.7100000000000009
20
-2.9369999999999998
11
41.7100000000000009
21
-36.0169999999999959
0
LINE
8
LORANGE
6
CONTINUOUS
10
41.7100000000000009
20
-36.0169999999999959
11
39.0499999999999972
21
-36.0169999999999959
0
CIRCLE
8
WHITE
10
92.
20
-4.
40
1.7999999999999998
0
CIRCLE
8
WHITE
10
4.
20
-60.
40
1.7999999999999998
0
CIRCLE
8
WHITE
10
4.
20
-4.
40
1.7999999999999998
0
LINE
8
WHITE
6
CONTINUOUS
10
8.75
20
-40.75
11
8.75
21
-55.25
0
LINE
8
WHITE
6
CONTINUOUS
10
8.75
20
-55.25
11
23.25
21
-55.25
0
LINE
8
WHITE
6
CONTINUOUS
10
23.25
20
-40.75
11
8.75
21
-40.75
0
LINE
8
WHITE
6
CONTINUOUS
10
23.25
20
-55.25
11
23.25
21
-40.75
0
LINE
8
WHITE
6
CONTINUOUS
10
28.1999999999999993
20
-7.8999999999999995
11
31.75
21
-7.8999999999999995
0
LINE
8
WHITE
6
CONTINUOUS
10
28.1999999999999993
20
-19.0999999999999979
11
28.1999999999999993
21
-7.8999999999999995
0
LINE
8
WHITE
6
CONTINUOUS
10
31.75
20
-7.8999999999999995
11
31.75
21
-19.0999999999999979
0
LINE
8
WHITE
6
CONTINUOUS
10
31.75
20
-19.0999999999999979
11
28.1999999999999993
21
-19.0999999999999979
0
CIRCLE
8
WHITE
10
92.
20
-60.
40
1.7999999999999998
0
LINE
8
WHITE
6
CONTINUOUS
10
24.75
20
-40.75
11
24.75
21
-55.25
0
LINE
8
WHITE
6
CONTINUOUS
10
24.75
20
-55.25
11
39.25
21
-55.25
0
LINE
8
WHITE
6
CONTINUOUS
10
39.25
20
-40.75
11
24.75
21
-40.75
0
LINE
8
WHITE
6
CONTINUOUS
10
39.25
20
-55.25
11
39.25
21
-40.75
0
LINE
8
WHITE
6
CONTINUOUS
10
72.75
20
-24.75
11
72.75
21
-39.25
0
LINE
8
WHITE
6
CONTINUOUS
10
72.75
20
-39.25
11
87.25
21
-39.25
0
LINE
8
WHITE
6
CONTINUOUS
10
87.25
20
-24.75
11
72.75
21
-24.75
0
LINE
8
WHITE
6
CONTINUOUS
10
87.25
20
-39.25
11
87.25
21
-24.75
0
LINE
8
WHITE
6
CONTINUOUS
10
8.75
20
-8.75
11
8.75
21
-23.25
0
LINE
8
WHITE
6
CONTINUOUS
10
8.75
20
-23.25
11
23.25
21
-23.25
0
LINE
8
WHITE
6
CONTINUOUS
10
23.25
20
-8.75
11
8.75
21
-8.75
0
LINE
8
WHITE
6
CONTINUOUS
10
23.25
20
-23.25
11
23.25
21
-8.75
0
LINE
8
WHITE
6
CONTINUOUS
10
40.75
20
-40.75
11
40.75
21
-55.25
0
LINE
8
WHITE
6
CONTINUOUS
10
40.75
20
-55.25
11
55.25
21
-55.25
0
LINE
8
WHITE
6
CONTINUOUS
10
55.25
20
-40.75
11
40.75
21
-40.75
0
LINE
8
WHITE
6
CONTINUOUS
10
55.25
20
-55.25
11
55.25
21
-40.75
0
LINE
8
WHITE
6
CONTINUOUS
10
24.75
20
-24.75
11
24.75
21
-39.25
0
LINE
8
WHITE
6
CONTINUOUS
10
24.75
20
-39.25
11
39.25
21
-39.25
0
LINE
8
WHITE
6
CONTINUOUS
10
39.25
20
-24.75
11
24.75
21
-24.75
0
LINE
8
WHITE
6
CONTINUOUS
10
39.25
20
-39.25
11
39.25
21
-24.75
0
LINE
8
WHITE
6
CONTINUOUS
10
72.75
20
-40.75
11
72.75
21
-55.25
0
LINE
8
WHITE
6
CONTINUOUS
10
72.75
20
-55.25
11
87.25
21
-55.25
0
LINE
8
WHITE
6
CONTINUOUS
10
87.25
20
-40.75
11
72.75
21
-40.75
0
LINE
8
WHITE
6
CONTINUOUS
10
87.25
20
-55.25
11
87.25
21
-40.75
0
LINE
8
WHITE
6
CONTINUOUS
10
56.75
20
-24.75
11
56.75
21
-39.25
0
LINE
8
WHITE
6
CONTINUOUS
10
56.75
20
-39.25
11
71.25
21
-39.25
0
LINE
8
WHITE
6
CONTINUOUS
10
71.25
20
-24.75
11
56.75
21
-24.75
0
LINE
8
WHITE
6
CONTINUOUS
10
71.25
20
-39.25
11
71.25
21
-24.75
0
LINE
8
WHITE
6
CONTINUOUS
10
53.8699999999999974
20
0.133
11
53.8699999999999974
21
-36.4669999999999987
0
LINE
8
WHITE
6
CONTINUOUS
10
53.8699999999999974
20
-36.4669999999999987
11
57.4199999999999946
21
-36.4669999999999987
0
LINE
8
WHITE
6
CONTINUOUS
10
57.4199999999999946
20
0.133
11
53.8699999999999974
21
0.133
0
LINE
8
WHITE
6
CONTINUOUS
10
57.4199999999999946
20
-36.4669999999999987
11
57.4199999999999946
21
0.133
0
LINE
8
WHITE
6
CONTINUOUS
10
38.6299999999999955
20
0.133
11
38.6299999999999955
21
-36.4669999999999987
0
LINE
8
WHITE
6
CONTINUOUS
10
38.6299999999999955
20
-36.4669999999999987
11
42.1799999999999997
21
-36.4669999999999987
0
LINE
8
WHITE
6
CONTINUOUS
10
42.1799999999999997
20
0.133
11
38.6299999999999955
21
0.133
0
LINE
8
WHITE
6
CONTINUOUS
10
42.1799999999999997
20
-36.4669999999999987
11
42.1799999999999997
21
0.133
0
LINE
8
GRAY3
6
CONTINUOUS
10
14.6666669999999986
20
-48.407199999999996
11
14.8095239999999997
21
-48.4548190000000005
0
LINE
8
GRAY3
6
CONTINUOUS
10
14.8095239999999997
20
-48.4548190000000005
11
15.0476189999999992
21
-48.4548190000000005
0
LINE
8
GRAY3
6
CONTINUOUS
10
15.0476189999999992
20
-48.4548190000000005
11
15.1428569999999993
21
-48.407199999999996
0
LINE
8
GRAY3
6
CONTINUOUS
10
15.1428569999999993
20
-48.407199999999996
11
15.1904759999999985
21
-48.3595800000000011
0
LINE
8
GRAY3
6
CONTINUOUS
10
15.1904759999999985
20
-48.3595800000000011
11
15.2380949999999995
21
-48.2643419999999992
0
LINE
8
GRAY3
6
CONTINUOUS
10
15.2380949999999995
20
-48.2643419999999992
11
15.2380949999999995
21
-48.1691039999999973
0
LINE
8
GRAY3
6
CONTINUOUS
10
15.2380949999999995
20
-48.1691039999999973
11
15.1904759999999985
21
-48.0738659999999953
0
LINE
8
GRAY3
6
CONTINUOUS
10
15.1904759999999985
20
-48.0738659999999953
11
15.1428569999999993
21
-48.0262469999999979
0
LINE
8
GRAY3
6
CONTINUOUS
10
15.1428569999999993
20
-48.0262469999999979
11
15.0476189999999992
21
-47.9786280000000005
0
LINE
8
GRAY3
6
CONTINUOUS
10
15.0476189999999992
20
-47.9786280000000005
11
14.8571429999999989
21
-47.931008999999996
0
LINE
8
GRAY3
6
CONTINUOUS
10
14.8571429999999989
20
-47.931008999999996
11
14.7619049999999987
21
-47.8833899999999986
0
LINE
8
GRAY3
6
CONTINUOUS
10
14.7619049999999987
20
-47.8833899999999986
11
14.7142859999999995
21
-47.8357710000000012
0
LINE
8
GRAY3
6
CONTINUOUS
10
14.7142859999999995
20
-47.8357710000000012
11
14.6666669999999986
21
-47.7405329999999992
0
LINE
8
GRAY3
6
CONTINUOUS
10
14.6666669999999986
20
-47.7405329999999992
11
14.6666669999999986
21
-47.6452949999999973
0
LINE
8
GRAY3
6
CONTINUOUS
10
14.6666669999999986
20
-47.6452949999999973
11
14.7142859999999995
21
-47.5500569999999954
0
LINE
8
GRAY3
6
CONTINUOUS
10
14.7142859999999995
20
-47.5500569999999954
11
14.7619049999999987
21
-47.5024379999999979
0
LINE
8
GRAY3
6
CONTINUOUS
10
14.7619049999999987
20
-47.5024379999999979
11
14.8571429999999989
21
-47.4548190000000005
0
LINE
8
GRAY3
6
CONTINUOUS
10
14.8571429999999989
20
-47.4548190000000005
11
15.0952380000000002
21
-47.4548190000000005
0
LINE
8
GRAY3
6
CONTINUOUS
10
15.0952380000000002
20
-47.4548190000000005
11
15.2380949999999995
21
-47.5024379999999979
0
LINE
8
GRAY3
6
CONTINUOUS
10
15.5714289999999984
20
-47.4548190000000005
11
15.8095239999999997
21
-48.4548190000000005
0
LINE
8
GRAY3
6
CONTINUOUS
10
15.8095239999999997
20
-48.4548190000000005
11
16.
21
-47.7405329999999992
0
LINE
8
GRAY3
6
CONTINUOUS
10
16.
20
-47.7405329999999992
11
16.1904760000000003
21
-48.4548190000000005
0
LINE
8
GRAY3
6
CONTINUOUS
10
16.1904760000000003
20
-48.4548190000000005
11
16.4285719999999991
21
-47.4548190000000005
0
LINE
8
GRAY3
6
CONTINUOUS
10
16.7142859999999978
20
-47.4548190000000005
11
17.3333329999999997
21
-47.4548190000000005
0
LINE
8
GRAY3
6
CONTINUOUS
10
17.3333329999999997
20
-47.4548190000000005
11
17.
21
-47.8357710000000012
0
LINE
8
GRAY3
6
CONTINUOUS
10
17.
20
-47.8357710000000012
11
17.1428569999999993
21
-47.8357710000000012
0
LINE
8
GRAY3
6
CONTINUOUS
10
17.1428569999999993
20
-47.8357710000000012
11
17.2380949999999977
21
-47.8833899999999986
0
LINE
8
GRAY3
6
CONTINUOUS
10
17.2380949999999977
20
-47.8833899999999986
11
17.2857139999999987
21
-47.931008999999996
0
LINE
8
GRAY3
6
CONTINUOUS
10
17.2857139999999987
20
-47.931008999999996
11
17.3333329999999997
21
-48.0262469999999979
0
LINE
8
GRAY3
6
CONTINUOUS
10
17.3333329999999997
20
-48.0262469999999979
11
17.3333329999999997
21
-48.2643419999999992
0
LINE
8
GRAY3
6
CONTINUOUS
10
17.3333329999999997
20
-48.2643419999999992
11
17.2857139999999987
21
-48.3595800000000011
0
LINE
8
GRAY3
6
CONTINUOUS
10
17.2857139999999987
20
-48.3595800000000011
11
17.2380949999999977
21
-48.407199999999996
0
LINE
8
GRAY3
6
CONTINUOUS
10
17.2380949999999977
20
-48.407199999999996
11
17.1428569999999993
21
-48.4548190000000005
0
LINE
8
GRAY3
6
CONTINUOUS
10
17.1428569999999993
20
-48.4548190000000005
11
16.8571430000000007
21
-48.4548190000000005
0
LINE
8
GRAY3
6
CONTINUOUS
10
16.8571430000000007
20
-48.4548190000000005
11
16.7619049999999987
21
-48.407199999999996
0
LINE
8
GRAY3
6
CONTINUOUS
10
16.7619049999999987
20
-48.407199999999996
11
16.7142859999999978
21
-48.3595800000000011
0
LINE
8
GRAY3
6
CONTINUOUS
10
29.454818999999997
20
-13.8433329999999994
11
30.1691039999999973
21
-13.8433329999999994
0
LINE
8
GRAY3
6
CONTINUOUS
10
30.1691039999999973
20
-13.8433329999999994
11
30.3119610000000002
21
-13.8909519999999986
0
LINE
8
GRAY3
6
CONTINUOUS
10
30.3119610000000002
20
-13.8909519999999986
11
30.4071999999999996
21
-13.9861899999999988
0
LINE
8
GRAY3
6
CONTINUOUS
10
30.4071999999999996
20
-13.9861899999999988
11
30.454818999999997
21
-14.1290469999999999
0
LINE
8
GRAY3
6
CONTINUOUS
10
30.454818999999997
20
-14.1290469999999999
11
30.454818999999997
21
-14.2242850000000001
0
LINE
8
GRAY3
6
CONTINUOUS
10
29.454818999999997
20
-13.4623799999999996
11
29.454818999999997
21
-12.8433329999999994
0
LINE
8
GRAY3
6
CONTINUOUS
10
29.454818999999997
20
-12.8433329999999994
11
29.8357709999999976
21
-13.1766659999999991
0
LINE
8
GRAY3
6
CONTINUOUS
10
29.8357709999999976
20
-13.1766659999999991
11
29.8357709999999976
21
-13.0338089999999998
0
LINE
8
GRAY3
6
CONTINUOUS
10
29.8357709999999976
20
-13.0338089999999998
11
29.8833899999999986
21
-12.9385709999999996
0
LINE
8
GRAY3
6
CONTINUOUS
10
29.8833899999999986
20
-12.9385709999999996
11
29.9310089999999995
21
-12.8909519999999986
0
LINE
8
GRAY3
6
CONTINUOUS
10
29.9310089999999995
20
-12.8909519999999986
11
30.0262469999999979
21
-12.8433329999999994
0
LINE
8
GRAY3
6
CONTINUOUS
10
30.0262469999999979
20
-12.8433329999999994
11
30.2643419999999992
21
-12.8433329999999994
0
LINE
8
GRAY3
6
CONTINUOUS
10
30.2643419999999992
20
-12.8433329999999994
11
30.3595799999999976
21
-12.8909519999999986
0
LINE
8
GRAY3
6
CONTINUOUS
10
30.3595799999999976
20
-12.8909519999999986
11
30.4071999999999996
21
-12.9385709999999996
0
LINE
8
GRAY3
6
CONTINUOUS
10
30.4071999999999996
20
-12.9385709999999996
11
30.454818999999997
21
-13.0338089999999998
0
LINE
8
GRAY3
6
CONTINUOUS
10
30.454818999999997
20
-13.0338089999999998
11
30.454818999999997
21
-13.3195230000000002
0
LINE
8
GRAY3
6
CONTINUOUS
10
30.454818999999997
20
-13.3195230000000002
11
30.4071999999999996
21
-13.4147609999999986
0
LINE
8
GRAY3
6
CONTINUOUS
10
30.4071999999999996
20
-13.4147609999999986
11
30.3595799999999976
21
-13.4623799999999996
0
LINE
8
GRAY3
6
CONTINUOUS
10
30.6666670000000003
20
-48.407199999999996
11
30.8095239999999997
21
-48.4548190000000005
0
LINE
8
GRAY3
6
CONTINUOUS
10
30.8095239999999997
20
-48.4548190000000005
11
31.0476189999999974
21
-48.4548190000000005
0
LINE
8
GRAY3
6
CONTINUOUS
10
31.0476189999999974
20
-48.4548190000000005
11
31.1428569999999993
21
-48.407199999999996
0
LINE
8
GRAY3
6
CONTINUOUS
10
31.1428569999999993
20
-48.407199999999996
11
31.1904760000000003
21
-48.3595800000000011
0
LINE
8
GRAY3
6
CONTINUOUS
10
31.1904760000000003
20
-48.3595800000000011
11
31.2380949999999977
21
-48.2643419999999992
0
LINE
8
GRAY3
6
CONTINUOUS
10
31.2380949999999977
20
-48.2643419999999992
11
31.2380949999999977
21
-48.1691039999999973
0
LINE
8
GRAY3
6
CONTINUOUS
10
31.2380949999999977
20
-48.1691039999999973
11
31.1904760000000003
21
-48.0738659999999953
0
LINE
8
GRAY3
6
CONTINUOUS
10
31.1904760000000003
20
-48.0738659999999953
11
31.1428569999999993
21
-48.0262469999999979
0
LINE
8
GRAY3
6
CONTINUOUS
10
31.1428569999999993
20
-48.0262469999999979
11
31.0476189999999974
21
-47.9786280000000005
0
LINE
8
GRAY3
6
CONTINUOUS
10
31.0476189999999974
20
-47.9786280000000005
11
30.8571429999999971
21
-47.931008999999996
0
LINE
8
GRAY3
6
CONTINUOUS
10
30.8571429999999971
20
-47.931008999999996
11
30.7619049999999987
21
-47.8833899999999986
0
LINE
8
GRAY3
6
CONTINUOUS
10
30.7619049999999987
20
-47.8833899999999986
11
30.7142859999999978
21
-47.8357710000000012
0
LINE
8
GRAY3
6
CONTINUOUS
10
30.7142859999999978
20
-47.8357710000000012
11
30.6666670000000003
21
-47.7405329999999992
0
LINE
8
GRAY3
6
CONTINUOUS
10
30.6666670000000003
20
-47.7405329999999992
11
30.6666670000000003
21
-47.6452949999999973
0
LINE
8
GRAY3
6
CONTINUOUS
10
30.6666670000000003
20
-47.6452949999999973
11
30.7142859999999978
21
-47.5500569999999954
0
LINE
8
GRAY3
6
CONTINUOUS
10
30.7142859999999978
20
-47.5500569999999954
11
30.7619049999999987
21
-47.5024379999999979
0
LINE
8
GRAY3
6
CONTINUOUS
10
30.7619049999999987
20
-47.5024379999999979
11
30.8571429999999971
21
-47.4548190000000005
0
LINE
8
GRAY3
6
CONTINUOUS
10
30.8571429999999971
20
-47.4548190000000005
11
31.0952379999999984
21
-47.4548190000000005
0
LINE
8
GRAY3
6
CONTINUOUS
10
31.0952379999999984
20
-47.4548190000000005
11
31.2380949999999977
21
-47.5024379999999979
0
LINE
8
GRAY3
6
CONTINUOUS
10
31.5714289999999984
20
-47.4548190000000005
11
31.8095239999999997
21
-48.4548190000000005
0
LINE
8
GRAY3
6
CONTINUOUS
10
31.8095239999999997
20
-48.4548190000000005
11
32.
21
-47.7405329999999992
0
LINE
8
GRAY3
6
CONTINUOUS
10
32.
20
-47.7405329999999992
11
32.1904759999999968
21
-48.4548190000000005
0
LINE
8
GRAY3
6
CONTINUOUS
10
32.1904759999999968
20
-48.4548190000000005
11
32.4285719999999955
21
-47.4548190000000005
0
LINE
8
GRAY3
6
CONTINUOUS
10
33.2380950000000013
20
-47.7881519999999966
11
33.2380950000000013
21
-48.4548190000000005
0
LINE
8
GRAY3
6
CONTINUOUS
10
33.
20
-47.407199999999996
11
32.7619049999999987
21
-48.1214849999999998
0
LINE
8
GRAY3
6
CONTINUOUS
10
32.7619049999999987
20
-48.1214849999999998
11
33.3809520000000006
21
-48.1214849999999998
0
LINE
8
GRAY3
6
CONTINUOUS
10
78.6666669999999897
20
-32.407199999999996
11
78.8095239999999961
21
-32.4548190000000005
0
LINE
8
GRAY3
6
CONTINUOUS
10
78.8095239999999961
20
-32.4548190000000005
11
79.0476189999999974
21
-32.4548190000000005
0
LINE
8
GRAY3
6
CONTINUOUS
10
79.0476189999999974
20
-32.4548190000000005
11
79.1428569999999922
21
-32.407199999999996
0
LINE
8
GRAY3
6
CONTINUOUS
10
79.1428569999999922
20
-32.407199999999996
11
79.1904759999999897
21
-32.3595800000000011
0
LINE
8
GRAY3
6
CONTINUOUS
10
79.1904759999999897
20
-32.3595800000000011
11
79.2380950000000013
21
-32.2643419999999992
0
LINE
8
GRAY3
6
CONTINUOUS
10
79.2380950000000013
20
-32.2643419999999992
11
79.2380950000000013
21
-32.1691039999999973
0
LINE
8
GRAY3
6
CONTINUOUS
10
79.2380950000000013
20
-32.1691039999999973
11
79.1904759999999897
21
-32.0738659999999953
0
LINE
8
GRAY3
6
CONTINUOUS
10
79.1904759999999897
20
-32.0738659999999953
11
79.1428569999999922
21
-32.0262469999999979
0
LINE
8
GRAY3
6
CONTINUOUS
10
79.1428569999999922
20
-32.0262469999999979
11
79.0476189999999974
21
-31.9786279999999969
0
LINE
8
GRAY3
6
CONTINUOUS
10
79.0476189999999974
20
-31.9786279999999969
11
78.8571429999999935
21
-31.9310089999999995
0
LINE
8
GRAY3
6
CONTINUOUS
10
78.8571429999999935
20
-31.9310089999999995
11
78.7619049999999987
21
-31.8833899999999986
0
LINE
8
GRAY3
6
CONTINUOUS
10
78.7619049999999987
20
-31.8833899999999986
11
78.7142860000000013
21
-31.8357709999999976
0
LINE
8
GRAY3
6
CONTINUOUS
10
78.7142860000000013
20
-31.8357709999999976
11
78.6666669999999897
21
-31.7405329999999992
0
LINE
8
GRAY3
6
CONTINUOUS
10
78.6666669999999897
20
-31.7405329999999992
11
78.6666669999999897
21
-31.6452949999999973
0
LINE
8
GRAY3
6
CONTINUOUS
10
78.6666669999999897
20
-31.6452949999999973
11
78.7142860000000013
21
-31.5500569999999989
0
LINE
8
GRAY3
6
CONTINUOUS
10
78.7142860000000013
20
-31.5500569999999989
11
78.7619049999999987
21
-31.5024379999999979
0
LINE
8
GRAY3
6
CONTINUOUS
10
78.7619049999999987
20
-31.5024379999999979
11
78.8571429999999935
21
-31.454818999999997
0
LINE
8
GRAY3
6
CONTINUOUS
10
78.8571429999999935
20
-31.454818999999997
11
79.0952379999999948
21
-31.454818999999997
0
LINE
8
GRAY3
6
CONTINUOUS
10
79.0952379999999948
20
-31.454818999999997
11
79.2380950000000013
21
-31.5024379999999979
0
LINE
8
GRAY3
6
CONTINUOUS
10
79.5714289999999949
20
-31.454818999999997
11
79.8095239999999961
21
-32.4548190000000005
0
LINE
8
GRAY3
6
CONTINUOUS
10
79.8095239999999961
20
-32.4548190000000005
11
80.
21
-31.7405329999999992
0
LINE
8
GRAY3
6
CONTINUOUS
10
80.
20
-31.7405329999999992
11
80.1904759999999897
21
-32.4548190000000005
0
LINE
8
GRAY3
6
CONTINUOUS
10
80.1904759999999897
20
-32.4548190000000005
11
80.4285720000000026
21
-31.454818999999997
0
LINE
8
GRAY3
6
CONTINUOUS
10
80.7142860000000013
20
-31.454818999999997
11
81.3809519999999935
21
-31.454818999999997
0
LINE
8
GRAY3
6
CONTINUOUS
10
81.3809519999999935
20
-31.454818999999997
11
80.9523810000000026
21
-32.4548190000000005
0
LINE
8
GRAY3
6
CONTINUOUS
10
14.6666669999999986
20
-16.4071999999999996
11
14.8095239999999997
21
-16.4548190000000005
0
LINE
8
GRAY3
6
CONTINUOUS
10
14.8095239999999997
20
-16.4548190000000005
11
15.0476189999999992
21
-16.4548190000000005
0
LINE
8
GRAY3
6
CONTINUOUS
10
15.0476189999999992
20
-16.4548190000000005
11
15.1428569999999993
21
-16.4071999999999996
0
LINE
8
GRAY3
6
CONTINUOUS
10
15.1428569999999993
20
-16.4071999999999996
11
15.1904759999999985
21
-16.3595799999999976
0
LINE
8
GRAY3
6
CONTINUOUS
10
15.1904759999999985
20
-16.3595799999999976
11
15.2380949999999995
21
-16.2643419999999992
0
LINE
8
GRAY3
6
CONTINUOUS
10
15.2380949999999995
20
-16.2643419999999992
11
15.2380949999999995
21
-16.1691040000000008
0
LINE
8
GRAY3
6
CONTINUOUS
10
15.2380949999999995
20
-16.1691040000000008
11
15.1904759999999985
21
-16.0738659999999989
0
LINE
8
GRAY3
6
CONTINUOUS
10
15.1904759999999985
20
-16.0738659999999989
11
15.1428569999999993
21
-16.0262469999999979
0
LINE
8
GRAY3
6
CONTINUOUS
10
15.1428569999999993
20
-16.0262469999999979
11
15.0476189999999992
21
-15.9786279999999987
0
LINE
8
GRAY3
6
CONTINUOUS
10
15.0476189999999992
20
-15.9786279999999987
11
14.8571429999999989
21
-15.9310089999999995
0
LINE
8
GRAY3
6
CONTINUOUS
10
14.8571429999999989
20
-15.9310089999999995
11
14.7619049999999987
21
-15.8833899999999986
0
LINE
8
GRAY3
6
CONTINUOUS
10
14.7619049999999987
20
-15.8833899999999986
11
14.7142859999999995
21
-15.8357709999999994
0
LINE
8
GRAY3
6
CONTINUOUS
10
14.7142859999999995
20
-15.8357709999999994
11
14.6666669999999986
21
-15.7405329999999992
0
LINE
8
GRAY3
6
CONTINUOUS
10
14.6666669999999986
20
-15.7405329999999992
11
14.6666669999999986
21
-15.6452949999999991
0
LINE
8
GRAY3
6
CONTINUOUS
10
14.6666669999999986
20
-15.6452949999999991
11
14.7142859999999995
21
-15.5500569999999989
0
LINE
8
GRAY3
6
CONTINUOUS
10
14.7142859999999995
20
-15.5500569999999989
11
14.7619049999999987
21
-15.5024379999999997
0
LINE
8
GRAY3
6
CONTINUOUS
10
14.7619049999999987
20
-15.5024379999999997
11
14.8571429999999989
21
-15.4548189999999988
0
LINE
8
GRAY3
6
CONTINUOUS
10
14.8571429999999989
20
-15.4548189999999988
11
15.0952380000000002
21
-15.4548189999999988
0
LINE
8
GRAY3
6
CONTINUOUS
10
15.0952380000000002
20
-15.4548189999999988
11
15.2380949999999995
21
-15.5024379999999997
0
LINE
8
GRAY3
6
CONTINUOUS
10
15.5714289999999984
20
-15.4548189999999988
11
15.8095239999999997
21
-16.4548190000000005
0
LINE
8
GRAY3
6
CONTINUOUS
10
15.8095239999999997
20
-16.4548190000000005
11
16.
21
-15.7405329999999992
0
LINE
8
GRAY3
6
CONTINUOUS
10
16.
20
-15.7405329999999992
11
16.1904760000000003
21
-16.4548190000000005
0
LINE
8
GRAY3
6
CONTINUOUS
10
16.1904760000000003
20
-16.4548190000000005
11
16.4285719999999991
21
-15.4548189999999988
0
LINE
8
GRAY3
6
CONTINUOUS
10
17.3333329999999997
20
-16.4548190000000005
11
16.7619049999999987
21
-16.4548190000000005
0
LINE
8
GRAY3
6
CONTINUOUS
10
17.047619000000001
20
-16.4548190000000005
11
17.047619000000001
21
-15.4548189999999988
0
LINE
8
GRAY3
6
CONTINUOUS
10
17.047619000000001
20
-15.4548189999999988
11
16.952380999999999
21
-15.5976759999999999
0
LINE
8
GRAY3
6
CONTINUOUS
10
16.952380999999999
20
-15.5976759999999999
11
16.8571430000000007
21
-15.692914
0
LINE
8
GRAY3
6
CONTINUOUS
10
16.8571430000000007
20
-15.692914
11
16.7619049999999987
21
-15.7405329999999992
0
LINE
8
GRAY3
6
CONTINUOUS
10
46.6666669999999968
20
-48.407199999999996
11
46.8095239999999961
21
-48.4548190000000005
0
LINE
8
GRAY3
6
CONTINUOUS
10
46.8095239999999961
20
-48.4548190000000005
11
47.0476189999999974
21
-48.4548190000000005
0
LINE
8
GRAY3
6
CONTINUOUS
10
47.0476189999999974
20
-48.4548190000000005
11
47.1428569999999993
21
-48.407199999999996
0
LINE
8
GRAY3
6
CONTINUOUS
10
47.1428569999999993
20
-48.407199999999996
11
47.1904759999999968
21
-48.3595800000000011
0
LINE
8
GRAY3
6
CONTINUOUS
10
47.1904759999999968
20
-48.3595800000000011
11
47.2380950000000013
21
-48.2643419999999992
0
LINE
8
GRAY3
6
CONTINUOUS
10
47.2380950000000013
20
-48.2643419999999992
11
47.2380950000000013
21
-48.1691039999999973
0
LINE
8
GRAY3
6
CONTINUOUS
10
47.2380950000000013
20
-48.1691039999999973
11
47.1904759999999968
21
-48.0738659999999953
0
LINE
8
GRAY3
6
CONTINUOUS
10
47.1904759999999968
20
-48.0738659999999953
11
47.1428569999999993
21
-48.0262469999999979
0
LINE
8
GRAY3
6
CONTINUOUS
10
47.1428569999999993
20
-48.0262469999999979
11
47.0476189999999974
21
-47.9786280000000005
0
LINE
8
GRAY3
6
CONTINUOUS
10
47.0476189999999974
20
-47.9786280000000005
11
46.8571430000000007
21
-47.931008999999996
0
LINE
8
GRAY3
6
CONTINUOUS
10
46.8571430000000007
20
-47.931008999999996
11
46.7619049999999987
21
-47.8833899999999986
0
LINE
8
GRAY3
6
CONTINUOUS
10
46.7619049999999987
20
-47.8833899999999986
11
46.7142860000000013
21
-47.8357710000000012
0
LINE
8
GRAY3
6
CONTINUOUS
10
46.7142860000000013
20
-47.8357710000000012
11
46.6666669999999968
21
-47.7405329999999992
0
LINE
8
GRAY3
6
CONTINUOUS
10
46.6666669999999968
20
-47.7405329999999992
11
46.6666669999999968
21
-47.6452949999999973
0
LINE
8
GRAY3
6
CONTINUOUS
10
46.6666669999999968
20
-47.6452949999999973
11
46.7142860000000013
21
-47.5500569999999954
0
LINE
8
GRAY3
6
CONTINUOUS
10
46.7142860000000013
20
-47.5500569999999954
11
46.7619049999999987
21
-47.5024379999999979
0
LINE
8
GRAY3
6
CONTINUOUS
10
46.7619049999999987
20
-47.5024379999999979
11
46.8571430000000007
21
-47.4548190000000005
0
LINE
8
GRAY3
6
CONTINUOUS
10
46.8571430000000007
20
-47.4548190000000005
11
47.0952379999999948
21
-47.4548190000000005
0
LINE
8
GRAY3
6
CONTINUOUS
10
47.0952379999999948
20
-47.4548190000000005
11
47.2380950000000013
21
-47.5024379999999979
0
LINE
8
GRAY3
6
CONTINUOUS
10
47.5714289999999949
20
-47.4548190000000005
11
47.8095239999999961
21
-48.4548190000000005
0
LINE
8
GRAY3
6
CONTINUOUS
10
47.8095239999999961
20
-48.4548190000000005
11
48.
21
-47.7405329999999992
0
LINE
8
GRAY3
6
CONTINUOUS
10
48.
20
-47.7405329999999992
11
48.1904759999999968
21
-48.4548190000000005
0
LINE
8
GRAY3
6
CONTINUOUS
10
48.1904759999999968
20
-48.4548190000000005
11
48.4285719999999955
21
-47.4548190000000005
0
LINE
8
GRAY3
6
CONTINUOUS
10
49.2857139999999987
20
-47.4548190000000005
11
48.8095239999999961
21
-47.4548190000000005
0
LINE
8
GRAY3
6
CONTINUOUS
10
48.8095239999999961
20
-47.4548190000000005
11
48.7619049999999987
21
-47.931008999999996
0
LINE
8
GRAY3
6
CONTINUOUS
10
48.7619049999999987
20
-47.931008999999996
11
48.8095239999999961
21
-47.8833899999999986
0
LINE
8
GRAY3
6
CONTINUOUS
10
48.8095239999999961
20
-47.8833899999999986
11
48.9047619999999981
21
-47.8357710000000012
0
LINE
8
GRAY3
6
CONTINUOUS
10
48.9047619999999981
20
-47.8357710000000012
11
49.1428569999999993
21
-47.8357710000000012
0
LINE
8
GRAY3
6
CONTINUOUS
10
49.1428569999999993
20
-47.8357710000000012
11
49.2380950000000013
21
-47.8833899999999986
0
LINE
8
GRAY3
6
CONTINUOUS
10
49.2380950000000013
20
-47.8833899999999986
11
49.2857139999999987
21
-47.931008999999996
0
LINE
8
GRAY3
6
CONTINUOUS
10
49.2857139999999987
20
-47.931008999999996
11
49.3333329999999961
21
-48.0262469999999979
0
LINE
8
GRAY3
6
CONTINUOUS
10
49.3333329999999961
20
-48.0262469999999979
11
49.3333329999999961
21
-48.2643419999999992
0
LINE
8
GRAY3
6
CONTINUOUS
10
49.3333329999999961
20
-48.2643419999999992
11
49.2857139999999987
21
-48.3595800000000011
0
LINE
8
GRAY3
6
CONTINUOUS
10
49.2857139999999987
20
-48.3595800000000011
11
49.2380950000000013
21
-48.407199999999996
0
LINE
8
GRAY3
6
CONTINUOUS
10
49.2380950000000013
20
-48.407199999999996
11
49.1428569999999993
21
-48.4548190000000005
0
LINE
8
GRAY3
6
CONTINUOUS
10
49.1428569999999993
20
-48.4548190000000005
11
48.9047619999999981
21
-48.4548190000000005
0
LINE
8
GRAY3
6
CONTINUOUS
10
48.9047619999999981
20
-48.4548190000000005
11
48.8095239999999961
21
-48.407199999999996
0
LINE
8
GRAY3
6
CONTINUOUS
10
48.8095239999999961
20
-48.407199999999996
11
48.7619049999999987
21
-48.3595800000000011
0
LINE
8
GRAY3
6
CONTINUOUS
10
30.6666670000000003
20
-32.407199999999996
11
30.8095239999999997
21
-32.4548190000000005
0
LINE
8
GRAY3
6
CONTINUOUS
10
30.8095239999999997
20
-32.4548190000000005
11
31.0476189999999974
21
-32.4548190000000005
0
LINE
8
GRAY3
6
CONTINUOUS
10
31.0476189999999974
20
-32.4548190000000005
11
31.1428569999999993
21
-32.407199999999996
0
LINE
8
GRAY3
6
CONTINUOUS
10
31.1428569999999993
20
-32.407199999999996
11
31.1904760000000003
21
-32.3595800000000011
0
LINE
8
GRAY3
6
CONTINUOUS
10
31.1904760000000003
20
-32.3595800000000011
11
31.2380949999999977
21
-32.2643419999999992
0
LINE
8
GRAY3
6
CONTINUOUS
10
31.2380949999999977
20
-32.2643419999999992
11
31.2380949999999977
21
-32.1691039999999973
0
LINE
8
GRAY3
6
CONTINUOUS
10
31.2380949999999977
20
-32.1691039999999973
11
31.1904760000000003
21
-32.0738659999999953
0
LINE
8
GRAY3
6
CONTINUOUS
10
31.1904760000000003
20
-32.0738659999999953
11
31.1428569999999993
21
-32.0262469999999979
0
LINE
8
GRAY3
6
CONTINUOUS
10
31.1428569999999993
20
-32.0262469999999979
11
31.0476189999999974
21
-31.9786279999999969
0
LINE
8
GRAY3
6
CONTINUOUS
10
31.0476189999999974
20
-31.9786279999999969
11
30.8571429999999971
21
-31.9310089999999995
0
LINE
8
GRAY3
6
CONTINUOUS
10
30.8571429999999971
20
-31.9310089999999995
11
30.7619049999999987
21
-31.8833899999999986
0
LINE
8
GRAY3
6
CONTINUOUS
10
30.7619049999999987
20
-31.8833899999999986
11
30.7142859999999978
21
-31.8357709999999976
0
LINE
8
GRAY3
6
CONTINUOUS
10
30.7142859999999978
20
-31.8357709999999976
11
30.6666670000000003
21
-31.7405329999999992
0
LINE
8
GRAY3
6
CONTINUOUS
10
30.6666670000000003
20
-31.7405329999999992
11
30.6666670000000003
21
-31.6452949999999973
0
LINE
8
GRAY3
6
CONTINUOUS
10
30.6666670000000003
20
-31.6452949999999973
11
30.7142859999999978
21
-31.5500569999999989
0
LINE
8
GRAY3
6
CONTINUOUS
10
30.7142859999999978
20
-31.5500569999999989
11
30.7619049999999987
21
-31.5024379999999979
0
LINE
8
GRAY3
6
CONTINUOUS
10
30.7619049999999987
20
-31.5024379999999979
11
30.8571429999999971
21
-31.454818999999997
0
LINE
8
GRAY3
6
CONTINUOUS
10
30.8571429999999971
20
-31.454818999999997
11
31.0952379999999984
21
-31.454818999999997
0
LINE
8
GRAY3
6
CONTINUOUS
10
31.0952379999999984
20
-31.454818999999997
11
31.2380949999999977
21
-31.5024379999999979
0
LINE
8
GRAY3
6
CONTINUOUS
10
31.5714289999999984
20
-31.454818999999997
11
31.8095239999999997
21
-32.4548190000000005
0
LINE
8
GRAY3
6
CONTINUOUS
10
31.8095239999999997
20
-32.4548190000000005
11
32.
21
-31.7405329999999992
0
LINE
8
GRAY3
6
CONTINUOUS
10
32.
20
-31.7405329999999992
11
32.1904759999999968
21
-32.4548190000000005
0
LINE
8
GRAY3
6
CONTINUOUS
10
32.1904759999999968
20
-32.4548190000000005
11
32.4285719999999955
21
-31.454818999999997
0
LINE
8
GRAY3
6
CONTINUOUS
10
32.7619049999999987
20
-31.5500569999999989
11
32.8095239999999961
21
-31.5024379999999979
0
LINE
8
GRAY3
6
CONTINUOUS
10
32.8095239999999961
20
-31.5024379999999979
11
32.9047619999999981
21
-31.454818999999997
0
LINE
8
GRAY3
6
CONTINUOUS
10
32.9047619999999981
20
-31.454818999999997
11
33.1428569999999993
21
-31.454818999999997
0
LINE
8
GRAY3
6
CONTINUOUS
10
33.1428569999999993
20
-31.454818999999997
11
33.2380950000000013
21
-31.5024379999999979
0
LINE
8
GRAY3
6
CONTINUOUS
10
33.2380950000000013
20
-31.5024379999999979
11
33.2857139999999987
21
-31.5500569999999989
0
LINE
8
GRAY3
6
CONTINUOUS
10
33.2857139999999987
20
-31.5500569999999989
11
33.3333329999999961
21
-31.6452949999999973
0
LINE
8
GRAY3
6
CONTINUOUS
10
33.3333329999999961
20
-31.6452949999999973
11
33.3333329999999961
21
-31.7405329999999992
0
LINE
8
GRAY3
6
CONTINUOUS
10
33.3333329999999961
20
-31.7405329999999992
11
33.2857139999999987
21
-31.8833899999999986
0
LINE
8
GRAY3
6
CONTINUOUS
10
33.2857139999999987
20
-31.8833899999999986
11
32.7142860000000013
21
-32.4548190000000005
0
LINE
8
GRAY3
6
CONTINUOUS
10
32.7142860000000013
20
-32.4548190000000005
11
33.3333329999999961
21
-32.4548190000000005
0
LINE
8
GRAY3
6
CONTINUOUS
10
78.6666669999999897
20
-48.407199999999996
11
78.8095239999999961
21
-48.4548190000000005
0
LINE
8
GRAY3
6
CONTINUOUS
10
78.8095239999999961
20
-48.4548190000000005
11
79.0476189999999974
21
-48.4548190000000005
0
LINE
8
GRAY3
6
CONTINUOUS
10
79.0476189999999974
20
-48.4548190000000005
11
79.1428569999999922
21
-48.407199999999996
0
LINE
8
GRAY3
6
CONTINUOUS
10
79.1428569999999922
20
-48.407199999999996
11
79.1904759999999897
21
-48.3595800000000011
0
LINE
8
GRAY3
6
CONTINUOUS
10
79.1904759999999897
20
-48.3595800000000011
11
79.2380950000000013
21
-48.2643419999999992
0
LINE
8
GRAY3
6
CONTINUOUS
10
79.2380950000000013
20
-48.2643419999999992
11
79.2380950000000013
21
-48.1691039999999973
0
LINE
8
GRAY3
6
CONTINUOUS
10
79.2380950000000013
20
-48.1691039999999973
11
79.1904759999999897
21
-48.0738659999999953
0
LINE
8
GRAY3
6
CONTINUOUS
10
79.1904759999999897
20
-48.0738659999999953
11
79.1428569999999922
21
-48.0262469999999979
0
LINE
8
GRAY3
6
CONTINUOUS
10
79.1428569999999922
20
-48.0262469999999979
11
79.0476189999999974
21
-47.9786280000000005
0
LINE
8
GRAY3
6
CONTINUOUS
10
79.0476189999999974
20
-47.9786280000000005
11
78.8571429999999935
21
-47.931008999999996
0
LINE
8
GRAY3
6
CONTINUOUS
10
78.8571429999999935
20
-47.931008999999996
11
78.7619049999999987
21
-47.8833899999999986
0
LINE
8
GRAY3
6
CONTINUOUS
10
78.7619049999999987
20
-47.8833899999999986
11
78.7142860000000013
21
-47.8357710000000012
0
LINE
8
GRAY3
6
CONTINUOUS
10
78.7142860000000013
20
-47.8357710000000012
11
78.6666669999999897
21
-47.7405329999999992
0
LINE
8
GRAY3
6
CONTINUOUS
10
78.6666669999999897
20
-47.7405329999999992
11
78.6666669999999897
21
-47.6452949999999973
0
LINE
8
GRAY3
6
CONTINUOUS
10
78.6666669999999897
20
-47.6452949999999973
11
78.7142860000000013
21
-47.5500569999999954
0
LINE
8
GRAY3
6
CONTINUOUS
10
78.7142860000000013
20
-47.5500569999999954
11
78.7619049999999987
21
-47.5024379999999979
0
LINE
8
GRAY3
6
CONTINUOUS
10
78.7619049999999987
20
-47.5024379999999979
11
78.8571429999999935
21
-47.4548190000000005
0
LINE
8
GRAY3
6
CONTINUOUS
10
78.8571429999999935
20
-47.4548190000000005
11
79.0952379999999948
21
-47.4548190000000005
0
LINE
8
GRAY3
6
CONTINUOUS
10
79.0952379999999948
20
-47.4548190000000005
11
79.2380950000000013
21
-47.5024379999999979
0
LINE
8
GRAY3
6
CONTINUOUS
10
79.5714289999999949
20
-47.4548190000000005
11
79.8095239999999961
21
-48.4548190000000005
0
LINE
8
GRAY3
6
CONTINUOUS
10
79.8095239999999961
20
-48.4548190000000005
11
80.
21
-47.7405329999999992
0
LINE
8
GRAY3
6
CONTINUOUS
10
80.
20
-47.7405329999999992
11
80.1904759999999897
21
-48.4548190000000005
0
LINE
8
GRAY3
6
CONTINUOUS
10
80.1904759999999897
20
-48.4548190000000005
11
80.4285720000000026
21
-47.4548190000000005
0
LINE
8
GRAY3
6
CONTINUOUS
10
80.9523810000000026
20
-47.8833899999999986
11
80.8571429999999935
21
-47.8357710000000012
0
LINE
8
GRAY3
6
CONTINUOUS
10
80.8571429999999935
20
-47.8357710000000012
11
80.8095239999999961
21
-47.7881519999999966
0
LINE
8
GRAY3
6
CONTINUOUS
10
80.8095239999999961
20
-47.7881519999999966
11
80.7619049999999987
21
-47.6929139999999947
0
LINE
8
GRAY3
6
CONTINUOUS
10
80.7619049999999987
20
-47.6929139999999947
11
80.7619049999999987
21
-47.6452949999999973
0
LINE
8
GRAY3
6
CONTINUOUS
10
80.7619049999999987
20
-47.6452949999999973
11
80.8095239999999961
21
-47.5500569999999954
0
LINE
8
GRAY3
6
CONTINUOUS
10
80.8095239999999961
20
-47.5500569999999954
11
80.8571429999999935
21
-47.5024379999999979
0
LINE
8
GRAY3
6
CONTINUOUS
10
80.8571429999999935
20
-47.5024379999999979
11
80.9523810000000026
21
-47.4548190000000005
0
LINE
8
GRAY3
6
CONTINUOUS
10
80.9523810000000026
20
-47.4548190000000005
11
81.1428569999999922
21
-47.4548190000000005
0
LINE
8
GRAY3
6
CONTINUOUS
10
81.1428569999999922
20
-47.4548190000000005
11
81.2380950000000013
21
-47.5024379999999979
0
LINE
8
GRAY3
6
CONTINUOUS
10
81.2380950000000013
20
-47.5024379999999979
11
81.2857139999999987
21
-47.5500569999999954
0
LINE
8
GRAY3
6
CONTINUOUS
10
81.2857139999999987
20
-47.5500569999999954
11
81.3333329999999961
21
-47.6452949999999973
0
LINE
8
GRAY3
6
CONTINUOUS
10
81.3333329999999961
20
-47.6452949999999973
11
81.3333329999999961
21
-47.6929139999999947
0
LINE
8
GRAY3
6
CONTINUOUS
10
81.3333329999999961
20
-47.6929139999999947
11
81.2857139999999987
21
-47.7881519999999966
0
LINE
8
GRAY3
6
CONTINUOUS
10
81.2857139999999987
20
-47.7881519999999966
11
81.2380950000000013
21
-47.8357710000000012
0
LINE
8
GRAY3
6
CONTINUOUS
10
81.2380950000000013
20
-47.8357710000000012
11
81.1428569999999922
21
-47.8833899999999986
0
LINE
8
GRAY3
6
CONTINUOUS
10
81.1428569999999922
20
-47.8833899999999986
11
80.9523810000000026
21
-47.8833899999999986
0
LINE
8
GRAY3
6
CONTINUOUS
10
80.9523810000000026
20
-47.8833899999999986
11
80.8571429999999935
21
-47.931008999999996
0
LINE
8
GRAY3
6
CONTINUOUS
10
80.8571429999999935
20
-47.931008999999996
11
80.8095239999999961
21
-47.9786280000000005
0
LINE
8
GRAY3
6
CONTINUOUS
10
80.8095239999999961
20
-47.9786280000000005
11
80.7619049999999987
21
-48.0738659999999953
0
LINE
8
GRAY3
6
CONTINUOUS
10
80.7619049999999987
20
-48.0738659999999953
11
80.7619049999999987
21
-48.2643419999999992
0
LINE
8
GRAY3
6
CONTINUOUS
10
80.7619049999999987
20
-48.2643419999999992
11
80.8095239999999961
21
-48.3595800000000011
0
LINE
8
GRAY3
6
CONTINUOUS
10
80.8095239999999961
20
-48.3595800000000011
11
80.8571429999999935
21
-48.407199999999996
0
LINE
8
GRAY3
6
CONTINUOUS
10
80.8571429999999935
20
-48.407199999999996
11
80.9523810000000026
21
-48.4548190000000005
0
LINE
8
GRAY3
6
CONTINUOUS
10
80.9523810000000026
20
-48.4548190000000005
11
81.1428569999999922
21
-48.4548190000000005
0
LINE
8
GRAY3
6
CONTINUOUS
10
81.1428569999999922
20
-48.4548190000000005
11
81.2380950000000013
21
-48.407199999999996
0
LINE
8
GRAY3
6
CONTINUOUS
10
81.2380950000000013
20
-48.407199999999996
11
81.2857139999999987
21
-48.3595800000000011
0
LINE
8
GRAY3
6
CONTINUOUS
10
81.2857139999999987
20
-48.3595800000000011
11
81.3333329999999961
21
-48.2643419999999992
0
LINE
8
GRAY3
6
CONTINUOUS
10
81.3333329999999961
20
-48.2643419999999992
11
81.3333329999999961
21
-48.0738659999999953
0
LINE
8
GRAY3
6
CONTINUOUS
10
81.3333329999999961
20
-48.0738659999999953
11
81.2857139999999987
21
-47.9786280000000005
0
LINE
8
GRAY3
6
CONTINUOUS
10
81.2857139999999987
20
-47.9786280000000005
11
81.2380950000000013
21
-47.931008999999996
0
LINE
8
GRAY3
6
CONTINUOUS
10
81.2380950000000013
20
-47.931008999999996
11
81.1428569999999922
21
-47.8833899999999986
0
LINE
8
GRAY3
6
CONTINUOUS
10
62.6666669999999968
20
-32.407199999999996
11
62.8095239999999961
21
-32.4548190000000005
0
LINE
8
GRAY3
6
CONTINUOUS
10
62.8095239999999961
20
-32.4548190000000005
11
63.0476189999999974
21
-32.4548190000000005
0
LINE
8
GRAY3
6
CONTINUOUS
10
63.0476189999999974
20
-32.4548190000000005
11
63.1428569999999993
21
-32.407199999999996
0
LINE
8
GRAY3
6
CONTINUOUS
10
63.1428569999999993
20
-32.407199999999996
11
63.1904759999999968
21
-32.3595800000000011
0
LINE
8
GRAY3
6
CONTINUOUS
10
63.1904759999999968
20
-32.3595800000000011
11
63.2380949999999942
21
-32.2643419999999992
0
LINE
8
GRAY3
6
CONTINUOUS
10
63.2380949999999942
20
-32.2643419999999992
11
63.2380949999999942
21
-32.1691039999999973
0
LINE
8
GRAY3
6
CONTINUOUS
10
63.2380949999999942
20
-32.1691039999999973
11
63.1904759999999968
21
-32.0738659999999953
0
LINE
8
GRAY3
6
CONTINUOUS
10
63.1904759999999968
20
-32.0738659999999953
11
63.1428569999999993
21
-32.0262469999999979
0
LINE
8
GRAY3
6
CONTINUOUS
10
63.1428569999999993
20
-32.0262469999999979
11
63.0476189999999974
21
-31.9786279999999969
0
LINE
8
GRAY3
6
CONTINUOUS
10
63.0476189999999974
20
-31.9786279999999969
11
62.8571430000000007
21
-31.9310089999999995
0
LINE
8
GRAY3
6
CONTINUOUS
10
62.8571430000000007
20
-31.9310089999999995
11
62.7619049999999987
21
-31.8833899999999986
0
LINE
8
GRAY3
6
CONTINUOUS
10
62.7619049999999987
20
-31.8833899999999986
11
62.7142859999999942
21
-31.8357709999999976
0
LINE
8
GRAY3
6
CONTINUOUS
10
62.7142859999999942
20
-31.8357709999999976
11
62.6666669999999968
21
-31.7405329999999992
0
LINE
8
GRAY3
6
CONTINUOUS
10
62.6666669999999968
20
-31.7405329999999992
11
62.6666669999999968
21
-31.6452949999999973
0
LINE
8
GRAY3
6
CONTINUOUS
10
62.6666669999999968
20
-31.6452949999999973
11
62.7142859999999942
21
-31.5500569999999989
0
LINE
8
GRAY3
6
CONTINUOUS
10
62.7142859999999942
20
-31.5500569999999989
11
62.7619049999999987
21
-31.5024379999999979
0
LINE
8
GRAY3
6
CONTINUOUS
10
62.7619049999999987
20
-31.5024379999999979
11
62.8571430000000007
21
-31.454818999999997
0
LINE
8
GRAY3
6
CONTINUOUS
10
62.8571430000000007
20
-31.454818999999997
11
63.0952379999999948
21
-31.454818999999997
0
LINE
8
GRAY3
6
CONTINUOUS
10
63.0952379999999948
20
-31.454818999999997
11
63.2380949999999942
21
-31.5024379999999979
0
LINE
8
GRAY3
6
CONTINUOUS
10
63.5714289999999949
20
-31.454818999999997
11
63.8095239999999961
21
-32.4548190000000005
0
LINE
8
GRAY3
6
CONTINUOUS
10
63.8095239999999961
20
-32.4548190000000005
11
64.
21
-31.7405329999999992
0
LINE
8
GRAY3
6
CONTINUOUS
10
64.
20
-31.7405329999999992
11
64.1904760000000039
21
-32.4548190000000005
0
LINE
8
GRAY3
6
CONTINUOUS
10
64.1904760000000039
20
-32.4548190000000005
11
64.4285720000000026
21
-31.454818999999997
0
LINE
8
GRAY3
6
CONTINUOUS
10
65.2380950000000013
20
-31.454818999999997
11
65.0476189999999974
21
-31.454818999999997
0
LINE
8
GRAY3
6
CONTINUOUS
10
65.0476189999999974
20
-31.454818999999997
11
64.9523810000000026
21
-31.5024379999999979
0
LINE
8
GRAY3
6
CONTINUOUS
10
64.9523810000000026
20
-31.5024379999999979
11
64.904761999999991
21
-31.5500569999999989
0
LINE
8
GRAY3
6
CONTINUOUS
10
64.904761999999991
20
-31.5500569999999989
11
64.8095239999999961
21
-31.6929139999999983
0
LINE
8
GRAY3
6
CONTINUOUS
10
64.8095239999999961
20
-31.6929139999999983
11
64.7619049999999987
21
-31.8833899999999986
0
LINE
8
GRAY3
6
CONTINUOUS
10
64.7619049999999987
20
-31.8833899999999986
11
64.7619049999999987
21
-32.2643419999999992
0
LINE
8
GRAY3
6
CONTINUOUS
10
64.7619049999999987
20
-32.2643419999999992
11
64.8095239999999961
21
-32.3595800000000011
0
LINE
8
GRAY3
6
CONTINUOUS
10
64.8095239999999961
20
-32.3595800000000011
11
64.8571429999999935
21
-32.407199999999996
0
LINE
8
GRAY3
6
CONTINUOUS
10
64.8571429999999935
20
-32.407199999999996
11
64.9523810000000026
21
-32.4548190000000005
0
LINE
8
GRAY3
6
CONTINUOUS
10
64.9523810000000026
20
-32.4548190000000005
11
65.1428569999999922
21
-32.4548190000000005
0
LINE
8
GRAY3
6
CONTINUOUS
10
65.1428569999999922
20
-32.4548190000000005
11
65.2380950000000013
21
-32.407199999999996
0
LINE
8
GRAY3
6
CONTINUOUS
10
65.2380950000000013
20
-32.407199999999996
11
65.2857139999999987
21
-32.3595800000000011
0
LINE
8
GRAY3
6
CONTINUOUS
10
65.2857139999999987
20
-32.3595800000000011
11
65.3333329999999961
21
-32.2643419999999992
0
LINE
8
GRAY3
6
CONTINUOUS
10
65.3333329999999961
20
-32.2643419999999992
11
65.3333329999999961
21
-32.0262469999999979
0
LINE
8
GRAY3
6
CONTINUOUS
10
65.3333329999999961
20
-32.0262469999999979
11
65.2857139999999987
21
-31.9310089999999995
0
LINE
8
GRAY3
6
CONTINUOUS
10
65.2857139999999987
20
-31.9310089999999995
11
65.2380950000000013
21
-31.8833899999999986
0
LINE
8
GRAY3
6
CONTINUOUS
10
65.2380950000000013
20
-31.8833899999999986
11
65.1428569999999922
21
-31.8357709999999976
0
LINE
8
GRAY3
6
CONTINUOUS
10
65.1428569999999922
20
-31.8357709999999976
11
64.9523810000000026
21
-31.8357709999999976
0
LINE
8
GRAY3
6
CONTINUOUS
10
64.9523810000000026
20
-31.8357709999999976
11
64.8571429999999935
21
-31.8833899999999986
0
LINE
8
GRAY3
6
CONTINUOUS
10
64.8571429999999935
20
-31.8833899999999986
11
64.8095239999999961
21
-31.9310089999999995
0
LINE
8
GRAY3
6
CONTINUOUS
10
64.8095239999999961
20
-31.9310089999999995
11
64.7619049999999987
21
-32.0262469999999979
0
LINE
8
GRAY3
6
CONTINUOUS
10
9.
20
-41.
11
9.
21
-55.
0
LINE
8
GRAY3
6
CONTINUOUS
10
9.
20
-55.
11
23.
21
-55.
0
LINE
8
GRAY3
6
CONTINUOUS
10
23.
20
-41.
11
9.
21
-41.
0
LINE
8
GRAY3
6
CONTINUOUS
10
23.
20
-55.
11
23.
21
-41.
0
LINE
8
GRAY3
6
CONTINUOUS
10
28.7300000000000004
20
-8.4299999999999997
11
30.634999999999998
21
-8.4299999999999997
0
LINE
8
GRAY3
6
CONTINUOUS
10
28.7300000000000004
20
-18.5899999999999999
11
28.7300000000000004
21
-8.4299999999999997
0
LINE
8
GRAY3
6
CONTINUOUS
10
30.634999999999998
20
-8.4299999999999997
11
31.2699999999999996
21
-9.0649999999999995
0
LINE
8
GRAY3
6
CONTINUOUS
10
31.2699999999999996
20
-9.0649999999999995
11
31.2699999999999996
21
-18.5899999999999999
0
LINE
8
GRAY3
6
CONTINUOUS
10
31.2699999999999996
20
-18.5899999999999999
11
28.7300000000000004
21
-18.5899999999999999
0
LINE
8
GRAY3
6
CONTINUOUS
10
25.
20
-41.
11
25.
21
-55.
0
LINE
8
GRAY3
6
CONTINUOUS
10
25.
20
-55.
11
39.
21
-55.
0
LINE
8
GRAY3
6
CONTINUOUS
10
39.
20
-41.
11
25.
21
-41.
0
LINE
8
GRAY3
6
CONTINUOUS
10
39.
20
-55.
11
39.
21
-41.
0
LINE
8
GRAY3
6
CONTINUOUS
10
73.
20
-25.
11
73.
21
-39.
0
LINE
8
GRAY3
6
CONTINUOUS
10
73.
20
-39.
11
87.
21
-39.
0
LINE
8
GRAY3
6
CONTINUOUS
10
87.
20
-25.
11
73.
21
-25.
0
LINE
8
GRAY3
6
CONTINUOUS
10
87.
20
-39.
11
87.
21
-25.
0
LINE
8
GRAY3
6
CONTINUOUS
10
9.
20
-9.
11
9.
21
-23.
0
LINE
8
GRAY3
6
CONTINUOUS
10
9.
20
-23.
11
23.
21
-23.
0
LINE
8
GRAY3
6
CONTINUOUS
10
23.
20
-9.
11
9.
21
-9.
0
LINE
8
GRAY3
6
CONTINUOUS
10
23.
20
-23.
11
23.
21
-9.
0
LINE
8
GRAY3
6
CONTINUOUS
10
41.
20
-41.
11
41.
21
-55.
0
LINE
8
GRAY3
6
CONTINUOUS
10
41.
20
-55.
11
55.
21
-55.
0
LINE
8
GRAY3
6
CONTINUOUS
10
55.
20
-41.
11
41.
21
-41.
0
LINE
8
GRAY3
6
CONTINUOUS
10
55.
20
-55.
11
55.
21
-41.
0
LINE
8
GRAY3
6
CONTINUOUS
10
25.
20
-25.
11
25.
21
-39.
0
LINE
8
GRAY3
6
CONTINUOUS
10
25.
20
-39.
11
39.
21
-39.
0
LINE
8
GRAY3
6
CONTINUOUS
10
39.
20
-25.
11
25.
21
-25.
0
LINE
8
GRAY3
6
CONTINUOUS
10
39.
20
-39.
11
39.
21
-25.
0
LINE
8
GRAY3
6
CONTINUOUS
10
73.
20
-41.
11
73.
21
-55.
0
LINE
8
GRAY3
6
CONTINUOUS
10
73.
20
-55.
11
87.
21
-55.
0
LINE
8
GRAY3
6
CONTINUOUS
10
87.
20
-41.
11
73.
21
-41.
0
LINE
8
GRAY3
6
CONTINUOUS
10
87.
20
-55.
11
87.
21
-41.
0
LINE
8
GRAY3
6
CONTINUOUS
10
57.
20
-25.
11
57.
21
-39.
0
LINE
8
GRAY3
6
CONTINUOUS
10
57.
20
-39.
11
71.
21
-39.
0
LINE
8
GRAY3
6
CONTINUOUS
10
71.
20
-25.
11
57.
21
-25.
0
LINE
8
GRAY3
6
CONTINUOUS
10
71.
20
-39.
11
71.
21
-25.
0
LINE
8
GRAY2
6
CONTINUOUS
10
55.074818999999998
20
-17.8436659999999989
11
55.7891039999999947
21
-17.8436659999999989
0
LINE
8
GRAY2
6
CONTINUOUS
10
55.7891039999999947
20
-17.8436659999999989
11
55.931960999999994
21
-17.796046999999998
0
LINE
8
GRAY2
6
CONTINUOUS
10
55.931960999999994
20
-17.796046999999998
11
56.0272000000000006
21
-17.7008089999999996
0
LINE
8
GRAY2
6
CONTINUOUS
10
56.0272000000000006
20
-17.7008089999999996
11
56.074818999999998
21
-17.5579520000000002
0
LINE
8
GRAY2
6
CONTINUOUS
10
56.074818999999998
20
-17.5579520000000002
11
56.074818999999998
21
-17.4627139999999983
0
LINE
8
GRAY2
6
CONTINUOUS
10
55.1700569999999999
20
-18.272237999999998
11
55.1224379999999954
21
-18.3198569999999989
0
LINE
8
GRAY2
6
CONTINUOUS
10
55.1224379999999954
20
-18.3198569999999989
11
55.074818999999998
21
-18.4150950000000009
0
LINE
8
GRAY2
6
CONTINUOUS
10
55.074818999999998
20
-18.4150950000000009
11
55.074818999999998
21
-18.6531899999999986
0
LINE
8
GRAY2
6
CONTINUOUS
10
55.074818999999998
20
-18.6531899999999986
11
55.1224379999999954
21
-18.7484280000000005
0
LINE
8
GRAY2
6
CONTINUOUS
10
55.1224379999999954
20
-18.7484280000000005
11
55.1700569999999999
21
-18.796046999999998
0
LINE
8
GRAY2
6
CONTINUOUS
10
55.1700569999999999
20
-18.796046999999998
11
55.2652949999999947
21
-18.8436659999999989
0
LINE
8
GRAY2
6
CONTINUOUS
10
55.2652949999999947
20
-18.8436659999999989
11
55.3605329999999967
21
-18.8436659999999989
0
LINE
8
GRAY2
6
CONTINUOUS
10
55.3605329999999967
20
-18.8436659999999989
11
55.503389999999996
21
-18.796046999999998
0
LINE
8
GRAY2
6
CONTINUOUS
10
55.503389999999996
20
-18.796046999999998
11
56.074818999999998
21
-18.2246190000000006
0
LINE
8
GRAY2
6
CONTINUOUS
10
56.074818999999998
20
-18.2246190000000006
11
56.074818999999998
21
-18.8436659999999989
0
LINE
8
GRAY2
6
CONTINUOUS
10
39.834818999999996
20
-17.8436659999999989
11
40.5491039999999998
21
-17.8436659999999989
0
LINE
8
GRAY2
6
CONTINUOUS
10
40.5491039999999998
20
-17.8436659999999989
11
40.6919609999999992
21
-17.796046999999998
0
LINE
8
GRAY2
6
CONTINUOUS
10
40.6919609999999992
20
-17.796046999999998
11
40.7871999999999986
21
-17.7008089999999996
0
LINE
8
GRAY2
6
CONTINUOUS
10
40.7871999999999986
20
-17.7008089999999996
11
40.834818999999996
21
-17.5579520000000002
0
LINE
8
GRAY2
6
CONTINUOUS
10
40.834818999999996
20
-17.5579520000000002
11
40.834818999999996
21
-17.4627139999999983
0
LINE
8
GRAY2
6
CONTINUOUS
10
40.834818999999996
20
-18.8436659999999989
11
40.834818999999996
21
-18.272237999999998
0
LINE
8
GRAY2
6
CONTINUOUS
10
40.834818999999996
20
-18.5579520000000002
11
39.834818999999996
21
-18.5579520000000002
0
LINE
8
GRAY2
6
CONTINUOUS
10
39.834818999999996
20
-18.5579520000000002
11
39.9776759999999953
21
-18.4627139999999983
0
LINE
8
GRAY2
6
CONTINUOUS
10
39.9776759999999953
20
-18.4627139999999983
11
40.0729139999999973
21
-18.3674759999999999
0
LINE
8
GRAY2
6
CONTINUOUS
10
40.0729139999999973
20
-18.3674759999999999
11
40.1205329999999947
21
-18.272237999999998
0
LINE
8
GRAY2
6
CONTINUOUS
10
54.3499999999999943
20
-1.032
11
54.3499999999999943
21
-35.9570000000000007
0
LINE
8
GRAY2
6
CONTINUOUS
10
54.3499999999999943
20
-35.9570000000000007
11
56.8900000000000006
21
-35.9570000000000007
0
LINE
8
GRAY2
6
CONTINUOUS
10
54.9849999999999994
20
-0.397
11
54.3499999999999943
21
-1.032
0
LINE
8
GRAY2
6
CONTINUOUS
10
56.8900000000000006
20
-0.397
11
54.9849999999999994
21
-0.397
0
LINE
8
GRAY2
6
CONTINUOUS
10
56.8900000000000006
20
-35.9570000000000007
11
56.8900000000000006
21
-0.397
0
LINE
8
GRAY2
6
CONTINUOUS
10
39.1099999999999994
20
-1.032
11
39.1099999999999994
21
-35.9570000000000007
0
LINE
8
GRAY2
6
CONTINUOUS
10
39.1099999999999994
20
-35.9570000000000007
11
41.6499999999999986
21
-35.9570000000000007
0
LINE
8
GRAY2
6
CONTINUOUS
10
39.7449999999999974
20
-0.397
11
39.1099999999999994
21
-1.032
0
LINE
8
GRAY2
6
CONTINUOUS
10
41.6499999999999986
20
-0.397
11
39.7449999999999974
21
-0.397
0
LINE
8
GRAY2
6
CONTINUOUS
10
41.6499999999999986
20
-35.9570000000000007
11
41.6499999999999986
21
-0.397
0
CIRCLE
8
BLACK
10
92.
20
-4.
40
1.5499989999999999
0
CIRCLE
8
BLACK
10
4.
20
-60.
40
1.5499989999999999
0
CIRCLE
8
BLACK
10
4.
20
-4.
40
1.5499989999999999
0
CIRCLE
8
BLACK
10
16.
20
-48.
40
2.199999
0
CIRCLE
8
BLACK
10
19.8000000000000007
20
-51.7999999999999972
40
0.6
0
CIRCLE
8
BLACK
10
16.
20
-54.5
40
0.6
0
CIRCLE
8
BLACK
10
30.
20
-9.6999999999999993
40
0.5
0
CIRCLE
8
BLACK
10
30.
20
-12.2400000000000002
40
0.5
0
CIRCLE
8
BLACK
10
30.
20
-14.7799999999999994
40
0.5
0
CIRCLE
8
BLACK
10
30.
20
-17.3200000000000003
40
0.5
0
CIRCLE
8
BLACK
10
92.
20
-60.
40
1.5499989999999999
0
CIRCLE
8
BLACK
10
32.
20
-48.
40
2.199999
0
CIRCLE
8
BLACK
10
35.7999999999999972
20
-51.7999999999999972
40
0.6
0
CIRCLE
8
BLACK
10
32.
20
-54.5
40
0.6
0
CIRCLE
8
BLACK
10
80.
20
-32.
40
2.199999
0
CIRCLE
8
BLACK
10
83.7999999999999972
20
-35.7999999999999972
40
0.6
0
CIRCLE
8
BLACK
10
80.
20
-38.5
40
0.6
0
CIRCLE
8
BLACK
10
16.
20
-16.
40
2.199999
0
CIRCLE
8
BLACK
10
19.8000000000000007
20
-19.8000000000000007
40
0.6
0
CIRCLE
8
BLACK
10
16.
20
-22.5
40
0.6
0
CIRCLE
8
BLACK
10
48.
20
-48.
40
2.199999
0
CIRCLE
8
BLACK
10
51.7999999999999972
20
-51.7999999999999972
40
0.6
0
CIRCLE
8
BLACK
10
48.
20
-54.5
40
0.6
0
CIRCLE
8
BLACK
10
32.
20
-32.
40
2.199999
0
CIRCLE
8
BLACK
10
35.7999999999999972
20
-35.7999999999999972
40
0.6
0
CIRCLE
8
BLACK
10
32.
20
-38.5
40
0.6
0
CIRCLE
8
BLACK
10
80.
20
-48.
40
2.199999
0
CIRCLE
8
BLACK
10
83.7999999999999972
20
-51.7999999999999972
40
0.6
0
CIRCLE
8
BLACK
10
80.
20
-54.5
40
0.6
0
CIRCLE
8
BLACK
10
64.
20
-32.
40
2.199999
0
CIRCLE
8
BLACK
10
67.7999999999999972
20
-35.7999999999999972
40
0.6
0
CIRCLE
8
BLACK
10
64.
20
-38.5
40
0.6
0
CIRCLE
8
BLACK
10
55.6199999999999974
20
-1.6669999999999998
40
0.5
0
CIRCLE
8
BLACK
10
55.6199999999999974
20
-4.2069999999999999
40
0.5
0
CIRCLE
8
BLACK
10
55.6199999999999974
20
-6.7469999999999999
40
0.5
0
CIRCLE
8
BLACK
10
55.6199999999999974
20
-9.286999999999999
40
0.5
0
CIRCLE
8
BLACK
10
55.6199999999999974
20
-11.827
40
0.5
0
CIRCLE
8
BLACK
10
55.6199999999999974
20
-14.3669999999999991
40
0.5
0
CIRCLE
8
BLACK
10
55.6199999999999974
20
-16.907
40
0.5
0
CIRCLE
8
BLACK
10
55.6199999999999974
20
-19.4469999999999992
40
0.5
0
CIRCLE
8
BLACK
10
55.6199999999999974
20
-21.9869999999999983
40
0.5
0
CIRCLE
8
BLACK
10
55.6199999999999974
20
-24.5269999999999975
40
0.5
0
CIRCLE
8
BLACK
10
55.6199999999999974
20
-27.0670000000000002
40
0.5
0
CIRCLE
8
BLACK
10
55.6199999999999974
20
-29.6069999999999993
40
0.5
0
CIRCLE
8
BLACK
10
55.6199999999999974
20
-32.1469999999999985
40
0.5
0
CIRCLE
8
BLACK
10
55.6199999999999974
20
-34.6869999999999976
40
0.5
0
CIRCLE
8
BLACK
10
40.3799999999999955
20
-1.6669999999999998
40
0.5
0
CIRCLE
8
BLACK
10
40.3799999999999955
20
-4.2069999999999999
40
0.5
0
CIRCLE
8
BLACK
10
40.3799999999999955
20
-6.7469999999999999
40
0.5
0
CIRCLE
8
BLACK
10
40.3799999999999955
20
-9.286999999999999
40
0.5
0
CIRCLE
8
BLACK
10
40.3799999999999955
20
-11.827
40
0.5
0
CIRCLE
8
BLACK
10
40.3799999999999955
20
-14.3669999999999991
40
0.5
0
CIRCLE
8
BLACK
10
40.3799999999999955
20
-16.907
40
0.5
0
CIRCLE
8
BLACK
10
40.3799999999999955
20
-19.4469999999999992
40
0.5
0
CIRCLE
8
BLACK
10
40.3799999999999955
20
-21.9869999999999983
40
0.5
0
CIRCLE
8
BLACK
10
40.3799999999999955
20
-24.5269999999999975
40
0.5
0
CIRCLE
8
BLACK
10
40.3799999999999955
20
-27.0670000000000002
40
0.5
0
CIRCLE
8
BLACK
10
40.3799999999999955
20
-29.6069999999999993
40
0.5
0
CIRCLE
8
BLACK
10
40.3799999999999955
20
-32.1469999999999985
40
0.5
0
CIRCLE
8
BLACK
10
40.3799999999999955
20
-34.6869999999999976
40
0.5
  0
ENDSEC
  0
EOF
