%TF.GenerationSoftware,KiCad,Pcbnew,9.0.4*%
%TF.CreationDate,2026-06-29T18:45:34-04:00*%
%TF.ProjectId,redbearpad,72656462-6561-4727-9061-642e6b696361,rev?*%
%TF.SameCoordinates,Original*%
%TF.FileFunction,Soldermask,Bot*%
%TF.FilePolarity,Negative*%
%FSLAX46Y46*%
G04 Gerber Fmt 4.6, Leading zero omitted, Abs format (unit mm)*
G04 Created by KiCad (PCBNEW 9.0.4) date 2026-06-29 18:45:34*
%MOMM*%
%LPD*%
G01*
G04 APERTURE LIST*
%ADD10C,3.100000*%
%ADD11C,4.400000*%
%ADD12C,2.200000*%
%ADD13C,1.500000*%
%ADD14R,1.700000X1.700000*%
%ADD15C,1.700000*%
G04 APERTURE END LIST*
D10*
%TO.C,H3*%
X4000000Y-60000000D03*
%TD*%
D11*
%TO.C,SW4*%
X48000000Y-48000000D03*
D12*
X51800000Y-51800000D03*
X48000000Y-54500000D03*
%TD*%
D10*
%TO.C,H1*%
X4000000Y-4000000D03*
%TD*%
D11*
%TO.C,SW8*%
X80000000Y-48000000D03*
D12*
X83800000Y-51800000D03*
X80000000Y-54500000D03*
%TD*%
D10*
%TO.C,H4*%
X92000000Y-60000000D03*
%TD*%
D11*
%TO.C,SW10*%
X80000000Y-16000000D03*
D12*
X83800000Y-19800000D03*
X80000000Y-22500000D03*
%TD*%
D11*
%TO.C,SW1*%
X32000000Y-32000000D03*
D12*
X35800000Y-35800000D03*
X32000000Y-38500000D03*
%TD*%
D11*
%TO.C,SW2*%
X32000000Y-48000000D03*
D12*
X35800000Y-51800000D03*
X32000000Y-54500000D03*
%TD*%
D11*
%TO.C,SW9*%
X16000000Y-16000000D03*
D12*
X19800000Y-19800000D03*
X16000000Y-22500000D03*
%TD*%
D11*
%TO.C,SW5*%
X64000000Y-32000000D03*
D12*
X67800000Y-35800000D03*
X64000000Y-38500000D03*
%TD*%
D11*
%TO.C,SW6*%
X80000000Y-32000000D03*
D12*
X83800000Y-35800000D03*
X80000000Y-38500000D03*
%TD*%
D10*
%TO.C,H2*%
X92000000Y-4000000D03*
%TD*%
D13*
%TO.C,SW12*%
X61750000Y-13500000D03*
X66250000Y-13500000D03*
X61750000Y-18500000D03*
X66250000Y-18500000D03*
%TD*%
D11*
%TO.C,SW3*%
X16000000Y-48000000D03*
D12*
X19800000Y-51800000D03*
X16000000Y-54500000D03*
%TD*%
D11*
%TO.C,SW7*%
X64000000Y-48000000D03*
D12*
X67800000Y-51800000D03*
X64000000Y-54500000D03*
%TD*%
D13*
%TO.C,SW11*%
X29750000Y-13500000D03*
X34250000Y-13500000D03*
X29750000Y-18500000D03*
X34250000Y-18500000D03*
%TD*%
D14*
%TO.C,J2*%
X55620000Y-1667000D03*
D15*
X55620000Y-4207000D03*
X55620000Y-6747000D03*
X55620000Y-9287000D03*
X55620000Y-11827000D03*
X55620000Y-14367000D03*
X55620000Y-16907000D03*
X55620000Y-19447000D03*
X55620000Y-21987000D03*
X55620000Y-24527000D03*
X55620000Y-27067000D03*
X55620000Y-29607000D03*
X55620000Y-32147000D03*
X55620000Y-34687000D03*
%TD*%
D14*
%TO.C,J1*%
X40380000Y-1667000D03*
D15*
X40380000Y-4207000D03*
X40380000Y-6747000D03*
X40380000Y-9287000D03*
X40380000Y-11827000D03*
X40380000Y-14367000D03*
X40380000Y-16907000D03*
X40380000Y-19447000D03*
X40380000Y-21987000D03*
X40380000Y-24527000D03*
X40380000Y-27067000D03*
X40380000Y-29607000D03*
X40380000Y-32147000D03*
X40380000Y-34687000D03*
%TD*%
M02*
