%TF.GenerationSoftware,KiCad,Pcbnew,9.0.4*%
%TF.CreationDate,2026-06-29T20:24:20-04:00*%
%TF.ProjectId,redbearpad,72656462-6561-4727-9061-642e6b696361,rev?*%
%TF.SameCoordinates,Original*%
%TF.FileFunction,Other,User*%
%FSLAX46Y46*%
G04 Gerber Fmt 4.6, Leading zero omitted, Abs format (unit mm)*
G04 Created by KiCad (PCBNEW 9.0.4) date 2026-06-29 20:24:20*
%MOMM*%
%LPD*%
G01*
G04 APERTURE LIST*
%ADD10C,0.150000*%
%ADD11C,0.050000*%
G04 APERTURE END LIST*
D10*
%TO.C,H3*%
X5800000Y-60000000D02*
G75*
G02*
X2200000Y-60000000I-1800000J0D01*
G01*
X2200000Y-60000000D02*
G75*
G02*
X5800000Y-60000000I1800000J0D01*
G01*
D11*
%TO.C,SW4*%
X40750000Y-40750000D02*
X40750000Y-55250000D01*
X40750000Y-55250000D02*
X55250000Y-55250000D01*
X55250000Y-40750000D02*
X40750000Y-40750000D01*
X55250000Y-55250000D02*
X55250000Y-40750000D01*
D10*
%TO.C,H1*%
X5800000Y-4000000D02*
G75*
G02*
X2200000Y-4000000I-1800000J0D01*
G01*
X2200000Y-4000000D02*
G75*
G02*
X5800000Y-4000000I1800000J0D01*
G01*
D11*
%TO.C,SW8*%
X72750000Y-40750000D02*
X72750000Y-55250000D01*
X72750000Y-55250000D02*
X87250000Y-55250000D01*
X87250000Y-40750000D02*
X72750000Y-40750000D01*
X87250000Y-55250000D02*
X87250000Y-40750000D01*
D10*
%TO.C,H4*%
X93800000Y-60000000D02*
G75*
G02*
X90200000Y-60000000I-1800000J0D01*
G01*
X90200000Y-60000000D02*
G75*
G02*
X93800000Y-60000000I1800000J0D01*
G01*
D11*
%TO.C,SW10*%
X72750000Y-8750000D02*
X72750000Y-23250000D01*
X72750000Y-23250000D02*
X87250000Y-23250000D01*
X87250000Y-8750000D02*
X72750000Y-8750000D01*
X87250000Y-23250000D02*
X87250000Y-8750000D01*
%TO.C,SW1*%
X24750000Y-24750000D02*
X24750000Y-39250000D01*
X24750000Y-39250000D02*
X39250000Y-39250000D01*
X39250000Y-24750000D02*
X24750000Y-24750000D01*
X39250000Y-39250000D02*
X39250000Y-24750000D01*
%TO.C,SW2*%
X24750000Y-40750000D02*
X24750000Y-55250000D01*
X24750000Y-55250000D02*
X39250000Y-55250000D01*
X39250000Y-40750000D02*
X24750000Y-40750000D01*
X39250000Y-55250000D02*
X39250000Y-40750000D01*
%TO.C,SW9*%
X8750000Y-8750000D02*
X8750000Y-23250000D01*
X8750000Y-23250000D02*
X23250000Y-23250000D01*
X23250000Y-8750000D02*
X8750000Y-8750000D01*
X23250000Y-23250000D02*
X23250000Y-8750000D01*
%TO.C,SW5*%
X56750000Y-24750000D02*
X56750000Y-39250000D01*
X56750000Y-39250000D02*
X71250000Y-39250000D01*
X71250000Y-24750000D02*
X56750000Y-24750000D01*
X71250000Y-39250000D02*
X71250000Y-24750000D01*
%TO.C,SW6*%
X72750000Y-24750000D02*
X72750000Y-39250000D01*
X72750000Y-39250000D02*
X87250000Y-39250000D01*
X87250000Y-24750000D02*
X72750000Y-24750000D01*
X87250000Y-39250000D02*
X87250000Y-24750000D01*
D10*
%TO.C,H2*%
X93800000Y-4000000D02*
G75*
G02*
X90200000Y-4000000I-1800000J0D01*
G01*
X90200000Y-4000000D02*
G75*
G02*
X93800000Y-4000000I1800000J0D01*
G01*
D11*
%TO.C,SW12*%
X61150000Y-13150000D02*
X61150000Y-18850000D01*
X61150000Y-13150000D02*
X66850000Y-13150000D01*
X61150000Y-18850000D02*
X66850000Y-18850000D01*
X66850000Y-13150000D02*
X66850000Y-18850000D01*
%TO.C,SW3*%
X8750000Y-40750000D02*
X8750000Y-55250000D01*
X8750000Y-55250000D02*
X23250000Y-55250000D01*
X23250000Y-40750000D02*
X8750000Y-40750000D01*
X23250000Y-55250000D02*
X23250000Y-40750000D01*
%TO.C,SW7*%
X56750000Y-40750000D02*
X56750000Y-55250000D01*
X56750000Y-55250000D02*
X71250000Y-55250000D01*
X71250000Y-40750000D02*
X56750000Y-40750000D01*
X71250000Y-55250000D02*
X71250000Y-40750000D01*
%TO.C,SW11*%
X29150000Y-13150000D02*
X29150000Y-18850000D01*
X29150000Y-13150000D02*
X34850000Y-13150000D01*
X29150000Y-18850000D02*
X34850000Y-18850000D01*
X34850000Y-13150000D02*
X34850000Y-18850000D01*
%TD*%
M02*
