M48
; DRILL file {KiCad 9.0.4} date 2026-06-29T18:45:35-0400
; FORMAT={-:-/ absolute / metric / decimal}
; #@! TF.CreationDate,2026-06-29T18:45:35-04:00
; #@! TF.GenerationSoftware,Kicad,Pcbnew,9.0.4
; #@! TF.FileFunction,MixedPlating,1,2
FMAT,2
METRIC
; #@! TA.AperFunction,Plated,PTH,ViaDrill
T1C0.400
; #@! TA.AperFunction,Plated,PTH,ComponentDrill
T2C0.900
; #@! TA.AperFunction,Plated,PTH,ComponentDrill
T3C1.000
; #@! TA.AperFunction,Plated,PTH,ComponentDrill
T4C1.200
; #@! TA.AperFunction,NonPlated,NPTH,ComponentDrill
T5C3.100
; #@! TA.AperFunction,NonPlated,NPTH,ComponentDrill
T6C4.400
%
G90
G05
T1
X60.0Y-30.0
T2
X29.75Y-13.5
X29.75Y-18.5
X34.25Y-13.5
X34.25Y-18.5
X61.75Y-13.5
X61.75Y-18.5
X66.25Y-13.5
X66.25Y-18.5
T3
X40.38Y-1.667
X40.38Y-4.207
X40.38Y-6.747
X40.38Y-9.287
X40.38Y-11.827
X40.38Y-14.367
X40.38Y-16.907
X40.38Y-19.447
X40.38Y-21.987
X40.38Y-24.527
X40.38Y-27.067
X40.38Y-29.607
X40.38Y-32.147
X40.38Y-34.687
X55.62Y-1.667
X55.62Y-4.207
X55.62Y-6.747
X55.62Y-9.287
X55.62Y-11.827
X55.62Y-14.367
X55.62Y-16.907
X55.62Y-19.447
X55.62Y-21.987
X55.62Y-24.527
X55.62Y-27.067
X55.62Y-29.607
X55.62Y-32.147
X55.62Y-34.687
T4
X16.0Y-22.5
X16.0Y-54.5
X19.8Y-19.8
X19.8Y-51.8
X32.0Y-38.5
X32.0Y-54.5
X35.8Y-35.8
X35.8Y-51.8
X48.0Y-54.5
X51.8Y-51.8
X64.0Y-38.5
X64.0Y-54.5
X67.8Y-35.8
X67.8Y-51.8
X80.0Y-22.5
X80.0Y-38.5
X80.0Y-54.5
X83.8Y-19.8
X83.8Y-35.8
X83.8Y-51.8
T5
X4.0Y-4.0
X4.0Y-60.0
X92.0Y-4.0
X92.0Y-60.0
T6
X16.0Y-16.0
X16.0Y-48.0
X32.0Y-32.0
X32.0Y-48.0
X48.0Y-48.0
X64.0Y-32.0
X64.0Y-48.0
X80.0Y-16.0
X80.0Y-32.0
X80.0Y-48.0
M30
