%TF.GenerationSoftware,KiCad,Pcbnew,9.0.4*%
%TF.CreationDate,2026-06-18T13:15:17-04:00*%
%TF.ProjectId,redbearpad,72656462-6561-4727-9061-642e6b696361,rev?*%
%TF.SameCoordinates,Original*%
%TF.FileFunction,Copper,L2,Bot*%
%TF.FilePolarity,Positive*%
%FSLAX46Y46*%
G04 Gerber Fmt 4.6, Leading zero omitted, Abs format (unit mm)*
G04 Created by KiCad (PCBNEW 9.0.4) date 2026-06-18 13:15:17*
%MOMM*%
%LPD*%
G01*
G04 APERTURE LIST*
%TA.AperFunction,ComponentPad*%
%ADD10C,2.200000*%
%TD*%
%TA.AperFunction,ComponentPad*%
%ADD11R,1.700000X1.700000*%
%TD*%
%TA.AperFunction,ComponentPad*%
%ADD12C,1.700000*%
%TD*%
%TA.AperFunction,Conductor*%
%ADD13C,0.500000*%
%TD*%
%TA.AperFunction,Conductor*%
%ADD14C,0.250000*%
%TD*%
G04 APERTURE END LIST*
D10*
%TO.P,SW3,1*%
%TO.N,SW3*%
X19800000Y-51800000D03*
%TO.P,SW3,2*%
%TO.N,GND*%
X16000000Y-54500000D03*
%TD*%
D11*
%TO.P,J3,1*%
%TO.N,SDA*%
X30000000Y-9700000D03*
D12*
%TO.P,J3,2*%
%TO.N,SCL*%
X30000000Y-12240000D03*
%TO.P,J3,3*%
%TO.N,+3V3*%
X30000000Y-14780000D03*
%TO.P,J3,4*%
%TO.N,GND*%
X30000000Y-17320000D03*
%TD*%
D10*
%TO.P,SW4,1*%
%TO.N,SW4*%
X35800000Y-51800000D03*
%TO.P,SW4,2*%
%TO.N,GND*%
X32000000Y-54500000D03*
%TD*%
%TO.P,SW7,1*%
%TO.N,SW7*%
X83800000Y-35800000D03*
%TO.P,SW7,2*%
%TO.N,GND*%
X80000000Y-38500000D03*
%TD*%
%TO.P,SW1,1*%
%TO.N,SW1*%
X19800000Y-19800000D03*
%TO.P,SW1,2*%
%TO.N,GND*%
X16000000Y-22500000D03*
%TD*%
%TO.P,SW5,1*%
%TO.N,SW5*%
X51800000Y-51800000D03*
%TO.P,SW5,2*%
%TO.N,GND*%
X48000000Y-54500000D03*
%TD*%
%TO.P,SW2,1*%
%TO.N,SW2*%
X35800000Y-35800000D03*
%TO.P,SW2,2*%
%TO.N,GND*%
X32000000Y-38500000D03*
%TD*%
%TO.P,SW8,1*%
%TO.N,SW8*%
X83800000Y-51800000D03*
%TO.P,SW8,2*%
%TO.N,GND*%
X80000000Y-54500000D03*
%TD*%
%TO.P,SW6,1*%
%TO.N,SW6*%
X67800000Y-35800000D03*
%TO.P,SW6,2*%
%TO.N,GND*%
X64000000Y-38500000D03*
%TD*%
D11*
%TO.P,J2,1*%
%TO.N,GND*%
X55620000Y-1667000D03*
D12*
%TO.P,J2,2*%
%TO.N,+3V3*%
X55620000Y-4207000D03*
%TO.P,J2,3*%
%TO.N,N/C*%
X55620000Y-6747000D03*
%TO.P,J2,4*%
X55620000Y-9287000D03*
%TO.P,J2,5*%
X55620000Y-11827000D03*
%TO.P,J2,6*%
X55620000Y-14367000D03*
%TO.P,J2,7*%
X55620000Y-16907000D03*
%TO.P,J2,8*%
%TO.N,SW8*%
X55620000Y-19447000D03*
%TO.P,J2,9*%
%TO.N,SW7*%
X55620000Y-21987000D03*
%TO.P,J2,10*%
%TO.N,N/C*%
X55620000Y-24527000D03*
%TO.P,J2,11*%
%TO.N,SW6*%
X55620000Y-27067000D03*
%TO.P,J2,12*%
%TO.N,SW5*%
X55620000Y-29607000D03*
%TO.P,J2,13*%
%TO.N,SW4*%
X55620000Y-32147000D03*
%TO.P,J2,14*%
%TO.N,SW3*%
X55620000Y-34687000D03*
%TD*%
D11*
%TO.P,J1,1*%
%TO.N,GND*%
X40380000Y-1667000D03*
D12*
%TO.P,J1,2*%
X40380000Y-4207000D03*
%TO.P,J1,3*%
%TO.N,N/C*%
X40380000Y-6747000D03*
%TO.P,J1,4*%
X40380000Y-9287000D03*
%TO.P,J1,5*%
X40380000Y-11827000D03*
%TO.P,J1,6*%
X40380000Y-14367000D03*
%TO.P,J1,7*%
X40380000Y-16907000D03*
%TO.P,J1,8*%
X40380000Y-19447000D03*
%TO.P,J1,9*%
X40380000Y-21987000D03*
%TO.P,J1,10*%
X40380000Y-24527000D03*
%TO.P,J1,11*%
%TO.N,SDA*%
X40380000Y-27067000D03*
%TO.P,J1,12*%
%TO.N,SCL*%
X40380000Y-29607000D03*
%TO.P,J1,13*%
%TO.N,SW1*%
X40380000Y-32147000D03*
%TO.P,J1,14*%
%TO.N,SW2*%
X40380000Y-34687000D03*
%TD*%
D13*
%TO.N,+3V3*%
X58500000Y-4207000D02*
X55620000Y-4207000D01*
X27500000Y-40600000D02*
X58500000Y-40600000D01*
X30000000Y-14780000D02*
X27500000Y-16500000D01*
X58500000Y-40600000D02*
X58500000Y-4207000D01*
X27500000Y-16500000D02*
X27500000Y-40600000D01*
D14*
%TO.N,SCL*%
X30000000Y-12240000D02*
X36000000Y-13500000D01*
X36000000Y-13500000D02*
X38000000Y-29607000D01*
X38000000Y-29607000D02*
X40380000Y-29607000D01*
%TD*%
%TA.AperFunction,Conductor*%
%TO.N,GND*%
G36*
X95001509Y-37D02*
G01*
X95007232Y-177D01*
X95087583Y-2145D01*
X95108728Y-4490D01*
X95279013Y-38362D01*
X95302261Y-45413D01*
X95461257Y-111272D01*
X95482692Y-122730D01*
X95625775Y-218335D01*
X95644565Y-233756D01*
X95766243Y-355434D01*
X95781664Y-374224D01*
X95877269Y-517307D01*
X95888728Y-538745D01*
X95954583Y-697731D01*
X95961639Y-720993D01*
X95995508Y-891266D01*
X95997854Y-912419D01*
X95999963Y-998488D01*
X96000000Y-1001526D01*
X96000000Y-62998473D01*
X95999963Y-63001511D01*
X95997854Y-63087580D01*
X95995508Y-63108733D01*
X95961639Y-63279006D01*
X95954583Y-63302268D01*
X95888728Y-63461254D01*
X95877269Y-63482692D01*
X95781664Y-63625775D01*
X95766243Y-63644565D01*
X95644565Y-63766243D01*
X95625775Y-63781664D01*
X95482692Y-63877269D01*
X95461254Y-63888728D01*
X95302268Y-63954583D01*
X95279006Y-63961639D01*
X95108733Y-63995508D01*
X95087580Y-63997854D01*
X95004250Y-63999895D01*
X95001509Y-63999963D01*
X94998473Y-64000000D01*
X1001527Y-64000000D01*
X998490Y-63999963D01*
X912420Y-63997854D01*
X891266Y-63995508D01*
X720993Y-63961639D01*
X697731Y-63954583D01*
X538745Y-63888728D01*
X517307Y-63877269D01*
X374224Y-63781664D01*
X355434Y-63766243D01*
X233756Y-63644565D01*
X218335Y-63625775D01*
X122730Y-63482692D01*
X111271Y-63461254D01*
X45413Y-63302261D01*
X38362Y-63279013D01*
X4490Y-63108728D01*
X2145Y-63087583D01*
X37Y-63001509D01*
X0Y-62998473D01*
X0Y-60000000D01*
X2050000Y-60000000D01*
X2087468Y-60380424D01*
X2198436Y-60746237D01*
X2378630Y-61083356D01*
X2378634Y-61083363D01*
X2621141Y-61378858D01*
X2916636Y-61621365D01*
X2916643Y-61621369D01*
X3253762Y-61801563D01*
X3253764Y-61801563D01*
X3253767Y-61801565D01*
X3619574Y-61912531D01*
X3619573Y-61912531D01*
X3653682Y-61915890D01*
X4000000Y-61950000D01*
X4380426Y-61912531D01*
X4746233Y-61801565D01*
X5083362Y-61621366D01*
X5378858Y-61378858D01*
X5621366Y-61083362D01*
X5801565Y-60746233D01*
X5912531Y-60380426D01*
X5950000Y-60000000D01*
X90050000Y-60000000D01*
X90087468Y-60380424D01*
X90198436Y-60746237D01*
X90378630Y-61083356D01*
X90378634Y-61083363D01*
X90621141Y-61378858D01*
X90916636Y-61621365D01*
X90916643Y-61621369D01*
X91253762Y-61801563D01*
X91253764Y-61801563D01*
X91253767Y-61801565D01*
X91619574Y-61912531D01*
X91619573Y-61912531D01*
X91653682Y-61915890D01*
X92000000Y-61950000D01*
X92380426Y-61912531D01*
X92746233Y-61801565D01*
X93083362Y-61621366D01*
X93378858Y-61378858D01*
X93621366Y-61083362D01*
X93801565Y-60746233D01*
X93912531Y-60380426D01*
X93950000Y-60000000D01*
X93912531Y-59619574D01*
X93801565Y-59253767D01*
X93801563Y-59253764D01*
X93801563Y-59253762D01*
X93621369Y-58916643D01*
X93621365Y-58916636D01*
X93378858Y-58621141D01*
X93083363Y-58378634D01*
X93083356Y-58378630D01*
X92746237Y-58198436D01*
X92563329Y-58142952D01*
X92380426Y-58087469D01*
X92380424Y-58087468D01*
X92380426Y-58087468D01*
X92000000Y-58050000D01*
X91619575Y-58087468D01*
X91253762Y-58198436D01*
X90916643Y-58378630D01*
X90916636Y-58378634D01*
X90621141Y-58621141D01*
X90378634Y-58916636D01*
X90378630Y-58916643D01*
X90198436Y-59253762D01*
X90087468Y-59619575D01*
X90050000Y-60000000D01*
X5950000Y-60000000D01*
X5912531Y-59619574D01*
X5801565Y-59253767D01*
X5801563Y-59253764D01*
X5801563Y-59253762D01*
X5621369Y-58916643D01*
X5621365Y-58916636D01*
X5378858Y-58621141D01*
X5083363Y-58378634D01*
X5083356Y-58378630D01*
X4746237Y-58198436D01*
X4563329Y-58142952D01*
X4380426Y-58087469D01*
X4380424Y-58087468D01*
X4380426Y-58087468D01*
X4000000Y-58050000D01*
X3619575Y-58087468D01*
X3253762Y-58198436D01*
X2916643Y-58378630D01*
X2916636Y-58378634D01*
X2621141Y-58621141D01*
X2378634Y-58916636D01*
X2378630Y-58916643D01*
X2198436Y-59253762D01*
X2087468Y-59619575D01*
X2050000Y-60000000D01*
X0Y-60000000D01*
X0Y-54374071D01*
X14400000Y-54374071D01*
X14400000Y-54625928D01*
X14439397Y-54874669D01*
X14517219Y-55114184D01*
X14631557Y-55338583D01*
X14705748Y-55440697D01*
X14705748Y-55440698D01*
X15435387Y-54711059D01*
X15440889Y-54731591D01*
X15519881Y-54868408D01*
X15631592Y-54980119D01*
X15768409Y-55059111D01*
X15788940Y-55064612D01*
X15059300Y-55794250D01*
X15161416Y-55868442D01*
X15385815Y-55982780D01*
X15625330Y-56060602D01*
X15874072Y-56100000D01*
X16125928Y-56100000D01*
X16374669Y-56060602D01*
X16614184Y-55982780D01*
X16838575Y-55868446D01*
X16838581Y-55868442D01*
X16940697Y-55794250D01*
X16940698Y-55794250D01*
X16211059Y-55064612D01*
X16231591Y-55059111D01*
X16368408Y-54980119D01*
X16480119Y-54868408D01*
X16559111Y-54731591D01*
X16564612Y-54711059D01*
X17294250Y-55440698D01*
X17294250Y-55440697D01*
X17368442Y-55338581D01*
X17368446Y-55338575D01*
X17482780Y-55114184D01*
X17560602Y-54874669D01*
X17600000Y-54625928D01*
X17600000Y-54374071D01*
X30400000Y-54374071D01*
X30400000Y-54625928D01*
X30439397Y-54874669D01*
X30517219Y-55114184D01*
X30631557Y-55338583D01*
X30705748Y-55440697D01*
X30705748Y-55440698D01*
X31435387Y-54711059D01*
X31440889Y-54731591D01*
X31519881Y-54868408D01*
X31631592Y-54980119D01*
X31768409Y-55059111D01*
X31788940Y-55064612D01*
X31059300Y-55794250D01*
X31161416Y-55868442D01*
X31385815Y-55982780D01*
X31625330Y-56060602D01*
X31874072Y-56100000D01*
X32125928Y-56100000D01*
X32374669Y-56060602D01*
X32614184Y-55982780D01*
X32838575Y-55868446D01*
X32838581Y-55868442D01*
X32940697Y-55794250D01*
X32940698Y-55794250D01*
X32211059Y-55064612D01*
X32231591Y-55059111D01*
X32368408Y-54980119D01*
X32480119Y-54868408D01*
X32559111Y-54731591D01*
X32564612Y-54711060D01*
X33294250Y-55440698D01*
X33294250Y-55440697D01*
X33368442Y-55338581D01*
X33368446Y-55338575D01*
X33482780Y-55114184D01*
X33560602Y-54874669D01*
X33600000Y-54625928D01*
X33600000Y-54374071D01*
X46400000Y-54374071D01*
X46400000Y-54625928D01*
X46439397Y-54874669D01*
X46517219Y-55114184D01*
X46631557Y-55338583D01*
X46705748Y-55440697D01*
X46705748Y-55440698D01*
X47435387Y-54711059D01*
X47440889Y-54731591D01*
X47519881Y-54868408D01*
X47631592Y-54980119D01*
X47768409Y-55059111D01*
X47788940Y-55064612D01*
X47059300Y-55794250D01*
X47161416Y-55868442D01*
X47385815Y-55982780D01*
X47625330Y-56060602D01*
X47874072Y-56100000D01*
X48125928Y-56100000D01*
X48374669Y-56060602D01*
X48614184Y-55982780D01*
X48838575Y-55868446D01*
X48838581Y-55868442D01*
X48940697Y-55794250D01*
X48940698Y-55794250D01*
X48211059Y-55064612D01*
X48231591Y-55059111D01*
X48368408Y-54980119D01*
X48480119Y-54868408D01*
X48559111Y-54731591D01*
X48564612Y-54711060D01*
X49294250Y-55440698D01*
X49294250Y-55440697D01*
X49368442Y-55338581D01*
X49368446Y-55338575D01*
X49482780Y-55114184D01*
X49560602Y-54874669D01*
X49600000Y-54625928D01*
X49600000Y-54374071D01*
X78400000Y-54374071D01*
X78400000Y-54625928D01*
X78439397Y-54874669D01*
X78517219Y-55114184D01*
X78631557Y-55338583D01*
X78705748Y-55440697D01*
X78705748Y-55440698D01*
X79435387Y-54711059D01*
X79440889Y-54731591D01*
X79519881Y-54868408D01*
X79631592Y-54980119D01*
X79768409Y-55059111D01*
X79788940Y-55064612D01*
X79059300Y-55794250D01*
X79161416Y-55868442D01*
X79385815Y-55982780D01*
X79625330Y-56060602D01*
X79874072Y-56100000D01*
X80125928Y-56100000D01*
X80374669Y-56060602D01*
X80614184Y-55982780D01*
X80838575Y-55868446D01*
X80838581Y-55868442D01*
X80940697Y-55794250D01*
X80940698Y-55794250D01*
X80211059Y-55064612D01*
X80231591Y-55059111D01*
X80368408Y-54980119D01*
X80480119Y-54868408D01*
X80559111Y-54731591D01*
X80564612Y-54711060D01*
X81294250Y-55440698D01*
X81294250Y-55440697D01*
X81368442Y-55338581D01*
X81368446Y-55338575D01*
X81482780Y-55114184D01*
X81560602Y-54874669D01*
X81600000Y-54625928D01*
X81600000Y-54374071D01*
X81560602Y-54125330D01*
X81482780Y-53885815D01*
X81368442Y-53661416D01*
X81294250Y-53559301D01*
X81294250Y-53559300D01*
X80564612Y-54288939D01*
X80559111Y-54268409D01*
X80480119Y-54131592D01*
X80368408Y-54019881D01*
X80231591Y-53940889D01*
X80211058Y-53935387D01*
X80940698Y-53205748D01*
X80838583Y-53131557D01*
X80614184Y-53017219D01*
X80374669Y-52939397D01*
X80125928Y-52900000D01*
X79874072Y-52900000D01*
X79625330Y-52939397D01*
X79385815Y-53017219D01*
X79161413Y-53131559D01*
X79059301Y-53205747D01*
X79059300Y-53205748D01*
X79788940Y-53935387D01*
X79768409Y-53940889D01*
X79631592Y-54019881D01*
X79519881Y-54131592D01*
X79440889Y-54268409D01*
X79435387Y-54288940D01*
X78705748Y-53559300D01*
X78705747Y-53559301D01*
X78631559Y-53661413D01*
X78517219Y-53885815D01*
X78439397Y-54125330D01*
X78400000Y-54374071D01*
X49600000Y-54374071D01*
X49560602Y-54125330D01*
X49482780Y-53885815D01*
X49368442Y-53661416D01*
X49294250Y-53559301D01*
X49294250Y-53559300D01*
X48564612Y-54288939D01*
X48559111Y-54268409D01*
X48480119Y-54131592D01*
X48368408Y-54019881D01*
X48231591Y-53940889D01*
X48211058Y-53935387D01*
X48940698Y-53205748D01*
X48838583Y-53131557D01*
X48614184Y-53017219D01*
X48374669Y-52939397D01*
X48125928Y-52900000D01*
X47874072Y-52900000D01*
X47625330Y-52939397D01*
X47385815Y-53017219D01*
X47161413Y-53131559D01*
X47059301Y-53205747D01*
X47059300Y-53205748D01*
X47788940Y-53935387D01*
X47768409Y-53940889D01*
X47631592Y-54019881D01*
X47519881Y-54131592D01*
X47440889Y-54268409D01*
X47435387Y-54288940D01*
X46705748Y-53559300D01*
X46705747Y-53559301D01*
X46631559Y-53661413D01*
X46517219Y-53885815D01*
X46439397Y-54125330D01*
X46400000Y-54374071D01*
X33600000Y-54374071D01*
X33560602Y-54125330D01*
X33482780Y-53885815D01*
X33368442Y-53661416D01*
X33294250Y-53559301D01*
X33294250Y-53559300D01*
X32564612Y-54288939D01*
X32559111Y-54268409D01*
X32480119Y-54131592D01*
X32368408Y-54019881D01*
X32231591Y-53940889D01*
X32211058Y-53935387D01*
X32940698Y-53205748D01*
X32838583Y-53131557D01*
X32614184Y-53017219D01*
X32374669Y-52939397D01*
X32125928Y-52900000D01*
X31874072Y-52900000D01*
X31625330Y-52939397D01*
X31385815Y-53017219D01*
X31161413Y-53131559D01*
X31059301Y-53205747D01*
X31059300Y-53205748D01*
X31788940Y-53935387D01*
X31768409Y-53940889D01*
X31631592Y-54019881D01*
X31519881Y-54131592D01*
X31440889Y-54268409D01*
X31435387Y-54288940D01*
X30705748Y-53559300D01*
X30705747Y-53559301D01*
X30631559Y-53661413D01*
X30517219Y-53885815D01*
X30439397Y-54125330D01*
X30400000Y-54374071D01*
X17600000Y-54374071D01*
X17560602Y-54125330D01*
X17482780Y-53885815D01*
X17368442Y-53661416D01*
X17294250Y-53559301D01*
X17294250Y-53559300D01*
X16564612Y-54288939D01*
X16559111Y-54268409D01*
X16480119Y-54131592D01*
X16368408Y-54019881D01*
X16231591Y-53940889D01*
X16211058Y-53935387D01*
X16940698Y-53205748D01*
X16838583Y-53131557D01*
X16614184Y-53017219D01*
X16374669Y-52939397D01*
X16125928Y-52900000D01*
X15874072Y-52900000D01*
X15625330Y-52939397D01*
X15385815Y-53017219D01*
X15161413Y-53131559D01*
X15059301Y-53205747D01*
X15059300Y-53205748D01*
X15788940Y-53935387D01*
X15768409Y-53940889D01*
X15631592Y-54019881D01*
X15519881Y-54131592D01*
X15440889Y-54268409D01*
X15435387Y-54288940D01*
X14705748Y-53559300D01*
X14705747Y-53559301D01*
X14631559Y-53661413D01*
X14517219Y-53885815D01*
X14439397Y-54125330D01*
X14400000Y-54374071D01*
X0Y-54374071D01*
X0Y-51689778D01*
X18399500Y-51689778D01*
X18399500Y-51910221D01*
X18433985Y-52127952D01*
X18502103Y-52337603D01*
X18502104Y-52337606D01*
X18602187Y-52534025D01*
X18731752Y-52712358D01*
X18731756Y-52712363D01*
X18887636Y-52868243D01*
X18887641Y-52868247D01*
X18931346Y-52900000D01*
X19065978Y-52997815D01*
X19194375Y-53063237D01*
X19262393Y-53097895D01*
X19262396Y-53097896D01*
X19365997Y-53131557D01*
X19472049Y-53166015D01*
X19689778Y-53200500D01*
X19689779Y-53200500D01*
X19910221Y-53200500D01*
X19910222Y-53200500D01*
X20127951Y-53166015D01*
X20188783Y-53146249D01*
X20223171Y-53135077D01*
X20337603Y-53097896D01*
X20337606Y-53097895D01*
X20534022Y-52997815D01*
X20712365Y-52868242D01*
X20868242Y-52712365D01*
X20997815Y-52534022D01*
X21097895Y-52337606D01*
X21166015Y-52127951D01*
X21200500Y-51910222D01*
X21200500Y-51689778D01*
X34399500Y-51689778D01*
X34399500Y-51910221D01*
X34433985Y-52127952D01*
X34502103Y-52337603D01*
X34502104Y-52337606D01*
X34602187Y-52534025D01*
X34731752Y-52712358D01*
X34731756Y-52712363D01*
X34887636Y-52868243D01*
X34887641Y-52868247D01*
X34931346Y-52900000D01*
X35065978Y-52997815D01*
X35194375Y-53063237D01*
X35262393Y-53097895D01*
X35262396Y-53097896D01*
X35365997Y-53131557D01*
X35472049Y-53166015D01*
X35689778Y-53200500D01*
X35689779Y-53200500D01*
X35910221Y-53200500D01*
X35910222Y-53200500D01*
X36127951Y-53166015D01*
X36188783Y-53146249D01*
X36223171Y-53135077D01*
X36337603Y-53097896D01*
X36337606Y-53097895D01*
X36534022Y-52997815D01*
X36712365Y-52868242D01*
X36868242Y-52712365D01*
X36997815Y-52534022D01*
X37097895Y-52337606D01*
X37166015Y-52127951D01*
X37200500Y-51910222D01*
X37200500Y-51689778D01*
X50399500Y-51689778D01*
X50399500Y-51910221D01*
X50433985Y-52127952D01*
X50502103Y-52337603D01*
X50502104Y-52337606D01*
X50602187Y-52534025D01*
X50731752Y-52712358D01*
X50731756Y-52712363D01*
X50887636Y-52868243D01*
X50887641Y-52868247D01*
X50931346Y-52900000D01*
X51065978Y-52997815D01*
X51194375Y-53063237D01*
X51262393Y-53097895D01*
X51262396Y-53097896D01*
X51365997Y-53131557D01*
X51472049Y-53166015D01*
X51689778Y-53200500D01*
X51689779Y-53200500D01*
X51910221Y-53200500D01*
X51910222Y-53200500D01*
X52127951Y-53166015D01*
X52188783Y-53146249D01*
X52223171Y-53135077D01*
X52337603Y-53097896D01*
X52337606Y-53097895D01*
X52534022Y-52997815D01*
X52712365Y-52868242D01*
X52868242Y-52712365D01*
X52997815Y-52534022D01*
X53097895Y-52337606D01*
X53166015Y-52127951D01*
X53200500Y-51910222D01*
X53200500Y-51689778D01*
X82399500Y-51689778D01*
X82399500Y-51910221D01*
X82433985Y-52127952D01*
X82502103Y-52337603D01*
X82502104Y-52337606D01*
X82602187Y-52534025D01*
X82731752Y-52712358D01*
X82731756Y-52712363D01*
X82887636Y-52868243D01*
X82887641Y-52868247D01*
X82931346Y-52900000D01*
X83065978Y-52997815D01*
X83194375Y-53063237D01*
X83262393Y-53097895D01*
X83262396Y-53097896D01*
X83365997Y-53131557D01*
X83472049Y-53166015D01*
X83689778Y-53200500D01*
X83689779Y-53200500D01*
X83910221Y-53200500D01*
X83910222Y-53200500D01*
X84127951Y-53166015D01*
X84337606Y-53097895D01*
X84534022Y-52997815D01*
X84712365Y-52868242D01*
X84868242Y-52712365D01*
X84997815Y-52534022D01*
X85097895Y-52337606D01*
X85166015Y-52127951D01*
X85200500Y-51910222D01*
X85200500Y-51689778D01*
X85166015Y-51472049D01*
X85097895Y-51262394D01*
X85097895Y-51262393D01*
X85063237Y-51194375D01*
X84997815Y-51065978D01*
X84981260Y-51043192D01*
X84868247Y-50887641D01*
X84868243Y-50887636D01*
X84712363Y-50731756D01*
X84712358Y-50731752D01*
X84534025Y-50602187D01*
X84534024Y-50602186D01*
X84534022Y-50602185D01*
X84431687Y-50550042D01*
X84337606Y-50502104D01*
X84337603Y-50502103D01*
X84127952Y-50433985D01*
X84019086Y-50416742D01*
X83910222Y-50399500D01*
X83689778Y-50399500D01*
X83617201Y-50410995D01*
X83472047Y-50433985D01*
X83262396Y-50502103D01*
X83262393Y-50502104D01*
X83065974Y-50602187D01*
X82887641Y-50731752D01*
X82887636Y-50731756D01*
X82731756Y-50887636D01*
X82731752Y-50887641D01*
X82602187Y-51065974D01*
X82502104Y-51262393D01*
X82502103Y-51262396D01*
X82433985Y-51472047D01*
X82399500Y-51689778D01*
X53200500Y-51689778D01*
X53166015Y-51472049D01*
X53097895Y-51262394D01*
X53097895Y-51262393D01*
X53063237Y-51194375D01*
X52997815Y-51065978D01*
X52981260Y-51043192D01*
X52868247Y-50887641D01*
X52868243Y-50887636D01*
X52712363Y-50731756D01*
X52712358Y-50731752D01*
X52534025Y-50602187D01*
X52534024Y-50602186D01*
X52534022Y-50602185D01*
X52431687Y-50550042D01*
X52337606Y-50502104D01*
X52337603Y-50502103D01*
X52127952Y-50433985D01*
X52019086Y-50416742D01*
X51910222Y-50399500D01*
X51689778Y-50399500D01*
X51617201Y-50410995D01*
X51472047Y-50433985D01*
X51262396Y-50502103D01*
X51262393Y-50502104D01*
X51065974Y-50602187D01*
X50887641Y-50731752D01*
X50887636Y-50731756D01*
X50731756Y-50887636D01*
X50731752Y-50887641D01*
X50602187Y-51065974D01*
X50502104Y-51262393D01*
X50502103Y-51262396D01*
X50433985Y-51472047D01*
X50399500Y-51689778D01*
X37200500Y-51689778D01*
X37166015Y-51472049D01*
X37097895Y-51262394D01*
X37097895Y-51262393D01*
X37063237Y-51194375D01*
X36997815Y-51065978D01*
X36981260Y-51043192D01*
X36868247Y-50887641D01*
X36868243Y-50887636D01*
X36712363Y-50731756D01*
X36712358Y-50731752D01*
X36534025Y-50602187D01*
X36534024Y-50602186D01*
X36534022Y-50602185D01*
X36431687Y-50550042D01*
X36337606Y-50502104D01*
X36337603Y-50502103D01*
X36127952Y-50433985D01*
X36019086Y-50416742D01*
X35910222Y-50399500D01*
X35689778Y-50399500D01*
X35617201Y-50410995D01*
X35472047Y-50433985D01*
X35262396Y-50502103D01*
X35262393Y-50502104D01*
X35065974Y-50602187D01*
X34887641Y-50731752D01*
X34887636Y-50731756D01*
X34731756Y-50887636D01*
X34731752Y-50887641D01*
X34602187Y-51065974D01*
X34502104Y-51262393D01*
X34502103Y-51262396D01*
X34433985Y-51472047D01*
X34399500Y-51689778D01*
X21200500Y-51689778D01*
X21166015Y-51472049D01*
X21097895Y-51262394D01*
X21097895Y-51262393D01*
X21063237Y-51194375D01*
X20997815Y-51065978D01*
X20981260Y-51043192D01*
X20868247Y-50887641D01*
X20868243Y-50887636D01*
X20712363Y-50731756D01*
X20712358Y-50731752D01*
X20534025Y-50602187D01*
X20534024Y-50602186D01*
X20534022Y-50602185D01*
X20431687Y-50550042D01*
X20337606Y-50502104D01*
X20337603Y-50502103D01*
X20127952Y-50433985D01*
X20019086Y-50416742D01*
X19910222Y-50399500D01*
X19689778Y-50399500D01*
X19617201Y-50410995D01*
X19472047Y-50433985D01*
X19262396Y-50502103D01*
X19262393Y-50502104D01*
X19065974Y-50602187D01*
X18887641Y-50731752D01*
X18887636Y-50731756D01*
X18731756Y-50887636D01*
X18731752Y-50887641D01*
X18602187Y-51065974D01*
X18502104Y-51262393D01*
X18502103Y-51262396D01*
X18433985Y-51472047D01*
X18399500Y-51689778D01*
X0Y-51689778D01*
X0Y-48000000D01*
X13400000Y-48000000D01*
X13449957Y-48507233D01*
X13597914Y-48994981D01*
X13838175Y-49444477D01*
X13838180Y-49444484D01*
X14161521Y-49838478D01*
X14435697Y-50063487D01*
X14555517Y-50161821D01*
X14555520Y-50161822D01*
X14555522Y-50161824D01*
X15005018Y-50402085D01*
X15005020Y-50402085D01*
X15005023Y-50402087D01*
X15492765Y-50550042D01*
X16000000Y-50600000D01*
X16507235Y-50550042D01*
X16994977Y-50402087D01*
X17444483Y-50161821D01*
X17838478Y-49838478D01*
X18161821Y-49444483D01*
X18402087Y-48994977D01*
X18550042Y-48507235D01*
X18600000Y-48000000D01*
X29400000Y-48000000D01*
X29449957Y-48507233D01*
X29597914Y-48994981D01*
X29838175Y-49444477D01*
X29838180Y-49444484D01*
X30161521Y-49838478D01*
X30435697Y-50063487D01*
X30555517Y-50161821D01*
X30555520Y-50161822D01*
X30555522Y-50161824D01*
X31005018Y-50402085D01*
X31005020Y-50402085D01*
X31005023Y-50402087D01*
X31492765Y-50550042D01*
X32000000Y-50600000D01*
X32507235Y-50550042D01*
X32994977Y-50402087D01*
X33444483Y-50161821D01*
X33838478Y-49838478D01*
X34161821Y-49444483D01*
X34402087Y-48994977D01*
X34550042Y-48507235D01*
X34600000Y-48000000D01*
X45400000Y-48000000D01*
X45449957Y-48507233D01*
X45597914Y-48994981D01*
X45838175Y-49444477D01*
X45838180Y-49444484D01*
X46161521Y-49838478D01*
X46435697Y-50063487D01*
X46555517Y-50161821D01*
X46555520Y-50161822D01*
X46555522Y-50161824D01*
X47005018Y-50402085D01*
X47005020Y-50402085D01*
X47005023Y-50402087D01*
X47492765Y-50550042D01*
X48000000Y-50600000D01*
X48507235Y-50550042D01*
X48994977Y-50402087D01*
X49444483Y-50161821D01*
X49838478Y-49838478D01*
X50161821Y-49444483D01*
X50402087Y-48994977D01*
X50550042Y-48507235D01*
X50600000Y-48000000D01*
X77400000Y-48000000D01*
X77449957Y-48507233D01*
X77597914Y-48994981D01*
X77838175Y-49444477D01*
X77838180Y-49444484D01*
X78161521Y-49838478D01*
X78435697Y-50063487D01*
X78555517Y-50161821D01*
X78555520Y-50161822D01*
X78555522Y-50161824D01*
X79005018Y-50402085D01*
X79005020Y-50402085D01*
X79005023Y-50402087D01*
X79492765Y-50550042D01*
X80000000Y-50600000D01*
X80507235Y-50550042D01*
X80994977Y-50402087D01*
X81444483Y-50161821D01*
X81838478Y-49838478D01*
X82161821Y-49444483D01*
X82402087Y-48994977D01*
X82550042Y-48507235D01*
X82600000Y-48000000D01*
X82550042Y-47492765D01*
X82402087Y-47005023D01*
X82402085Y-47005020D01*
X82402085Y-47005018D01*
X82161824Y-46555522D01*
X82161822Y-46555520D01*
X82161821Y-46555517D01*
X82063487Y-46435697D01*
X81838478Y-46161521D01*
X81444484Y-45838180D01*
X81444477Y-45838175D01*
X80994981Y-45597914D01*
X80507233Y-45449957D01*
X80000000Y-45400000D01*
X79492766Y-45449957D01*
X79005018Y-45597914D01*
X78555522Y-45838175D01*
X78555515Y-45838180D01*
X78161521Y-46161521D01*
X77838180Y-46555515D01*
X77838175Y-46555522D01*
X77597914Y-47005018D01*
X77449957Y-47492766D01*
X77400000Y-48000000D01*
X50600000Y-48000000D01*
X50550042Y-47492765D01*
X50402087Y-47005023D01*
X50402085Y-47005020D01*
X50402085Y-47005018D01*
X50161824Y-46555522D01*
X50161822Y-46555520D01*
X50161821Y-46555517D01*
X50063487Y-46435697D01*
X49838478Y-46161521D01*
X49444484Y-45838180D01*
X49444477Y-45838175D01*
X48994981Y-45597914D01*
X48507233Y-45449957D01*
X48000000Y-45400000D01*
X47492766Y-45449957D01*
X47005018Y-45597914D01*
X46555522Y-45838175D01*
X46555515Y-45838180D01*
X46161521Y-46161521D01*
X45838180Y-46555515D01*
X45838175Y-46555522D01*
X45597914Y-47005018D01*
X45449957Y-47492766D01*
X45400000Y-48000000D01*
X34600000Y-48000000D01*
X34550042Y-47492765D01*
X34402087Y-47005023D01*
X34402085Y-47005020D01*
X34402085Y-47005018D01*
X34161824Y-46555522D01*
X34161822Y-46555520D01*
X34161821Y-46555517D01*
X34063487Y-46435697D01*
X33838478Y-46161521D01*
X33444484Y-45838180D01*
X33444477Y-45838175D01*
X32994981Y-45597914D01*
X32507233Y-45449957D01*
X32000000Y-45400000D01*
X31492766Y-45449957D01*
X31005018Y-45597914D01*
X30555522Y-45838175D01*
X30555515Y-45838180D01*
X30161521Y-46161521D01*
X29838180Y-46555515D01*
X29838175Y-46555522D01*
X29597914Y-47005018D01*
X29449957Y-47492766D01*
X29400000Y-48000000D01*
X18600000Y-48000000D01*
X18550042Y-47492765D01*
X18402087Y-47005023D01*
X18402085Y-47005020D01*
X18402085Y-47005018D01*
X18161824Y-46555522D01*
X18161822Y-46555520D01*
X18161821Y-46555517D01*
X18063487Y-46435697D01*
X17838478Y-46161521D01*
X17444484Y-45838180D01*
X17444477Y-45838175D01*
X16994981Y-45597914D01*
X16507233Y-45449957D01*
X16000000Y-45400000D01*
X15492766Y-45449957D01*
X15005018Y-45597914D01*
X14555522Y-45838175D01*
X14555515Y-45838180D01*
X14161521Y-46161521D01*
X13838180Y-46555515D01*
X13838175Y-46555522D01*
X13597914Y-47005018D01*
X13449957Y-47492766D01*
X13400000Y-48000000D01*
X0Y-48000000D01*
X0Y-22374071D01*
X14400000Y-22374071D01*
X14400000Y-22625928D01*
X14439397Y-22874669D01*
X14517219Y-23114184D01*
X14631557Y-23338583D01*
X14705748Y-23440697D01*
X14705748Y-23440698D01*
X15435387Y-22711059D01*
X15440889Y-22731591D01*
X15519881Y-22868408D01*
X15631592Y-22980119D01*
X15768409Y-23059111D01*
X15788940Y-23064612D01*
X15059300Y-23794250D01*
X15161416Y-23868442D01*
X15385815Y-23982780D01*
X15625330Y-24060602D01*
X15874072Y-24100000D01*
X16125928Y-24100000D01*
X16374669Y-24060602D01*
X16614184Y-23982780D01*
X16838575Y-23868446D01*
X16838581Y-23868442D01*
X16940697Y-23794250D01*
X16940698Y-23794250D01*
X16211059Y-23064612D01*
X16231591Y-23059111D01*
X16368408Y-22980119D01*
X16480119Y-22868408D01*
X16559111Y-22731591D01*
X16564612Y-22711059D01*
X17294250Y-23440698D01*
X17294250Y-23440697D01*
X17368442Y-23338581D01*
X17368446Y-23338575D01*
X17482780Y-23114184D01*
X17560602Y-22874669D01*
X17600000Y-22625928D01*
X17600000Y-22374071D01*
X17560602Y-22125330D01*
X17482780Y-21885815D01*
X17368442Y-21661416D01*
X17294250Y-21559301D01*
X17294250Y-21559300D01*
X16564612Y-22288939D01*
X16559111Y-22268409D01*
X16480119Y-22131592D01*
X16368408Y-22019881D01*
X16231591Y-21940889D01*
X16211058Y-21935387D01*
X16940698Y-21205748D01*
X16838583Y-21131557D01*
X16614184Y-21017219D01*
X16374669Y-20939397D01*
X16125928Y-20900000D01*
X15874072Y-20900000D01*
X15625330Y-20939397D01*
X15385815Y-21017219D01*
X15161413Y-21131559D01*
X15059301Y-21205747D01*
X15059300Y-21205748D01*
X15788940Y-21935387D01*
X15768409Y-21940889D01*
X15631592Y-22019881D01*
X15519881Y-22131592D01*
X15440889Y-22268409D01*
X15435387Y-22288940D01*
X14705748Y-21559300D01*
X14705747Y-21559301D01*
X14631559Y-21661413D01*
X14517219Y-21885815D01*
X14439397Y-22125330D01*
X14400000Y-22374071D01*
X0Y-22374071D01*
X0Y-19689778D01*
X18399500Y-19689778D01*
X18399500Y-19910221D01*
X18433985Y-20127952D01*
X18502103Y-20337603D01*
X18502104Y-20337606D01*
X18602187Y-20534025D01*
X18731752Y-20712358D01*
X18731756Y-20712363D01*
X18887636Y-20868243D01*
X18887641Y-20868247D01*
X18959960Y-20920789D01*
X19065978Y-20997815D01*
X19194375Y-21063237D01*
X19262393Y-21097895D01*
X19262396Y-21097896D01*
X19365997Y-21131557D01*
X19472049Y-21166015D01*
X19689778Y-21200500D01*
X19689779Y-21200500D01*
X19910221Y-21200500D01*
X19910222Y-21200500D01*
X20127951Y-21166015D01*
X20337606Y-21097895D01*
X20534022Y-20997815D01*
X20712365Y-20868242D01*
X20868242Y-20712365D01*
X20997815Y-20534022D01*
X21097895Y-20337606D01*
X21166015Y-20127951D01*
X21200500Y-19910222D01*
X21200500Y-19689778D01*
X21166015Y-19472049D01*
X21131955Y-19367221D01*
X21097896Y-19262396D01*
X21097895Y-19262393D01*
X21054684Y-19177589D01*
X20997815Y-19065978D01*
X20953776Y-19005363D01*
X20868247Y-18887641D01*
X20868243Y-18887636D01*
X20712363Y-18731756D01*
X20712358Y-18731752D01*
X20534025Y-18602187D01*
X20534024Y-18602186D01*
X20534022Y-18602185D01*
X20431687Y-18550042D01*
X20337606Y-18502104D01*
X20337603Y-18502103D01*
X20127952Y-18433985D01*
X20019086Y-18416742D01*
X19910222Y-18399500D01*
X19689778Y-18399500D01*
X19617201Y-18410995D01*
X19472047Y-18433985D01*
X19262396Y-18502103D01*
X19262393Y-18502104D01*
X19065974Y-18602187D01*
X18887641Y-18731752D01*
X18887636Y-18731756D01*
X18731756Y-18887636D01*
X18731752Y-18887641D01*
X18602187Y-19065974D01*
X18502104Y-19262393D01*
X18502103Y-19262396D01*
X18433985Y-19472047D01*
X18399500Y-19689778D01*
X0Y-19689778D01*
X0Y-16000000D01*
X13400000Y-16000000D01*
X13449957Y-16507233D01*
X13597914Y-16994981D01*
X13838175Y-17444477D01*
X13838180Y-17444484D01*
X14161521Y-17838478D01*
X14325696Y-17973212D01*
X14555517Y-18161821D01*
X14555520Y-18161822D01*
X14555522Y-18161824D01*
X15005018Y-18402085D01*
X15005020Y-18402085D01*
X15005023Y-18402087D01*
X15492765Y-18550042D01*
X16000000Y-18600000D01*
X16507235Y-18550042D01*
X16994977Y-18402087D01*
X17034827Y-18380787D01*
X17444477Y-18161824D01*
X17444475Y-18161824D01*
X17444483Y-18161821D01*
X17838478Y-17838478D01*
X18161821Y-17444483D01*
X18322848Y-17143223D01*
X18402085Y-16994981D01*
X18402085Y-16994980D01*
X18402087Y-16994977D01*
X18550042Y-16507235D01*
X18553590Y-16471211D01*
X26945497Y-16471211D01*
X26945842Y-16475572D01*
X26945842Y-16475576D01*
X26949113Y-16516871D01*
X26949500Y-16526661D01*
X26949500Y-40672475D01*
X26987016Y-40812485D01*
X26987017Y-40812488D01*
X27059488Y-40938011D01*
X27059490Y-40938013D01*
X27059491Y-40938015D01*
X27161985Y-41040509D01*
X27161986Y-41040510D01*
X27161988Y-41040511D01*
X27287511Y-41112982D01*
X27287512Y-41112982D01*
X27287515Y-41112984D01*
X27427525Y-41150500D01*
X27427528Y-41150500D01*
X58572472Y-41150500D01*
X58572475Y-41150500D01*
X58712485Y-41112984D01*
X58838015Y-41040509D01*
X58940509Y-40938015D01*
X59012984Y-40812485D01*
X59050500Y-40672475D01*
X59050500Y-38374071D01*
X62400000Y-38374071D01*
X62400000Y-38625928D01*
X62439397Y-38874669D01*
X62517219Y-39114184D01*
X62631557Y-39338583D01*
X62705748Y-39440697D01*
X62705748Y-39440698D01*
X63435387Y-38711058D01*
X63440889Y-38731591D01*
X63519881Y-38868408D01*
X63631592Y-38980119D01*
X63768409Y-39059111D01*
X63788940Y-39064612D01*
X63059300Y-39794250D01*
X63161416Y-39868442D01*
X63385815Y-39982780D01*
X63625330Y-40060602D01*
X63874072Y-40100000D01*
X64125928Y-40100000D01*
X64374669Y-40060602D01*
X64614184Y-39982780D01*
X64838575Y-39868446D01*
X64838581Y-39868442D01*
X64940697Y-39794250D01*
X64940698Y-39794250D01*
X64211059Y-39064612D01*
X64231591Y-39059111D01*
X64368408Y-38980119D01*
X64480119Y-38868408D01*
X64559111Y-38731591D01*
X64564612Y-38711059D01*
X65294250Y-39440698D01*
X65294250Y-39440697D01*
X65368442Y-39338581D01*
X65368446Y-39338575D01*
X65482780Y-39114184D01*
X65560602Y-38874669D01*
X65600000Y-38625928D01*
X65600000Y-38374071D01*
X78400000Y-38374071D01*
X78400000Y-38625928D01*
X78439397Y-38874669D01*
X78517219Y-39114184D01*
X78631557Y-39338583D01*
X78705748Y-39440697D01*
X78705748Y-39440698D01*
X79435387Y-38711059D01*
X79440889Y-38731591D01*
X79519881Y-38868408D01*
X79631592Y-38980119D01*
X79768409Y-39059111D01*
X79788940Y-39064612D01*
X79059300Y-39794250D01*
X79161416Y-39868442D01*
X79385815Y-39982780D01*
X79625330Y-40060602D01*
X79874072Y-40100000D01*
X80125928Y-40100000D01*
X80374669Y-40060602D01*
X80614184Y-39982780D01*
X80838575Y-39868446D01*
X80838581Y-39868442D01*
X80940697Y-39794250D01*
X80940698Y-39794250D01*
X80211059Y-39064612D01*
X80231591Y-39059111D01*
X80368408Y-38980119D01*
X80480119Y-38868408D01*
X80559111Y-38731591D01*
X80564612Y-38711060D01*
X81294250Y-39440698D01*
X81294250Y-39440697D01*
X81368442Y-39338581D01*
X81368446Y-39338575D01*
X81482780Y-39114184D01*
X81560602Y-38874669D01*
X81600000Y-38625928D01*
X81600000Y-38374071D01*
X81560602Y-38125330D01*
X81482780Y-37885815D01*
X81368442Y-37661416D01*
X81294250Y-37559301D01*
X81294250Y-37559300D01*
X80564612Y-38288939D01*
X80559111Y-38268409D01*
X80480119Y-38131592D01*
X80368408Y-38019881D01*
X80231591Y-37940889D01*
X80211058Y-37935387D01*
X80940698Y-37205748D01*
X80838583Y-37131557D01*
X80614184Y-37017219D01*
X80374669Y-36939397D01*
X80125928Y-36900000D01*
X79874072Y-36900000D01*
X79625330Y-36939397D01*
X79385815Y-37017219D01*
X79161413Y-37131559D01*
X79059301Y-37205747D01*
X79059300Y-37205748D01*
X79788940Y-37935387D01*
X79768409Y-37940889D01*
X79631592Y-38019881D01*
X79519881Y-38131592D01*
X79440889Y-38268409D01*
X79435387Y-38288940D01*
X78705748Y-37559300D01*
X78705747Y-37559301D01*
X78631559Y-37661413D01*
X78517219Y-37885815D01*
X78439397Y-38125330D01*
X78400000Y-38374071D01*
X65600000Y-38374071D01*
X65560602Y-38125330D01*
X65482780Y-37885815D01*
X65368442Y-37661416D01*
X65294250Y-37559301D01*
X65294250Y-37559300D01*
X64564612Y-38288939D01*
X64559111Y-38268409D01*
X64480119Y-38131592D01*
X64368408Y-38019881D01*
X64231591Y-37940889D01*
X64211058Y-37935387D01*
X64940698Y-37205748D01*
X64838583Y-37131557D01*
X64614184Y-37017219D01*
X64374669Y-36939397D01*
X64125928Y-36900000D01*
X63874072Y-36900000D01*
X63625330Y-36939397D01*
X63385815Y-37017219D01*
X63161413Y-37131559D01*
X63059301Y-37205747D01*
X63059300Y-37205748D01*
X63788940Y-37935387D01*
X63768409Y-37940889D01*
X63631592Y-38019881D01*
X63519881Y-38131592D01*
X63440889Y-38268409D01*
X63435387Y-38288940D01*
X62705748Y-37559300D01*
X62705747Y-37559301D01*
X62631559Y-37661413D01*
X62517219Y-37885815D01*
X62439397Y-38125330D01*
X62400000Y-38374071D01*
X59050500Y-38374071D01*
X59050500Y-35689778D01*
X66399500Y-35689778D01*
X66399500Y-35910221D01*
X66433985Y-36127952D01*
X66502103Y-36337603D01*
X66502104Y-36337606D01*
X66602187Y-36534025D01*
X66731752Y-36712358D01*
X66731756Y-36712363D01*
X66887636Y-36868243D01*
X66887641Y-36868247D01*
X66931346Y-36900000D01*
X67065978Y-36997815D01*
X67194375Y-37063237D01*
X67262393Y-37097895D01*
X67262396Y-37097896D01*
X67365997Y-37131557D01*
X67472049Y-37166015D01*
X67689778Y-37200500D01*
X67689779Y-37200500D01*
X67910221Y-37200500D01*
X67910222Y-37200500D01*
X68127951Y-37166015D01*
X68188783Y-37146249D01*
X68223171Y-37135077D01*
X68337603Y-37097896D01*
X68337606Y-37097895D01*
X68534022Y-36997815D01*
X68712365Y-36868242D01*
X68868242Y-36712365D01*
X68997815Y-36534022D01*
X69097895Y-36337606D01*
X69166015Y-36127951D01*
X69200500Y-35910222D01*
X69200500Y-35689778D01*
X82399500Y-35689778D01*
X82399500Y-35910221D01*
X82433985Y-36127952D01*
X82502103Y-36337603D01*
X82502104Y-36337606D01*
X82602187Y-36534025D01*
X82731752Y-36712358D01*
X82731756Y-36712363D01*
X82887636Y-36868243D01*
X82887641Y-36868247D01*
X82931346Y-36900000D01*
X83065978Y-36997815D01*
X83194375Y-37063237D01*
X83262393Y-37097895D01*
X83262396Y-37097896D01*
X83365997Y-37131557D01*
X83472049Y-37166015D01*
X83689778Y-37200500D01*
X83689779Y-37200500D01*
X83910221Y-37200500D01*
X83910222Y-37200500D01*
X84127951Y-37166015D01*
X84337606Y-37097895D01*
X84534022Y-36997815D01*
X84712365Y-36868242D01*
X84868242Y-36712365D01*
X84997815Y-36534022D01*
X85097895Y-36337606D01*
X85166015Y-36127951D01*
X85200500Y-35910222D01*
X85200500Y-35689778D01*
X85166015Y-35472049D01*
X85097895Y-35262394D01*
X85097895Y-35262393D01*
X85063237Y-35194375D01*
X84997815Y-35065978D01*
X84918209Y-34956409D01*
X84868247Y-34887641D01*
X84868243Y-34887636D01*
X84712363Y-34731756D01*
X84712358Y-34731752D01*
X84534025Y-34602187D01*
X84534024Y-34602186D01*
X84534022Y-34602185D01*
X84431687Y-34550042D01*
X84337606Y-34502104D01*
X84337603Y-34502103D01*
X84127952Y-34433985D01*
X84019086Y-34416742D01*
X83910222Y-34399500D01*
X83689778Y-34399500D01*
X83617201Y-34410995D01*
X83472047Y-34433985D01*
X83262396Y-34502103D01*
X83262393Y-34502104D01*
X83065974Y-34602187D01*
X82887641Y-34731752D01*
X82887636Y-34731756D01*
X82731756Y-34887636D01*
X82731752Y-34887641D01*
X82602187Y-35065974D01*
X82502104Y-35262393D01*
X82502103Y-35262396D01*
X82433985Y-35472047D01*
X82399500Y-35689778D01*
X69200500Y-35689778D01*
X69166015Y-35472049D01*
X69097895Y-35262394D01*
X69097895Y-35262393D01*
X69063237Y-35194375D01*
X68997815Y-35065978D01*
X68918209Y-34956409D01*
X68868247Y-34887641D01*
X68868243Y-34887636D01*
X68712363Y-34731756D01*
X68712358Y-34731752D01*
X68534025Y-34602187D01*
X68534024Y-34602186D01*
X68534022Y-34602185D01*
X68431687Y-34550042D01*
X68337606Y-34502104D01*
X68337603Y-34502103D01*
X68127952Y-34433985D01*
X68019086Y-34416742D01*
X67910222Y-34399500D01*
X67689778Y-34399500D01*
X67617201Y-34410995D01*
X67472047Y-34433985D01*
X67262396Y-34502103D01*
X67262393Y-34502104D01*
X67065974Y-34602187D01*
X66887641Y-34731752D01*
X66887636Y-34731756D01*
X66731756Y-34887636D01*
X66731752Y-34887641D01*
X66602187Y-35065974D01*
X66502104Y-35262393D01*
X66502103Y-35262396D01*
X66433985Y-35472047D01*
X66399500Y-35689778D01*
X59050500Y-35689778D01*
X59050500Y-32000000D01*
X61400000Y-32000000D01*
X61449957Y-32507233D01*
X61597914Y-32994981D01*
X61838175Y-33444477D01*
X61838180Y-33444484D01*
X62161521Y-33838478D01*
X62435697Y-34063487D01*
X62555517Y-34161821D01*
X62555520Y-34161822D01*
X62555522Y-34161824D01*
X63005018Y-34402085D01*
X63005020Y-34402085D01*
X63005023Y-34402087D01*
X63492765Y-34550042D01*
X64000000Y-34600000D01*
X64507235Y-34550042D01*
X64994977Y-34402087D01*
X65444483Y-34161821D01*
X65838478Y-33838478D01*
X66161821Y-33444483D01*
X66402087Y-32994977D01*
X66550042Y-32507235D01*
X66600000Y-32000000D01*
X77400000Y-32000000D01*
X77449957Y-32507233D01*
X77597914Y-32994981D01*
X77838175Y-33444477D01*
X77838180Y-33444484D01*
X78161521Y-33838478D01*
X78435697Y-34063487D01*
X78555517Y-34161821D01*
X78555520Y-34161822D01*
X78555522Y-34161824D01*
X79005018Y-34402085D01*
X79005020Y-34402085D01*
X79005023Y-34402087D01*
X79492765Y-34550042D01*
X80000000Y-34600000D01*
X80507235Y-34550042D01*
X80994977Y-34402087D01*
X81444483Y-34161821D01*
X81838478Y-33838478D01*
X82161821Y-33444483D01*
X82402087Y-32994977D01*
X82550042Y-32507235D01*
X82600000Y-32000000D01*
X82550042Y-31492765D01*
X82402087Y-31005023D01*
X82402085Y-31005020D01*
X82402085Y-31005018D01*
X82161824Y-30555522D01*
X82161822Y-30555520D01*
X82161821Y-30555517D01*
X81998493Y-30356501D01*
X81838478Y-30161521D01*
X81457878Y-29849172D01*
X81444483Y-29838179D01*
X81444481Y-29838178D01*
X81444477Y-29838175D01*
X80994981Y-29597914D01*
X80507233Y-29449957D01*
X80000000Y-29400000D01*
X79492766Y-29449957D01*
X79005018Y-29597914D01*
X78555522Y-29838175D01*
X78555515Y-29838180D01*
X78161521Y-30161521D01*
X77838180Y-30555515D01*
X77838175Y-30555522D01*
X77597914Y-31005018D01*
X77449957Y-31492766D01*
X77400000Y-32000000D01*
X66600000Y-32000000D01*
X66550042Y-31492765D01*
X66402087Y-31005023D01*
X66402085Y-31005020D01*
X66402085Y-31005018D01*
X66161824Y-30555522D01*
X66161822Y-30555520D01*
X66161821Y-30555517D01*
X65998493Y-30356501D01*
X65838478Y-30161521D01*
X65457878Y-29849172D01*
X65444483Y-29838179D01*
X65444481Y-29838178D01*
X65444477Y-29838175D01*
X64994981Y-29597914D01*
X64507233Y-29449957D01*
X64000000Y-29400000D01*
X63492766Y-29449957D01*
X63005018Y-29597914D01*
X62555522Y-29838175D01*
X62555515Y-29838180D01*
X62161521Y-30161521D01*
X61838180Y-30555515D01*
X61838175Y-30555522D01*
X61597914Y-31005018D01*
X61449957Y-31492766D01*
X61400000Y-32000000D01*
X59050500Y-32000000D01*
X59050500Y-4134525D01*
X59014454Y-4000000D01*
X90050000Y-4000000D01*
X90087468Y-4380424D01*
X90198436Y-4746237D01*
X90378630Y-5083356D01*
X90378634Y-5083363D01*
X90621141Y-5378858D01*
X90916636Y-5621365D01*
X90916643Y-5621369D01*
X91253762Y-5801563D01*
X91253764Y-5801563D01*
X91253767Y-5801565D01*
X91619574Y-5912531D01*
X91619573Y-5912531D01*
X91653682Y-5915890D01*
X92000000Y-5950000D01*
X92380426Y-5912531D01*
X92746233Y-5801565D01*
X93083362Y-5621366D01*
X93378858Y-5378858D01*
X93621366Y-5083362D01*
X93756797Y-4829989D01*
X93801563Y-4746237D01*
X93801563Y-4746236D01*
X93801565Y-4746233D01*
X93912531Y-4380426D01*
X93950000Y-4000000D01*
X93912531Y-3619574D01*
X93801565Y-3253767D01*
X93801563Y-3253764D01*
X93801563Y-3253762D01*
X93621369Y-2916643D01*
X93621365Y-2916636D01*
X93378858Y-2621141D01*
X93083363Y-2378634D01*
X93083356Y-2378630D01*
X92746237Y-2198436D01*
X92530275Y-2132925D01*
X92380426Y-2087469D01*
X92380424Y-2087468D01*
X92380426Y-2087468D01*
X92000000Y-2050000D01*
X91619575Y-2087468D01*
X91253762Y-2198436D01*
X90916643Y-2378630D01*
X90916636Y-2378634D01*
X90621141Y-2621141D01*
X90378634Y-2916636D01*
X90378630Y-2916643D01*
X90198436Y-3253762D01*
X90087468Y-3619575D01*
X90050000Y-4000000D01*
X59014454Y-4000000D01*
X59012984Y-3994515D01*
X58940509Y-3868985D01*
X58838015Y-3766491D01*
X58838013Y-3766490D01*
X58838011Y-3766488D01*
X58712488Y-3694017D01*
X58712489Y-3694017D01*
X58701006Y-3690940D01*
X58572475Y-3656500D01*
X58572472Y-3656500D01*
X56705317Y-3656500D01*
X56638278Y-3636815D01*
X56604999Y-3605385D01*
X56497558Y-3457505D01*
X56497554Y-3457500D01*
X56369495Y-3329441D01*
X56248202Y-3241318D01*
X56205536Y-3185989D01*
X56199557Y-3116375D01*
X56232162Y-3054580D01*
X56293001Y-3020223D01*
X56321087Y-3017000D01*
X56517828Y-3017000D01*
X56517844Y-3016999D01*
X56577372Y-3010598D01*
X56577379Y-3010596D01*
X56712086Y-2960354D01*
X56712093Y-2960350D01*
X56827187Y-2874190D01*
X56827190Y-2874187D01*
X56913350Y-2759093D01*
X56913354Y-2759086D01*
X56963596Y-2624379D01*
X56963598Y-2624372D01*
X56969999Y-2564844D01*
X56970000Y-2564827D01*
X56970000Y-1917000D01*
X56053012Y-1917000D01*
X56085925Y-1859993D01*
X56120000Y-1732826D01*
X56120000Y-1601174D01*
X56085925Y-1474007D01*
X56053012Y-1417000D01*
X56970000Y-1417000D01*
X56970000Y-769172D01*
X56969999Y-769155D01*
X56963598Y-709627D01*
X56963596Y-709620D01*
X56913354Y-574913D01*
X56913350Y-574906D01*
X56827190Y-459812D01*
X56827187Y-459809D01*
X56712093Y-373649D01*
X56712086Y-373645D01*
X56577379Y-323403D01*
X56577372Y-323401D01*
X56517844Y-317000D01*
X55870000Y-317000D01*
X55870000Y-1233988D01*
X55812993Y-1201075D01*
X55685826Y-1167000D01*
X55554174Y-1167000D01*
X55427007Y-1201075D01*
X55370000Y-1233988D01*
X55370000Y-317000D01*
X54722155Y-317000D01*
X54662627Y-323401D01*
X54662620Y-323403D01*
X54527913Y-373645D01*
X54527906Y-373649D01*
X54412812Y-459809D01*
X54412809Y-459812D01*
X54326649Y-574906D01*
X54326645Y-574913D01*
X54276403Y-709620D01*
X54276401Y-709627D01*
X54270000Y-769155D01*
X54270000Y-1417000D01*
X55186988Y-1417000D01*
X55154075Y-1474007D01*
X55120000Y-1601174D01*
X55120000Y-1732826D01*
X55154075Y-1859993D01*
X55186988Y-1917000D01*
X54270000Y-1917000D01*
X54270000Y-2564844D01*
X54276401Y-2624372D01*
X54276403Y-2624379D01*
X54326645Y-2759086D01*
X54326649Y-2759093D01*
X54412809Y-2874187D01*
X54412812Y-2874190D01*
X54527906Y-2960350D01*
X54527913Y-2960354D01*
X54662620Y-3010596D01*
X54662627Y-3010598D01*
X54722155Y-3016999D01*
X54722172Y-3017000D01*
X54918913Y-3017000D01*
X54985952Y-3036685D01*
X55031707Y-3089489D01*
X55041651Y-3158647D01*
X55012626Y-3222203D01*
X54991798Y-3241318D01*
X54870504Y-3329441D01*
X54742445Y-3457500D01*
X54742441Y-3457505D01*
X54636006Y-3604002D01*
X54553788Y-3765360D01*
X54553787Y-3765363D01*
X54497829Y-3937589D01*
X54469500Y-4116448D01*
X54469500Y-4297551D01*
X54497829Y-4476410D01*
X54553787Y-4648636D01*
X54553788Y-4648639D01*
X54603516Y-4746233D01*
X54635301Y-4808615D01*
X54636006Y-4809997D01*
X54742441Y-4956494D01*
X54742445Y-4956499D01*
X54870500Y-5084554D01*
X54870505Y-5084558D01*
X54998287Y-5177396D01*
X55017006Y-5190996D01*
X55122484Y-5244740D01*
X55178360Y-5273211D01*
X55178363Y-5273212D01*
X55264476Y-5301191D01*
X55350591Y-5329171D01*
X55423639Y-5340740D01*
X55510678Y-5354527D01*
X55573813Y-5384456D01*
X55610744Y-5443768D01*
X55609746Y-5513631D01*
X55571136Y-5571863D01*
X55510678Y-5599473D01*
X55350589Y-5624829D01*
X55178363Y-5680787D01*
X55178360Y-5680788D01*
X55017002Y-5763006D01*
X54870505Y-5869441D01*
X54870500Y-5869445D01*
X54742445Y-5997500D01*
X54742441Y-5997505D01*
X54636006Y-6144002D01*
X54553788Y-6305360D01*
X54553787Y-6305363D01*
X54497829Y-6477589D01*
X54469500Y-6656448D01*
X54469500Y-6837551D01*
X54497829Y-7016410D01*
X54553787Y-7188636D01*
X54553788Y-7188639D01*
X54636006Y-7349997D01*
X54742441Y-7496494D01*
X54742445Y-7496499D01*
X54870500Y-7624554D01*
X54870505Y-7624558D01*
X54998287Y-7717396D01*
X55017006Y-7730996D01*
X55122484Y-7784740D01*
X55178360Y-7813211D01*
X55178363Y-7813212D01*
X55264476Y-7841191D01*
X55350591Y-7869171D01*
X55423639Y-7880740D01*
X55510678Y-7894527D01*
X55573813Y-7924456D01*
X55610744Y-7983768D01*
X55609746Y-8053631D01*
X55571136Y-8111863D01*
X55510678Y-8139473D01*
X55350589Y-8164829D01*
X55178363Y-8220787D01*
X55178360Y-8220788D01*
X55017002Y-8303006D01*
X54870505Y-8409441D01*
X54870500Y-8409445D01*
X54742445Y-8537500D01*
X54742441Y-8537505D01*
X54636006Y-8684002D01*
X54553788Y-8845360D01*
X54553787Y-8845363D01*
X54497829Y-9017589D01*
X54469500Y-9196448D01*
X54469500Y-9377551D01*
X54497829Y-9556410D01*
X54553787Y-9728636D01*
X54553788Y-9728639D01*
X54636006Y-9889997D01*
X54742441Y-10036494D01*
X54742445Y-10036499D01*
X54870500Y-10164554D01*
X54870505Y-10164558D01*
X54998287Y-10257396D01*
X55017006Y-10270996D01*
X55122484Y-10324740D01*
X55178360Y-10353211D01*
X55178363Y-10353212D01*
X55264476Y-10381191D01*
X55350591Y-10409171D01*
X55423639Y-10420740D01*
X55510678Y-10434527D01*
X55573813Y-10464456D01*
X55610744Y-10523768D01*
X55609746Y-10593631D01*
X55571136Y-10651863D01*
X55510678Y-10679473D01*
X55350589Y-10704829D01*
X55178363Y-10760787D01*
X55178360Y-10760788D01*
X55017002Y-10843006D01*
X54870505Y-10949441D01*
X54870500Y-10949445D01*
X54742445Y-11077500D01*
X54742441Y-11077505D01*
X54636006Y-11224002D01*
X54553788Y-11385360D01*
X54553787Y-11385363D01*
X54497829Y-11557589D01*
X54469500Y-11736448D01*
X54469500Y-11917551D01*
X54497829Y-12096410D01*
X54553787Y-12268636D01*
X54553788Y-12268639D01*
X54636006Y-12429997D01*
X54742441Y-12576494D01*
X54742445Y-12576499D01*
X54870500Y-12704554D01*
X54870505Y-12704558D01*
X54998287Y-12797396D01*
X55017006Y-12810996D01*
X55122484Y-12864740D01*
X55178360Y-12893211D01*
X55178363Y-12893212D01*
X55264476Y-12921191D01*
X55350591Y-12949171D01*
X55423639Y-12960740D01*
X55510678Y-12974527D01*
X55573813Y-13004456D01*
X55610744Y-13063768D01*
X55609746Y-13133631D01*
X55571136Y-13191863D01*
X55510678Y-13219473D01*
X55350589Y-13244829D01*
X55178363Y-13300787D01*
X55178360Y-13300788D01*
X55017002Y-13383006D01*
X54870505Y-13489441D01*
X54870500Y-13489445D01*
X54742445Y-13617500D01*
X54742441Y-13617505D01*
X54636006Y-13764002D01*
X54553788Y-13925360D01*
X54553787Y-13925363D01*
X54497829Y-14097589D01*
X54469500Y-14276448D01*
X54469500Y-14457551D01*
X54497829Y-14636410D01*
X54553787Y-14808636D01*
X54553788Y-14808639D01*
X54636006Y-14969997D01*
X54742441Y-15116494D01*
X54742445Y-15116499D01*
X54870500Y-15244554D01*
X54870505Y-15244558D01*
X54998287Y-15337396D01*
X55017006Y-15350996D01*
X55122484Y-15404740D01*
X55178360Y-15433211D01*
X55178363Y-15433212D01*
X55264476Y-15461191D01*
X55350591Y-15489171D01*
X55423639Y-15500740D01*
X55510678Y-15514527D01*
X55573813Y-15544456D01*
X55610744Y-15603768D01*
X55609746Y-15673631D01*
X55571136Y-15731863D01*
X55510678Y-15759473D01*
X55350589Y-15784829D01*
X55178363Y-15840787D01*
X55178360Y-15840788D01*
X55017002Y-15923006D01*
X54870505Y-16029441D01*
X54870500Y-16029445D01*
X54742445Y-16157500D01*
X54742441Y-16157505D01*
X54636006Y-16304002D01*
X54553788Y-16465360D01*
X54553787Y-16465363D01*
X54497829Y-16637589D01*
X54469500Y-16816448D01*
X54469500Y-16997551D01*
X54497829Y-17176410D01*
X54553787Y-17348636D01*
X54553788Y-17348639D01*
X54636006Y-17509997D01*
X54742441Y-17656494D01*
X54742445Y-17656499D01*
X54870500Y-17784554D01*
X54870505Y-17784558D01*
X54998287Y-17877396D01*
X55017006Y-17890996D01*
X55122484Y-17944740D01*
X55178360Y-17973211D01*
X55178363Y-17973212D01*
X55264476Y-18001191D01*
X55350591Y-18029171D01*
X55423639Y-18040740D01*
X55510678Y-18054527D01*
X55573813Y-18084456D01*
X55610744Y-18143768D01*
X55609746Y-18213631D01*
X55571136Y-18271863D01*
X55510678Y-18299473D01*
X55350589Y-18324829D01*
X55178363Y-18380787D01*
X55178360Y-18380788D01*
X55017002Y-18463006D01*
X54870505Y-18569441D01*
X54870500Y-18569445D01*
X54742445Y-18697500D01*
X54742441Y-18697505D01*
X54636006Y-18844002D01*
X54553788Y-19005360D01*
X54553787Y-19005363D01*
X54497829Y-19177589D01*
X54469500Y-19356448D01*
X54469500Y-19537551D01*
X54497829Y-19716410D01*
X54553787Y-19888636D01*
X54553788Y-19888639D01*
X54636006Y-20049997D01*
X54742441Y-20196494D01*
X54742445Y-20196499D01*
X54870500Y-20324554D01*
X54870505Y-20324558D01*
X54998287Y-20417396D01*
X55017006Y-20430996D01*
X55122484Y-20484740D01*
X55178360Y-20513211D01*
X55178363Y-20513212D01*
X55242421Y-20534025D01*
X55350591Y-20569171D01*
X55423639Y-20580740D01*
X55510678Y-20594527D01*
X55573813Y-20624456D01*
X55610744Y-20683768D01*
X55609746Y-20753631D01*
X55571136Y-20811863D01*
X55510678Y-20839473D01*
X55350589Y-20864829D01*
X55178363Y-20920787D01*
X55178360Y-20920788D01*
X55017002Y-21003006D01*
X54870505Y-21109441D01*
X54870500Y-21109445D01*
X54742445Y-21237500D01*
X54742441Y-21237505D01*
X54636006Y-21384002D01*
X54553788Y-21545360D01*
X54553787Y-21545363D01*
X54497829Y-21717589D01*
X54469500Y-21896448D01*
X54469500Y-22077551D01*
X54497829Y-22256410D01*
X54553787Y-22428636D01*
X54553788Y-22428639D01*
X54636006Y-22589997D01*
X54742441Y-22736494D01*
X54742445Y-22736499D01*
X54870500Y-22864554D01*
X54870505Y-22864558D01*
X54998287Y-22957396D01*
X55017006Y-22970996D01*
X55122484Y-23024740D01*
X55178360Y-23053211D01*
X55178363Y-23053212D01*
X55264476Y-23081191D01*
X55350591Y-23109171D01*
X55423639Y-23120740D01*
X55510678Y-23134527D01*
X55573813Y-23164456D01*
X55610744Y-23223768D01*
X55609746Y-23293631D01*
X55571136Y-23351863D01*
X55510678Y-23379473D01*
X55350589Y-23404829D01*
X55178363Y-23460787D01*
X55178360Y-23460788D01*
X55017002Y-23543006D01*
X54870505Y-23649441D01*
X54870500Y-23649445D01*
X54742445Y-23777500D01*
X54742441Y-23777505D01*
X54636006Y-23924002D01*
X54553788Y-24085360D01*
X54553787Y-24085363D01*
X54497829Y-24257589D01*
X54469500Y-24436448D01*
X54469500Y-24617551D01*
X54497829Y-24796410D01*
X54553787Y-24968636D01*
X54553788Y-24968639D01*
X54636006Y-25129997D01*
X54742441Y-25276494D01*
X54742445Y-25276499D01*
X54870500Y-25404554D01*
X54870505Y-25404558D01*
X54998287Y-25497396D01*
X55017006Y-25510996D01*
X55122484Y-25564740D01*
X55178360Y-25593211D01*
X55178363Y-25593212D01*
X55264476Y-25621191D01*
X55350591Y-25649171D01*
X55423639Y-25660740D01*
X55510678Y-25674527D01*
X55573813Y-25704456D01*
X55610744Y-25763768D01*
X55609746Y-25833631D01*
X55571136Y-25891863D01*
X55510678Y-25919473D01*
X55350589Y-25944829D01*
X55178363Y-26000787D01*
X55178360Y-26000788D01*
X55017002Y-26083006D01*
X54870505Y-26189441D01*
X54870500Y-26189445D01*
X54742445Y-26317500D01*
X54742441Y-26317505D01*
X54636006Y-26464002D01*
X54553788Y-26625360D01*
X54553787Y-26625363D01*
X54497829Y-26797589D01*
X54469500Y-26976448D01*
X54469500Y-27157551D01*
X54497829Y-27336410D01*
X54553787Y-27508636D01*
X54553788Y-27508639D01*
X54636006Y-27669997D01*
X54742441Y-27816494D01*
X54742445Y-27816499D01*
X54870500Y-27944554D01*
X54870505Y-27944558D01*
X54998287Y-28037396D01*
X55017006Y-28050996D01*
X55122484Y-28104740D01*
X55178360Y-28133211D01*
X55178363Y-28133212D01*
X55264476Y-28161191D01*
X55350591Y-28189171D01*
X55423639Y-28200740D01*
X55510678Y-28214527D01*
X55573813Y-28244456D01*
X55610744Y-28303768D01*
X55609746Y-28373631D01*
X55571136Y-28431863D01*
X55510678Y-28459473D01*
X55350589Y-28484829D01*
X55178363Y-28540787D01*
X55178360Y-28540788D01*
X55017002Y-28623006D01*
X54870505Y-28729441D01*
X54870500Y-28729445D01*
X54742445Y-28857500D01*
X54742441Y-28857505D01*
X54636006Y-29004002D01*
X54553788Y-29165360D01*
X54553787Y-29165363D01*
X54497829Y-29337589D01*
X54469500Y-29516448D01*
X54469500Y-29697551D01*
X54497829Y-29876410D01*
X54553787Y-30048636D01*
X54553788Y-30048639D01*
X54636006Y-30209997D01*
X54742441Y-30356494D01*
X54742445Y-30356499D01*
X54870500Y-30484554D01*
X54870505Y-30484558D01*
X54968170Y-30555515D01*
X55017006Y-30590996D01*
X55122484Y-30644740D01*
X55178360Y-30673211D01*
X55178363Y-30673212D01*
X55264476Y-30701191D01*
X55350591Y-30729171D01*
X55423639Y-30740740D01*
X55510678Y-30754527D01*
X55573813Y-30784456D01*
X55610744Y-30843768D01*
X55609746Y-30913631D01*
X55571136Y-30971863D01*
X55510678Y-30999473D01*
X55350589Y-31024829D01*
X55178363Y-31080787D01*
X55178360Y-31080788D01*
X55017002Y-31163006D01*
X54870505Y-31269441D01*
X54870500Y-31269445D01*
X54742445Y-31397500D01*
X54742441Y-31397505D01*
X54636006Y-31544002D01*
X54553788Y-31705360D01*
X54553787Y-31705363D01*
X54497829Y-31877589D01*
X54469500Y-32056448D01*
X54469500Y-32237551D01*
X54497829Y-32416410D01*
X54553787Y-32588636D01*
X54553788Y-32588639D01*
X54636006Y-32749997D01*
X54742441Y-32896494D01*
X54742445Y-32896499D01*
X54870500Y-33024554D01*
X54870505Y-33024558D01*
X54998287Y-33117396D01*
X55017006Y-33130996D01*
X55122484Y-33184740D01*
X55178360Y-33213211D01*
X55178363Y-33213212D01*
X55264476Y-33241191D01*
X55350591Y-33269171D01*
X55423639Y-33280740D01*
X55510678Y-33294527D01*
X55573813Y-33324456D01*
X55610744Y-33383768D01*
X55609746Y-33453631D01*
X55571136Y-33511863D01*
X55510678Y-33539473D01*
X55350589Y-33564829D01*
X55178363Y-33620787D01*
X55178360Y-33620788D01*
X55017002Y-33703006D01*
X54870505Y-33809441D01*
X54870500Y-33809445D01*
X54742445Y-33937500D01*
X54742441Y-33937505D01*
X54636006Y-34084002D01*
X54553788Y-34245360D01*
X54553787Y-34245363D01*
X54497829Y-34417589D01*
X54469500Y-34596448D01*
X54469500Y-34777551D01*
X54497829Y-34956410D01*
X54553787Y-35128636D01*
X54553788Y-35128639D01*
X54609664Y-35238300D01*
X54621940Y-35262393D01*
X54636006Y-35289997D01*
X54742441Y-35436494D01*
X54742445Y-35436499D01*
X54870500Y-35564554D01*
X54870505Y-35564558D01*
X54998287Y-35657396D01*
X55017006Y-35670996D01*
X55122484Y-35724740D01*
X55178360Y-35753211D01*
X55178363Y-35753212D01*
X55264476Y-35781191D01*
X55350591Y-35809171D01*
X55433429Y-35822291D01*
X55529449Y-35837500D01*
X55529454Y-35837500D01*
X55710551Y-35837500D01*
X55797259Y-35823765D01*
X55889409Y-35809171D01*
X56061639Y-35753211D01*
X56222994Y-35670996D01*
X56369501Y-35564553D01*
X56497553Y-35436501D01*
X56603996Y-35289994D01*
X56686211Y-35128639D01*
X56742171Y-34956409D01*
X56756765Y-34864259D01*
X56770500Y-34777551D01*
X56770500Y-34596448D01*
X56754019Y-34492397D01*
X56742171Y-34417591D01*
X56686211Y-34245361D01*
X56686211Y-34245360D01*
X56657740Y-34189484D01*
X56603996Y-34084006D01*
X56590396Y-34065287D01*
X56497558Y-33937505D01*
X56497554Y-33937500D01*
X56369499Y-33809445D01*
X56369494Y-33809441D01*
X56222997Y-33703006D01*
X56222996Y-33703005D01*
X56222994Y-33703004D01*
X56171300Y-33676664D01*
X56061639Y-33620788D01*
X56061636Y-33620787D01*
X55889410Y-33564829D01*
X55729321Y-33539473D01*
X55666186Y-33509544D01*
X55629255Y-33450232D01*
X55630253Y-33380370D01*
X55668863Y-33322137D01*
X55729321Y-33294527D01*
X55799425Y-33283422D01*
X55889409Y-33269171D01*
X56061639Y-33213211D01*
X56222994Y-33130996D01*
X56369501Y-33024553D01*
X56497553Y-32896501D01*
X56603996Y-32749994D01*
X56686211Y-32588639D01*
X56742171Y-32416409D01*
X56756765Y-32324259D01*
X56770500Y-32237551D01*
X56770500Y-32056448D01*
X56754019Y-31952397D01*
X56742171Y-31877591D01*
X56686211Y-31705361D01*
X56686211Y-31705360D01*
X56657740Y-31649484D01*
X56603996Y-31544006D01*
X56566768Y-31492766D01*
X56497558Y-31397505D01*
X56497554Y-31397500D01*
X56369499Y-31269445D01*
X56369494Y-31269441D01*
X56222997Y-31163006D01*
X56222996Y-31163005D01*
X56222994Y-31163004D01*
X56171300Y-31136664D01*
X56061639Y-31080788D01*
X56061636Y-31080787D01*
X55889410Y-31024829D01*
X55729321Y-30999473D01*
X55666186Y-30969544D01*
X55629255Y-30910232D01*
X55630253Y-30840370D01*
X55668863Y-30782137D01*
X55729321Y-30754527D01*
X55799425Y-30743422D01*
X55889409Y-30729171D01*
X56061639Y-30673211D01*
X56222994Y-30590996D01*
X56369501Y-30484553D01*
X56497553Y-30356501D01*
X56603996Y-30209994D01*
X56686211Y-30048639D01*
X56742171Y-29876409D01*
X56756765Y-29784259D01*
X56770500Y-29697551D01*
X56770500Y-29516448D01*
X56754019Y-29412397D01*
X56742171Y-29337591D01*
X56686211Y-29165361D01*
X56686211Y-29165360D01*
X56639038Y-29072780D01*
X56603996Y-29004006D01*
X56590396Y-28985287D01*
X56497558Y-28857505D01*
X56497554Y-28857500D01*
X56369499Y-28729445D01*
X56369494Y-28729441D01*
X56222997Y-28623006D01*
X56222996Y-28623005D01*
X56222994Y-28623004D01*
X56171300Y-28596664D01*
X56061639Y-28540788D01*
X56061636Y-28540787D01*
X55889410Y-28484829D01*
X55729321Y-28459473D01*
X55666186Y-28429544D01*
X55629255Y-28370232D01*
X55630253Y-28300370D01*
X55668863Y-28242137D01*
X55729321Y-28214527D01*
X55799425Y-28203422D01*
X55889409Y-28189171D01*
X56061639Y-28133211D01*
X56222994Y-28050996D01*
X56369501Y-27944553D01*
X56497553Y-27816501D01*
X56603996Y-27669994D01*
X56686211Y-27508639D01*
X56742171Y-27336409D01*
X56756765Y-27244259D01*
X56770500Y-27157551D01*
X56770500Y-26976448D01*
X56754019Y-26872397D01*
X56742171Y-26797591D01*
X56686211Y-26625361D01*
X56686211Y-26625360D01*
X56657740Y-26569484D01*
X56603996Y-26464006D01*
X56590396Y-26445287D01*
X56497558Y-26317505D01*
X56497554Y-26317500D01*
X56369499Y-26189445D01*
X56369494Y-26189441D01*
X56222997Y-26083006D01*
X56222996Y-26083005D01*
X56222994Y-26083004D01*
X56171300Y-26056664D01*
X56061639Y-26000788D01*
X56061636Y-26000787D01*
X55889410Y-25944829D01*
X55729321Y-25919473D01*
X55666186Y-25889544D01*
X55629255Y-25830232D01*
X55630253Y-25760370D01*
X55668863Y-25702137D01*
X55729321Y-25674527D01*
X55799425Y-25663422D01*
X55889409Y-25649171D01*
X56061639Y-25593211D01*
X56222994Y-25510996D01*
X56369501Y-25404553D01*
X56497553Y-25276501D01*
X56603996Y-25129994D01*
X56686211Y-24968639D01*
X56742171Y-24796409D01*
X56756765Y-24704259D01*
X56770500Y-24617551D01*
X56770500Y-24436448D01*
X56754019Y-24332397D01*
X56742171Y-24257591D01*
X56714191Y-24171476D01*
X56686212Y-24085363D01*
X56686211Y-24085360D01*
X56633943Y-23982780D01*
X56603996Y-23924006D01*
X56563627Y-23868442D01*
X56497558Y-23777505D01*
X56497554Y-23777500D01*
X56369499Y-23649445D01*
X56369494Y-23649441D01*
X56222997Y-23543006D01*
X56222996Y-23543005D01*
X56222994Y-23543004D01*
X56171300Y-23516664D01*
X56061639Y-23460788D01*
X56061636Y-23460787D01*
X55889410Y-23404829D01*
X55729321Y-23379473D01*
X55666186Y-23349544D01*
X55629255Y-23290232D01*
X55630253Y-23220370D01*
X55668863Y-23162137D01*
X55729321Y-23134527D01*
X55799425Y-23123422D01*
X55889409Y-23109171D01*
X56061639Y-23053211D01*
X56222994Y-22970996D01*
X56369501Y-22864553D01*
X56497553Y-22736501D01*
X56603996Y-22589994D01*
X56686211Y-22428639D01*
X56742171Y-22256409D01*
X56756765Y-22164259D01*
X56770500Y-22077551D01*
X56770500Y-21896448D01*
X56754019Y-21792397D01*
X56742171Y-21717591D01*
X56714191Y-21631476D01*
X56686212Y-21545363D01*
X56686211Y-21545360D01*
X56657740Y-21489484D01*
X56603996Y-21384006D01*
X56590396Y-21365287D01*
X56497558Y-21237505D01*
X56497554Y-21237500D01*
X56369499Y-21109445D01*
X56369494Y-21109441D01*
X56222997Y-21003006D01*
X56222996Y-21003005D01*
X56222994Y-21003004D01*
X56171300Y-20976664D01*
X56061639Y-20920788D01*
X56061636Y-20920787D01*
X55889410Y-20864829D01*
X55729321Y-20839473D01*
X55666186Y-20809544D01*
X55629255Y-20750232D01*
X55630253Y-20680370D01*
X55668863Y-20622137D01*
X55729321Y-20594527D01*
X55799425Y-20583422D01*
X55889409Y-20569171D01*
X56061639Y-20513211D01*
X56222994Y-20430996D01*
X56369501Y-20324553D01*
X56497553Y-20196501D01*
X56603996Y-20049994D01*
X56686211Y-19888639D01*
X56742171Y-19716409D01*
X56756765Y-19624259D01*
X56770500Y-19537551D01*
X56770500Y-19356448D01*
X56754019Y-19252397D01*
X56742171Y-19177591D01*
X56686211Y-19005361D01*
X56686211Y-19005360D01*
X56626229Y-18887641D01*
X56603996Y-18844006D01*
X56590396Y-18825287D01*
X56497558Y-18697505D01*
X56497554Y-18697500D01*
X56369499Y-18569445D01*
X56369494Y-18569441D01*
X56222997Y-18463006D01*
X56222996Y-18463005D01*
X56222994Y-18463004D01*
X56166041Y-18433985D01*
X56061639Y-18380788D01*
X56061636Y-18380787D01*
X55889410Y-18324829D01*
X55729321Y-18299473D01*
X55666186Y-18269544D01*
X55629255Y-18210232D01*
X55630253Y-18140370D01*
X55668863Y-18082137D01*
X55729321Y-18054527D01*
X55799425Y-18043422D01*
X55889409Y-18029171D01*
X56061639Y-17973211D01*
X56222994Y-17890996D01*
X56369501Y-17784553D01*
X56497553Y-17656501D01*
X56603996Y-17509994D01*
X56686211Y-17348639D01*
X56742171Y-17176409D01*
X56756765Y-17084259D01*
X56770500Y-16997551D01*
X56770500Y-16816448D01*
X56754019Y-16712397D01*
X56742171Y-16637591D01*
X56702947Y-16516871D01*
X56686212Y-16465363D01*
X56686211Y-16465360D01*
X56644382Y-16383267D01*
X56603996Y-16304006D01*
X56563188Y-16247838D01*
X56497558Y-16157505D01*
X56497554Y-16157500D01*
X56369499Y-16029445D01*
X56369494Y-16029441D01*
X56222997Y-15923006D01*
X56222996Y-15923005D01*
X56222994Y-15923004D01*
X56152064Y-15886863D01*
X56061639Y-15840788D01*
X56061636Y-15840787D01*
X55889410Y-15784829D01*
X55729321Y-15759473D01*
X55666186Y-15729544D01*
X55629255Y-15670232D01*
X55630253Y-15600370D01*
X55668863Y-15542137D01*
X55729321Y-15514527D01*
X55799425Y-15503422D01*
X55889409Y-15489171D01*
X56061639Y-15433211D01*
X56222994Y-15350996D01*
X56369501Y-15244553D01*
X56497553Y-15116501D01*
X56603996Y-14969994D01*
X56686211Y-14808639D01*
X56742171Y-14636409D01*
X56762099Y-14510589D01*
X56770500Y-14457551D01*
X56770500Y-14276448D01*
X56752296Y-14161521D01*
X56742171Y-14097591D01*
X56686211Y-13925361D01*
X56686211Y-13925360D01*
X56649835Y-13853970D01*
X56603996Y-13764006D01*
X56590396Y-13745287D01*
X56497558Y-13617505D01*
X56497554Y-13617500D01*
X56369499Y-13489445D01*
X56369494Y-13489441D01*
X56222997Y-13383006D01*
X56222996Y-13383005D01*
X56222994Y-13383004D01*
X56165329Y-13353622D01*
X56061639Y-13300788D01*
X56061636Y-13300787D01*
X55889410Y-13244829D01*
X55729321Y-13219473D01*
X55666186Y-13189544D01*
X55629255Y-13130232D01*
X55630253Y-13060370D01*
X55668863Y-13002137D01*
X55729321Y-12974527D01*
X55799425Y-12963422D01*
X55889409Y-12949171D01*
X56061639Y-12893211D01*
X56222994Y-12810996D01*
X56369501Y-12704553D01*
X56497553Y-12576501D01*
X56603996Y-12429994D01*
X56686211Y-12268639D01*
X56742171Y-12096409D01*
X56761365Y-11975225D01*
X56770500Y-11917551D01*
X56770500Y-11736448D01*
X56754019Y-11632397D01*
X56742171Y-11557591D01*
X56686211Y-11385361D01*
X56686211Y-11385360D01*
X56657740Y-11329484D01*
X56603996Y-11224006D01*
X56590396Y-11205287D01*
X56497558Y-11077505D01*
X56497554Y-11077500D01*
X56369499Y-10949445D01*
X56369494Y-10949441D01*
X56222997Y-10843006D01*
X56222996Y-10843005D01*
X56222994Y-10843004D01*
X56142922Y-10802205D01*
X56061639Y-10760788D01*
X56061636Y-10760787D01*
X55889410Y-10704829D01*
X55729321Y-10679473D01*
X55666186Y-10649544D01*
X55629255Y-10590232D01*
X55630253Y-10520370D01*
X55668863Y-10462137D01*
X55729321Y-10434527D01*
X55799425Y-10423422D01*
X55889409Y-10409171D01*
X56061639Y-10353211D01*
X56222994Y-10270996D01*
X56369501Y-10164553D01*
X56497553Y-10036501D01*
X56603996Y-9889994D01*
X56686211Y-9728639D01*
X56742171Y-9556409D01*
X56756765Y-9464259D01*
X56770500Y-9377551D01*
X56770500Y-9196448D01*
X56754019Y-9092397D01*
X56742171Y-9017591D01*
X56686211Y-8845361D01*
X56686211Y-8845360D01*
X56652911Y-8780006D01*
X56603996Y-8684006D01*
X56541359Y-8597793D01*
X56497558Y-8537505D01*
X56497554Y-8537500D01*
X56369499Y-8409445D01*
X56369494Y-8409441D01*
X56222997Y-8303006D01*
X56222996Y-8303005D01*
X56222994Y-8303004D01*
X56171300Y-8276664D01*
X56061639Y-8220788D01*
X56061636Y-8220787D01*
X55889410Y-8164829D01*
X55729321Y-8139473D01*
X55666186Y-8109544D01*
X55629255Y-8050232D01*
X55630253Y-7980370D01*
X55668863Y-7922137D01*
X55729321Y-7894527D01*
X55799425Y-7883422D01*
X55889409Y-7869171D01*
X56061639Y-7813211D01*
X56222994Y-7730996D01*
X56369501Y-7624553D01*
X56497553Y-7496501D01*
X56603996Y-7349994D01*
X56686211Y-7188639D01*
X56742171Y-7016409D01*
X56756765Y-6924259D01*
X56770500Y-6837551D01*
X56770500Y-6656448D01*
X56754019Y-6552397D01*
X56742171Y-6477591D01*
X56686211Y-6305361D01*
X56686211Y-6305360D01*
X56657740Y-6249484D01*
X56603996Y-6144006D01*
X56590396Y-6125287D01*
X56497558Y-5997505D01*
X56497554Y-5997500D01*
X56369499Y-5869445D01*
X56369494Y-5869441D01*
X56222997Y-5763006D01*
X56222996Y-5763005D01*
X56222994Y-5763004D01*
X56171300Y-5736664D01*
X56061639Y-5680788D01*
X56061636Y-5680787D01*
X55889410Y-5624829D01*
X55729321Y-5599473D01*
X55666186Y-5569544D01*
X55629255Y-5510232D01*
X55630253Y-5440370D01*
X55668863Y-5382137D01*
X55729321Y-5354527D01*
X55799425Y-5343422D01*
X55889409Y-5329171D01*
X56061639Y-5273211D01*
X56222994Y-5190996D01*
X56369501Y-5084553D01*
X56497553Y-4956501D01*
X56528032Y-4914550D01*
X56604999Y-4808615D01*
X56660329Y-4765949D01*
X56705317Y-4757500D01*
X57825500Y-4757500D01*
X57892539Y-4777185D01*
X57938294Y-4829989D01*
X57949500Y-4881500D01*
X57949500Y-39925500D01*
X57929815Y-39992539D01*
X57877011Y-40038294D01*
X57825500Y-40049500D01*
X32971011Y-40049500D01*
X32903972Y-40029815D01*
X32858217Y-39977011D01*
X32848273Y-39907853D01*
X32877298Y-39844297D01*
X32898125Y-39825182D01*
X32940697Y-39794250D01*
X32940698Y-39794250D01*
X32211059Y-39064612D01*
X32231591Y-39059111D01*
X32368408Y-38980119D01*
X32480119Y-38868408D01*
X32559111Y-38731591D01*
X32564612Y-38711060D01*
X33294250Y-39440698D01*
X33294250Y-39440697D01*
X33368442Y-39338581D01*
X33368446Y-39338575D01*
X33482780Y-39114184D01*
X33560602Y-38874669D01*
X33600000Y-38625928D01*
X33600000Y-38374071D01*
X33560602Y-38125330D01*
X33482780Y-37885815D01*
X33368442Y-37661416D01*
X33294250Y-37559301D01*
X33294250Y-37559300D01*
X32564612Y-38288939D01*
X32559111Y-38268409D01*
X32480119Y-38131592D01*
X32368408Y-38019881D01*
X32231591Y-37940889D01*
X32211058Y-37935387D01*
X32940698Y-37205748D01*
X32838583Y-37131557D01*
X32614184Y-37017219D01*
X32374669Y-36939397D01*
X32125928Y-36900000D01*
X31874072Y-36900000D01*
X31625330Y-36939397D01*
X31385815Y-37017219D01*
X31161413Y-37131559D01*
X31059301Y-37205747D01*
X31059300Y-37205748D01*
X31788940Y-37935387D01*
X31768409Y-37940889D01*
X31631592Y-38019881D01*
X31519881Y-38131592D01*
X31440889Y-38268409D01*
X31435387Y-38288940D01*
X30705748Y-37559300D01*
X30705747Y-37559301D01*
X30631559Y-37661413D01*
X30517219Y-37885815D01*
X30439397Y-38125330D01*
X30400000Y-38374071D01*
X30400000Y-38625928D01*
X30439397Y-38874669D01*
X30517219Y-39114184D01*
X30631557Y-39338583D01*
X30705748Y-39440697D01*
X30705748Y-39440698D01*
X31435387Y-38711059D01*
X31440889Y-38731591D01*
X31519881Y-38868408D01*
X31631592Y-38980119D01*
X31768409Y-39059111D01*
X31788940Y-39064612D01*
X31059300Y-39794250D01*
X31101874Y-39825182D01*
X31144539Y-39880512D01*
X31150518Y-39950126D01*
X31117912Y-40011921D01*
X31057073Y-40046278D01*
X31028988Y-40049500D01*
X28174500Y-40049500D01*
X28107461Y-40029815D01*
X28061706Y-39977011D01*
X28050500Y-39925500D01*
X28050500Y-35689778D01*
X34399500Y-35689778D01*
X34399500Y-35910221D01*
X34433985Y-36127952D01*
X34502103Y-36337603D01*
X34502104Y-36337606D01*
X34602187Y-36534025D01*
X34731752Y-36712358D01*
X34731756Y-36712363D01*
X34887636Y-36868243D01*
X34887641Y-36868247D01*
X34931346Y-36900000D01*
X35065978Y-36997815D01*
X35194375Y-37063237D01*
X35262393Y-37097895D01*
X35262396Y-37097896D01*
X35365997Y-37131557D01*
X35472049Y-37166015D01*
X35689778Y-37200500D01*
X35689779Y-37200500D01*
X35910221Y-37200500D01*
X35910222Y-37200500D01*
X36127951Y-37166015D01*
X36337606Y-37097895D01*
X36534022Y-36997815D01*
X36712365Y-36868242D01*
X36868242Y-36712365D01*
X36997815Y-36534022D01*
X37097895Y-36337606D01*
X37166015Y-36127951D01*
X37200500Y-35910222D01*
X37200500Y-35689778D01*
X37166015Y-35472049D01*
X37097895Y-35262394D01*
X37097895Y-35262393D01*
X37063237Y-35194375D01*
X36997815Y-35065978D01*
X36918209Y-34956409D01*
X36868247Y-34887641D01*
X36868243Y-34887636D01*
X36712363Y-34731756D01*
X36712358Y-34731752D01*
X36534025Y-34602187D01*
X36534024Y-34602186D01*
X36534022Y-34602185D01*
X36431687Y-34550042D01*
X36337606Y-34502104D01*
X36337603Y-34502103D01*
X36127952Y-34433985D01*
X36019086Y-34416742D01*
X35910222Y-34399500D01*
X35689778Y-34399500D01*
X35617201Y-34410995D01*
X35472047Y-34433985D01*
X35262396Y-34502103D01*
X35262393Y-34502104D01*
X35065974Y-34602187D01*
X34887641Y-34731752D01*
X34887636Y-34731756D01*
X34731756Y-34887636D01*
X34731752Y-34887641D01*
X34602187Y-35065974D01*
X34502104Y-35262393D01*
X34502103Y-35262396D01*
X34433985Y-35472047D01*
X34399500Y-35689778D01*
X28050500Y-35689778D01*
X28050500Y-32000000D01*
X29400000Y-32000000D01*
X29449957Y-32507233D01*
X29597914Y-32994981D01*
X29838175Y-33444477D01*
X29838180Y-33444484D01*
X30161521Y-33838478D01*
X30435697Y-34063487D01*
X30555517Y-34161821D01*
X30555520Y-34161822D01*
X30555522Y-34161824D01*
X31005018Y-34402085D01*
X31005020Y-34402085D01*
X31005023Y-34402087D01*
X31492765Y-34550042D01*
X32000000Y-34600000D01*
X32507235Y-34550042D01*
X32994977Y-34402087D01*
X33444483Y-34161821D01*
X33838478Y-33838478D01*
X34161821Y-33444483D01*
X34402087Y-32994977D01*
X34550042Y-32507235D01*
X34600000Y-32000000D01*
X34550042Y-31492765D01*
X34402087Y-31005023D01*
X34402085Y-31005020D01*
X34402085Y-31005018D01*
X34161824Y-30555522D01*
X34161822Y-30555520D01*
X34161821Y-30555517D01*
X33998493Y-30356501D01*
X33838478Y-30161521D01*
X33457878Y-29849172D01*
X33444483Y-29838179D01*
X33444481Y-29838178D01*
X33444477Y-29838175D01*
X32994981Y-29597914D01*
X32507233Y-29449957D01*
X32000000Y-29400000D01*
X31492766Y-29449957D01*
X31005018Y-29597914D01*
X30555522Y-29838175D01*
X30555515Y-29838180D01*
X30161521Y-30161521D01*
X29838180Y-30555515D01*
X29838175Y-30555522D01*
X29597914Y-31005018D01*
X29449957Y-31492766D01*
X29400000Y-32000000D01*
X28050500Y-32000000D01*
X28050500Y-16854661D01*
X28070185Y-16787622D01*
X28104216Y-16752504D01*
X28787277Y-16282557D01*
X28853662Y-16260776D01*
X28921287Y-16278344D01*
X28968679Y-16329684D01*
X28980791Y-16398496D01*
X28957878Y-16457600D01*
X28845376Y-16612446D01*
X28748904Y-16801782D01*
X28683242Y-17003869D01*
X28683242Y-17003872D01*
X28650000Y-17213753D01*
X28650000Y-17426246D01*
X28683242Y-17636127D01*
X28683242Y-17636130D01*
X28748904Y-17838217D01*
X28845375Y-18027550D01*
X28884728Y-18081716D01*
X29517037Y-17449408D01*
X29534075Y-17512993D01*
X29599901Y-17627007D01*
X29692993Y-17720099D01*
X29807007Y-17785925D01*
X29870590Y-17802962D01*
X29238282Y-18435269D01*
X29238282Y-18435270D01*
X29292449Y-18474624D01*
X29481782Y-18571095D01*
X29683870Y-18636757D01*
X29893754Y-18670000D01*
X30106246Y-18670000D01*
X30316127Y-18636757D01*
X30316130Y-18636757D01*
X30518217Y-18571095D01*
X30707554Y-18474622D01*
X30761716Y-18435270D01*
X30761717Y-18435270D01*
X30129408Y-17802962D01*
X30192993Y-17785925D01*
X30307007Y-17720099D01*
X30400099Y-17627007D01*
X30465925Y-17512993D01*
X30482962Y-17449408D01*
X31115270Y-18081717D01*
X31115270Y-18081716D01*
X31154622Y-18027554D01*
X31251095Y-17838217D01*
X31316757Y-17636130D01*
X31316757Y-17636127D01*
X31350000Y-17426246D01*
X31350000Y-17213753D01*
X31316757Y-17003872D01*
X31316757Y-17003869D01*
X31251095Y-16801782D01*
X31154624Y-16612449D01*
X31115270Y-16558282D01*
X31115269Y-16558282D01*
X30482962Y-17190590D01*
X30465925Y-17127007D01*
X30400099Y-17012993D01*
X30307007Y-16919901D01*
X30192993Y-16854075D01*
X30129408Y-16837037D01*
X30761716Y-16204728D01*
X30707550Y-16165375D01*
X30518217Y-16068904D01*
X30489292Y-16059506D01*
X30431616Y-16020068D01*
X30404418Y-15955710D01*
X30416333Y-15886863D01*
X30463577Y-15835388D01*
X30471315Y-15831090D01*
X30602994Y-15763996D01*
X30749501Y-15657553D01*
X30877553Y-15529501D01*
X30983996Y-15382994D01*
X31066211Y-15221639D01*
X31122171Y-15049409D01*
X31145015Y-14905177D01*
X31150500Y-14870551D01*
X31150500Y-14689448D01*
X31129287Y-14555522D01*
X31122171Y-14510591D01*
X31066211Y-14338361D01*
X31066211Y-14338360D01*
X31034668Y-14276454D01*
X30983996Y-14177006D01*
X30926298Y-14097591D01*
X30877558Y-14030505D01*
X30877554Y-14030500D01*
X30749499Y-13902445D01*
X30749494Y-13902441D01*
X30602997Y-13796006D01*
X30602996Y-13796005D01*
X30602994Y-13796004D01*
X30540187Y-13764002D01*
X30441639Y-13713788D01*
X30441636Y-13713787D01*
X30269410Y-13657829D01*
X30109321Y-13632473D01*
X30046186Y-13602544D01*
X30009255Y-13543232D01*
X30010253Y-13473370D01*
X30048863Y-13415137D01*
X30109321Y-13387527D01*
X30179425Y-13376422D01*
X30269409Y-13362171D01*
X30441639Y-13306211D01*
X30602994Y-13223996D01*
X30749501Y-13117553D01*
X30877553Y-12989501D01*
X30912567Y-12941306D01*
X30967896Y-12898640D01*
X31037510Y-12892660D01*
X31038243Y-12892811D01*
X35528525Y-13835771D01*
X35590087Y-13868813D01*
X35624013Y-13929893D01*
X35626095Y-13941844D01*
X36973903Y-24796409D01*
X37574500Y-29633312D01*
X37574500Y-29663018D01*
X37581370Y-29688660D01*
X37582429Y-29697183D01*
X37582431Y-29697190D01*
X37584645Y-29715022D01*
X37584646Y-29715025D01*
X37592926Y-29735438D01*
X37597790Y-29749942D01*
X37601821Y-29764984D01*
X37603497Y-29771238D01*
X37610548Y-29783449D01*
X37616776Y-29794237D01*
X37626757Y-29818844D01*
X37644661Y-29842536D01*
X37648492Y-29849172D01*
X37648494Y-29849175D01*
X37659515Y-29868263D01*
X37659517Y-29868265D01*
X37672220Y-29880968D01*
X37683462Y-29893881D01*
X37694304Y-29908228D01*
X37717734Y-29926482D01*
X37738737Y-29947485D01*
X37761734Y-29960762D01*
X37768504Y-29966037D01*
X37775154Y-29971217D01*
X37782684Y-29977084D01*
X37810040Y-29988652D01*
X37835763Y-30003503D01*
X37861413Y-30010376D01*
X37869324Y-30013721D01*
X37885871Y-30020718D01*
X37885872Y-30020719D01*
X37892069Y-30021581D01*
X37915292Y-30024812D01*
X37943982Y-30032500D01*
X37970537Y-30032500D01*
X37974709Y-30033080D01*
X37979031Y-30033682D01*
X37979038Y-30033683D01*
X37980990Y-30033954D01*
X37996840Y-30036160D01*
X38016800Y-30033681D01*
X38018707Y-30033445D01*
X38033985Y-30032500D01*
X39229579Y-30032500D01*
X39296618Y-30052185D01*
X39340062Y-30100203D01*
X39371306Y-30161521D01*
X39396006Y-30209998D01*
X39502441Y-30356494D01*
X39502445Y-30356499D01*
X39630500Y-30484554D01*
X39630505Y-30484558D01*
X39728170Y-30555515D01*
X39777006Y-30590996D01*
X39882484Y-30644740D01*
X39938360Y-30673211D01*
X39938363Y-30673212D01*
X40024476Y-30701191D01*
X40110591Y-30729171D01*
X40183639Y-30740740D01*
X40270678Y-30754527D01*
X40333813Y-30784456D01*
X40370744Y-30843768D01*
X40369746Y-30913631D01*
X40331136Y-30971863D01*
X40270678Y-30999473D01*
X40110589Y-31024829D01*
X39938363Y-31080787D01*
X39938360Y-31080788D01*
X39777002Y-31163006D01*
X39630505Y-31269441D01*
X39630500Y-31269445D01*
X39502445Y-31397500D01*
X39502441Y-31397505D01*
X39396006Y-31544002D01*
X39313788Y-31705360D01*
X39313787Y-31705363D01*
X39257829Y-31877589D01*
X39229500Y-32056448D01*
X39229500Y-32237551D01*
X39257829Y-32416410D01*
X39313787Y-32588636D01*
X39313788Y-32588639D01*
X39396006Y-32749997D01*
X39502441Y-32896494D01*
X39502445Y-32896499D01*
X39630500Y-33024554D01*
X39630505Y-33024558D01*
X39758287Y-33117396D01*
X39777006Y-33130996D01*
X39882484Y-33184740D01*
X39938360Y-33213211D01*
X39938363Y-33213212D01*
X40024476Y-33241191D01*
X40110591Y-33269171D01*
X40183639Y-33280740D01*
X40270678Y-33294527D01*
X40333813Y-33324456D01*
X40370744Y-33383768D01*
X40369746Y-33453631D01*
X40331136Y-33511863D01*
X40270678Y-33539473D01*
X40110589Y-33564829D01*
X39938363Y-33620787D01*
X39938360Y-33620788D01*
X39777002Y-33703006D01*
X39630505Y-33809441D01*
X39630500Y-33809445D01*
X39502445Y-33937500D01*
X39502441Y-33937505D01*
X39396006Y-34084002D01*
X39313788Y-34245360D01*
X39313787Y-34245363D01*
X39257829Y-34417589D01*
X39229500Y-34596448D01*
X39229500Y-34777551D01*
X39257829Y-34956410D01*
X39313787Y-35128636D01*
X39313788Y-35128639D01*
X39369664Y-35238300D01*
X39381940Y-35262393D01*
X39396006Y-35289997D01*
X39502441Y-35436494D01*
X39502445Y-35436499D01*
X39630500Y-35564554D01*
X39630505Y-35564558D01*
X39758287Y-35657396D01*
X39777006Y-35670996D01*
X39882484Y-35724740D01*
X39938360Y-35753211D01*
X39938363Y-35753212D01*
X40024476Y-35781191D01*
X40110591Y-35809171D01*
X40193429Y-35822291D01*
X40289449Y-35837500D01*
X40289454Y-35837500D01*
X40470551Y-35837500D01*
X40557259Y-35823765D01*
X40649409Y-35809171D01*
X40821639Y-35753211D01*
X40982994Y-35670996D01*
X41129501Y-35564553D01*
X41257553Y-35436501D01*
X41363996Y-35289994D01*
X41446211Y-35128639D01*
X41502171Y-34956409D01*
X41516765Y-34864259D01*
X41530500Y-34777551D01*
X41530500Y-34596448D01*
X41514019Y-34492397D01*
X41502171Y-34417591D01*
X41446211Y-34245361D01*
X41446211Y-34245360D01*
X41417740Y-34189484D01*
X41363996Y-34084006D01*
X41350396Y-34065287D01*
X41257558Y-33937505D01*
X41257554Y-33937500D01*
X41129499Y-33809445D01*
X41129494Y-33809441D01*
X40982997Y-33703006D01*
X40982996Y-33703005D01*
X40982994Y-33703004D01*
X40931300Y-33676664D01*
X40821639Y-33620788D01*
X40821636Y-33620787D01*
X40649410Y-33564829D01*
X40489321Y-33539473D01*
X40426186Y-33509544D01*
X40389255Y-33450232D01*
X40390253Y-33380370D01*
X40428863Y-33322137D01*
X40489321Y-33294527D01*
X40559425Y-33283422D01*
X40649409Y-33269171D01*
X40821639Y-33213211D01*
X40982994Y-33130996D01*
X41129501Y-33024553D01*
X41257553Y-32896501D01*
X41363996Y-32749994D01*
X41446211Y-32588639D01*
X41502171Y-32416409D01*
X41516765Y-32324259D01*
X41530500Y-32237551D01*
X41530500Y-32056448D01*
X41514019Y-31952397D01*
X41502171Y-31877591D01*
X41446211Y-31705361D01*
X41446211Y-31705360D01*
X41417740Y-31649484D01*
X41363996Y-31544006D01*
X41326768Y-31492766D01*
X41257558Y-31397505D01*
X41257554Y-31397500D01*
X41129499Y-31269445D01*
X41129494Y-31269441D01*
X40982997Y-31163006D01*
X40982996Y-31163005D01*
X40982994Y-31163004D01*
X40931300Y-31136664D01*
X40821639Y-31080788D01*
X40821636Y-31080787D01*
X40649410Y-31024829D01*
X40489321Y-30999473D01*
X40426186Y-30969544D01*
X40389255Y-30910232D01*
X40390253Y-30840370D01*
X40428863Y-30782137D01*
X40489321Y-30754527D01*
X40559425Y-30743422D01*
X40649409Y-30729171D01*
X40821639Y-30673211D01*
X40982994Y-30590996D01*
X41129501Y-30484553D01*
X41257553Y-30356501D01*
X41363996Y-30209994D01*
X41446211Y-30048639D01*
X41502171Y-29876409D01*
X41516765Y-29784259D01*
X41530500Y-29697551D01*
X41530500Y-29516448D01*
X41514019Y-29412397D01*
X41502171Y-29337591D01*
X41446211Y-29165361D01*
X41446211Y-29165360D01*
X41399038Y-29072780D01*
X41363996Y-29004006D01*
X41350396Y-28985287D01*
X41257558Y-28857505D01*
X41257554Y-28857500D01*
X41129499Y-28729445D01*
X41129494Y-28729441D01*
X40982997Y-28623006D01*
X40982996Y-28623005D01*
X40982994Y-28623004D01*
X40931300Y-28596664D01*
X40821639Y-28540788D01*
X40821636Y-28540787D01*
X40649410Y-28484829D01*
X40489321Y-28459473D01*
X40426186Y-28429544D01*
X40389255Y-28370232D01*
X40390253Y-28300370D01*
X40428863Y-28242137D01*
X40489321Y-28214527D01*
X40559425Y-28203422D01*
X40649409Y-28189171D01*
X40821639Y-28133211D01*
X40982994Y-28050996D01*
X41129501Y-27944553D01*
X41257553Y-27816501D01*
X41363996Y-27669994D01*
X41446211Y-27508639D01*
X41502171Y-27336409D01*
X41516765Y-27244259D01*
X41530500Y-27157551D01*
X41530500Y-26976448D01*
X41514019Y-26872397D01*
X41502171Y-26797591D01*
X41446211Y-26625361D01*
X41446211Y-26625360D01*
X41417740Y-26569484D01*
X41363996Y-26464006D01*
X41350396Y-26445287D01*
X41257558Y-26317505D01*
X41257554Y-26317500D01*
X41129499Y-26189445D01*
X41129494Y-26189441D01*
X40982997Y-26083006D01*
X40982996Y-26083005D01*
X40982994Y-26083004D01*
X40931300Y-26056664D01*
X40821639Y-26000788D01*
X40821636Y-26000787D01*
X40649410Y-25944829D01*
X40489321Y-25919473D01*
X40426186Y-25889544D01*
X40389255Y-25830232D01*
X40390253Y-25760370D01*
X40428863Y-25702137D01*
X40489321Y-25674527D01*
X40559425Y-25663422D01*
X40649409Y-25649171D01*
X40821639Y-25593211D01*
X40982994Y-25510996D01*
X41129501Y-25404553D01*
X41257553Y-25276501D01*
X41363996Y-25129994D01*
X41446211Y-24968639D01*
X41502171Y-24796409D01*
X41516765Y-24704259D01*
X41530500Y-24617551D01*
X41530500Y-24436448D01*
X41514019Y-24332397D01*
X41502171Y-24257591D01*
X41474191Y-24171476D01*
X41446212Y-24085363D01*
X41446211Y-24085360D01*
X41393943Y-23982780D01*
X41363996Y-23924006D01*
X41323627Y-23868442D01*
X41257558Y-23777505D01*
X41257554Y-23777500D01*
X41129499Y-23649445D01*
X41129494Y-23649441D01*
X40982997Y-23543006D01*
X40982996Y-23543005D01*
X40982994Y-23543004D01*
X40931300Y-23516664D01*
X40821639Y-23460788D01*
X40821636Y-23460787D01*
X40649410Y-23404829D01*
X40489321Y-23379473D01*
X40426186Y-23349544D01*
X40389255Y-23290232D01*
X40390253Y-23220370D01*
X40428863Y-23162137D01*
X40489321Y-23134527D01*
X40559425Y-23123422D01*
X40649409Y-23109171D01*
X40821639Y-23053211D01*
X40982994Y-22970996D01*
X41129501Y-22864553D01*
X41257553Y-22736501D01*
X41363996Y-22589994D01*
X41446211Y-22428639D01*
X41502171Y-22256409D01*
X41516765Y-22164259D01*
X41530500Y-22077551D01*
X41530500Y-21896448D01*
X41514019Y-21792397D01*
X41502171Y-21717591D01*
X41474191Y-21631476D01*
X41446212Y-21545363D01*
X41446211Y-21545360D01*
X41417740Y-21489484D01*
X41363996Y-21384006D01*
X41350396Y-21365287D01*
X41257558Y-21237505D01*
X41257554Y-21237500D01*
X41129499Y-21109445D01*
X41129494Y-21109441D01*
X40982997Y-21003006D01*
X40982996Y-21003005D01*
X40982994Y-21003004D01*
X40931300Y-20976664D01*
X40821639Y-20920788D01*
X40821636Y-20920787D01*
X40649410Y-20864829D01*
X40489321Y-20839473D01*
X40426186Y-20809544D01*
X40389255Y-20750232D01*
X40390253Y-20680370D01*
X40428863Y-20622137D01*
X40489321Y-20594527D01*
X40559425Y-20583422D01*
X40649409Y-20569171D01*
X40821639Y-20513211D01*
X40982994Y-20430996D01*
X41129501Y-20324553D01*
X41257553Y-20196501D01*
X41363996Y-20049994D01*
X41446211Y-19888639D01*
X41502171Y-19716409D01*
X41516765Y-19624259D01*
X41530500Y-19537551D01*
X41530500Y-19356448D01*
X41514019Y-19252397D01*
X41502171Y-19177591D01*
X41446211Y-19005361D01*
X41446211Y-19005360D01*
X41386229Y-18887641D01*
X41363996Y-18844006D01*
X41350396Y-18825287D01*
X41257558Y-18697505D01*
X41257554Y-18697500D01*
X41129499Y-18569445D01*
X41129494Y-18569441D01*
X40982997Y-18463006D01*
X40982996Y-18463005D01*
X40982994Y-18463004D01*
X40926041Y-18433985D01*
X40821639Y-18380788D01*
X40821636Y-18380787D01*
X40649410Y-18324829D01*
X40489321Y-18299473D01*
X40426186Y-18269544D01*
X40389255Y-18210232D01*
X40390253Y-18140370D01*
X40428863Y-18082137D01*
X40489321Y-18054527D01*
X40559425Y-18043422D01*
X40649409Y-18029171D01*
X40821639Y-17973211D01*
X40982994Y-17890996D01*
X41129501Y-17784553D01*
X41257553Y-17656501D01*
X41363996Y-17509994D01*
X41446211Y-17348639D01*
X41502171Y-17176409D01*
X41516765Y-17084259D01*
X41530500Y-16997551D01*
X41530500Y-16816448D01*
X41514019Y-16712397D01*
X41502171Y-16637591D01*
X41462947Y-16516871D01*
X41446212Y-16465363D01*
X41446211Y-16465360D01*
X41404382Y-16383267D01*
X41363996Y-16304006D01*
X41323188Y-16247838D01*
X41257558Y-16157505D01*
X41257554Y-16157500D01*
X41129499Y-16029445D01*
X41129494Y-16029441D01*
X40982997Y-15923006D01*
X40982996Y-15923005D01*
X40982994Y-15923004D01*
X40912064Y-15886863D01*
X40821639Y-15840788D01*
X40821636Y-15840787D01*
X40649410Y-15784829D01*
X40489321Y-15759473D01*
X40426186Y-15729544D01*
X40389255Y-15670232D01*
X40390253Y-15600370D01*
X40428863Y-15542137D01*
X40489321Y-15514527D01*
X40559425Y-15503422D01*
X40649409Y-15489171D01*
X40821639Y-15433211D01*
X40982994Y-15350996D01*
X41129501Y-15244553D01*
X41257553Y-15116501D01*
X41363996Y-14969994D01*
X41446211Y-14808639D01*
X41502171Y-14636409D01*
X41522099Y-14510589D01*
X41530500Y-14457551D01*
X41530500Y-14276448D01*
X41512296Y-14161521D01*
X41502171Y-14097591D01*
X41446211Y-13925361D01*
X41446211Y-13925360D01*
X41409835Y-13853970D01*
X41363996Y-13764006D01*
X41350396Y-13745287D01*
X41257558Y-13617505D01*
X41257554Y-13617500D01*
X41129499Y-13489445D01*
X41129494Y-13489441D01*
X40982997Y-13383006D01*
X40982996Y-13383005D01*
X40982994Y-13383004D01*
X40925329Y-13353622D01*
X40821639Y-13300788D01*
X40821636Y-13300787D01*
X40649410Y-13244829D01*
X40489321Y-13219473D01*
X40426186Y-13189544D01*
X40389255Y-13130232D01*
X40390253Y-13060370D01*
X40428863Y-13002137D01*
X40489321Y-12974527D01*
X40559425Y-12963422D01*
X40649409Y-12949171D01*
X40821639Y-12893211D01*
X40982994Y-12810996D01*
X41129501Y-12704553D01*
X41257553Y-12576501D01*
X41363996Y-12429994D01*
X41446211Y-12268639D01*
X41502171Y-12096409D01*
X41521365Y-11975225D01*
X41530500Y-11917551D01*
X41530500Y-11736448D01*
X41514019Y-11632397D01*
X41502171Y-11557591D01*
X41446211Y-11385361D01*
X41446211Y-11385360D01*
X41417740Y-11329484D01*
X41363996Y-11224006D01*
X41350396Y-11205287D01*
X41257558Y-11077505D01*
X41257554Y-11077500D01*
X41129499Y-10949445D01*
X41129494Y-10949441D01*
X40982997Y-10843006D01*
X40982996Y-10843005D01*
X40982994Y-10843004D01*
X40902922Y-10802205D01*
X40821639Y-10760788D01*
X40821636Y-10760787D01*
X40649410Y-10704829D01*
X40489321Y-10679473D01*
X40426186Y-10649544D01*
X40389255Y-10590232D01*
X40390253Y-10520370D01*
X40428863Y-10462137D01*
X40489321Y-10434527D01*
X40559425Y-10423422D01*
X40649409Y-10409171D01*
X40821639Y-10353211D01*
X40982994Y-10270996D01*
X41129501Y-10164553D01*
X41257553Y-10036501D01*
X41363996Y-9889994D01*
X41446211Y-9728639D01*
X41502171Y-9556409D01*
X41516765Y-9464259D01*
X41530500Y-9377551D01*
X41530500Y-9196448D01*
X41514019Y-9092397D01*
X41502171Y-9017591D01*
X41446211Y-8845361D01*
X41446211Y-8845360D01*
X41412911Y-8780006D01*
X41363996Y-8684006D01*
X41301359Y-8597793D01*
X41257558Y-8537505D01*
X41257554Y-8537500D01*
X41129499Y-8409445D01*
X41129494Y-8409441D01*
X40982997Y-8303006D01*
X40982996Y-8303005D01*
X40982994Y-8303004D01*
X40931300Y-8276664D01*
X40821639Y-8220788D01*
X40821636Y-8220787D01*
X40649410Y-8164829D01*
X40489321Y-8139473D01*
X40426186Y-8109544D01*
X40389255Y-8050232D01*
X40390253Y-7980370D01*
X40428863Y-7922137D01*
X40489321Y-7894527D01*
X40559425Y-7883422D01*
X40649409Y-7869171D01*
X40821639Y-7813211D01*
X40982994Y-7730996D01*
X41129501Y-7624553D01*
X41257553Y-7496501D01*
X41363996Y-7349994D01*
X41446211Y-7188639D01*
X41502171Y-7016409D01*
X41516765Y-6924259D01*
X41530500Y-6837551D01*
X41530500Y-6656448D01*
X41514019Y-6552397D01*
X41502171Y-6477591D01*
X41446211Y-6305361D01*
X41446211Y-6305360D01*
X41417740Y-6249484D01*
X41363996Y-6144006D01*
X41350396Y-6125287D01*
X41257558Y-5997505D01*
X41257554Y-5997500D01*
X41129499Y-5869445D01*
X41129494Y-5869441D01*
X40982995Y-5763004D01*
X40851314Y-5695908D01*
X40800519Y-5647934D01*
X40783724Y-5580113D01*
X40806262Y-5513978D01*
X40860977Y-5470527D01*
X40869295Y-5467492D01*
X40898217Y-5458095D01*
X41087554Y-5361622D01*
X41141716Y-5322270D01*
X41141717Y-5322270D01*
X40509408Y-4689962D01*
X40572993Y-4672925D01*
X40687007Y-4607099D01*
X40780099Y-4514007D01*
X40845925Y-4399993D01*
X40862962Y-4336409D01*
X41495270Y-4968717D01*
X41495270Y-4968716D01*
X41534622Y-4914554D01*
X41631095Y-4725217D01*
X41696757Y-4523130D01*
X41696757Y-4523127D01*
X41730000Y-4313246D01*
X41730000Y-4100753D01*
X41696757Y-3890872D01*
X41696757Y-3890869D01*
X41631095Y-3688782D01*
X41534624Y-3499449D01*
X41495270Y-3445282D01*
X41495269Y-3445282D01*
X40862962Y-4077590D01*
X40845925Y-4014007D01*
X40780099Y-3899993D01*
X40687007Y-3806901D01*
X40572993Y-3741075D01*
X40509409Y-3724037D01*
X41178802Y-3054642D01*
X41240125Y-3021157D01*
X41254833Y-3022078D01*
X41254556Y-3019501D01*
X41337375Y-3010598D01*
X41472086Y-2960354D01*
X41472093Y-2960350D01*
X41587187Y-2874190D01*
X41587190Y-2874187D01*
X41673350Y-2759093D01*
X41673354Y-2759086D01*
X41723596Y-2624379D01*
X41723598Y-2624372D01*
X41729999Y-2564844D01*
X41730000Y-2564827D01*
X41730000Y-1917000D01*
X40813012Y-1917000D01*
X40845925Y-1859993D01*
X40880000Y-1732826D01*
X40880000Y-1601174D01*
X40845925Y-1474007D01*
X40813012Y-1417000D01*
X41730000Y-1417000D01*
X41730000Y-769172D01*
X41729999Y-769155D01*
X41723598Y-709627D01*
X41723596Y-709620D01*
X41673354Y-574913D01*
X41673350Y-574906D01*
X41587190Y-459812D01*
X41587187Y-459809D01*
X41472093Y-373649D01*
X41472086Y-373645D01*
X41337379Y-323403D01*
X41337372Y-323401D01*
X41277844Y-317000D01*
X40630000Y-317000D01*
X40630000Y-1233988D01*
X40572993Y-1201075D01*
X40445826Y-1167000D01*
X40314174Y-1167000D01*
X40187007Y-1201075D01*
X40130000Y-1233988D01*
X40130000Y-317000D01*
X39482155Y-317000D01*
X39422627Y-323401D01*
X39422620Y-323403D01*
X39287913Y-373645D01*
X39287906Y-373649D01*
X39172812Y-459809D01*
X39172809Y-459812D01*
X39086649Y-574906D01*
X39086645Y-574913D01*
X39036403Y-709620D01*
X39036401Y-709627D01*
X39030000Y-769155D01*
X39030000Y-1417000D01*
X39946988Y-1417000D01*
X39914075Y-1474007D01*
X39880000Y-1601174D01*
X39880000Y-1732826D01*
X39914075Y-1859993D01*
X39946988Y-1917000D01*
X39030000Y-1917000D01*
X39030000Y-2564844D01*
X39036401Y-2624372D01*
X39036403Y-2624379D01*
X39086645Y-2759086D01*
X39086649Y-2759093D01*
X39172809Y-2874187D01*
X39172812Y-2874190D01*
X39287906Y-2960350D01*
X39287913Y-2960354D01*
X39422620Y-3010596D01*
X39422619Y-3010596D01*
X39505444Y-3019501D01*
X39505116Y-3022550D01*
X39522014Y-3021642D01*
X39581196Y-3054642D01*
X40250591Y-3724037D01*
X40187007Y-3741075D01*
X40072993Y-3806901D01*
X39979901Y-3899993D01*
X39914075Y-4014007D01*
X39897037Y-4077591D01*
X39264728Y-3445282D01*
X39264727Y-3445282D01*
X39225380Y-3499439D01*
X39128904Y-3688782D01*
X39063242Y-3890869D01*
X39063242Y-3890872D01*
X39030000Y-4100753D01*
X39030000Y-4313246D01*
X39063242Y-4523127D01*
X39063242Y-4523130D01*
X39128904Y-4725217D01*
X39225375Y-4914550D01*
X39264728Y-4968716D01*
X39897037Y-4336408D01*
X39914075Y-4399993D01*
X39979901Y-4514007D01*
X40072993Y-4607099D01*
X40187007Y-4672925D01*
X40250590Y-4689962D01*
X39618282Y-5322269D01*
X39618282Y-5322270D01*
X39672449Y-5361624D01*
X39861780Y-5458094D01*
X39890705Y-5467492D01*
X39948381Y-5506929D01*
X39975580Y-5571287D01*
X39963667Y-5640134D01*
X39916424Y-5691610D01*
X39908685Y-5695908D01*
X39777004Y-5763004D01*
X39630505Y-5869441D01*
X39630500Y-5869445D01*
X39502445Y-5997500D01*
X39502441Y-5997505D01*
X39396006Y-6144002D01*
X39313788Y-6305360D01*
X39313787Y-6305363D01*
X39257829Y-6477589D01*
X39229500Y-6656448D01*
X39229500Y-6837551D01*
X39257829Y-7016410D01*
X39313787Y-7188636D01*
X39313788Y-7188639D01*
X39396006Y-7349997D01*
X39502441Y-7496494D01*
X39502445Y-7496499D01*
X39630500Y-7624554D01*
X39630505Y-7624558D01*
X39758287Y-7717396D01*
X39777006Y-7730996D01*
X39882484Y-7784740D01*
X39938360Y-7813211D01*
X39938363Y-7813212D01*
X40024476Y-7841191D01*
X40110591Y-7869171D01*
X40183639Y-7880740D01*
X40270678Y-7894527D01*
X40333813Y-7924456D01*
X40370744Y-7983768D01*
X40369746Y-8053631D01*
X40331136Y-8111863D01*
X40270678Y-8139473D01*
X40110589Y-8164829D01*
X39938363Y-8220787D01*
X39938360Y-8220788D01*
X39777002Y-8303006D01*
X39630505Y-8409441D01*
X39630500Y-8409445D01*
X39502445Y-8537500D01*
X39502441Y-8537505D01*
X39396006Y-8684002D01*
X39313788Y-8845360D01*
X39313787Y-8845363D01*
X39257829Y-9017589D01*
X39229500Y-9196448D01*
X39229500Y-9377551D01*
X39257829Y-9556410D01*
X39313787Y-9728636D01*
X39313788Y-9728639D01*
X39396006Y-9889997D01*
X39502441Y-10036494D01*
X39502445Y-10036499D01*
X39630500Y-10164554D01*
X39630505Y-10164558D01*
X39758287Y-10257396D01*
X39777006Y-10270996D01*
X39882484Y-10324740D01*
X39938360Y-10353211D01*
X39938363Y-10353212D01*
X40024476Y-10381191D01*
X40110591Y-10409171D01*
X40183639Y-10420740D01*
X40270678Y-10434527D01*
X40333813Y-10464456D01*
X40370744Y-10523768D01*
X40369746Y-10593631D01*
X40331136Y-10651863D01*
X40270678Y-10679473D01*
X40110589Y-10704829D01*
X39938363Y-10760787D01*
X39938360Y-10760788D01*
X39777002Y-10843006D01*
X39630505Y-10949441D01*
X39630500Y-10949445D01*
X39502445Y-11077500D01*
X39502441Y-11077505D01*
X39396006Y-11224002D01*
X39313788Y-11385360D01*
X39313787Y-11385363D01*
X39257829Y-11557589D01*
X39229500Y-11736448D01*
X39229500Y-11917551D01*
X39257829Y-12096410D01*
X39313787Y-12268636D01*
X39313788Y-12268639D01*
X39396006Y-12429997D01*
X39502441Y-12576494D01*
X39502445Y-12576499D01*
X39630500Y-12704554D01*
X39630505Y-12704558D01*
X39758287Y-12797396D01*
X39777006Y-12810996D01*
X39882484Y-12864740D01*
X39938360Y-12893211D01*
X39938363Y-12893212D01*
X40024476Y-12921191D01*
X40110591Y-12949171D01*
X40183639Y-12960740D01*
X40270678Y-12974527D01*
X40333813Y-13004456D01*
X40370744Y-13063768D01*
X40369746Y-13133631D01*
X40331136Y-13191863D01*
X40270678Y-13219473D01*
X40110589Y-13244829D01*
X39938363Y-13300787D01*
X39938360Y-13300788D01*
X39777002Y-13383006D01*
X39630505Y-13489441D01*
X39630500Y-13489445D01*
X39502445Y-13617500D01*
X39502441Y-13617505D01*
X39396006Y-13764002D01*
X39313788Y-13925360D01*
X39313787Y-13925363D01*
X39257829Y-14097589D01*
X39229500Y-14276448D01*
X39229500Y-14457551D01*
X39257829Y-14636410D01*
X39313787Y-14808636D01*
X39313788Y-14808639D01*
X39396006Y-14969997D01*
X39502441Y-15116494D01*
X39502445Y-15116499D01*
X39630500Y-15244554D01*
X39630505Y-15244558D01*
X39758287Y-15337396D01*
X39777006Y-15350996D01*
X39882484Y-15404740D01*
X39938360Y-15433211D01*
X39938363Y-15433212D01*
X40024476Y-15461191D01*
X40110591Y-15489171D01*
X40183639Y-15500740D01*
X40270678Y-15514527D01*
X40333813Y-15544456D01*
X40370744Y-15603768D01*
X40369746Y-15673631D01*
X40331136Y-15731863D01*
X40270678Y-15759473D01*
X40110589Y-15784829D01*
X39938363Y-15840787D01*
X39938360Y-15840788D01*
X39777002Y-15923006D01*
X39630505Y-16029441D01*
X39630500Y-16029445D01*
X39502445Y-16157500D01*
X39502441Y-16157505D01*
X39396006Y-16304002D01*
X39313788Y-16465360D01*
X39313787Y-16465363D01*
X39257829Y-16637589D01*
X39229500Y-16816448D01*
X39229500Y-16997551D01*
X39257829Y-17176410D01*
X39313787Y-17348636D01*
X39313788Y-17348639D01*
X39396006Y-17509997D01*
X39502441Y-17656494D01*
X39502445Y-17656499D01*
X39630500Y-17784554D01*
X39630505Y-17784558D01*
X39758287Y-17877396D01*
X39777006Y-17890996D01*
X39882484Y-17944740D01*
X39938360Y-17973211D01*
X39938363Y-17973212D01*
X40024476Y-18001191D01*
X40110591Y-18029171D01*
X40183639Y-18040740D01*
X40270678Y-18054527D01*
X40333813Y-18084456D01*
X40370744Y-18143768D01*
X40369746Y-18213631D01*
X40331136Y-18271863D01*
X40270678Y-18299473D01*
X40110589Y-18324829D01*
X39938363Y-18380787D01*
X39938360Y-18380788D01*
X39777002Y-18463006D01*
X39630505Y-18569441D01*
X39630500Y-18569445D01*
X39502445Y-18697500D01*
X39502441Y-18697505D01*
X39396006Y-18844002D01*
X39313788Y-19005360D01*
X39313787Y-19005363D01*
X39257829Y-19177589D01*
X39229500Y-19356448D01*
X39229500Y-19537551D01*
X39257829Y-19716410D01*
X39313787Y-19888636D01*
X39313788Y-19888639D01*
X39396006Y-20049997D01*
X39502441Y-20196494D01*
X39502445Y-20196499D01*
X39630500Y-20324554D01*
X39630505Y-20324558D01*
X39758287Y-20417396D01*
X39777006Y-20430996D01*
X39882484Y-20484740D01*
X39938360Y-20513211D01*
X39938363Y-20513212D01*
X40002421Y-20534025D01*
X40110591Y-20569171D01*
X40183639Y-20580740D01*
X40270678Y-20594527D01*
X40333813Y-20624456D01*
X40370744Y-20683768D01*
X40369746Y-20753631D01*
X40331136Y-20811863D01*
X40270678Y-20839473D01*
X40110589Y-20864829D01*
X39938363Y-20920787D01*
X39938360Y-20920788D01*
X39777002Y-21003006D01*
X39630505Y-21109441D01*
X39630500Y-21109445D01*
X39502445Y-21237500D01*
X39502441Y-21237505D01*
X39396006Y-21384002D01*
X39313788Y-21545360D01*
X39313787Y-21545363D01*
X39257829Y-21717589D01*
X39229500Y-21896448D01*
X39229500Y-22077551D01*
X39257829Y-22256410D01*
X39313787Y-22428636D01*
X39313788Y-22428639D01*
X39396006Y-22589997D01*
X39502441Y-22736494D01*
X39502445Y-22736499D01*
X39630500Y-22864554D01*
X39630505Y-22864558D01*
X39758287Y-22957396D01*
X39777006Y-22970996D01*
X39882484Y-23024740D01*
X39938360Y-23053211D01*
X39938363Y-23053212D01*
X40024476Y-23081191D01*
X40110591Y-23109171D01*
X40183639Y-23120740D01*
X40270678Y-23134527D01*
X40333813Y-23164456D01*
X40370744Y-23223768D01*
X40369746Y-23293631D01*
X40331136Y-23351863D01*
X40270678Y-23379473D01*
X40110589Y-23404829D01*
X39938363Y-23460787D01*
X39938360Y-23460788D01*
X39777002Y-23543006D01*
X39630505Y-23649441D01*
X39630500Y-23649445D01*
X39502445Y-23777500D01*
X39502441Y-23777505D01*
X39396006Y-23924002D01*
X39313788Y-24085360D01*
X39313787Y-24085363D01*
X39257829Y-24257589D01*
X39229500Y-24436448D01*
X39229500Y-24617551D01*
X39257829Y-24796410D01*
X39313787Y-24968636D01*
X39313788Y-24968639D01*
X39396006Y-25129997D01*
X39502441Y-25276494D01*
X39502445Y-25276499D01*
X39630500Y-25404554D01*
X39630505Y-25404558D01*
X39758287Y-25497396D01*
X39777006Y-25510996D01*
X39882484Y-25564740D01*
X39938360Y-25593211D01*
X39938363Y-25593212D01*
X40024476Y-25621191D01*
X40110591Y-25649171D01*
X40183639Y-25660740D01*
X40270678Y-25674527D01*
X40333813Y-25704456D01*
X40370744Y-25763768D01*
X40369746Y-25833631D01*
X40331136Y-25891863D01*
X40270678Y-25919473D01*
X40110589Y-25944829D01*
X39938363Y-26000787D01*
X39938360Y-26000788D01*
X39777002Y-26083006D01*
X39630505Y-26189441D01*
X39630500Y-26189445D01*
X39502445Y-26317500D01*
X39502441Y-26317505D01*
X39396006Y-26464002D01*
X39313788Y-26625360D01*
X39313787Y-26625363D01*
X39257829Y-26797589D01*
X39229500Y-26976448D01*
X39229500Y-27157551D01*
X39257829Y-27336410D01*
X39313787Y-27508636D01*
X39313788Y-27508639D01*
X39396006Y-27669997D01*
X39502441Y-27816494D01*
X39502445Y-27816499D01*
X39630500Y-27944554D01*
X39630505Y-27944558D01*
X39758287Y-28037396D01*
X39777006Y-28050996D01*
X39882484Y-28104740D01*
X39938360Y-28133211D01*
X39938363Y-28133212D01*
X40024476Y-28161191D01*
X40110591Y-28189171D01*
X40183639Y-28200740D01*
X40270678Y-28214527D01*
X40333813Y-28244456D01*
X40370744Y-28303768D01*
X40369746Y-28373631D01*
X40331136Y-28431863D01*
X40270678Y-28459473D01*
X40110589Y-28484829D01*
X39938363Y-28540787D01*
X39938360Y-28540788D01*
X39777002Y-28623006D01*
X39630505Y-28729441D01*
X39630500Y-28729445D01*
X39502445Y-28857500D01*
X39502441Y-28857505D01*
X39396006Y-29004001D01*
X39370299Y-29054453D01*
X39340062Y-29113796D01*
X39292090Y-29164591D01*
X39229579Y-29181500D01*
X38485488Y-29181500D01*
X38418449Y-29161815D01*
X38372694Y-29109011D01*
X38362433Y-29072780D01*
X36424060Y-13462084D01*
X36421793Y-13420757D01*
X36417180Y-13406678D01*
X36415355Y-13391977D01*
X36399797Y-13353622D01*
X36386911Y-13314290D01*
X36378811Y-13301884D01*
X36373243Y-13288156D01*
X36350854Y-13258529D01*
X36350853Y-13258527D01*
X36348287Y-13255132D01*
X36325662Y-13220477D01*
X36314627Y-13210590D01*
X36307393Y-13201017D01*
X36307388Y-13201011D01*
X36307362Y-13200976D01*
X36305696Y-13198772D01*
X36276401Y-13175949D01*
X36269875Y-13170493D01*
X36265721Y-13166772D01*
X36242220Y-13145715D01*
X36239709Y-13144443D01*
X36219526Y-13131638D01*
X36217316Y-13129916D01*
X36183115Y-13115453D01*
X36183115Y-13115452D01*
X36179176Y-13113786D01*
X36142270Y-13095096D01*
X36127774Y-13092051D01*
X36114127Y-13086281D01*
X36077349Y-13081162D01*
X36068958Y-13079700D01*
X35993091Y-13063768D01*
X35409944Y-12941307D01*
X31216716Y-12060728D01*
X31155153Y-12027686D01*
X31125243Y-11974715D01*
X31123677Y-11975225D01*
X31066212Y-11798363D01*
X31066211Y-11798360D01*
X31034668Y-11736454D01*
X30983996Y-11637006D01*
X30926298Y-11557591D01*
X30877558Y-11490505D01*
X30877554Y-11490500D01*
X30749499Y-11362445D01*
X30749494Y-11362441D01*
X30602997Y-11256006D01*
X30602996Y-11256005D01*
X30602994Y-11256004D01*
X30540187Y-11224002D01*
X30441639Y-11173788D01*
X30441636Y-11173787D01*
X30269410Y-11117829D01*
X30137728Y-11096972D01*
X30074594Y-11067042D01*
X30037663Y-11007731D01*
X30038661Y-10937868D01*
X30077271Y-10879636D01*
X30141235Y-10851522D01*
X30157120Y-10850499D01*
X30894864Y-10850499D01*
X30894879Y-10850497D01*
X30894882Y-10850497D01*
X30919987Y-10847586D01*
X30919988Y-10847585D01*
X30919991Y-10847585D01*
X31022765Y-10802206D01*
X31102206Y-10722765D01*
X31147585Y-10619991D01*
X31150500Y-10594865D01*
X31150499Y-8805136D01*
X31150497Y-8805117D01*
X31147586Y-8780012D01*
X31147585Y-8780010D01*
X31147585Y-8780009D01*
X31102206Y-8677235D01*
X31022765Y-8597794D01*
X31022763Y-8597793D01*
X30919992Y-8552415D01*
X30894865Y-8549500D01*
X29105143Y-8549500D01*
X29105117Y-8549502D01*
X29080012Y-8552413D01*
X29080008Y-8552415D01*
X28977235Y-8597793D01*
X28897794Y-8677234D01*
X28852415Y-8780006D01*
X28852415Y-8780008D01*
X28849500Y-8805131D01*
X28849500Y-10594856D01*
X28849502Y-10594882D01*
X28852413Y-10619987D01*
X28852415Y-10619991D01*
X28897793Y-10722764D01*
X28897794Y-10722765D01*
X28977235Y-10802206D01*
X29080009Y-10847585D01*
X29105135Y-10850500D01*
X29842873Y-10850499D01*
X29909910Y-10870183D01*
X29955665Y-10922987D01*
X29965609Y-10992146D01*
X29936584Y-11055702D01*
X29877806Y-11093476D01*
X29862270Y-11096972D01*
X29730589Y-11117829D01*
X29558363Y-11173787D01*
X29558360Y-11173788D01*
X29397002Y-11256006D01*
X29250505Y-11362441D01*
X29250500Y-11362445D01*
X29122445Y-11490500D01*
X29122441Y-11490505D01*
X29016006Y-11637002D01*
X28933788Y-11798360D01*
X28933787Y-11798363D01*
X28877829Y-11970589D01*
X28849500Y-12149448D01*
X28849500Y-12330551D01*
X28877829Y-12509410D01*
X28933787Y-12681636D01*
X28933788Y-12681639D01*
X29016006Y-12842997D01*
X29122441Y-12989494D01*
X29122445Y-12989499D01*
X29250500Y-13117554D01*
X29250505Y-13117558D01*
X29352778Y-13191863D01*
X29397006Y-13223996D01*
X29502484Y-13277740D01*
X29558360Y-13306211D01*
X29558363Y-13306212D01*
X29644476Y-13334191D01*
X29730591Y-13362171D01*
X29803639Y-13373740D01*
X29890678Y-13387527D01*
X29953813Y-13417456D01*
X29990744Y-13476768D01*
X29989746Y-13546631D01*
X29951136Y-13604863D01*
X29890678Y-13632473D01*
X29730589Y-13657829D01*
X29558363Y-13713787D01*
X29558360Y-13713788D01*
X29397002Y-13796006D01*
X29250505Y-13902441D01*
X29250500Y-13902445D01*
X29122445Y-14030500D01*
X29122441Y-14030505D01*
X29016006Y-14177002D01*
X28933788Y-14338360D01*
X28933787Y-14338363D01*
X28877829Y-14510589D01*
X28849500Y-14689448D01*
X28849500Y-14838138D01*
X28829815Y-14905177D01*
X28795784Y-14940295D01*
X27209934Y-16031357D01*
X27209935Y-16031358D01*
X27205888Y-16034142D01*
X27161985Y-16059491D01*
X27146414Y-16075060D01*
X27137059Y-16081497D01*
X27128261Y-16087550D01*
X27098524Y-16122401D01*
X27098525Y-16122402D01*
X27095339Y-16126135D01*
X27059491Y-16161985D01*
X27048480Y-16181054D01*
X27041105Y-16189699D01*
X27041106Y-16189699D01*
X27034184Y-16197812D01*
X27034177Y-16197822D01*
X27014478Y-16239173D01*
X27009922Y-16247838D01*
X26987016Y-16287513D01*
X26984253Y-16297825D01*
X26984252Y-16297824D01*
X26981311Y-16308796D01*
X26971842Y-16328677D01*
X26962627Y-16378525D01*
X26961357Y-16383267D01*
X26961356Y-16383272D01*
X26949500Y-16427519D01*
X26949500Y-16438188D01*
X26948492Y-16449187D01*
X26948577Y-16453286D01*
X26948116Y-16457036D01*
X26945497Y-16471211D01*
X18553590Y-16471211D01*
X18555356Y-16453286D01*
X18570058Y-16304006D01*
X18600000Y-16000000D01*
X18550042Y-15492765D01*
X18402087Y-15005023D01*
X18402085Y-15005020D01*
X18402085Y-15005018D01*
X18161824Y-14555522D01*
X18161822Y-14555520D01*
X18161821Y-14555517D01*
X17983605Y-14338360D01*
X17838478Y-14161521D01*
X17444484Y-13838180D01*
X17444477Y-13838175D01*
X16994981Y-13597914D01*
X16507233Y-13449957D01*
X16000000Y-13400000D01*
X15492766Y-13449957D01*
X15005018Y-13597914D01*
X14555522Y-13838175D01*
X14555515Y-13838180D01*
X14161521Y-14161521D01*
X13838180Y-14555515D01*
X13838175Y-14555522D01*
X13597914Y-15005018D01*
X13449957Y-15492766D01*
X13400000Y-16000000D01*
X0Y-16000000D01*
X0Y-4000000D01*
X2050000Y-4000000D01*
X2087468Y-4380424D01*
X2198436Y-4746237D01*
X2378630Y-5083356D01*
X2378634Y-5083363D01*
X2621141Y-5378858D01*
X2916636Y-5621365D01*
X2916643Y-5621369D01*
X3253762Y-5801563D01*
X3253764Y-5801563D01*
X3253767Y-5801565D01*
X3619574Y-5912531D01*
X3619573Y-5912531D01*
X3653682Y-5915890D01*
X4000000Y-5950000D01*
X4380426Y-5912531D01*
X4746233Y-5801565D01*
X5083362Y-5621366D01*
X5378858Y-5378858D01*
X5621366Y-5083362D01*
X5756797Y-4829989D01*
X5801563Y-4746237D01*
X5801563Y-4746236D01*
X5801565Y-4746233D01*
X5912531Y-4380426D01*
X5929612Y-4206999D01*
X5941754Y-4083727D01*
X5944343Y-4057432D01*
X5950000Y-4000000D01*
X5912531Y-3619574D01*
X5801565Y-3253767D01*
X5801563Y-3253764D01*
X5801563Y-3253762D01*
X5621369Y-2916643D01*
X5621365Y-2916636D01*
X5378858Y-2621141D01*
X5083363Y-2378634D01*
X5083356Y-2378630D01*
X4746237Y-2198436D01*
X4530275Y-2132925D01*
X4380426Y-2087469D01*
X4380424Y-2087468D01*
X4380426Y-2087468D01*
X4000000Y-2050000D01*
X3619575Y-2087468D01*
X3253762Y-2198436D01*
X2916643Y-2378630D01*
X2916636Y-2378634D01*
X2621141Y-2621141D01*
X2378634Y-2916636D01*
X2378630Y-2916643D01*
X2198436Y-3253762D01*
X2087468Y-3619575D01*
X2050000Y-4000000D01*
X0Y-4000000D01*
X0Y-1001526D01*
X37Y-998490D01*
X2145Y-912421D01*
X2146Y-912419D01*
X2145Y-912415D01*
X4490Y-891272D01*
X38363Y-720980D01*
X45412Y-697741D01*
X111274Y-538738D01*
X122726Y-517314D01*
X218338Y-374219D01*
X233751Y-355439D01*
X355439Y-233751D01*
X374219Y-218338D01*
X517314Y-122726D01*
X538738Y-111274D01*
X697741Y-45412D01*
X720983Y-38362D01*
X891272Y-4490D01*
X912415Y-2145D01*
X993037Y-170D01*
X998491Y-37D01*
X1001527Y0D01*
X94998473Y0D01*
X95001509Y-37D01*
G37*
%TD.AperFunction*%
%TD*%
M02*
