%TF.GenerationSoftware,KiCad,Pcbnew,9.0.4*%
%TF.CreationDate,2026-06-29T20:24:20-04:00*%
%TF.ProjectId,redbearpad,72656462-6561-4727-9061-642e6b696361,rev?*%
%TF.SameCoordinates,Original*%
%TF.FileFunction,AssemblyDrawing,Top*%
%FSLAX46Y46*%
G04 Gerber Fmt 4.6, Leading zero omitted, Abs format (unit mm)*
G04 Created by KiCad (PCBNEW 9.0.4) date 2026-06-29 20:24:20*
%MOMM*%
%LPD*%
G01*
G04 APERTURE LIST*
%ADD10C,0.150000*%
%ADD11C,0.100000*%
G04 APERTURE END LIST*
D10*
X46666667Y-48407200D02*
X46809524Y-48454819D01*
X46809524Y-48454819D02*
X47047619Y-48454819D01*
X47047619Y-48454819D02*
X47142857Y-48407200D01*
X47142857Y-48407200D02*
X47190476Y-48359580D01*
X47190476Y-48359580D02*
X47238095Y-48264342D01*
X47238095Y-48264342D02*
X47238095Y-48169104D01*
X47238095Y-48169104D02*
X47190476Y-48073866D01*
X47190476Y-48073866D02*
X47142857Y-48026247D01*
X47142857Y-48026247D02*
X47047619Y-47978628D01*
X47047619Y-47978628D02*
X46857143Y-47931009D01*
X46857143Y-47931009D02*
X46761905Y-47883390D01*
X46761905Y-47883390D02*
X46714286Y-47835771D01*
X46714286Y-47835771D02*
X46666667Y-47740533D01*
X46666667Y-47740533D02*
X46666667Y-47645295D01*
X46666667Y-47645295D02*
X46714286Y-47550057D01*
X46714286Y-47550057D02*
X46761905Y-47502438D01*
X46761905Y-47502438D02*
X46857143Y-47454819D01*
X46857143Y-47454819D02*
X47095238Y-47454819D01*
X47095238Y-47454819D02*
X47238095Y-47502438D01*
X47571429Y-47454819D02*
X47809524Y-48454819D01*
X47809524Y-48454819D02*
X48000000Y-47740533D01*
X48000000Y-47740533D02*
X48190476Y-48454819D01*
X48190476Y-48454819D02*
X48428572Y-47454819D01*
X49238095Y-47788152D02*
X49238095Y-48454819D01*
X49000000Y-47407200D02*
X48761905Y-48121485D01*
X48761905Y-48121485D02*
X49380952Y-48121485D01*
X78666667Y-48407200D02*
X78809524Y-48454819D01*
X78809524Y-48454819D02*
X79047619Y-48454819D01*
X79047619Y-48454819D02*
X79142857Y-48407200D01*
X79142857Y-48407200D02*
X79190476Y-48359580D01*
X79190476Y-48359580D02*
X79238095Y-48264342D01*
X79238095Y-48264342D02*
X79238095Y-48169104D01*
X79238095Y-48169104D02*
X79190476Y-48073866D01*
X79190476Y-48073866D02*
X79142857Y-48026247D01*
X79142857Y-48026247D02*
X79047619Y-47978628D01*
X79047619Y-47978628D02*
X78857143Y-47931009D01*
X78857143Y-47931009D02*
X78761905Y-47883390D01*
X78761905Y-47883390D02*
X78714286Y-47835771D01*
X78714286Y-47835771D02*
X78666667Y-47740533D01*
X78666667Y-47740533D02*
X78666667Y-47645295D01*
X78666667Y-47645295D02*
X78714286Y-47550057D01*
X78714286Y-47550057D02*
X78761905Y-47502438D01*
X78761905Y-47502438D02*
X78857143Y-47454819D01*
X78857143Y-47454819D02*
X79095238Y-47454819D01*
X79095238Y-47454819D02*
X79238095Y-47502438D01*
X79571429Y-47454819D02*
X79809524Y-48454819D01*
X79809524Y-48454819D02*
X80000000Y-47740533D01*
X80000000Y-47740533D02*
X80190476Y-48454819D01*
X80190476Y-48454819D02*
X80428572Y-47454819D01*
X80952381Y-47883390D02*
X80857143Y-47835771D01*
X80857143Y-47835771D02*
X80809524Y-47788152D01*
X80809524Y-47788152D02*
X80761905Y-47692914D01*
X80761905Y-47692914D02*
X80761905Y-47645295D01*
X80761905Y-47645295D02*
X80809524Y-47550057D01*
X80809524Y-47550057D02*
X80857143Y-47502438D01*
X80857143Y-47502438D02*
X80952381Y-47454819D01*
X80952381Y-47454819D02*
X81142857Y-47454819D01*
X81142857Y-47454819D02*
X81238095Y-47502438D01*
X81238095Y-47502438D02*
X81285714Y-47550057D01*
X81285714Y-47550057D02*
X81333333Y-47645295D01*
X81333333Y-47645295D02*
X81333333Y-47692914D01*
X81333333Y-47692914D02*
X81285714Y-47788152D01*
X81285714Y-47788152D02*
X81238095Y-47835771D01*
X81238095Y-47835771D02*
X81142857Y-47883390D01*
X81142857Y-47883390D02*
X80952381Y-47883390D01*
X80952381Y-47883390D02*
X80857143Y-47931009D01*
X80857143Y-47931009D02*
X80809524Y-47978628D01*
X80809524Y-47978628D02*
X80761905Y-48073866D01*
X80761905Y-48073866D02*
X80761905Y-48264342D01*
X80761905Y-48264342D02*
X80809524Y-48359580D01*
X80809524Y-48359580D02*
X80857143Y-48407200D01*
X80857143Y-48407200D02*
X80952381Y-48454819D01*
X80952381Y-48454819D02*
X81142857Y-48454819D01*
X81142857Y-48454819D02*
X81238095Y-48407200D01*
X81238095Y-48407200D02*
X81285714Y-48359580D01*
X81285714Y-48359580D02*
X81333333Y-48264342D01*
X81333333Y-48264342D02*
X81333333Y-48073866D01*
X81333333Y-48073866D02*
X81285714Y-47978628D01*
X81285714Y-47978628D02*
X81238095Y-47931009D01*
X81238095Y-47931009D02*
X81142857Y-47883390D01*
X78190476Y-16407200D02*
X78333333Y-16454819D01*
X78333333Y-16454819D02*
X78571428Y-16454819D01*
X78571428Y-16454819D02*
X78666666Y-16407200D01*
X78666666Y-16407200D02*
X78714285Y-16359580D01*
X78714285Y-16359580D02*
X78761904Y-16264342D01*
X78761904Y-16264342D02*
X78761904Y-16169104D01*
X78761904Y-16169104D02*
X78714285Y-16073866D01*
X78714285Y-16073866D02*
X78666666Y-16026247D01*
X78666666Y-16026247D02*
X78571428Y-15978628D01*
X78571428Y-15978628D02*
X78380952Y-15931009D01*
X78380952Y-15931009D02*
X78285714Y-15883390D01*
X78285714Y-15883390D02*
X78238095Y-15835771D01*
X78238095Y-15835771D02*
X78190476Y-15740533D01*
X78190476Y-15740533D02*
X78190476Y-15645295D01*
X78190476Y-15645295D02*
X78238095Y-15550057D01*
X78238095Y-15550057D02*
X78285714Y-15502438D01*
X78285714Y-15502438D02*
X78380952Y-15454819D01*
X78380952Y-15454819D02*
X78619047Y-15454819D01*
X78619047Y-15454819D02*
X78761904Y-15502438D01*
X79095238Y-15454819D02*
X79333333Y-16454819D01*
X79333333Y-16454819D02*
X79523809Y-15740533D01*
X79523809Y-15740533D02*
X79714285Y-16454819D01*
X79714285Y-16454819D02*
X79952381Y-15454819D01*
X80857142Y-16454819D02*
X80285714Y-16454819D01*
X80571428Y-16454819D02*
X80571428Y-15454819D01*
X80571428Y-15454819D02*
X80476190Y-15597676D01*
X80476190Y-15597676D02*
X80380952Y-15692914D01*
X80380952Y-15692914D02*
X80285714Y-15740533D01*
X81476190Y-15454819D02*
X81571428Y-15454819D01*
X81571428Y-15454819D02*
X81666666Y-15502438D01*
X81666666Y-15502438D02*
X81714285Y-15550057D01*
X81714285Y-15550057D02*
X81761904Y-15645295D01*
X81761904Y-15645295D02*
X81809523Y-15835771D01*
X81809523Y-15835771D02*
X81809523Y-16073866D01*
X81809523Y-16073866D02*
X81761904Y-16264342D01*
X81761904Y-16264342D02*
X81714285Y-16359580D01*
X81714285Y-16359580D02*
X81666666Y-16407200D01*
X81666666Y-16407200D02*
X81571428Y-16454819D01*
X81571428Y-16454819D02*
X81476190Y-16454819D01*
X81476190Y-16454819D02*
X81380952Y-16407200D01*
X81380952Y-16407200D02*
X81333333Y-16359580D01*
X81333333Y-16359580D02*
X81285714Y-16264342D01*
X81285714Y-16264342D02*
X81238095Y-16073866D01*
X81238095Y-16073866D02*
X81238095Y-15835771D01*
X81238095Y-15835771D02*
X81285714Y-15645295D01*
X81285714Y-15645295D02*
X81333333Y-15550057D01*
X81333333Y-15550057D02*
X81380952Y-15502438D01*
X81380952Y-15502438D02*
X81476190Y-15454819D01*
X30666667Y-32407200D02*
X30809524Y-32454819D01*
X30809524Y-32454819D02*
X31047619Y-32454819D01*
X31047619Y-32454819D02*
X31142857Y-32407200D01*
X31142857Y-32407200D02*
X31190476Y-32359580D01*
X31190476Y-32359580D02*
X31238095Y-32264342D01*
X31238095Y-32264342D02*
X31238095Y-32169104D01*
X31238095Y-32169104D02*
X31190476Y-32073866D01*
X31190476Y-32073866D02*
X31142857Y-32026247D01*
X31142857Y-32026247D02*
X31047619Y-31978628D01*
X31047619Y-31978628D02*
X30857143Y-31931009D01*
X30857143Y-31931009D02*
X30761905Y-31883390D01*
X30761905Y-31883390D02*
X30714286Y-31835771D01*
X30714286Y-31835771D02*
X30666667Y-31740533D01*
X30666667Y-31740533D02*
X30666667Y-31645295D01*
X30666667Y-31645295D02*
X30714286Y-31550057D01*
X30714286Y-31550057D02*
X30761905Y-31502438D01*
X30761905Y-31502438D02*
X30857143Y-31454819D01*
X30857143Y-31454819D02*
X31095238Y-31454819D01*
X31095238Y-31454819D02*
X31238095Y-31502438D01*
X31571429Y-31454819D02*
X31809524Y-32454819D01*
X31809524Y-32454819D02*
X32000000Y-31740533D01*
X32000000Y-31740533D02*
X32190476Y-32454819D01*
X32190476Y-32454819D02*
X32428572Y-31454819D01*
X33333333Y-32454819D02*
X32761905Y-32454819D01*
X33047619Y-32454819D02*
X33047619Y-31454819D01*
X33047619Y-31454819D02*
X32952381Y-31597676D01*
X32952381Y-31597676D02*
X32857143Y-31692914D01*
X32857143Y-31692914D02*
X32761905Y-31740533D01*
X30666667Y-48407200D02*
X30809524Y-48454819D01*
X30809524Y-48454819D02*
X31047619Y-48454819D01*
X31047619Y-48454819D02*
X31142857Y-48407200D01*
X31142857Y-48407200D02*
X31190476Y-48359580D01*
X31190476Y-48359580D02*
X31238095Y-48264342D01*
X31238095Y-48264342D02*
X31238095Y-48169104D01*
X31238095Y-48169104D02*
X31190476Y-48073866D01*
X31190476Y-48073866D02*
X31142857Y-48026247D01*
X31142857Y-48026247D02*
X31047619Y-47978628D01*
X31047619Y-47978628D02*
X30857143Y-47931009D01*
X30857143Y-47931009D02*
X30761905Y-47883390D01*
X30761905Y-47883390D02*
X30714286Y-47835771D01*
X30714286Y-47835771D02*
X30666667Y-47740533D01*
X30666667Y-47740533D02*
X30666667Y-47645295D01*
X30666667Y-47645295D02*
X30714286Y-47550057D01*
X30714286Y-47550057D02*
X30761905Y-47502438D01*
X30761905Y-47502438D02*
X30857143Y-47454819D01*
X30857143Y-47454819D02*
X31095238Y-47454819D01*
X31095238Y-47454819D02*
X31238095Y-47502438D01*
X31571429Y-47454819D02*
X31809524Y-48454819D01*
X31809524Y-48454819D02*
X32000000Y-47740533D01*
X32000000Y-47740533D02*
X32190476Y-48454819D01*
X32190476Y-48454819D02*
X32428572Y-47454819D01*
X32761905Y-47550057D02*
X32809524Y-47502438D01*
X32809524Y-47502438D02*
X32904762Y-47454819D01*
X32904762Y-47454819D02*
X33142857Y-47454819D01*
X33142857Y-47454819D02*
X33238095Y-47502438D01*
X33238095Y-47502438D02*
X33285714Y-47550057D01*
X33285714Y-47550057D02*
X33333333Y-47645295D01*
X33333333Y-47645295D02*
X33333333Y-47740533D01*
X33333333Y-47740533D02*
X33285714Y-47883390D01*
X33285714Y-47883390D02*
X32714286Y-48454819D01*
X32714286Y-48454819D02*
X33333333Y-48454819D01*
X14666667Y-16407200D02*
X14809524Y-16454819D01*
X14809524Y-16454819D02*
X15047619Y-16454819D01*
X15047619Y-16454819D02*
X15142857Y-16407200D01*
X15142857Y-16407200D02*
X15190476Y-16359580D01*
X15190476Y-16359580D02*
X15238095Y-16264342D01*
X15238095Y-16264342D02*
X15238095Y-16169104D01*
X15238095Y-16169104D02*
X15190476Y-16073866D01*
X15190476Y-16073866D02*
X15142857Y-16026247D01*
X15142857Y-16026247D02*
X15047619Y-15978628D01*
X15047619Y-15978628D02*
X14857143Y-15931009D01*
X14857143Y-15931009D02*
X14761905Y-15883390D01*
X14761905Y-15883390D02*
X14714286Y-15835771D01*
X14714286Y-15835771D02*
X14666667Y-15740533D01*
X14666667Y-15740533D02*
X14666667Y-15645295D01*
X14666667Y-15645295D02*
X14714286Y-15550057D01*
X14714286Y-15550057D02*
X14761905Y-15502438D01*
X14761905Y-15502438D02*
X14857143Y-15454819D01*
X14857143Y-15454819D02*
X15095238Y-15454819D01*
X15095238Y-15454819D02*
X15238095Y-15502438D01*
X15571429Y-15454819D02*
X15809524Y-16454819D01*
X15809524Y-16454819D02*
X16000000Y-15740533D01*
X16000000Y-15740533D02*
X16190476Y-16454819D01*
X16190476Y-16454819D02*
X16428572Y-15454819D01*
X16857143Y-16454819D02*
X17047619Y-16454819D01*
X17047619Y-16454819D02*
X17142857Y-16407200D01*
X17142857Y-16407200D02*
X17190476Y-16359580D01*
X17190476Y-16359580D02*
X17285714Y-16216723D01*
X17285714Y-16216723D02*
X17333333Y-16026247D01*
X17333333Y-16026247D02*
X17333333Y-15645295D01*
X17333333Y-15645295D02*
X17285714Y-15550057D01*
X17285714Y-15550057D02*
X17238095Y-15502438D01*
X17238095Y-15502438D02*
X17142857Y-15454819D01*
X17142857Y-15454819D02*
X16952381Y-15454819D01*
X16952381Y-15454819D02*
X16857143Y-15502438D01*
X16857143Y-15502438D02*
X16809524Y-15550057D01*
X16809524Y-15550057D02*
X16761905Y-15645295D01*
X16761905Y-15645295D02*
X16761905Y-15883390D01*
X16761905Y-15883390D02*
X16809524Y-15978628D01*
X16809524Y-15978628D02*
X16857143Y-16026247D01*
X16857143Y-16026247D02*
X16952381Y-16073866D01*
X16952381Y-16073866D02*
X17142857Y-16073866D01*
X17142857Y-16073866D02*
X17238095Y-16026247D01*
X17238095Y-16026247D02*
X17285714Y-15978628D01*
X17285714Y-15978628D02*
X17333333Y-15883390D01*
X62666667Y-32407200D02*
X62809524Y-32454819D01*
X62809524Y-32454819D02*
X63047619Y-32454819D01*
X63047619Y-32454819D02*
X63142857Y-32407200D01*
X63142857Y-32407200D02*
X63190476Y-32359580D01*
X63190476Y-32359580D02*
X63238095Y-32264342D01*
X63238095Y-32264342D02*
X63238095Y-32169104D01*
X63238095Y-32169104D02*
X63190476Y-32073866D01*
X63190476Y-32073866D02*
X63142857Y-32026247D01*
X63142857Y-32026247D02*
X63047619Y-31978628D01*
X63047619Y-31978628D02*
X62857143Y-31931009D01*
X62857143Y-31931009D02*
X62761905Y-31883390D01*
X62761905Y-31883390D02*
X62714286Y-31835771D01*
X62714286Y-31835771D02*
X62666667Y-31740533D01*
X62666667Y-31740533D02*
X62666667Y-31645295D01*
X62666667Y-31645295D02*
X62714286Y-31550057D01*
X62714286Y-31550057D02*
X62761905Y-31502438D01*
X62761905Y-31502438D02*
X62857143Y-31454819D01*
X62857143Y-31454819D02*
X63095238Y-31454819D01*
X63095238Y-31454819D02*
X63238095Y-31502438D01*
X63571429Y-31454819D02*
X63809524Y-32454819D01*
X63809524Y-32454819D02*
X64000000Y-31740533D01*
X64000000Y-31740533D02*
X64190476Y-32454819D01*
X64190476Y-32454819D02*
X64428572Y-31454819D01*
X65285714Y-31454819D02*
X64809524Y-31454819D01*
X64809524Y-31454819D02*
X64761905Y-31931009D01*
X64761905Y-31931009D02*
X64809524Y-31883390D01*
X64809524Y-31883390D02*
X64904762Y-31835771D01*
X64904762Y-31835771D02*
X65142857Y-31835771D01*
X65142857Y-31835771D02*
X65238095Y-31883390D01*
X65238095Y-31883390D02*
X65285714Y-31931009D01*
X65285714Y-31931009D02*
X65333333Y-32026247D01*
X65333333Y-32026247D02*
X65333333Y-32264342D01*
X65333333Y-32264342D02*
X65285714Y-32359580D01*
X65285714Y-32359580D02*
X65238095Y-32407200D01*
X65238095Y-32407200D02*
X65142857Y-32454819D01*
X65142857Y-32454819D02*
X64904762Y-32454819D01*
X64904762Y-32454819D02*
X64809524Y-32407200D01*
X64809524Y-32407200D02*
X64761905Y-32359580D01*
X78666667Y-32407200D02*
X78809524Y-32454819D01*
X78809524Y-32454819D02*
X79047619Y-32454819D01*
X79047619Y-32454819D02*
X79142857Y-32407200D01*
X79142857Y-32407200D02*
X79190476Y-32359580D01*
X79190476Y-32359580D02*
X79238095Y-32264342D01*
X79238095Y-32264342D02*
X79238095Y-32169104D01*
X79238095Y-32169104D02*
X79190476Y-32073866D01*
X79190476Y-32073866D02*
X79142857Y-32026247D01*
X79142857Y-32026247D02*
X79047619Y-31978628D01*
X79047619Y-31978628D02*
X78857143Y-31931009D01*
X78857143Y-31931009D02*
X78761905Y-31883390D01*
X78761905Y-31883390D02*
X78714286Y-31835771D01*
X78714286Y-31835771D02*
X78666667Y-31740533D01*
X78666667Y-31740533D02*
X78666667Y-31645295D01*
X78666667Y-31645295D02*
X78714286Y-31550057D01*
X78714286Y-31550057D02*
X78761905Y-31502438D01*
X78761905Y-31502438D02*
X78857143Y-31454819D01*
X78857143Y-31454819D02*
X79095238Y-31454819D01*
X79095238Y-31454819D02*
X79238095Y-31502438D01*
X79571429Y-31454819D02*
X79809524Y-32454819D01*
X79809524Y-32454819D02*
X80000000Y-31740533D01*
X80000000Y-31740533D02*
X80190476Y-32454819D01*
X80190476Y-32454819D02*
X80428572Y-31454819D01*
X81238095Y-31454819D02*
X81047619Y-31454819D01*
X81047619Y-31454819D02*
X80952381Y-31502438D01*
X80952381Y-31502438D02*
X80904762Y-31550057D01*
X80904762Y-31550057D02*
X80809524Y-31692914D01*
X80809524Y-31692914D02*
X80761905Y-31883390D01*
X80761905Y-31883390D02*
X80761905Y-32264342D01*
X80761905Y-32264342D02*
X80809524Y-32359580D01*
X80809524Y-32359580D02*
X80857143Y-32407200D01*
X80857143Y-32407200D02*
X80952381Y-32454819D01*
X80952381Y-32454819D02*
X81142857Y-32454819D01*
X81142857Y-32454819D02*
X81238095Y-32407200D01*
X81238095Y-32407200D02*
X81285714Y-32359580D01*
X81285714Y-32359580D02*
X81333333Y-32264342D01*
X81333333Y-32264342D02*
X81333333Y-32026247D01*
X81333333Y-32026247D02*
X81285714Y-31931009D01*
X81285714Y-31931009D02*
X81238095Y-31883390D01*
X81238095Y-31883390D02*
X81142857Y-31835771D01*
X81142857Y-31835771D02*
X80952381Y-31835771D01*
X80952381Y-31835771D02*
X80857143Y-31883390D01*
X80857143Y-31883390D02*
X80809524Y-31931009D01*
X80809524Y-31931009D02*
X80761905Y-32026247D01*
X14666667Y-48407200D02*
X14809524Y-48454819D01*
X14809524Y-48454819D02*
X15047619Y-48454819D01*
X15047619Y-48454819D02*
X15142857Y-48407200D01*
X15142857Y-48407200D02*
X15190476Y-48359580D01*
X15190476Y-48359580D02*
X15238095Y-48264342D01*
X15238095Y-48264342D02*
X15238095Y-48169104D01*
X15238095Y-48169104D02*
X15190476Y-48073866D01*
X15190476Y-48073866D02*
X15142857Y-48026247D01*
X15142857Y-48026247D02*
X15047619Y-47978628D01*
X15047619Y-47978628D02*
X14857143Y-47931009D01*
X14857143Y-47931009D02*
X14761905Y-47883390D01*
X14761905Y-47883390D02*
X14714286Y-47835771D01*
X14714286Y-47835771D02*
X14666667Y-47740533D01*
X14666667Y-47740533D02*
X14666667Y-47645295D01*
X14666667Y-47645295D02*
X14714286Y-47550057D01*
X14714286Y-47550057D02*
X14761905Y-47502438D01*
X14761905Y-47502438D02*
X14857143Y-47454819D01*
X14857143Y-47454819D02*
X15095238Y-47454819D01*
X15095238Y-47454819D02*
X15238095Y-47502438D01*
X15571429Y-47454819D02*
X15809524Y-48454819D01*
X15809524Y-48454819D02*
X16000000Y-47740533D01*
X16000000Y-47740533D02*
X16190476Y-48454819D01*
X16190476Y-48454819D02*
X16428572Y-47454819D01*
X16714286Y-47454819D02*
X17333333Y-47454819D01*
X17333333Y-47454819D02*
X17000000Y-47835771D01*
X17000000Y-47835771D02*
X17142857Y-47835771D01*
X17142857Y-47835771D02*
X17238095Y-47883390D01*
X17238095Y-47883390D02*
X17285714Y-47931009D01*
X17285714Y-47931009D02*
X17333333Y-48026247D01*
X17333333Y-48026247D02*
X17333333Y-48264342D01*
X17333333Y-48264342D02*
X17285714Y-48359580D01*
X17285714Y-48359580D02*
X17238095Y-48407200D01*
X17238095Y-48407200D02*
X17142857Y-48454819D01*
X17142857Y-48454819D02*
X16857143Y-48454819D01*
X16857143Y-48454819D02*
X16761905Y-48407200D01*
X16761905Y-48407200D02*
X16714286Y-48359580D01*
X62666667Y-48407200D02*
X62809524Y-48454819D01*
X62809524Y-48454819D02*
X63047619Y-48454819D01*
X63047619Y-48454819D02*
X63142857Y-48407200D01*
X63142857Y-48407200D02*
X63190476Y-48359580D01*
X63190476Y-48359580D02*
X63238095Y-48264342D01*
X63238095Y-48264342D02*
X63238095Y-48169104D01*
X63238095Y-48169104D02*
X63190476Y-48073866D01*
X63190476Y-48073866D02*
X63142857Y-48026247D01*
X63142857Y-48026247D02*
X63047619Y-47978628D01*
X63047619Y-47978628D02*
X62857143Y-47931009D01*
X62857143Y-47931009D02*
X62761905Y-47883390D01*
X62761905Y-47883390D02*
X62714286Y-47835771D01*
X62714286Y-47835771D02*
X62666667Y-47740533D01*
X62666667Y-47740533D02*
X62666667Y-47645295D01*
X62666667Y-47645295D02*
X62714286Y-47550057D01*
X62714286Y-47550057D02*
X62761905Y-47502438D01*
X62761905Y-47502438D02*
X62857143Y-47454819D01*
X62857143Y-47454819D02*
X63095238Y-47454819D01*
X63095238Y-47454819D02*
X63238095Y-47502438D01*
X63571429Y-47454819D02*
X63809524Y-48454819D01*
X63809524Y-48454819D02*
X64000000Y-47740533D01*
X64000000Y-47740533D02*
X64190476Y-48454819D01*
X64190476Y-48454819D02*
X64428572Y-47454819D01*
X64714286Y-47454819D02*
X65380952Y-47454819D01*
X65380952Y-47454819D02*
X64952381Y-48454819D01*
D11*
%TO.C,SW4*%
X41000000Y-41000000D02*
X41000000Y-55000000D01*
X41000000Y-55000000D02*
X55000000Y-55000000D01*
X55000000Y-41000000D02*
X41000000Y-41000000D01*
X55000000Y-55000000D02*
X55000000Y-41000000D01*
%TO.C,SW8*%
X73000000Y-41000000D02*
X73000000Y-55000000D01*
X73000000Y-55000000D02*
X87000000Y-55000000D01*
X87000000Y-41000000D02*
X73000000Y-41000000D01*
X87000000Y-55000000D02*
X87000000Y-41000000D01*
%TO.C,SW10*%
X73000000Y-9000000D02*
X73000000Y-23000000D01*
X73000000Y-23000000D02*
X87000000Y-23000000D01*
X87000000Y-9000000D02*
X73000000Y-9000000D01*
X87000000Y-23000000D02*
X87000000Y-9000000D01*
%TO.C,SW1*%
X25000000Y-25000000D02*
X25000000Y-39000000D01*
X25000000Y-39000000D02*
X39000000Y-39000000D01*
X39000000Y-25000000D02*
X25000000Y-25000000D01*
X39000000Y-39000000D02*
X39000000Y-25000000D01*
%TO.C,SW2*%
X25000000Y-41000000D02*
X25000000Y-55000000D01*
X25000000Y-55000000D02*
X39000000Y-55000000D01*
X39000000Y-41000000D02*
X25000000Y-41000000D01*
X39000000Y-55000000D02*
X39000000Y-41000000D01*
%TO.C,SW9*%
X9000000Y-9000000D02*
X9000000Y-23000000D01*
X9000000Y-23000000D02*
X23000000Y-23000000D01*
X23000000Y-9000000D02*
X9000000Y-9000000D01*
X23000000Y-23000000D02*
X23000000Y-9000000D01*
%TO.C,SW5*%
X57000000Y-25000000D02*
X57000000Y-39000000D01*
X57000000Y-39000000D02*
X71000000Y-39000000D01*
X71000000Y-25000000D02*
X57000000Y-25000000D01*
X71000000Y-39000000D02*
X71000000Y-25000000D01*
%TO.C,SW6*%
X73000000Y-25000000D02*
X73000000Y-39000000D01*
X73000000Y-39000000D02*
X87000000Y-39000000D01*
X87000000Y-25000000D02*
X73000000Y-25000000D01*
X87000000Y-39000000D02*
X87000000Y-25000000D01*
%TO.C,SW3*%
X9000000Y-41000000D02*
X9000000Y-55000000D01*
X9000000Y-55000000D02*
X23000000Y-55000000D01*
X23000000Y-41000000D02*
X9000000Y-41000000D01*
X23000000Y-55000000D02*
X23000000Y-41000000D01*
%TO.C,SW7*%
X57000000Y-41000000D02*
X57000000Y-55000000D01*
X57000000Y-55000000D02*
X71000000Y-55000000D01*
X71000000Y-41000000D02*
X57000000Y-41000000D01*
X71000000Y-55000000D02*
X71000000Y-41000000D01*
%TD*%
M02*
