%TF.GenerationSoftware,KiCad,Pcbnew,9.0.4*%
%TF.CreationDate,2026-06-29T20:24:19-04:00*%
%TF.ProjectId,redbearpad,72656462-6561-4727-9061-642e6b696361,rev?*%
%TF.SameCoordinates,Original*%
%TF.FileFunction,Other,ECO1*%
%FSLAX46Y46*%
G04 Gerber Fmt 4.6, Leading zero omitted, Abs format (unit mm)*
G04 Created by KiCad (PCBNEW 9.0.4) date 2026-06-29 20:24:19*
%MOMM*%
%LPD*%
G01*
G04 APERTURE LIST*
%ADD10C,0.100000*%
G04 APERTURE END LIST*
D10*
%TO.C,SW4*%
X41000000Y-41000000D02*
X41000000Y-55000000D01*
X41000000Y-55000000D02*
X55000000Y-55000000D01*
X55000000Y-41000000D02*
X41000000Y-41000000D01*
X55000000Y-55000000D02*
X55000000Y-41000000D01*
%TO.C,SW8*%
X73000000Y-41000000D02*
X73000000Y-55000000D01*
X73000000Y-55000000D02*
X87000000Y-55000000D01*
X87000000Y-41000000D02*
X73000000Y-41000000D01*
X87000000Y-55000000D02*
X87000000Y-41000000D01*
%TO.C,SW10*%
X73000000Y-9000000D02*
X73000000Y-23000000D01*
X73000000Y-23000000D02*
X87000000Y-23000000D01*
X87000000Y-9000000D02*
X73000000Y-9000000D01*
X87000000Y-23000000D02*
X87000000Y-9000000D01*
%TO.C,SW1*%
X25000000Y-25000000D02*
X25000000Y-39000000D01*
X25000000Y-39000000D02*
X39000000Y-39000000D01*
X39000000Y-25000000D02*
X25000000Y-25000000D01*
X39000000Y-39000000D02*
X39000000Y-25000000D01*
%TO.C,SW2*%
X25000000Y-41000000D02*
X25000000Y-55000000D01*
X25000000Y-55000000D02*
X39000000Y-55000000D01*
X39000000Y-41000000D02*
X25000000Y-41000000D01*
X39000000Y-55000000D02*
X39000000Y-41000000D01*
%TO.C,SW9*%
X9000000Y-9000000D02*
X9000000Y-23000000D01*
X9000000Y-23000000D02*
X23000000Y-23000000D01*
X23000000Y-9000000D02*
X9000000Y-9000000D01*
X23000000Y-23000000D02*
X23000000Y-9000000D01*
%TO.C,SW5*%
X57000000Y-25000000D02*
X57000000Y-39000000D01*
X57000000Y-39000000D02*
X71000000Y-39000000D01*
X71000000Y-25000000D02*
X57000000Y-25000000D01*
X71000000Y-39000000D02*
X71000000Y-25000000D01*
%TO.C,SW6*%
X73000000Y-25000000D02*
X73000000Y-39000000D01*
X73000000Y-39000000D02*
X87000000Y-39000000D01*
X87000000Y-25000000D02*
X73000000Y-25000000D01*
X87000000Y-39000000D02*
X87000000Y-25000000D01*
%TO.C,SW3*%
X9000000Y-41000000D02*
X9000000Y-55000000D01*
X9000000Y-55000000D02*
X23000000Y-55000000D01*
X23000000Y-41000000D02*
X9000000Y-41000000D01*
X23000000Y-55000000D02*
X23000000Y-41000000D01*
%TO.C,SW7*%
X57000000Y-41000000D02*
X57000000Y-55000000D01*
X57000000Y-55000000D02*
X71000000Y-55000000D01*
X71000000Y-41000000D02*
X57000000Y-41000000D01*
X71000000Y-55000000D02*
X71000000Y-41000000D01*
%TD*%
M02*
