%TF.GenerationSoftware,KiCad,Pcbnew,9.0.4*%
%TF.CreationDate,2026-06-12T22:07:42-04:00*%
%TF.ProjectId,redbearpad,72656462-6561-4727-9061-642e6b696361,rev?*%
%TF.SameCoordinates,Original*%
%TF.FileFunction,Legend,Top*%
%TF.FilePolarity,Positive*%
%FSLAX46Y46*%
G04 Gerber Fmt 4.6, Leading zero omitted, Abs format (unit mm)*
G04 Created by KiCad (PCBNEW 9.0.4) date 2026-06-12 22:07:42*
%MOMM*%
%LPD*%
G01*
G04 APERTURE LIST*
%ADD10C,0.200000*%
%ADD11C,0.150000*%
%ADD12C,0.120000*%
%ADD13C,3.100000*%
%ADD14R,1.700000X1.700000*%
%ADD15C,1.700000*%
%ADD16C,4.400000*%
G04 APERTURE END LIST*
D10*
X25314286Y-9248814D02*
X25228572Y-9205957D01*
X25228572Y-9205957D02*
X25100000Y-9205957D01*
X25100000Y-9205957D02*
X24971429Y-9248814D01*
X24971429Y-9248814D02*
X24885714Y-9334528D01*
X24885714Y-9334528D02*
X24842857Y-9420242D01*
X24842857Y-9420242D02*
X24800000Y-9591671D01*
X24800000Y-9591671D02*
X24800000Y-9720242D01*
X24800000Y-9720242D02*
X24842857Y-9891671D01*
X24842857Y-9891671D02*
X24885714Y-9977385D01*
X24885714Y-9977385D02*
X24971429Y-10063100D01*
X24971429Y-10063100D02*
X25100000Y-10105957D01*
X25100000Y-10105957D02*
X25185714Y-10105957D01*
X25185714Y-10105957D02*
X25314286Y-10063100D01*
X25314286Y-10063100D02*
X25357143Y-10020242D01*
X25357143Y-10020242D02*
X25357143Y-9720242D01*
X25357143Y-9720242D02*
X25185714Y-9720242D01*
X25742857Y-10105957D02*
X25742857Y-9205957D01*
X25742857Y-9205957D02*
X26257143Y-10105957D01*
X26257143Y-10105957D02*
X26257143Y-9205957D01*
X26685714Y-10105957D02*
X26685714Y-9205957D01*
X26685714Y-9205957D02*
X26900000Y-9205957D01*
X26900000Y-9205957D02*
X27028571Y-9248814D01*
X27028571Y-9248814D02*
X27114286Y-9334528D01*
X27114286Y-9334528D02*
X27157143Y-9420242D01*
X27157143Y-9420242D02*
X27200000Y-9591671D01*
X27200000Y-9591671D02*
X27200000Y-9720242D01*
X27200000Y-9720242D02*
X27157143Y-9891671D01*
X27157143Y-9891671D02*
X27114286Y-9977385D01*
X27114286Y-9977385D02*
X27028571Y-10063100D01*
X27028571Y-10063100D02*
X26900000Y-10105957D01*
X26900000Y-10105957D02*
X26685714Y-10105957D01*
X30666667Y-24204600D02*
X30809524Y-24252219D01*
X30809524Y-24252219D02*
X31047619Y-24252219D01*
X31047619Y-24252219D02*
X31142857Y-24204600D01*
X31142857Y-24204600D02*
X31190476Y-24156980D01*
X31190476Y-24156980D02*
X31238095Y-24061742D01*
X31238095Y-24061742D02*
X31238095Y-23966504D01*
X31238095Y-23966504D02*
X31190476Y-23871266D01*
X31190476Y-23871266D02*
X31142857Y-23823647D01*
X31142857Y-23823647D02*
X31047619Y-23776028D01*
X31047619Y-23776028D02*
X30857143Y-23728409D01*
X30857143Y-23728409D02*
X30761905Y-23680790D01*
X30761905Y-23680790D02*
X30714286Y-23633171D01*
X30714286Y-23633171D02*
X30666667Y-23537933D01*
X30666667Y-23537933D02*
X30666667Y-23442695D01*
X30666667Y-23442695D02*
X30714286Y-23347457D01*
X30714286Y-23347457D02*
X30761905Y-23299838D01*
X30761905Y-23299838D02*
X30857143Y-23252219D01*
X30857143Y-23252219D02*
X31095238Y-23252219D01*
X31095238Y-23252219D02*
X31238095Y-23299838D01*
X31571429Y-23252219D02*
X31809524Y-24252219D01*
X31809524Y-24252219D02*
X32000000Y-23537933D01*
X32000000Y-23537933D02*
X32190476Y-24252219D01*
X32190476Y-24252219D02*
X32428572Y-23252219D01*
X32761905Y-23347457D02*
X32809524Y-23299838D01*
X32809524Y-23299838D02*
X32904762Y-23252219D01*
X32904762Y-23252219D02*
X33142857Y-23252219D01*
X33142857Y-23252219D02*
X33238095Y-23299838D01*
X33238095Y-23299838D02*
X33285714Y-23347457D01*
X33285714Y-23347457D02*
X33333333Y-23442695D01*
X33333333Y-23442695D02*
X33333333Y-23537933D01*
X33333333Y-23537933D02*
X33285714Y-23680790D01*
X33285714Y-23680790D02*
X32714286Y-24252219D01*
X32714286Y-24252219D02*
X33333333Y-24252219D01*
X75166667Y-40404600D02*
X75309524Y-40452219D01*
X75309524Y-40452219D02*
X75547619Y-40452219D01*
X75547619Y-40452219D02*
X75642857Y-40404600D01*
X75642857Y-40404600D02*
X75690476Y-40356980D01*
X75690476Y-40356980D02*
X75738095Y-40261742D01*
X75738095Y-40261742D02*
X75738095Y-40166504D01*
X75738095Y-40166504D02*
X75690476Y-40071266D01*
X75690476Y-40071266D02*
X75642857Y-40023647D01*
X75642857Y-40023647D02*
X75547619Y-39976028D01*
X75547619Y-39976028D02*
X75357143Y-39928409D01*
X75357143Y-39928409D02*
X75261905Y-39880790D01*
X75261905Y-39880790D02*
X75214286Y-39833171D01*
X75214286Y-39833171D02*
X75166667Y-39737933D01*
X75166667Y-39737933D02*
X75166667Y-39642695D01*
X75166667Y-39642695D02*
X75214286Y-39547457D01*
X75214286Y-39547457D02*
X75261905Y-39499838D01*
X75261905Y-39499838D02*
X75357143Y-39452219D01*
X75357143Y-39452219D02*
X75595238Y-39452219D01*
X75595238Y-39452219D02*
X75738095Y-39499838D01*
X76071429Y-39452219D02*
X76309524Y-40452219D01*
X76309524Y-40452219D02*
X76500000Y-39737933D01*
X76500000Y-39737933D02*
X76690476Y-40452219D01*
X76690476Y-40452219D02*
X76928572Y-39452219D01*
X77452381Y-39880790D02*
X77357143Y-39833171D01*
X77357143Y-39833171D02*
X77309524Y-39785552D01*
X77309524Y-39785552D02*
X77261905Y-39690314D01*
X77261905Y-39690314D02*
X77261905Y-39642695D01*
X77261905Y-39642695D02*
X77309524Y-39547457D01*
X77309524Y-39547457D02*
X77357143Y-39499838D01*
X77357143Y-39499838D02*
X77452381Y-39452219D01*
X77452381Y-39452219D02*
X77642857Y-39452219D01*
X77642857Y-39452219D02*
X77738095Y-39499838D01*
X77738095Y-39499838D02*
X77785714Y-39547457D01*
X77785714Y-39547457D02*
X77833333Y-39642695D01*
X77833333Y-39642695D02*
X77833333Y-39690314D01*
X77833333Y-39690314D02*
X77785714Y-39785552D01*
X77785714Y-39785552D02*
X77738095Y-39833171D01*
X77738095Y-39833171D02*
X77642857Y-39880790D01*
X77642857Y-39880790D02*
X77452381Y-39880790D01*
X77452381Y-39880790D02*
X77357143Y-39928409D01*
X77357143Y-39928409D02*
X77309524Y-39976028D01*
X77309524Y-39976028D02*
X77261905Y-40071266D01*
X77261905Y-40071266D02*
X77261905Y-40261742D01*
X77261905Y-40261742D02*
X77309524Y-40356980D01*
X77309524Y-40356980D02*
X77357143Y-40404600D01*
X77357143Y-40404600D02*
X77452381Y-40452219D01*
X77452381Y-40452219D02*
X77642857Y-40452219D01*
X77642857Y-40452219D02*
X77738095Y-40404600D01*
X77738095Y-40404600D02*
X77785714Y-40356980D01*
X77785714Y-40356980D02*
X77833333Y-40261742D01*
X77833333Y-40261742D02*
X77833333Y-40071266D01*
X77833333Y-40071266D02*
X77785714Y-39976028D01*
X77785714Y-39976028D02*
X77738095Y-39928409D01*
X77738095Y-39928409D02*
X77642857Y-39880790D01*
X62666667Y-24204600D02*
X62809524Y-24252219D01*
X62809524Y-24252219D02*
X63047619Y-24252219D01*
X63047619Y-24252219D02*
X63142857Y-24204600D01*
X63142857Y-24204600D02*
X63190476Y-24156980D01*
X63190476Y-24156980D02*
X63238095Y-24061742D01*
X63238095Y-24061742D02*
X63238095Y-23966504D01*
X63238095Y-23966504D02*
X63190476Y-23871266D01*
X63190476Y-23871266D02*
X63142857Y-23823647D01*
X63142857Y-23823647D02*
X63047619Y-23776028D01*
X63047619Y-23776028D02*
X62857143Y-23728409D01*
X62857143Y-23728409D02*
X62761905Y-23680790D01*
X62761905Y-23680790D02*
X62714286Y-23633171D01*
X62714286Y-23633171D02*
X62666667Y-23537933D01*
X62666667Y-23537933D02*
X62666667Y-23442695D01*
X62666667Y-23442695D02*
X62714286Y-23347457D01*
X62714286Y-23347457D02*
X62761905Y-23299838D01*
X62761905Y-23299838D02*
X62857143Y-23252219D01*
X62857143Y-23252219D02*
X63095238Y-23252219D01*
X63095238Y-23252219D02*
X63238095Y-23299838D01*
X63571429Y-23252219D02*
X63809524Y-24252219D01*
X63809524Y-24252219D02*
X64000000Y-23537933D01*
X64000000Y-23537933D02*
X64190476Y-24252219D01*
X64190476Y-24252219D02*
X64428572Y-23252219D01*
X65238095Y-23252219D02*
X65047619Y-23252219D01*
X65047619Y-23252219D02*
X64952381Y-23299838D01*
X64952381Y-23299838D02*
X64904762Y-23347457D01*
X64904762Y-23347457D02*
X64809524Y-23490314D01*
X64809524Y-23490314D02*
X64761905Y-23680790D01*
X64761905Y-23680790D02*
X64761905Y-24061742D01*
X64761905Y-24061742D02*
X64809524Y-24156980D01*
X64809524Y-24156980D02*
X64857143Y-24204600D01*
X64857143Y-24204600D02*
X64952381Y-24252219D01*
X64952381Y-24252219D02*
X65142857Y-24252219D01*
X65142857Y-24252219D02*
X65238095Y-24204600D01*
X65238095Y-24204600D02*
X65285714Y-24156980D01*
X65285714Y-24156980D02*
X65333333Y-24061742D01*
X65333333Y-24061742D02*
X65333333Y-23823647D01*
X65333333Y-23823647D02*
X65285714Y-23728409D01*
X65285714Y-23728409D02*
X65238095Y-23680790D01*
X65238095Y-23680790D02*
X65142857Y-23633171D01*
X65142857Y-23633171D02*
X64952381Y-23633171D01*
X64952381Y-23633171D02*
X64857143Y-23680790D01*
X64857143Y-23680790D02*
X64809524Y-23728409D01*
X64809524Y-23728409D02*
X64761905Y-23823647D01*
X24907142Y-17683100D02*
X25035714Y-17725957D01*
X25035714Y-17725957D02*
X25249999Y-17725957D01*
X25249999Y-17725957D02*
X25335714Y-17683100D01*
X25335714Y-17683100D02*
X25378571Y-17640242D01*
X25378571Y-17640242D02*
X25421428Y-17554528D01*
X25421428Y-17554528D02*
X25421428Y-17468814D01*
X25421428Y-17468814D02*
X25378571Y-17383100D01*
X25378571Y-17383100D02*
X25335714Y-17340242D01*
X25335714Y-17340242D02*
X25249999Y-17297385D01*
X25249999Y-17297385D02*
X25078571Y-17254528D01*
X25078571Y-17254528D02*
X24992856Y-17211671D01*
X24992856Y-17211671D02*
X24949999Y-17168814D01*
X24949999Y-17168814D02*
X24907142Y-17083100D01*
X24907142Y-17083100D02*
X24907142Y-16997385D01*
X24907142Y-16997385D02*
X24949999Y-16911671D01*
X24949999Y-16911671D02*
X24992856Y-16868814D01*
X24992856Y-16868814D02*
X25078571Y-16825957D01*
X25078571Y-16825957D02*
X25292856Y-16825957D01*
X25292856Y-16825957D02*
X25421428Y-16868814D01*
X25807142Y-17725957D02*
X25807142Y-16825957D01*
X25807142Y-16825957D02*
X26021428Y-16825957D01*
X26021428Y-16825957D02*
X26149999Y-16868814D01*
X26149999Y-16868814D02*
X26235714Y-16954528D01*
X26235714Y-16954528D02*
X26278571Y-17040242D01*
X26278571Y-17040242D02*
X26321428Y-17211671D01*
X26321428Y-17211671D02*
X26321428Y-17340242D01*
X26321428Y-17340242D02*
X26278571Y-17511671D01*
X26278571Y-17511671D02*
X26235714Y-17597385D01*
X26235714Y-17597385D02*
X26149999Y-17683100D01*
X26149999Y-17683100D02*
X26021428Y-17725957D01*
X26021428Y-17725957D02*
X25807142Y-17725957D01*
X26664285Y-17468814D02*
X27092857Y-17468814D01*
X26578571Y-17725957D02*
X26878571Y-16825957D01*
X26878571Y-16825957D02*
X27178571Y-17725957D01*
X24800000Y-11745957D02*
X25100000Y-12645957D01*
X25100000Y-12645957D02*
X25400000Y-11745957D01*
X26214286Y-12560242D02*
X26171429Y-12603100D01*
X26171429Y-12603100D02*
X26042857Y-12645957D01*
X26042857Y-12645957D02*
X25957143Y-12645957D01*
X25957143Y-12645957D02*
X25828572Y-12603100D01*
X25828572Y-12603100D02*
X25742857Y-12517385D01*
X25742857Y-12517385D02*
X25700000Y-12431671D01*
X25700000Y-12431671D02*
X25657143Y-12260242D01*
X25657143Y-12260242D02*
X25657143Y-12131671D01*
X25657143Y-12131671D02*
X25700000Y-11960242D01*
X25700000Y-11960242D02*
X25742857Y-11874528D01*
X25742857Y-11874528D02*
X25828572Y-11788814D01*
X25828572Y-11788814D02*
X25957143Y-11745957D01*
X25957143Y-11745957D02*
X26042857Y-11745957D01*
X26042857Y-11745957D02*
X26171429Y-11788814D01*
X26171429Y-11788814D02*
X26214286Y-11831671D01*
X27114286Y-12560242D02*
X27071429Y-12603100D01*
X27071429Y-12603100D02*
X26942857Y-12645957D01*
X26942857Y-12645957D02*
X26857143Y-12645957D01*
X26857143Y-12645957D02*
X26728572Y-12603100D01*
X26728572Y-12603100D02*
X26642857Y-12517385D01*
X26642857Y-12517385D02*
X26600000Y-12431671D01*
X26600000Y-12431671D02*
X26557143Y-12260242D01*
X26557143Y-12260242D02*
X26557143Y-12131671D01*
X26557143Y-12131671D02*
X26600000Y-11960242D01*
X26600000Y-11960242D02*
X26642857Y-11874528D01*
X26642857Y-11874528D02*
X26728572Y-11788814D01*
X26728572Y-11788814D02*
X26857143Y-11745957D01*
X26857143Y-11745957D02*
X26942857Y-11745957D01*
X26942857Y-11745957D02*
X27071429Y-11788814D01*
X27071429Y-11788814D02*
X27114286Y-11831671D01*
X14666667Y-8204600D02*
X14809524Y-8252219D01*
X14809524Y-8252219D02*
X15047619Y-8252219D01*
X15047619Y-8252219D02*
X15142857Y-8204600D01*
X15142857Y-8204600D02*
X15190476Y-8156980D01*
X15190476Y-8156980D02*
X15238095Y-8061742D01*
X15238095Y-8061742D02*
X15238095Y-7966504D01*
X15238095Y-7966504D02*
X15190476Y-7871266D01*
X15190476Y-7871266D02*
X15142857Y-7823647D01*
X15142857Y-7823647D02*
X15047619Y-7776028D01*
X15047619Y-7776028D02*
X14857143Y-7728409D01*
X14857143Y-7728409D02*
X14761905Y-7680790D01*
X14761905Y-7680790D02*
X14714286Y-7633171D01*
X14714286Y-7633171D02*
X14666667Y-7537933D01*
X14666667Y-7537933D02*
X14666667Y-7442695D01*
X14666667Y-7442695D02*
X14714286Y-7347457D01*
X14714286Y-7347457D02*
X14761905Y-7299838D01*
X14761905Y-7299838D02*
X14857143Y-7252219D01*
X14857143Y-7252219D02*
X15095238Y-7252219D01*
X15095238Y-7252219D02*
X15238095Y-7299838D01*
X15571429Y-7252219D02*
X15809524Y-8252219D01*
X15809524Y-8252219D02*
X16000000Y-7537933D01*
X16000000Y-7537933D02*
X16190476Y-8252219D01*
X16190476Y-8252219D02*
X16428572Y-7252219D01*
X17333333Y-8252219D02*
X16761905Y-8252219D01*
X17047619Y-8252219D02*
X17047619Y-7252219D01*
X17047619Y-7252219D02*
X16952381Y-7395076D01*
X16952381Y-7395076D02*
X16857143Y-7490314D01*
X16857143Y-7490314D02*
X16761905Y-7537933D01*
X67095237Y-8914838D02*
X66428570Y-7962457D01*
X65952380Y-8914838D02*
X65952380Y-6914838D01*
X65952380Y-6914838D02*
X66714285Y-6914838D01*
X66714285Y-6914838D02*
X66904761Y-7010076D01*
X66904761Y-7010076D02*
X66999999Y-7105314D01*
X66999999Y-7105314D02*
X67095237Y-7295790D01*
X67095237Y-7295790D02*
X67095237Y-7581504D01*
X67095237Y-7581504D02*
X66999999Y-7771980D01*
X66999999Y-7771980D02*
X66904761Y-7867219D01*
X66904761Y-7867219D02*
X66714285Y-7962457D01*
X66714285Y-7962457D02*
X65952380Y-7962457D01*
X67952380Y-7867219D02*
X68619047Y-7867219D01*
X68904761Y-8914838D02*
X67952380Y-8914838D01*
X67952380Y-8914838D02*
X67952380Y-6914838D01*
X67952380Y-6914838D02*
X68904761Y-6914838D01*
X69761904Y-8914838D02*
X69761904Y-6914838D01*
X69761904Y-6914838D02*
X70238094Y-6914838D01*
X70238094Y-6914838D02*
X70523809Y-7010076D01*
X70523809Y-7010076D02*
X70714285Y-7200552D01*
X70714285Y-7200552D02*
X70809523Y-7391028D01*
X70809523Y-7391028D02*
X70904761Y-7771980D01*
X70904761Y-7771980D02*
X70904761Y-8057695D01*
X70904761Y-8057695D02*
X70809523Y-8438647D01*
X70809523Y-8438647D02*
X70714285Y-8629123D01*
X70714285Y-8629123D02*
X70523809Y-8819600D01*
X70523809Y-8819600D02*
X70238094Y-8914838D01*
X70238094Y-8914838D02*
X69761904Y-8914838D01*
X72428571Y-7867219D02*
X72714285Y-7962457D01*
X72714285Y-7962457D02*
X72809523Y-8057695D01*
X72809523Y-8057695D02*
X72904761Y-8248171D01*
X72904761Y-8248171D02*
X72904761Y-8533885D01*
X72904761Y-8533885D02*
X72809523Y-8724361D01*
X72809523Y-8724361D02*
X72714285Y-8819600D01*
X72714285Y-8819600D02*
X72523809Y-8914838D01*
X72523809Y-8914838D02*
X71761904Y-8914838D01*
X71761904Y-8914838D02*
X71761904Y-6914838D01*
X71761904Y-6914838D02*
X72428571Y-6914838D01*
X72428571Y-6914838D02*
X72619047Y-7010076D01*
X72619047Y-7010076D02*
X72714285Y-7105314D01*
X72714285Y-7105314D02*
X72809523Y-7295790D01*
X72809523Y-7295790D02*
X72809523Y-7486266D01*
X72809523Y-7486266D02*
X72714285Y-7676742D01*
X72714285Y-7676742D02*
X72619047Y-7771980D01*
X72619047Y-7771980D02*
X72428571Y-7867219D01*
X72428571Y-7867219D02*
X71761904Y-7867219D01*
X73761904Y-7867219D02*
X74428571Y-7867219D01*
X74714285Y-8914838D02*
X73761904Y-8914838D01*
X73761904Y-8914838D02*
X73761904Y-6914838D01*
X73761904Y-6914838D02*
X74714285Y-6914838D01*
X75476190Y-8343409D02*
X76428571Y-8343409D01*
X75285714Y-8914838D02*
X75952380Y-6914838D01*
X75952380Y-6914838D02*
X76619047Y-8914838D01*
X78428571Y-8914838D02*
X77761904Y-7962457D01*
X77285714Y-8914838D02*
X77285714Y-6914838D01*
X77285714Y-6914838D02*
X78047619Y-6914838D01*
X78047619Y-6914838D02*
X78238095Y-7010076D01*
X78238095Y-7010076D02*
X78333333Y-7105314D01*
X78333333Y-7105314D02*
X78428571Y-7295790D01*
X78428571Y-7295790D02*
X78428571Y-7581504D01*
X78428571Y-7581504D02*
X78333333Y-7771980D01*
X78333333Y-7771980D02*
X78238095Y-7867219D01*
X78238095Y-7867219D02*
X78047619Y-7962457D01*
X78047619Y-7962457D02*
X77285714Y-7962457D01*
X79285714Y-8914838D02*
X79285714Y-6914838D01*
X79285714Y-6914838D02*
X80047619Y-6914838D01*
X80047619Y-6914838D02*
X80238095Y-7010076D01*
X80238095Y-7010076D02*
X80333333Y-7105314D01*
X80333333Y-7105314D02*
X80428571Y-7295790D01*
X80428571Y-7295790D02*
X80428571Y-7581504D01*
X80428571Y-7581504D02*
X80333333Y-7771980D01*
X80333333Y-7771980D02*
X80238095Y-7867219D01*
X80238095Y-7867219D02*
X80047619Y-7962457D01*
X80047619Y-7962457D02*
X79285714Y-7962457D01*
X81190476Y-8343409D02*
X82142857Y-8343409D01*
X81000000Y-8914838D02*
X81666666Y-6914838D01*
X81666666Y-6914838D02*
X82333333Y-8914838D01*
X83000000Y-8914838D02*
X83000000Y-6914838D01*
X83000000Y-6914838D02*
X83476190Y-6914838D01*
X83476190Y-6914838D02*
X83761905Y-7010076D01*
X83761905Y-7010076D02*
X83952381Y-7200552D01*
X83952381Y-7200552D02*
X84047619Y-7391028D01*
X84047619Y-7391028D02*
X84142857Y-7771980D01*
X84142857Y-7771980D02*
X84142857Y-8057695D01*
X84142857Y-8057695D02*
X84047619Y-8438647D01*
X84047619Y-8438647D02*
X83952381Y-8629123D01*
X83952381Y-8629123D02*
X83761905Y-8819600D01*
X83761905Y-8819600D02*
X83476190Y-8914838D01*
X83476190Y-8914838D02*
X83000000Y-8914838D01*
X78666667Y-24204600D02*
X78809524Y-24252219D01*
X78809524Y-24252219D02*
X79047619Y-24252219D01*
X79047619Y-24252219D02*
X79142857Y-24204600D01*
X79142857Y-24204600D02*
X79190476Y-24156980D01*
X79190476Y-24156980D02*
X79238095Y-24061742D01*
X79238095Y-24061742D02*
X79238095Y-23966504D01*
X79238095Y-23966504D02*
X79190476Y-23871266D01*
X79190476Y-23871266D02*
X79142857Y-23823647D01*
X79142857Y-23823647D02*
X79047619Y-23776028D01*
X79047619Y-23776028D02*
X78857143Y-23728409D01*
X78857143Y-23728409D02*
X78761905Y-23680790D01*
X78761905Y-23680790D02*
X78714286Y-23633171D01*
X78714286Y-23633171D02*
X78666667Y-23537933D01*
X78666667Y-23537933D02*
X78666667Y-23442695D01*
X78666667Y-23442695D02*
X78714286Y-23347457D01*
X78714286Y-23347457D02*
X78761905Y-23299838D01*
X78761905Y-23299838D02*
X78857143Y-23252219D01*
X78857143Y-23252219D02*
X79095238Y-23252219D01*
X79095238Y-23252219D02*
X79238095Y-23299838D01*
X79571429Y-23252219D02*
X79809524Y-24252219D01*
X79809524Y-24252219D02*
X80000000Y-23537933D01*
X80000000Y-23537933D02*
X80190476Y-24252219D01*
X80190476Y-24252219D02*
X80428572Y-23252219D01*
X80714286Y-23252219D02*
X81380952Y-23252219D01*
X81380952Y-23252219D02*
X80952381Y-24252219D01*
X33666667Y-40404600D02*
X33809524Y-40452219D01*
X33809524Y-40452219D02*
X34047619Y-40452219D01*
X34047619Y-40452219D02*
X34142857Y-40404600D01*
X34142857Y-40404600D02*
X34190476Y-40356980D01*
X34190476Y-40356980D02*
X34238095Y-40261742D01*
X34238095Y-40261742D02*
X34238095Y-40166504D01*
X34238095Y-40166504D02*
X34190476Y-40071266D01*
X34190476Y-40071266D02*
X34142857Y-40023647D01*
X34142857Y-40023647D02*
X34047619Y-39976028D01*
X34047619Y-39976028D02*
X33857143Y-39928409D01*
X33857143Y-39928409D02*
X33761905Y-39880790D01*
X33761905Y-39880790D02*
X33714286Y-39833171D01*
X33714286Y-39833171D02*
X33666667Y-39737933D01*
X33666667Y-39737933D02*
X33666667Y-39642695D01*
X33666667Y-39642695D02*
X33714286Y-39547457D01*
X33714286Y-39547457D02*
X33761905Y-39499838D01*
X33761905Y-39499838D02*
X33857143Y-39452219D01*
X33857143Y-39452219D02*
X34095238Y-39452219D01*
X34095238Y-39452219D02*
X34238095Y-39499838D01*
X34571429Y-39452219D02*
X34809524Y-40452219D01*
X34809524Y-40452219D02*
X35000000Y-39737933D01*
X35000000Y-39737933D02*
X35190476Y-40452219D01*
X35190476Y-40452219D02*
X35428572Y-39452219D01*
X36238095Y-39785552D02*
X36238095Y-40452219D01*
X36000000Y-39404600D02*
X35761905Y-40118885D01*
X35761905Y-40118885D02*
X36380952Y-40118885D01*
X14666667Y-40204600D02*
X14809524Y-40252219D01*
X14809524Y-40252219D02*
X15047619Y-40252219D01*
X15047619Y-40252219D02*
X15142857Y-40204600D01*
X15142857Y-40204600D02*
X15190476Y-40156980D01*
X15190476Y-40156980D02*
X15238095Y-40061742D01*
X15238095Y-40061742D02*
X15238095Y-39966504D01*
X15238095Y-39966504D02*
X15190476Y-39871266D01*
X15190476Y-39871266D02*
X15142857Y-39823647D01*
X15142857Y-39823647D02*
X15047619Y-39776028D01*
X15047619Y-39776028D02*
X14857143Y-39728409D01*
X14857143Y-39728409D02*
X14761905Y-39680790D01*
X14761905Y-39680790D02*
X14714286Y-39633171D01*
X14714286Y-39633171D02*
X14666667Y-39537933D01*
X14666667Y-39537933D02*
X14666667Y-39442695D01*
X14666667Y-39442695D02*
X14714286Y-39347457D01*
X14714286Y-39347457D02*
X14761905Y-39299838D01*
X14761905Y-39299838D02*
X14857143Y-39252219D01*
X14857143Y-39252219D02*
X15095238Y-39252219D01*
X15095238Y-39252219D02*
X15238095Y-39299838D01*
X15571429Y-39252219D02*
X15809524Y-40252219D01*
X15809524Y-40252219D02*
X16000000Y-39537933D01*
X16000000Y-39537933D02*
X16190476Y-40252219D01*
X16190476Y-40252219D02*
X16428572Y-39252219D01*
X16714286Y-39252219D02*
X17333333Y-39252219D01*
X17333333Y-39252219D02*
X17000000Y-39633171D01*
X17000000Y-39633171D02*
X17142857Y-39633171D01*
X17142857Y-39633171D02*
X17238095Y-39680790D01*
X17238095Y-39680790D02*
X17285714Y-39728409D01*
X17285714Y-39728409D02*
X17333333Y-39823647D01*
X17333333Y-39823647D02*
X17333333Y-40061742D01*
X17333333Y-40061742D02*
X17285714Y-40156980D01*
X17285714Y-40156980D02*
X17238095Y-40204600D01*
X17238095Y-40204600D02*
X17142857Y-40252219D01*
X17142857Y-40252219D02*
X16857143Y-40252219D01*
X16857143Y-40252219D02*
X16761905Y-40204600D01*
X16761905Y-40204600D02*
X16714286Y-40156980D01*
X24928571Y-15143100D02*
X25057143Y-15185957D01*
X25057143Y-15185957D02*
X25271428Y-15185957D01*
X25271428Y-15185957D02*
X25357143Y-15143100D01*
X25357143Y-15143100D02*
X25400000Y-15100242D01*
X25400000Y-15100242D02*
X25442857Y-15014528D01*
X25442857Y-15014528D02*
X25442857Y-14928814D01*
X25442857Y-14928814D02*
X25400000Y-14843100D01*
X25400000Y-14843100D02*
X25357143Y-14800242D01*
X25357143Y-14800242D02*
X25271428Y-14757385D01*
X25271428Y-14757385D02*
X25100000Y-14714528D01*
X25100000Y-14714528D02*
X25014285Y-14671671D01*
X25014285Y-14671671D02*
X24971428Y-14628814D01*
X24971428Y-14628814D02*
X24928571Y-14543100D01*
X24928571Y-14543100D02*
X24928571Y-14457385D01*
X24928571Y-14457385D02*
X24971428Y-14371671D01*
X24971428Y-14371671D02*
X25014285Y-14328814D01*
X25014285Y-14328814D02*
X25100000Y-14285957D01*
X25100000Y-14285957D02*
X25314285Y-14285957D01*
X25314285Y-14285957D02*
X25442857Y-14328814D01*
X26342857Y-15100242D02*
X26300000Y-15143100D01*
X26300000Y-15143100D02*
X26171428Y-15185957D01*
X26171428Y-15185957D02*
X26085714Y-15185957D01*
X26085714Y-15185957D02*
X25957143Y-15143100D01*
X25957143Y-15143100D02*
X25871428Y-15057385D01*
X25871428Y-15057385D02*
X25828571Y-14971671D01*
X25828571Y-14971671D02*
X25785714Y-14800242D01*
X25785714Y-14800242D02*
X25785714Y-14671671D01*
X25785714Y-14671671D02*
X25828571Y-14500242D01*
X25828571Y-14500242D02*
X25871428Y-14414528D01*
X25871428Y-14414528D02*
X25957143Y-14328814D01*
X25957143Y-14328814D02*
X26085714Y-14285957D01*
X26085714Y-14285957D02*
X26171428Y-14285957D01*
X26171428Y-14285957D02*
X26300000Y-14328814D01*
X26300000Y-14328814D02*
X26342857Y-14371671D01*
X27157143Y-15185957D02*
X26728571Y-15185957D01*
X26728571Y-15185957D02*
X26728571Y-14285957D01*
X46666667Y-40204600D02*
X46809524Y-40252219D01*
X46809524Y-40252219D02*
X47047619Y-40252219D01*
X47047619Y-40252219D02*
X47142857Y-40204600D01*
X47142857Y-40204600D02*
X47190476Y-40156980D01*
X47190476Y-40156980D02*
X47238095Y-40061742D01*
X47238095Y-40061742D02*
X47238095Y-39966504D01*
X47238095Y-39966504D02*
X47190476Y-39871266D01*
X47190476Y-39871266D02*
X47142857Y-39823647D01*
X47142857Y-39823647D02*
X47047619Y-39776028D01*
X47047619Y-39776028D02*
X46857143Y-39728409D01*
X46857143Y-39728409D02*
X46761905Y-39680790D01*
X46761905Y-39680790D02*
X46714286Y-39633171D01*
X46714286Y-39633171D02*
X46666667Y-39537933D01*
X46666667Y-39537933D02*
X46666667Y-39442695D01*
X46666667Y-39442695D02*
X46714286Y-39347457D01*
X46714286Y-39347457D02*
X46761905Y-39299838D01*
X46761905Y-39299838D02*
X46857143Y-39252219D01*
X46857143Y-39252219D02*
X47095238Y-39252219D01*
X47095238Y-39252219D02*
X47238095Y-39299838D01*
X47571429Y-39252219D02*
X47809524Y-40252219D01*
X47809524Y-40252219D02*
X48000000Y-39537933D01*
X48000000Y-39537933D02*
X48190476Y-40252219D01*
X48190476Y-40252219D02*
X48428572Y-39252219D01*
X49285714Y-39252219D02*
X48809524Y-39252219D01*
X48809524Y-39252219D02*
X48761905Y-39728409D01*
X48761905Y-39728409D02*
X48809524Y-39680790D01*
X48809524Y-39680790D02*
X48904762Y-39633171D01*
X48904762Y-39633171D02*
X49142857Y-39633171D01*
X49142857Y-39633171D02*
X49238095Y-39680790D01*
X49238095Y-39680790D02*
X49285714Y-39728409D01*
X49285714Y-39728409D02*
X49333333Y-39823647D01*
X49333333Y-39823647D02*
X49333333Y-40061742D01*
X49333333Y-40061742D02*
X49285714Y-40156980D01*
X49285714Y-40156980D02*
X49238095Y-40204600D01*
X49238095Y-40204600D02*
X49142857Y-40252219D01*
X49142857Y-40252219D02*
X48904762Y-40252219D01*
X48904762Y-40252219D02*
X48809524Y-40204600D01*
X48809524Y-40204600D02*
X48761905Y-40156980D01*
D11*
X29666666Y-6384819D02*
X29666666Y-7099104D01*
X29666666Y-7099104D02*
X29619047Y-7241961D01*
X29619047Y-7241961D02*
X29523809Y-7337200D01*
X29523809Y-7337200D02*
X29380952Y-7384819D01*
X29380952Y-7384819D02*
X29285714Y-7384819D01*
X30047619Y-6384819D02*
X30666666Y-6384819D01*
X30666666Y-6384819D02*
X30333333Y-6765771D01*
X30333333Y-6765771D02*
X30476190Y-6765771D01*
X30476190Y-6765771D02*
X30571428Y-6813390D01*
X30571428Y-6813390D02*
X30619047Y-6861009D01*
X30619047Y-6861009D02*
X30666666Y-6956247D01*
X30666666Y-6956247D02*
X30666666Y-7194342D01*
X30666666Y-7194342D02*
X30619047Y-7289580D01*
X30619047Y-7289580D02*
X30571428Y-7337200D01*
X30571428Y-7337200D02*
X30476190Y-7384819D01*
X30476190Y-7384819D02*
X30190476Y-7384819D01*
X30190476Y-7384819D02*
X30095238Y-7337200D01*
X30095238Y-7337200D02*
X30047619Y-7289580D01*
D12*
%TO.C,J3*%
X28670000Y-10970000D02*
X28670000Y-18650000D01*
X28670000Y-10970000D02*
X31330000Y-10970000D01*
X28670000Y-18650000D02*
X31330000Y-18650000D01*
X30000000Y-8370000D02*
X31330000Y-8370000D01*
X31330000Y-8370000D02*
X31330000Y-9700000D01*
X31330000Y-10970000D02*
X31330000Y-18650000D01*
%TO.C,SW5*%
X40900000Y-40900000D02*
X40900000Y-55100000D01*
X40900000Y-55100000D02*
X55100000Y-55100000D01*
X55100000Y-40900000D02*
X40900000Y-40900000D01*
X55100000Y-55100000D02*
X55100000Y-40900000D01*
%TO.C,SW7*%
X72900000Y-24900000D02*
X72900000Y-39100000D01*
X72900000Y-39100000D02*
X87100000Y-39100000D01*
X87100000Y-24900000D02*
X72900000Y-24900000D01*
X87100000Y-39100000D02*
X87100000Y-24900000D01*
%TO.C,SW4*%
X24900000Y-40900000D02*
X24900000Y-55100000D01*
X24900000Y-55100000D02*
X39100000Y-55100000D01*
X39100000Y-40900000D02*
X24900000Y-40900000D01*
X39100000Y-55100000D02*
X39100000Y-40900000D01*
%TO.C,SW2*%
X24900000Y-24900000D02*
X24900000Y-39100000D01*
X24900000Y-39100000D02*
X39100000Y-39100000D01*
X39100000Y-24900000D02*
X24900000Y-24900000D01*
X39100000Y-39100000D02*
X39100000Y-24900000D01*
%TO.C,SW1*%
X8900000Y-8900000D02*
X8900000Y-23100000D01*
X8900000Y-23100000D02*
X23100000Y-23100000D01*
X23100000Y-8900000D02*
X8900000Y-8900000D01*
X23100000Y-23100000D02*
X23100000Y-8900000D01*
%TO.C,SW8*%
X72900000Y-40900000D02*
X72900000Y-55100000D01*
X72900000Y-55100000D02*
X87100000Y-55100000D01*
X87100000Y-40900000D02*
X72900000Y-40900000D01*
X87100000Y-55100000D02*
X87100000Y-40900000D01*
%TO.C,SW3*%
X8900000Y-40900000D02*
X8900000Y-55100000D01*
X8900000Y-55100000D02*
X23100000Y-55100000D01*
X23100000Y-40900000D02*
X8900000Y-40900000D01*
X23100000Y-55100000D02*
X23100000Y-40900000D01*
%TO.C,SW6*%
X56900000Y-24900000D02*
X56900000Y-39100000D01*
X56900000Y-39100000D02*
X71100000Y-39100000D01*
X71100000Y-24900000D02*
X56900000Y-24900000D01*
X71100000Y-39100000D02*
X71100000Y-24900000D01*
%TD*%
%LPC*%
D13*
%TO.C,H2*%
X92000000Y-4000000D03*
%TD*%
D14*
%TO.C,J3*%
X30000000Y-9700000D03*
D15*
X30000000Y-12240000D03*
X30000000Y-14780000D03*
X30000000Y-17320000D03*
%TD*%
D13*
%TO.C,H4*%
X92000000Y-60000000D03*
%TD*%
D16*
%TO.C,SW5*%
X48000000Y-48000000D03*
%TD*%
%TO.C,SW7*%
X80000000Y-32000000D03*
%TD*%
D13*
%TO.C,H1*%
X4000000Y-4000000D03*
%TD*%
D16*
%TO.C,SW4*%
X32000000Y-48000000D03*
%TD*%
%TO.C,SW2*%
X32000000Y-32000000D03*
%TD*%
%TO.C,SW1*%
X16000000Y-16000000D03*
%TD*%
%TO.C,SW8*%
X80000000Y-48000000D03*
%TD*%
%TO.C,SW3*%
X16000000Y-48000000D03*
%TD*%
D13*
%TO.C,H3*%
X4000000Y-60000000D03*
%TD*%
D16*
%TO.C,SW6*%
X64000000Y-32000000D03*
%TD*%
D14*
%TO.C,J1*%
X40380000Y-1667000D03*
D15*
X40380000Y-4207000D03*
X40380000Y-6747000D03*
X40380000Y-9287000D03*
X40380000Y-11827000D03*
X40380000Y-14367000D03*
X40380000Y-16907000D03*
X40380000Y-19447000D03*
X40380000Y-21987000D03*
X40380000Y-24527000D03*
X40380000Y-27067000D03*
X40380000Y-29607000D03*
X40380000Y-32147000D03*
X40380000Y-34687000D03*
%TD*%
D14*
%TO.C,J2*%
X55620000Y-1667000D03*
D15*
X55620000Y-4207000D03*
X55620000Y-6747000D03*
X55620000Y-9287000D03*
X55620000Y-11827000D03*
X55620000Y-14367000D03*
X55620000Y-16907000D03*
X55620000Y-19447000D03*
X55620000Y-21987000D03*
X55620000Y-24527000D03*
X55620000Y-27067000D03*
X55620000Y-29607000D03*
X55620000Y-32147000D03*
X55620000Y-34687000D03*
%TD*%
%LPD*%
M02*
