M48
; DRILL file {KiCad 9.0.4} date 2026-06-12T22:08:12-0400
; FORMAT={-:-/ absolute / metric / decimal}
; #@! TF.CreationDate,2026-06-12T22:08:12-04:00
; #@! TF.GenerationSoftware,Kicad,Pcbnew,9.0.4
; #@! TF.FileFunction,Plated,1,2,PTH
FMAT,2
METRIC
; #@! TA.AperFunction,Plated,PTH,ComponentDrill
T1C1.000
; #@! TA.AperFunction,Plated,PTH,ComponentDrill
T2C1.200
%
G90
G05
T1
X30.0Y-9.7
X30.0Y-12.24
X30.0Y-14.78
X30.0Y-17.32
X40.38Y-1.667
X40.38Y-4.207
X40.38Y-6.747
X40.38Y-9.287
X40.38Y-11.827
X40.38Y-14.367
X40.38Y-16.907
X40.38Y-19.447
X40.38Y-21.987
X40.38Y-24.527
X40.38Y-27.067
X40.38Y-29.607
X40.38Y-32.147
X40.38Y-34.687
X55.62Y-1.667
X55.62Y-4.207
X55.62Y-6.747
X55.62Y-9.287
X55.62Y-11.827
X55.62Y-14.367
X55.62Y-16.907
X55.62Y-19.447
X55.62Y-21.987
X55.62Y-24.527
X55.62Y-27.067
X55.62Y-29.607
X55.62Y-32.147
X55.62Y-34.687
T2
X16.0Y-22.5
X16.0Y-54.5
X19.8Y-19.8
X19.8Y-51.8
X32.0Y-38.5
X32.0Y-54.5
X35.8Y-35.8
X35.8Y-51.8
X48.0Y-54.5
X51.8Y-51.8
X64.0Y-38.5
X67.8Y-35.8
X80.0Y-38.5
X80.0Y-54.5
X83.8Y-35.8
X83.8Y-51.8
M30
