%TF.GenerationSoftware,KiCad,Pcbnew,9.0.4*%
%TF.CreationDate,2026-06-18T13:15:17-04:00*%
%TF.ProjectId,redbearpad,72656462-6561-4727-9061-642e6b696361,rev?*%
%TF.SameCoordinates,Original*%
%TF.FileFunction,Legend,Bot*%
%TF.FilePolarity,Positive*%
%FSLAX46Y46*%
G04 Gerber Fmt 4.6, Leading zero omitted, Abs format (unit mm)*
G04 Created by KiCad (PCBNEW 9.0.4) date 2026-06-18 13:15:17*
%MOMM*%
%LPD*%
G01*
G04 APERTURE LIST*
%ADD10C,0.150000*%
%ADD11C,0.200000*%
%ADD12C,0.120000*%
%ADD13C,3.100000*%
%ADD14C,4.400000*%
%ADD15C,2.200000*%
%ADD16R,1.700000X1.700000*%
%ADD17C,1.700000*%
G04 APERTURE END LIST*
D10*
X57200000Y-200000D02*
X57200000Y-42100000D01*
X38800000Y-200000D02*
X38800000Y-42100000D01*
X38800000Y-42100000D02*
X57200000Y-42100000D01*
D11*
X53428571Y-39416171D02*
X53257143Y-39473314D01*
X53257143Y-39473314D02*
X53200000Y-39530457D01*
X53200000Y-39530457D02*
X53142857Y-39644742D01*
X53142857Y-39644742D02*
X53142857Y-39816171D01*
X53142857Y-39816171D02*
X53200000Y-39930457D01*
X53200000Y-39930457D02*
X53257143Y-39987600D01*
X53257143Y-39987600D02*
X53371428Y-40044742D01*
X53371428Y-40044742D02*
X53828571Y-40044742D01*
X53828571Y-40044742D02*
X53828571Y-38844742D01*
X53828571Y-38844742D02*
X53428571Y-38844742D01*
X53428571Y-38844742D02*
X53314286Y-38901885D01*
X53314286Y-38901885D02*
X53257143Y-38959028D01*
X53257143Y-38959028D02*
X53200000Y-39073314D01*
X53200000Y-39073314D02*
X53200000Y-39187600D01*
X53200000Y-39187600D02*
X53257143Y-39301885D01*
X53257143Y-39301885D02*
X53314286Y-39359028D01*
X53314286Y-39359028D02*
X53428571Y-39416171D01*
X53428571Y-39416171D02*
X53828571Y-39416171D01*
X52057143Y-40044742D02*
X52628571Y-40044742D01*
X52628571Y-40044742D02*
X52628571Y-38844742D01*
X51657142Y-39416171D02*
X51257142Y-39416171D01*
X51085714Y-40044742D02*
X51657142Y-40044742D01*
X51657142Y-40044742D02*
X51657142Y-38844742D01*
X51657142Y-38844742D02*
X51085714Y-38844742D01*
X50571428Y-40044742D02*
X50571428Y-38844742D01*
X50571428Y-38844742D02*
X49885714Y-40044742D01*
X49885714Y-40044742D02*
X49885714Y-38844742D01*
X49314285Y-40044742D02*
X49314285Y-38844742D01*
X49314285Y-38844742D02*
X49028571Y-38844742D01*
X49028571Y-38844742D02*
X48857142Y-38901885D01*
X48857142Y-38901885D02*
X48742857Y-39016171D01*
X48742857Y-39016171D02*
X48685714Y-39130457D01*
X48685714Y-39130457D02*
X48628571Y-39359028D01*
X48628571Y-39359028D02*
X48628571Y-39530457D01*
X48628571Y-39530457D02*
X48685714Y-39759028D01*
X48685714Y-39759028D02*
X48742857Y-39873314D01*
X48742857Y-39873314D02*
X48857142Y-39987600D01*
X48857142Y-39987600D02*
X49028571Y-40044742D01*
X49028571Y-40044742D02*
X49314285Y-40044742D01*
X47199999Y-40044742D02*
X47199999Y-38844742D01*
X47199999Y-38844742D02*
X46799999Y-39701885D01*
X46799999Y-39701885D02*
X46399999Y-38844742D01*
X46399999Y-38844742D02*
X46399999Y-40044742D01*
X45828570Y-40044742D02*
X45828570Y-38844742D01*
X44571427Y-39930457D02*
X44628570Y-39987600D01*
X44628570Y-39987600D02*
X44799998Y-40044742D01*
X44799998Y-40044742D02*
X44914284Y-40044742D01*
X44914284Y-40044742D02*
X45085713Y-39987600D01*
X45085713Y-39987600D02*
X45199998Y-39873314D01*
X45199998Y-39873314D02*
X45257141Y-39759028D01*
X45257141Y-39759028D02*
X45314284Y-39530457D01*
X45314284Y-39530457D02*
X45314284Y-39359028D01*
X45314284Y-39359028D02*
X45257141Y-39130457D01*
X45257141Y-39130457D02*
X45199998Y-39016171D01*
X45199998Y-39016171D02*
X45085713Y-38901885D01*
X45085713Y-38901885D02*
X44914284Y-38844742D01*
X44914284Y-38844742D02*
X44799998Y-38844742D01*
X44799998Y-38844742D02*
X44628570Y-38901885D01*
X44628570Y-38901885D02*
X44571427Y-38959028D01*
X43371427Y-40044742D02*
X43771427Y-39473314D01*
X44057141Y-40044742D02*
X44057141Y-38844742D01*
X44057141Y-38844742D02*
X43599998Y-38844742D01*
X43599998Y-38844742D02*
X43485713Y-38901885D01*
X43485713Y-38901885D02*
X43428570Y-38959028D01*
X43428570Y-38959028D02*
X43371427Y-39073314D01*
X43371427Y-39073314D02*
X43371427Y-39244742D01*
X43371427Y-39244742D02*
X43428570Y-39359028D01*
X43428570Y-39359028D02*
X43485713Y-39416171D01*
X43485713Y-39416171D02*
X43599998Y-39473314D01*
X43599998Y-39473314D02*
X44057141Y-39473314D01*
X42628570Y-38844742D02*
X42399998Y-38844742D01*
X42399998Y-38844742D02*
X42285713Y-38901885D01*
X42285713Y-38901885D02*
X42171427Y-39016171D01*
X42171427Y-39016171D02*
X42114284Y-39244742D01*
X42114284Y-39244742D02*
X42114284Y-39644742D01*
X42114284Y-39644742D02*
X42171427Y-39873314D01*
X42171427Y-39873314D02*
X42285713Y-39987600D01*
X42285713Y-39987600D02*
X42399998Y-40044742D01*
X42399998Y-40044742D02*
X42628570Y-40044742D01*
X42628570Y-40044742D02*
X42742856Y-39987600D01*
X42742856Y-39987600D02*
X42857141Y-39873314D01*
X42857141Y-39873314D02*
X42914284Y-39644742D01*
X42914284Y-39644742D02*
X42914284Y-39244742D01*
X42914284Y-39244742D02*
X42857141Y-39016171D01*
X42857141Y-39016171D02*
X42742856Y-38901885D01*
X42742856Y-38901885D02*
X42628570Y-38844742D01*
X49514285Y-2344742D02*
X49514285Y-3316171D01*
X49514285Y-3316171D02*
X49457142Y-3430457D01*
X49457142Y-3430457D02*
X49400000Y-3487600D01*
X49400000Y-3487600D02*
X49285714Y-3544742D01*
X49285714Y-3544742D02*
X49057142Y-3544742D01*
X49057142Y-3544742D02*
X48942857Y-3487600D01*
X48942857Y-3487600D02*
X48885714Y-3430457D01*
X48885714Y-3430457D02*
X48828571Y-3316171D01*
X48828571Y-3316171D02*
X48828571Y-2344742D01*
X48314285Y-3487600D02*
X48142857Y-3544742D01*
X48142857Y-3544742D02*
X47857142Y-3544742D01*
X47857142Y-3544742D02*
X47742857Y-3487600D01*
X47742857Y-3487600D02*
X47685714Y-3430457D01*
X47685714Y-3430457D02*
X47628571Y-3316171D01*
X47628571Y-3316171D02*
X47628571Y-3201885D01*
X47628571Y-3201885D02*
X47685714Y-3087600D01*
X47685714Y-3087600D02*
X47742857Y-3030457D01*
X47742857Y-3030457D02*
X47857142Y-2973314D01*
X47857142Y-2973314D02*
X48085714Y-2916171D01*
X48085714Y-2916171D02*
X48199999Y-2859028D01*
X48199999Y-2859028D02*
X48257142Y-2801885D01*
X48257142Y-2801885D02*
X48314285Y-2687600D01*
X48314285Y-2687600D02*
X48314285Y-2573314D01*
X48314285Y-2573314D02*
X48257142Y-2459028D01*
X48257142Y-2459028D02*
X48199999Y-2401885D01*
X48199999Y-2401885D02*
X48085714Y-2344742D01*
X48085714Y-2344742D02*
X47799999Y-2344742D01*
X47799999Y-2344742D02*
X47628571Y-2401885D01*
X46714285Y-2916171D02*
X46542857Y-2973314D01*
X46542857Y-2973314D02*
X46485714Y-3030457D01*
X46485714Y-3030457D02*
X46428571Y-3144742D01*
X46428571Y-3144742D02*
X46428571Y-3316171D01*
X46428571Y-3316171D02*
X46485714Y-3430457D01*
X46485714Y-3430457D02*
X46542857Y-3487600D01*
X46542857Y-3487600D02*
X46657142Y-3544742D01*
X46657142Y-3544742D02*
X47114285Y-3544742D01*
X47114285Y-3544742D02*
X47114285Y-2344742D01*
X47114285Y-2344742D02*
X46714285Y-2344742D01*
X46714285Y-2344742D02*
X46600000Y-2401885D01*
X46600000Y-2401885D02*
X46542857Y-2459028D01*
X46542857Y-2459028D02*
X46485714Y-2573314D01*
X46485714Y-2573314D02*
X46485714Y-2687600D01*
X46485714Y-2687600D02*
X46542857Y-2801885D01*
X46542857Y-2801885D02*
X46600000Y-2859028D01*
X46600000Y-2859028D02*
X46714285Y-2916171D01*
X46714285Y-2916171D02*
X47114285Y-2916171D01*
D10*
X17066667Y-52324200D02*
X16952381Y-52362295D01*
X16952381Y-52362295D02*
X16761905Y-52362295D01*
X16761905Y-52362295D02*
X16685714Y-52324200D01*
X16685714Y-52324200D02*
X16647619Y-52286104D01*
X16647619Y-52286104D02*
X16609524Y-52209914D01*
X16609524Y-52209914D02*
X16609524Y-52133723D01*
X16609524Y-52133723D02*
X16647619Y-52057533D01*
X16647619Y-52057533D02*
X16685714Y-52019438D01*
X16685714Y-52019438D02*
X16761905Y-51981342D01*
X16761905Y-51981342D02*
X16914286Y-51943247D01*
X16914286Y-51943247D02*
X16990476Y-51905152D01*
X16990476Y-51905152D02*
X17028571Y-51867057D01*
X17028571Y-51867057D02*
X17066667Y-51790866D01*
X17066667Y-51790866D02*
X17066667Y-51714676D01*
X17066667Y-51714676D02*
X17028571Y-51638485D01*
X17028571Y-51638485D02*
X16990476Y-51600390D01*
X16990476Y-51600390D02*
X16914286Y-51562295D01*
X16914286Y-51562295D02*
X16723809Y-51562295D01*
X16723809Y-51562295D02*
X16609524Y-51600390D01*
X16342857Y-51562295D02*
X16152381Y-52362295D01*
X16152381Y-52362295D02*
X16000000Y-51790866D01*
X16000000Y-51790866D02*
X15847619Y-52362295D01*
X15847619Y-52362295D02*
X15657143Y-51562295D01*
X15428571Y-51562295D02*
X14933333Y-51562295D01*
X14933333Y-51562295D02*
X15199999Y-51867057D01*
X15199999Y-51867057D02*
X15085714Y-51867057D01*
X15085714Y-51867057D02*
X15009523Y-51905152D01*
X15009523Y-51905152D02*
X14971428Y-51943247D01*
X14971428Y-51943247D02*
X14933333Y-52019438D01*
X14933333Y-52019438D02*
X14933333Y-52209914D01*
X14933333Y-52209914D02*
X14971428Y-52286104D01*
X14971428Y-52286104D02*
X15009523Y-52324200D01*
X15009523Y-52324200D02*
X15085714Y-52362295D01*
X15085714Y-52362295D02*
X15314285Y-52362295D01*
X15314285Y-52362295D02*
X15390476Y-52324200D01*
X15390476Y-52324200D02*
X15428571Y-52286104D01*
X33066667Y-52324200D02*
X32952381Y-52362295D01*
X32952381Y-52362295D02*
X32761905Y-52362295D01*
X32761905Y-52362295D02*
X32685714Y-52324200D01*
X32685714Y-52324200D02*
X32647619Y-52286104D01*
X32647619Y-52286104D02*
X32609524Y-52209914D01*
X32609524Y-52209914D02*
X32609524Y-52133723D01*
X32609524Y-52133723D02*
X32647619Y-52057533D01*
X32647619Y-52057533D02*
X32685714Y-52019438D01*
X32685714Y-52019438D02*
X32761905Y-51981342D01*
X32761905Y-51981342D02*
X32914286Y-51943247D01*
X32914286Y-51943247D02*
X32990476Y-51905152D01*
X32990476Y-51905152D02*
X33028571Y-51867057D01*
X33028571Y-51867057D02*
X33066667Y-51790866D01*
X33066667Y-51790866D02*
X33066667Y-51714676D01*
X33066667Y-51714676D02*
X33028571Y-51638485D01*
X33028571Y-51638485D02*
X32990476Y-51600390D01*
X32990476Y-51600390D02*
X32914286Y-51562295D01*
X32914286Y-51562295D02*
X32723809Y-51562295D01*
X32723809Y-51562295D02*
X32609524Y-51600390D01*
X32342857Y-51562295D02*
X32152381Y-52362295D01*
X32152381Y-52362295D02*
X32000000Y-51790866D01*
X32000000Y-51790866D02*
X31847619Y-52362295D01*
X31847619Y-52362295D02*
X31657143Y-51562295D01*
X31009523Y-51828961D02*
X31009523Y-52362295D01*
X31199999Y-51524200D02*
X31390476Y-52095628D01*
X31390476Y-52095628D02*
X30895237Y-52095628D01*
X81066667Y-36324200D02*
X80952381Y-36362295D01*
X80952381Y-36362295D02*
X80761905Y-36362295D01*
X80761905Y-36362295D02*
X80685714Y-36324200D01*
X80685714Y-36324200D02*
X80647619Y-36286104D01*
X80647619Y-36286104D02*
X80609524Y-36209914D01*
X80609524Y-36209914D02*
X80609524Y-36133723D01*
X80609524Y-36133723D02*
X80647619Y-36057533D01*
X80647619Y-36057533D02*
X80685714Y-36019438D01*
X80685714Y-36019438D02*
X80761905Y-35981342D01*
X80761905Y-35981342D02*
X80914286Y-35943247D01*
X80914286Y-35943247D02*
X80990476Y-35905152D01*
X80990476Y-35905152D02*
X81028571Y-35867057D01*
X81028571Y-35867057D02*
X81066667Y-35790866D01*
X81066667Y-35790866D02*
X81066667Y-35714676D01*
X81066667Y-35714676D02*
X81028571Y-35638485D01*
X81028571Y-35638485D02*
X80990476Y-35600390D01*
X80990476Y-35600390D02*
X80914286Y-35562295D01*
X80914286Y-35562295D02*
X80723809Y-35562295D01*
X80723809Y-35562295D02*
X80609524Y-35600390D01*
X80342857Y-35562295D02*
X80152381Y-36362295D01*
X80152381Y-36362295D02*
X80000000Y-35790866D01*
X80000000Y-35790866D02*
X79847619Y-36362295D01*
X79847619Y-36362295D02*
X79657143Y-35562295D01*
X79428571Y-35562295D02*
X78895237Y-35562295D01*
X78895237Y-35562295D02*
X79238095Y-36362295D01*
X17066667Y-20324200D02*
X16952381Y-20362295D01*
X16952381Y-20362295D02*
X16761905Y-20362295D01*
X16761905Y-20362295D02*
X16685714Y-20324200D01*
X16685714Y-20324200D02*
X16647619Y-20286104D01*
X16647619Y-20286104D02*
X16609524Y-20209914D01*
X16609524Y-20209914D02*
X16609524Y-20133723D01*
X16609524Y-20133723D02*
X16647619Y-20057533D01*
X16647619Y-20057533D02*
X16685714Y-20019438D01*
X16685714Y-20019438D02*
X16761905Y-19981342D01*
X16761905Y-19981342D02*
X16914286Y-19943247D01*
X16914286Y-19943247D02*
X16990476Y-19905152D01*
X16990476Y-19905152D02*
X17028571Y-19867057D01*
X17028571Y-19867057D02*
X17066667Y-19790866D01*
X17066667Y-19790866D02*
X17066667Y-19714676D01*
X17066667Y-19714676D02*
X17028571Y-19638485D01*
X17028571Y-19638485D02*
X16990476Y-19600390D01*
X16990476Y-19600390D02*
X16914286Y-19562295D01*
X16914286Y-19562295D02*
X16723809Y-19562295D01*
X16723809Y-19562295D02*
X16609524Y-19600390D01*
X16342857Y-19562295D02*
X16152381Y-20362295D01*
X16152381Y-20362295D02*
X16000000Y-19790866D01*
X16000000Y-19790866D02*
X15847619Y-20362295D01*
X15847619Y-20362295D02*
X15657143Y-19562295D01*
X14933333Y-20362295D02*
X15390476Y-20362295D01*
X15161904Y-20362295D02*
X15161904Y-19562295D01*
X15161904Y-19562295D02*
X15238095Y-19676580D01*
X15238095Y-19676580D02*
X15314285Y-19752771D01*
X15314285Y-19752771D02*
X15390476Y-19790866D01*
X49066667Y-52324200D02*
X48952381Y-52362295D01*
X48952381Y-52362295D02*
X48761905Y-52362295D01*
X48761905Y-52362295D02*
X48685714Y-52324200D01*
X48685714Y-52324200D02*
X48647619Y-52286104D01*
X48647619Y-52286104D02*
X48609524Y-52209914D01*
X48609524Y-52209914D02*
X48609524Y-52133723D01*
X48609524Y-52133723D02*
X48647619Y-52057533D01*
X48647619Y-52057533D02*
X48685714Y-52019438D01*
X48685714Y-52019438D02*
X48761905Y-51981342D01*
X48761905Y-51981342D02*
X48914286Y-51943247D01*
X48914286Y-51943247D02*
X48990476Y-51905152D01*
X48990476Y-51905152D02*
X49028571Y-51867057D01*
X49028571Y-51867057D02*
X49066667Y-51790866D01*
X49066667Y-51790866D02*
X49066667Y-51714676D01*
X49066667Y-51714676D02*
X49028571Y-51638485D01*
X49028571Y-51638485D02*
X48990476Y-51600390D01*
X48990476Y-51600390D02*
X48914286Y-51562295D01*
X48914286Y-51562295D02*
X48723809Y-51562295D01*
X48723809Y-51562295D02*
X48609524Y-51600390D01*
X48342857Y-51562295D02*
X48152381Y-52362295D01*
X48152381Y-52362295D02*
X48000000Y-51790866D01*
X48000000Y-51790866D02*
X47847619Y-52362295D01*
X47847619Y-52362295D02*
X47657143Y-51562295D01*
X46971428Y-51562295D02*
X47352380Y-51562295D01*
X47352380Y-51562295D02*
X47390476Y-51943247D01*
X47390476Y-51943247D02*
X47352380Y-51905152D01*
X47352380Y-51905152D02*
X47276190Y-51867057D01*
X47276190Y-51867057D02*
X47085714Y-51867057D01*
X47085714Y-51867057D02*
X47009523Y-51905152D01*
X47009523Y-51905152D02*
X46971428Y-51943247D01*
X46971428Y-51943247D02*
X46933333Y-52019438D01*
X46933333Y-52019438D02*
X46933333Y-52209914D01*
X46933333Y-52209914D02*
X46971428Y-52286104D01*
X46971428Y-52286104D02*
X47009523Y-52324200D01*
X47009523Y-52324200D02*
X47085714Y-52362295D01*
X47085714Y-52362295D02*
X47276190Y-52362295D01*
X47276190Y-52362295D02*
X47352380Y-52324200D01*
X47352380Y-52324200D02*
X47390476Y-52286104D01*
X33066667Y-36324200D02*
X32952381Y-36362295D01*
X32952381Y-36362295D02*
X32761905Y-36362295D01*
X32761905Y-36362295D02*
X32685714Y-36324200D01*
X32685714Y-36324200D02*
X32647619Y-36286104D01*
X32647619Y-36286104D02*
X32609524Y-36209914D01*
X32609524Y-36209914D02*
X32609524Y-36133723D01*
X32609524Y-36133723D02*
X32647619Y-36057533D01*
X32647619Y-36057533D02*
X32685714Y-36019438D01*
X32685714Y-36019438D02*
X32761905Y-35981342D01*
X32761905Y-35981342D02*
X32914286Y-35943247D01*
X32914286Y-35943247D02*
X32990476Y-35905152D01*
X32990476Y-35905152D02*
X33028571Y-35867057D01*
X33028571Y-35867057D02*
X33066667Y-35790866D01*
X33066667Y-35790866D02*
X33066667Y-35714676D01*
X33066667Y-35714676D02*
X33028571Y-35638485D01*
X33028571Y-35638485D02*
X32990476Y-35600390D01*
X32990476Y-35600390D02*
X32914286Y-35562295D01*
X32914286Y-35562295D02*
X32723809Y-35562295D01*
X32723809Y-35562295D02*
X32609524Y-35600390D01*
X32342857Y-35562295D02*
X32152381Y-36362295D01*
X32152381Y-36362295D02*
X32000000Y-35790866D01*
X32000000Y-35790866D02*
X31847619Y-36362295D01*
X31847619Y-36362295D02*
X31657143Y-35562295D01*
X31390476Y-35638485D02*
X31352380Y-35600390D01*
X31352380Y-35600390D02*
X31276190Y-35562295D01*
X31276190Y-35562295D02*
X31085714Y-35562295D01*
X31085714Y-35562295D02*
X31009523Y-35600390D01*
X31009523Y-35600390D02*
X30971428Y-35638485D01*
X30971428Y-35638485D02*
X30933333Y-35714676D01*
X30933333Y-35714676D02*
X30933333Y-35790866D01*
X30933333Y-35790866D02*
X30971428Y-35905152D01*
X30971428Y-35905152D02*
X31428571Y-36362295D01*
X31428571Y-36362295D02*
X30933333Y-36362295D01*
X81066667Y-52324200D02*
X80952381Y-52362295D01*
X80952381Y-52362295D02*
X80761905Y-52362295D01*
X80761905Y-52362295D02*
X80685714Y-52324200D01*
X80685714Y-52324200D02*
X80647619Y-52286104D01*
X80647619Y-52286104D02*
X80609524Y-52209914D01*
X80609524Y-52209914D02*
X80609524Y-52133723D01*
X80609524Y-52133723D02*
X80647619Y-52057533D01*
X80647619Y-52057533D02*
X80685714Y-52019438D01*
X80685714Y-52019438D02*
X80761905Y-51981342D01*
X80761905Y-51981342D02*
X80914286Y-51943247D01*
X80914286Y-51943247D02*
X80990476Y-51905152D01*
X80990476Y-51905152D02*
X81028571Y-51867057D01*
X81028571Y-51867057D02*
X81066667Y-51790866D01*
X81066667Y-51790866D02*
X81066667Y-51714676D01*
X81066667Y-51714676D02*
X81028571Y-51638485D01*
X81028571Y-51638485D02*
X80990476Y-51600390D01*
X80990476Y-51600390D02*
X80914286Y-51562295D01*
X80914286Y-51562295D02*
X80723809Y-51562295D01*
X80723809Y-51562295D02*
X80609524Y-51600390D01*
X80342857Y-51562295D02*
X80152381Y-52362295D01*
X80152381Y-52362295D02*
X80000000Y-51790866D01*
X80000000Y-51790866D02*
X79847619Y-52362295D01*
X79847619Y-52362295D02*
X79657143Y-51562295D01*
X79238095Y-51905152D02*
X79314285Y-51867057D01*
X79314285Y-51867057D02*
X79352380Y-51828961D01*
X79352380Y-51828961D02*
X79390476Y-51752771D01*
X79390476Y-51752771D02*
X79390476Y-51714676D01*
X79390476Y-51714676D02*
X79352380Y-51638485D01*
X79352380Y-51638485D02*
X79314285Y-51600390D01*
X79314285Y-51600390D02*
X79238095Y-51562295D01*
X79238095Y-51562295D02*
X79085714Y-51562295D01*
X79085714Y-51562295D02*
X79009523Y-51600390D01*
X79009523Y-51600390D02*
X78971428Y-51638485D01*
X78971428Y-51638485D02*
X78933333Y-51714676D01*
X78933333Y-51714676D02*
X78933333Y-51752771D01*
X78933333Y-51752771D02*
X78971428Y-51828961D01*
X78971428Y-51828961D02*
X79009523Y-51867057D01*
X79009523Y-51867057D02*
X79085714Y-51905152D01*
X79085714Y-51905152D02*
X79238095Y-51905152D01*
X79238095Y-51905152D02*
X79314285Y-51943247D01*
X79314285Y-51943247D02*
X79352380Y-51981342D01*
X79352380Y-51981342D02*
X79390476Y-52057533D01*
X79390476Y-52057533D02*
X79390476Y-52209914D01*
X79390476Y-52209914D02*
X79352380Y-52286104D01*
X79352380Y-52286104D02*
X79314285Y-52324200D01*
X79314285Y-52324200D02*
X79238095Y-52362295D01*
X79238095Y-52362295D02*
X79085714Y-52362295D01*
X79085714Y-52362295D02*
X79009523Y-52324200D01*
X79009523Y-52324200D02*
X78971428Y-52286104D01*
X78971428Y-52286104D02*
X78933333Y-52209914D01*
X78933333Y-52209914D02*
X78933333Y-52057533D01*
X78933333Y-52057533D02*
X78971428Y-51981342D01*
X78971428Y-51981342D02*
X79009523Y-51943247D01*
X79009523Y-51943247D02*
X79085714Y-51905152D01*
X65066667Y-36324200D02*
X64952381Y-36362295D01*
X64952381Y-36362295D02*
X64761905Y-36362295D01*
X64761905Y-36362295D02*
X64685714Y-36324200D01*
X64685714Y-36324200D02*
X64647619Y-36286104D01*
X64647619Y-36286104D02*
X64609524Y-36209914D01*
X64609524Y-36209914D02*
X64609524Y-36133723D01*
X64609524Y-36133723D02*
X64647619Y-36057533D01*
X64647619Y-36057533D02*
X64685714Y-36019438D01*
X64685714Y-36019438D02*
X64761905Y-35981342D01*
X64761905Y-35981342D02*
X64914286Y-35943247D01*
X64914286Y-35943247D02*
X64990476Y-35905152D01*
X64990476Y-35905152D02*
X65028571Y-35867057D01*
X65028571Y-35867057D02*
X65066667Y-35790866D01*
X65066667Y-35790866D02*
X65066667Y-35714676D01*
X65066667Y-35714676D02*
X65028571Y-35638485D01*
X65028571Y-35638485D02*
X64990476Y-35600390D01*
X64990476Y-35600390D02*
X64914286Y-35562295D01*
X64914286Y-35562295D02*
X64723809Y-35562295D01*
X64723809Y-35562295D02*
X64609524Y-35600390D01*
X64342857Y-35562295D02*
X64152381Y-36362295D01*
X64152381Y-36362295D02*
X64000000Y-35790866D01*
X64000000Y-35790866D02*
X63847619Y-36362295D01*
X63847619Y-36362295D02*
X63657143Y-35562295D01*
X63009523Y-35562295D02*
X63161904Y-35562295D01*
X63161904Y-35562295D02*
X63238095Y-35600390D01*
X63238095Y-35600390D02*
X63276190Y-35638485D01*
X63276190Y-35638485D02*
X63352380Y-35752771D01*
X63352380Y-35752771D02*
X63390476Y-35905152D01*
X63390476Y-35905152D02*
X63390476Y-36209914D01*
X63390476Y-36209914D02*
X63352380Y-36286104D01*
X63352380Y-36286104D02*
X63314285Y-36324200D01*
X63314285Y-36324200D02*
X63238095Y-36362295D01*
X63238095Y-36362295D02*
X63085714Y-36362295D01*
X63085714Y-36362295D02*
X63009523Y-36324200D01*
X63009523Y-36324200D02*
X62971428Y-36286104D01*
X62971428Y-36286104D02*
X62933333Y-36209914D01*
X62933333Y-36209914D02*
X62933333Y-36019438D01*
X62933333Y-36019438D02*
X62971428Y-35943247D01*
X62971428Y-35943247D02*
X63009523Y-35905152D01*
X63009523Y-35905152D02*
X63085714Y-35867057D01*
X63085714Y-35867057D02*
X63238095Y-35867057D01*
X63238095Y-35867057D02*
X63314285Y-35905152D01*
X63314285Y-35905152D02*
X63352380Y-35943247D01*
X63352380Y-35943247D02*
X63390476Y-36019438D01*
X55953333Y1648180D02*
X55953333Y933895D01*
X55953333Y933895D02*
X56000952Y791038D01*
X56000952Y791038D02*
X56096190Y695800D01*
X56096190Y695800D02*
X56239047Y648180D01*
X56239047Y648180D02*
X56334285Y648180D01*
X55524761Y1552942D02*
X55477142Y1600561D01*
X55477142Y1600561D02*
X55381904Y1648180D01*
X55381904Y1648180D02*
X55143809Y1648180D01*
X55143809Y1648180D02*
X55048571Y1600561D01*
X55048571Y1600561D02*
X55000952Y1552942D01*
X55000952Y1552942D02*
X54953333Y1457704D01*
X54953333Y1457704D02*
X54953333Y1362466D01*
X54953333Y1362466D02*
X55000952Y1219609D01*
X55000952Y1219609D02*
X55572380Y648180D01*
X55572380Y648180D02*
X54953333Y648180D01*
X40713333Y1648180D02*
X40713333Y933895D01*
X40713333Y933895D02*
X40760952Y791038D01*
X40760952Y791038D02*
X40856190Y695800D01*
X40856190Y695800D02*
X40999047Y648180D01*
X40999047Y648180D02*
X41094285Y648180D01*
X39713333Y648180D02*
X40284761Y648180D01*
X39999047Y648180D02*
X39999047Y1648180D01*
X39999047Y1648180D02*
X40094285Y1505323D01*
X40094285Y1505323D02*
X40189523Y1410085D01*
X40189523Y1410085D02*
X40284761Y1362466D01*
D12*
%TO.C,J2*%
X54290000Y-337000D02*
X54290000Y-1667000D01*
X54290000Y-2937000D02*
X54290000Y-36017000D01*
X55620000Y-337000D02*
X54290000Y-337000D01*
X56950000Y-2937000D02*
X54290000Y-2937000D01*
X56950000Y-2937000D02*
X56950000Y-36017000D01*
X56950000Y-36017000D02*
X54290000Y-36017000D01*
%TO.C,J1*%
X39050000Y-337000D02*
X39050000Y-1667000D01*
X39050000Y-2937000D02*
X39050000Y-36017000D01*
X40380000Y-337000D02*
X39050000Y-337000D01*
X41710000Y-2937000D02*
X39050000Y-2937000D01*
X41710000Y-2937000D02*
X41710000Y-36017000D01*
X41710000Y-36017000D02*
X39050000Y-36017000D01*
%TD*%
%LPC*%
D13*
%TO.C,H2*%
X92000000Y-4000000D03*
%TD*%
%TO.C,H3*%
X4000000Y-60000000D03*
%TD*%
%TO.C,H1*%
X4000000Y-4000000D03*
%TD*%
D14*
%TO.C,SW3*%
X16000000Y-48000000D03*
D15*
X19800000Y-51800000D03*
X16000000Y-54500000D03*
%TD*%
D16*
%TO.C,J3*%
X30000000Y-9700000D03*
D17*
X30000000Y-12240000D03*
X30000000Y-14780000D03*
X30000000Y-17320000D03*
%TD*%
D13*
%TO.C,H4*%
X92000000Y-60000000D03*
%TD*%
D14*
%TO.C,SW4*%
X32000000Y-48000000D03*
D15*
X35800000Y-51800000D03*
X32000000Y-54500000D03*
%TD*%
D14*
%TO.C,SW7*%
X80000000Y-32000000D03*
D15*
X83800000Y-35800000D03*
X80000000Y-38500000D03*
%TD*%
D14*
%TO.C,SW1*%
X16000000Y-16000000D03*
D15*
X19800000Y-19800000D03*
X16000000Y-22500000D03*
%TD*%
D14*
%TO.C,SW5*%
X48000000Y-48000000D03*
D15*
X51800000Y-51800000D03*
X48000000Y-54500000D03*
%TD*%
D14*
%TO.C,SW2*%
X32000000Y-32000000D03*
D15*
X35800000Y-35800000D03*
X32000000Y-38500000D03*
%TD*%
D14*
%TO.C,SW8*%
X80000000Y-48000000D03*
D15*
X83800000Y-51800000D03*
X80000000Y-54500000D03*
%TD*%
D14*
%TO.C,SW6*%
X64000000Y-32000000D03*
D15*
X67800000Y-35800000D03*
X64000000Y-38500000D03*
%TD*%
D16*
%TO.C,J2*%
X55620000Y-1667000D03*
D17*
X55620000Y-4207000D03*
X55620000Y-6747000D03*
X55620000Y-9287000D03*
X55620000Y-11827000D03*
X55620000Y-14367000D03*
X55620000Y-16907000D03*
X55620000Y-19447000D03*
X55620000Y-21987000D03*
X55620000Y-24527000D03*
X55620000Y-27067000D03*
X55620000Y-29607000D03*
X55620000Y-32147000D03*
X55620000Y-34687000D03*
%TD*%
D16*
%TO.C,J1*%
X40380000Y-1667000D03*
D17*
X40380000Y-4207000D03*
X40380000Y-6747000D03*
X40380000Y-9287000D03*
X40380000Y-11827000D03*
X40380000Y-14367000D03*
X40380000Y-16907000D03*
X40380000Y-19447000D03*
X40380000Y-21987000D03*
X40380000Y-24527000D03*
X40380000Y-27067000D03*
X40380000Y-29607000D03*
X40380000Y-32147000D03*
X40380000Y-34687000D03*
%TD*%
%LPD*%
M02*
